<?xml version="1.0" standalone="no"?>
<!DOCTYPE svg PUBLIC "-//W3C//DTD SVG 1.1//EN" "http://www.w3.org/Graphics/SVG/1.1/DTD/svg11.dtd" >
<svg xmlns="http://www.w3.org/2000/svg" xmlns:xlink="http://www.w3.org/1999/xlink" version="1.1">
<metadata>
Created by FontForge 20150824 at Wed Jan 20 20:43:30 2016
 By Everything Fonts
angela thomas schmid / prolitteris
</metadata>
<defs>
<font id="billcorporatemedium-extrabold" horiz-adv-x="288" >
  <font-face 
    font-family="billcorporatemedium-extrabold"
    font-weight="400"
    font-stretch="normal"
    units-per-em="1200"
    panose-1="2 11 7 3 5 0 0 2 0 4"
    ascent="874"
    descent="-326"
    x-height="556"
    cap-height="850"
    bbox="-111 -523 1582 1275"
    underline-thickness="50"
    underline-position="-100"
    unicode-range="U+000D-FB02"
  />
<missing-glyph horiz-adv-x="809" 
d="M122 -523v1798h563v-1798h-563zM604 -445v1642h-401v-1642h401zM398.5 428q34.5 35 34.5 58q0 25 -18 38t-44 13q-25 0 -57.5 -17t-54.5 -40l-17 113q21 23 58.5 38.5t78.5 15.5q78 0 128 -39t50 -113q0 -47 -22.5 -84t-66 -72t-130.5 -93l-51 95q77 52 111.5 87z
M330 124q-19 19 -19 46t19 46t46 19t46 -19t19 -46t-19 -46t-46 -19t-46 19z" />
    <glyph glyph-name=".notdef" horiz-adv-x="809" 
d="M122 -523v1798h563v-1798h-563zM604 -445v1642h-401v-1642h401zM398.5 428q34.5 35 34.5 58q0 25 -18 38t-44 13q-25 0 -57.5 -17t-54.5 -40l-17 113q21 23 58.5 38.5t78.5 15.5q78 0 128 -39t50 -113q0 -47 -22.5 -84t-66 -72t-130.5 -93l-51 95q77 52 111.5 87z
M330 124q-19 19 -19 46t19 46t46 19t46 -19t19 -46t-19 -46t-46 -19t-46 19z" />
    <glyph glyph-name="nonmarkingreturn" unicode="&#xd;" horiz-adv-x="200" 
 />
    <glyph glyph-name="space" unicode=" " horiz-adv-x="253" 
 />
    <glyph glyph-name="A" unicode="A" horiz-adv-x="999" 
d="M189 0h-195l506 884l506 -884h-197l-91 163h-437zM359 302h279l-140 248z" />
    <glyph glyph-name="Aacute" unicode="&#xc1;" horiz-adv-x="999" 
d="M189 0h-195l506 884l506 -884h-197l-91 163h-437zM359 302h279l-140 248zM302 1017l273 126l60 -111l-273 -127z" />
    <glyph glyph-name="Abreve" unicode="&#x102;" horiz-adv-x="999" 
d="M189 0h-195l506 884l506 -884h-197l-91 163h-437zM359 302h279l-140 248zM672 1038.5q-27 -45.5 -72.5 -72.5t-100.5 -27t-100.5 27t-72.5 72.5t-27 100.5h106q4 -34 30.5 -56.5t63.5 -22.5q36 0 62.5 22.5t31.5 56.5h106q0 -55 -27 -100.5z" />
    <glyph glyph-name="Acircumflex" unicode="&#xc2;" horiz-adv-x="999" 
d="M189 0h-195l506 884l506 -884h-197l-91 163h-437zM359 302h279l-140 248zM397 915l-79 75l181 183l181 -183l-79 -75l-102 89z" />
    <glyph glyph-name="Adieresis" unicode="&#xc4;" horiz-adv-x="999" 
d="M189 0h-195l506 884l506 -884h-197l-91 163h-437zM359 302h279l-140 248zM303.5 977q-24.5 24 -24.5 63t24.5 63t63.5 24t63.5 -24t24.5 -63t-24.5 -63t-63.5 -24t-63.5 24zM566 977q-25 24 -25 63t25 63t64 24t63.5 -24t24.5 -63t-24.5 -63t-63.5 -24t-64 24z" />
    <glyph glyph-name="Agrave" unicode="&#xc0;" horiz-adv-x="999" 
d="M189 0h-195l506 884l506 -884h-197l-91 163h-437zM359 302h279l-140 248zM695 1017l-60 -112l-273 127l60 111z" />
    <glyph glyph-name="Amacron" unicode="&#x100;" horiz-adv-x="999" 
d="M189 0h-195l506 884l506 -884h-197l-91 163h-437zM359 302h279l-140 248zM333 1085h331v-125h-331v125z" />
    <glyph glyph-name="Aogonek" unicode="&#x104;" horiz-adv-x="999" 
d="M189 0h-195l506 884l506 -884h-197l-91 163h-437zM359 302h279l-140 248zM1092 -224h-170l-81 144h169z" />
    <glyph glyph-name="Aring" unicode="&#xc5;" horiz-adv-x="999" 
d="M189 0h-195l506 884l506 -884h-197l-91 163h-437zM359 302h279l-140 248zM426 938q-33 19 -52 51.5t-19 70.5t19 70.5t52 51.5t72 19t72 -19t52.5 -51.5t19.5 -70.5t-19.5 -70.5t-52.5 -51.5t-72 -19t-72 19zM537 1020.5q16 16.5 16 39.5t-16 39.5t-39 16.5
q-22 0 -38 -16.5t-16 -39.5t16 -39.5t38 -16.5q23 0 39 16.5z" />
    <glyph glyph-name="Atilde" unicode="&#xc3;" horiz-adv-x="999" 
d="M189 0h-195l506 884l506 -884h-197l-91 163h-437zM359 302h279l-140 248zM636.5 964.5q-32.5 -28.5 -76.5 -28.5q-24 0 -42 8t-38 22q-10 7 -20.5 12.5t-19.5 5.5q-13 0 -25 -9.5t-25 -33.5l-76 62q15 49 47.5 77t76.5 28q24 0 41.5 -7.5t38.5 -21.5q13 -9 22 -13.5
t18 -4.5q13 0 25 9.5t25 33.5l76 -62q-15 -49 -47.5 -77.5z" />
    <glyph glyph-name="AE" unicode="&#xc6;" horiz-adv-x="1195" 
d="M189 0h-195l486 850h664v-159h-513l68 -190h428v-152h-373l68 -194h322v-155h-453l-57 163h-353zM359 302h226l-87 248z" />
    <glyph glyph-name="B" unicode="B" horiz-adv-x="843" 
d="M780 381q35 -51 35 -124q0 -71 -35.5 -129.5t-99 -93t-142.5 -34.5h-469v850h453q78 0 137.5 -29.5t92 -81t32.5 -115.5q0 -57 -27.5 -101.5t-73.5 -68.5q62 -22 97 -73zM578 535q31 27 31 68t-31 68t-84 27h-247v-190h247q53 0 84 27zM598.5 180.5q34.5 30.5 34.5 76.5
t-34.5 76.5t-92.5 30.5h-259v-214h259q58 0 92.5 30.5z" />
    <glyph glyph-name="C" unicode="C" horiz-adv-x="795" 
d="M497 703q-78 0 -142.5 -37.5t-101.5 -101.5t-37 -139t37 -139t101.5 -101.5t142.5 -37.5q139 0 257 102v-195q-99 -73 -257 -73q-128 0 -233.5 59.5t-167 161.5t-61.5 223t61.5 223t167 161.5t233.5 59.5q158 0 261 -76l-3 -193q-118 103 -258 103z" />
    <glyph glyph-name="Cacute" unicode="&#x106;" horiz-adv-x="795" 
d="M497 703q-78 0 -142.5 -37.5t-101.5 -101.5t-37 -139t37 -139t101.5 -101.5t142.5 -37.5q139 0 257 102v-195q-99 -73 -257 -73q-128 0 -233.5 59.5t-167 161.5t-61.5 223t61.5 223t167 161.5t233.5 59.5q158 0 261 -76l-3 -193q-118 103 -258 103zM300 1017l273 126
l60 -111l-273 -127z" />
    <glyph glyph-name="Ccaron" unicode="&#x10c;" horiz-adv-x="795" 
d="M497 703q-78 0 -142.5 -37.5t-101.5 -101.5t-37 -139t37 -139t101.5 -101.5t142.5 -37.5q139 0 257 102v-195q-99 -73 -257 -73q-128 0 -233.5 59.5t-167 161.5t-61.5 223t61.5 223t167 161.5t233.5 59.5q158 0 261 -76l-3 -193q-118 103 -258 103zM497 915l-181 183
l79 75l102 -89l102 89l79 -75z" />
    <glyph glyph-name="Ccedilla" unicode="&#xc7;" horiz-adv-x="795" 
d="M497 703q-78 0 -142.5 -37.5t-101.5 -101.5t-37 -139t37 -139t101.5 -101.5t142.5 -37.5q139 0 257 102v-195q-99 -73 -257 -73q-128 0 -233.5 59.5t-167 161.5t-61.5 223t61.5 223t167 161.5t233.5 59.5q158 0 261 -76l-3 -193q-118 103 -258 103zM331 -224l81 144h170
l-82 -144h-169z" />
    <glyph glyph-name="Ccircumflex" unicode="&#x108;" horiz-adv-x="795" 
d="M497 703q-78 0 -142.5 -37.5t-101.5 -101.5t-37 -139t37 -139t101.5 -101.5t142.5 -37.5q139 0 257 102v-195q-99 -73 -257 -73q-128 0 -233.5 59.5t-167 161.5t-61.5 223t61.5 223t167 161.5t233.5 59.5q158 0 261 -76l-3 -193q-118 103 -258 103zM395 915l-79 75
l181 183l181 -183l-79 -75l-102 89z" />
    <glyph glyph-name="Cdotaccent" unicode="&#x10a;" horiz-adv-x="795" 
d="M497 703q-78 0 -142.5 -37.5t-101.5 -101.5t-37 -139t37 -139t101.5 -101.5t142.5 -37.5q139 0 257 102v-195q-99 -73 -257 -73q-128 0 -233.5 59.5t-167 161.5t-61.5 223t61.5 223t167 161.5t233.5 59.5q158 0 261 -76l-3 -193q-118 103 -258 103zM429.5 972
q-26.5 26 -26.5 68t26.5 67.5t68.5 25.5q41 0 67.5 -25.5t26.5 -67.5t-26.5 -68t-67.5 -26q-42 0 -68.5 26z" />
    <glyph glyph-name="D" unicode="D" horiz-adv-x="901" 
d="M636.5 794q108.5 -56 168 -153t59.5 -216t-59.5 -216t-168 -153t-250.5 -56h-317v850h317q142 0 250.5 -56zM543 191.5q66 34.5 103 96t37 137.5t-37 137.5t-103 96t-152 34.5h-144v-536h144q86 0 152 34.5z" />
    <glyph glyph-name="Eth" unicode="&#xd0;" horiz-adv-x="908" 
d="M644.5 794q108.5 -56 168 -153t59.5 -216t-59.5 -216t-168 -153t-250.5 -56h-317v362h-69v126h69v362h317q142 0 250.5 -56zM551 191.5q66 34.5 103 96t37 137.5t-37 137.5t-103 96t-152 34.5h-144v-205h164v-126h-164v-205h144q86 0 152 34.5z" />
    <glyph glyph-name="Dcaron" unicode="&#x10e;" horiz-adv-x="901" 
d="M636.5 794q108.5 -56 168 -153t59.5 -216t-59.5 -216t-168 -153t-250.5 -56h-317v850h317q142 0 250.5 -56zM543 191.5q66 34.5 103 96t37 137.5t-37 137.5t-103 96t-152 34.5h-144v-536h144q86 0 152 34.5zM400 915l-181 183l79 75l102 -89l102 89l79 -75z" />
    <glyph glyph-name="Dcroat" unicode="&#x110;" horiz-adv-x="908" 
d="M644.5 794q108.5 -56 168 -153t59.5 -216t-59.5 -216t-168 -153t-250.5 -56h-317v362h-69v126h69v362h317q142 0 250.5 -56zM551 191.5q66 34.5 103 96t37 137.5t-37 137.5t-103 96t-152 34.5h-144v-205h164v-126h-164v-205h144q86 0 152 34.5z" />
    <glyph glyph-name="E" unicode="E" horiz-adv-x="775" 
d="M703 501v-152h-456v-194h476v-155h-654v850h654v-159h-476v-190h456z" />
    <glyph glyph-name="Eacute" unicode="&#xc9;" horiz-adv-x="775" 
d="M703 501v-152h-456v-194h476v-155h-654v850h654v-159h-476v-190h456zM199 1017l273 126l60 -111l-273 -127z" />
    <glyph glyph-name="Ebreve" unicode="&#x114;" horiz-adv-x="775" 
d="M703 501v-152h-456v-194h476v-155h-654v850h654v-159h-476v-190h456zM569 1038.5q-27 -45.5 -72.5 -72.5t-100.5 -27t-100.5 27t-72.5 72.5t-27 100.5h106q4 -34 30.5 -56.5t63.5 -22.5q36 0 62.5 22.5t31.5 56.5h106q0 -55 -27 -100.5z" />
    <glyph glyph-name="Ecaron" unicode="&#x11a;" horiz-adv-x="775" 
d="M703 501v-152h-456v-194h476v-155h-654v850h654v-159h-476v-190h456zM396 915l-181 183l79 75l102 -89l102 89l79 -75z" />
    <glyph glyph-name="Ecircumflex" unicode="&#xca;" horiz-adv-x="775" 
d="M703 501v-152h-456v-194h476v-155h-654v850h654v-159h-476v-190h456zM294 915l-79 75l181 183l181 -183l-79 -75l-102 89z" />
    <glyph glyph-name="Edieresis" unicode="&#xcb;" horiz-adv-x="775" 
d="M703 501v-152h-456v-194h476v-155h-654v850h654v-159h-476v-190h456zM201.5 977q-24.5 24 -24.5 63t24.5 63t63.5 24t63.5 -24t24.5 -63t-24.5 -63t-63.5 -24t-63.5 24zM464 977q-25 24 -25 63t25 63t64 24t63.5 -24t24.5 -63t-24.5 -63t-63.5 -24t-64 24z" />
    <glyph glyph-name="Edotaccent" unicode="&#x116;" horiz-adv-x="775" 
d="M703 501v-152h-456v-194h476v-155h-654v850h654v-159h-476v-190h456zM328.5 972q-26.5 26 -26.5 68t26.5 67.5t68.5 25.5q41 0 67.5 -25.5t26.5 -67.5t-26.5 -68t-67.5 -26q-42 0 -68.5 26z" />
    <glyph glyph-name="Egrave" unicode="&#xc8;" horiz-adv-x="775" 
d="M703 501v-152h-456v-194h476v-155h-654v850h654v-159h-476v-190h456zM593 1017l-60 -112l-273 127l60 111z" />
    <glyph glyph-name="Emacron" unicode="&#x112;" horiz-adv-x="775" 
d="M703 501v-152h-456v-194h476v-155h-654v850h654v-159h-476v-190h456zM231 1085h331v-125h-331v125z" />
    <glyph glyph-name="Eogonek" unicode="&#x118;" horiz-adv-x="775" 
d="M703 501v-152h-456v-194h476v-155h-654v850h654v-159h-476v-190h456zM563 -224h-170l-81 144h169z" />
    <glyph glyph-name="F" unicode="F" horiz-adv-x="755" 
d="M247 501h456v-152h-456v-349h-178v850h654v-159h-476v-190z" />
    <glyph glyph-name="G" unicode="G" horiz-adv-x="940" 
d="M721 14.5q-91 -33.5 -214 -33.5q-132 0 -240 59.5t-170 161.5t-62 223t61.5 223t167 161.5t233.5 59.5q120 0 212 -41.5t154 -106.5l-79 -141q-64 56 -137.5 88t-149.5 32q-78 0 -142.5 -37t-101.5 -100t-37 -138t37.5 -138.5t104 -100.5t149.5 -37q65 0 113 13t95 39
v103h-212v146h381v-348q-72 -54 -163 -87.5z" />
    <glyph glyph-name="Gbreve" unicode="&#x11e;" horiz-adv-x="940" 
d="M721 14.5q-91 -33.5 -214 -33.5q-132 0 -240 59.5t-170 161.5t-62 223t61.5 223t167 161.5t233.5 59.5q120 0 212 -41.5t154 -106.5l-79 -141q-64 56 -137.5 88t-149.5 32q-78 0 -142.5 -37t-101.5 -100t-37 -138t37.5 -138.5t104 -100.5t149.5 -37q65 0 113 13t95 39
v103h-212v146h381v-348q-72 -54 -163 -87.5zM670 1038.5q-27 -45.5 -72.5 -72.5t-100.5 -27t-100.5 27t-72.5 72.5t-27 100.5h106q4 -34 30.5 -56.5t63.5 -22.5q36 0 62.5 22.5t31.5 56.5h106q0 -55 -27 -100.5z" />
    <glyph glyph-name="Gcircumflex" unicode="&#x11c;" horiz-adv-x="940" 
d="M721 14.5q-91 -33.5 -214 -33.5q-132 0 -240 59.5t-170 161.5t-62 223t61.5 223t167 161.5t233.5 59.5q120 0 212 -41.5t154 -106.5l-79 -141q-64 56 -137.5 88t-149.5 32q-78 0 -142.5 -37t-101.5 -100t-37 -138t37.5 -138.5t104 -100.5t149.5 -37q65 0 113 13t95 39
v103h-212v146h381v-348q-72 -54 -163 -87.5zM395 915l-79 75l181 183l181 -183l-79 -75l-102 89z" />
    <glyph glyph-name="Gcommaaccent" unicode="&#x122;" horiz-adv-x="940" 
d="M721 14.5q-91 -33.5 -214 -33.5q-132 0 -240 59.5t-170 161.5t-62 223t61.5 223t167 161.5t233.5 59.5q120 0 212 -41.5t154 -106.5l-79 -141q-64 56 -137.5 88t-149.5 32q-78 0 -142.5 -37t-101.5 -100t-37 -138t37.5 -138.5t104 -100.5t149.5 -37q65 0 113 13t95 39
v103h-212v146h381v-348q-72 -54 -163 -87.5zM340 -224l81 144h170l-82 -144h-169z" />
    <glyph glyph-name="Gdotaccent" unicode="&#x120;" horiz-adv-x="940" 
d="M721 14.5q-91 -33.5 -214 -33.5q-132 0 -240 59.5t-170 161.5t-62 223t61.5 223t167 161.5t233.5 59.5q120 0 212 -41.5t154 -106.5l-79 -141q-64 56 -137.5 88t-149.5 32q-78 0 -142.5 -37t-101.5 -100t-37 -138t37.5 -138.5t104 -100.5t149.5 -37q65 0 113 13t95 39
v103h-212v146h381v-348q-72 -54 -163 -87.5zM429.5 972q-26.5 26 -26.5 68t26.5 67.5t68.5 25.5q41 0 67.5 -25.5t26.5 -67.5t-26.5 -68t-67.5 -26q-42 0 -68.5 26z" />
    <glyph glyph-name="H" unicode="H" horiz-adv-x="944" 
d="M873 0h-178v346h-448v-346h-178v850h178v-346h448v346h178v-850z" />
    <glyph glyph-name="Hbar" unicode="&#x126;" horiz-adv-x="944" 
d="M874 604v-604h-178v346h-448v-346h-178v604h-53v118h53v128h178v-128h448v128h178v-128h53v-118h-53zM248 604v-100h448v100h-448z" />
    <glyph glyph-name="Hcircumflex" unicode="&#x124;" horiz-adv-x="944" 
d="M873 0h-178v346h-448v-346h-178v850h178v-346h448v346h178v-850zM369 915l-79 75l181 183l181 -183l-79 -75l-102 89z" />
    <glyph glyph-name="I" unicode="I" horiz-adv-x="318" 
d="M69 850h178v-850h-178v850z" />
    <glyph glyph-name="IJ" unicode="&#x132;" horiz-adv-x="1025" 
d="M69 850h178v-850h-178v850zM912.5 132q-42.5 -73 -116.5 -112t-167 -39q-79 0 -146.5 31t-112.5 89.5t-58 136.5l156 42q14 -67 59 -104.5t100 -37.5q38 0 72.5 19t56 56.5t21.5 88.5v548h178v-546q0 -99 -42.5 -172z" />
    <glyph glyph-name="Iacute" unicode="&#xcd;" horiz-adv-x="318" 
d="M69 850h178v-850h-178v850zM-39 1017l273 126l60 -111l-273 -127z" />
    <glyph glyph-name="Ibreve" unicode="&#x12c;" horiz-adv-x="318" 
d="M69 850h178v-850h-178v850zM331 1038.5q-27 -45.5 -72.5 -72.5t-100.5 -27t-100.5 27t-72.5 72.5t-27 100.5h106q4 -34 30.5 -56.5t63.5 -22.5q36 0 62.5 22.5t31.5 56.5h106q0 -55 -27 -100.5z" />
    <glyph glyph-name="Icircumflex" unicode="&#xce;" horiz-adv-x="318" 
d="M69 850h178v-850h-178v850zM56 915l-79 75l181 183l181 -183l-79 -75l-102 89z" />
    <glyph glyph-name="Idieresis" unicode="&#xcf;" horiz-adv-x="318" 
d="M69 850h178v-850h-178v850zM-36.5 977q-24.5 24 -24.5 63t24.5 63t63.5 24t63.5 -24t24.5 -63t-24.5 -63t-63.5 -24t-63.5 24zM226 977q-25 24 -25 63t25 63t64 24t63.5 -24t24.5 -63t-24.5 -63t-63.5 -24t-64 24z" />
    <glyph glyph-name="Idotaccent" unicode="&#x130;" horiz-adv-x="318" 
d="M69 850h178v-850h-178v850zM90.5 972q-26.5 26 -26.5 68t26.5 67.5t68.5 25.5q41 0 67.5 -25.5t26.5 -67.5t-26.5 -68t-67.5 -26q-42 0 -68.5 26z" />
    <glyph glyph-name="Igrave" unicode="&#xcc;" horiz-adv-x="318" 
d="M69 850h178v-850h-178v850zM355 1017l-60 -112l-273 127l60 111z" />
    <glyph glyph-name="Imacron" unicode="&#x12a;" horiz-adv-x="318" 
d="M69 850h178v-850h-178v850zM-7 1085h331v-125h-331v125z" />
    <glyph glyph-name="Iogonek" unicode="&#x12e;" horiz-adv-x="318" 
d="M69 850h178v-850h-178v850zM324 -224h-170l-81 144h169z" />
    <glyph glyph-name="Itilde" unicode="&#x128;" horiz-adv-x="318" 
d="M69 850h178v-850h-178v850zM295.5 964.5q-32.5 -28.5 -76.5 -28.5q-24 0 -42 8t-38 22q-10 7 -20.5 12.5t-19.5 5.5q-13 0 -25 -9.5t-25 -33.5l-76 62q15 49 47.5 77t76.5 28q24 0 41.5 -7.5t38.5 -21.5q13 -9 22 -13.5t18 -4.5q13 0 25 9.5t25 33.5l76 -62
q-15 -49 -47.5 -77.5z" />
    <glyph glyph-name="J" unicode="J" horiz-adv-x="707" 
d="M594.5 132q-42.5 -73 -116.5 -112t-167 -39q-79 0 -146.5 31t-112.5 89.5t-58 136.5l156 42q14 -67 59 -104.5t100 -37.5q38 0 72.5 19t56 56.5t21.5 88.5v548h178v-546q0 -99 -42.5 -172z" />
    <glyph glyph-name="Jcircumflex" unicode="&#x134;" horiz-adv-x="707" 
d="M594.5 132q-42.5 -73 -116.5 -112t-167 -39q-79 0 -146.5 31t-112.5 89.5t-58 136.5l156 42q14 -67 59 -104.5t100 -37.5q38 0 72.5 19t56 56.5t21.5 88.5v548h178v-546q0 -99 -42.5 -172zM445 915l-79 75l181 183l181 -183l-79 -75l-102 89z" />
    <glyph glyph-name="K" unicode="K" horiz-adv-x="885" 
d="M247 0h-178v850h178v-353l375 353h241l-364 -341l389 -509h-220l-297 388l-124 -116v-272z" />
    <glyph glyph-name="Kcommaaccent" unicode="&#x136;" horiz-adv-x="885" 
d="M247 0h-178v850h178v-353l375 353h241l-364 -341l389 -509h-220l-297 388l-124 -116v-272zM279 -224l81 144h170l-82 -144h-169z" />
    <glyph glyph-name="L" unicode="L" horiz-adv-x="741" 
d="M69 850h178v-695h476v-155h-654v850z" />
    <glyph glyph-name="Lacute" unicode="&#x139;" horiz-adv-x="741" 
d="M69 850h178v-695h476v-155h-654v850zM-39 1017l273 126l60 -111l-273 -127z" />
    <glyph glyph-name="Lcaron" unicode="&#x13d;" horiz-adv-x="741" 
d="M69 850h178v-695h476v-155h-654v850zM399 850h158l-109 -271h-157z" />
    <glyph glyph-name="Lcommaaccent" unicode="&#x13b;" horiz-adv-x="741" 
d="M69 850h178v-695h476v-155h-654v850zM230 -224l81 144h170l-82 -144h-169z" />
    <glyph glyph-name="Ldot" unicode="&#x13f;" horiz-adv-x="741" 
d="M69 850h178v-695h476v-155h-654v850zM378 409.5q-29 28.5 -29 69.5t29 69.5t70 28.5t69.5 -28.5t28.5 -69.5t-28.5 -69.5t-69.5 -28.5t-70 28.5z" />
    <glyph glyph-name="Lslash" unicode="&#x141;" horiz-adv-x="741" 
d="M724 0h-654v281l-38 -23l-58 109l96 60v423h177v-314l124 76l58 -108l-182 -113v-236h477v-155z" />
    <glyph glyph-name="M" unicode="M" horiz-adv-x="1109" 
d="M1037 884v-884h-172v388l-312 -422l-311 422v-388h-173v884l484 -643z" />
    <glyph glyph-name="N" unicode="N" horiz-adv-x="983" 
d="M740 325v525h172v-884l-670 559v-525h-173v884z" />
    <glyph glyph-name="Nacute" unicode="&#x143;" horiz-adv-x="983" 
d="M740 325v525h172v-884l-670 559v-525h-173v884zM286 1017l273 126l60 -111l-273 -127z" />
    <glyph glyph-name="Ncaron" unicode="&#x147;" horiz-adv-x="983" 
d="M740 325v525h172v-884l-670 559v-525h-173v884zM483 915l-181 183l79 75l102 -89l102 89l79 -75z" />
    <glyph glyph-name="Ncommaaccent" unicode="&#x145;" horiz-adv-x="983" 
d="M740 325v525h172v-884l-670 559v-525h-173v884zM372 -224l81 144h170l-82 -144h-169z" />
    <glyph glyph-name="Eng" unicode="&#x14a;" horiz-adv-x="983" 
d="M869.5 -115.5q-42.5 -73.5 -116.5 -112.5t-167 -39q-79 0 -145.5 31.5t-110.5 90t-57 136.5l155 42q15 -67 58.5 -104.5t98.5 -37.5q38 0 73.5 19t58.5 56t23 88v53l-498 418v-525h-173v884l671 -559v525h172v-793q0 -99 -42.5 -172.5z" />
    <glyph glyph-name="Ntilde" unicode="&#xd1;" horiz-adv-x="983" 
d="M740 325v525h172v-884l-670 559v-525h-173v884zM619.5 964.5q-32.5 -28.5 -76.5 -28.5q-24 0 -42 8t-38 22q-10 7 -20.5 12.5t-19.5 5.5q-13 0 -25 -9.5t-25 -33.5l-76 62q15 49 47.5 77t76.5 28q24 0 41.5 -7.5t38.5 -21.5q13 -9 22 -13.5t18 -4.5q13 0 25 9.5t25 33.5
l76 -62q-15 -49 -47.5 -77.5z" />
    <glyph glyph-name="O" unicode="O" horiz-adv-x="976" 
d="M713 809q104 -60 165 -162t61 -222t-61 -222t-165 -162t-226 -60q-123 0 -227 60t-164.5 161.5t-60.5 222.5t60.5 222.5t164.5 161.5t227 60q122 0 226 -60zM622 188.5q62 36.5 98.5 99.5t36.5 137t-36.5 137t-98.5 99.5t-135 36.5q-74 0 -136 -36.5t-98.5 -99.5
t-36.5 -137t36.5 -137t98.5 -99.5t136 -36.5q73 0 135 36.5z" />
    <glyph glyph-name="Oacute" unicode="&#xd3;" horiz-adv-x="976" 
d="M713 809q104 -60 165 -162t61 -222t-61 -222t-165 -162t-226 -60q-123 0 -227 60t-164.5 161.5t-60.5 222.5t60.5 222.5t164.5 161.5t227 60q122 0 226 -60zM622 188.5q62 36.5 98.5 99.5t36.5 137t-36.5 137t-98.5 99.5t-135 36.5q-74 0 -136 -36.5t-98.5 -99.5
t-36.5 -137t36.5 -137t98.5 -99.5t136 -36.5q73 0 135 36.5zM290 1017l273 126l60 -111l-273 -127z" />
    <glyph glyph-name="Obreve" unicode="&#x14e;" horiz-adv-x="976" 
d="M713 809q104 -60 165 -162t61 -222t-61 -222t-165 -162t-226 -60q-123 0 -227 60t-164.5 161.5t-60.5 222.5t60.5 222.5t164.5 161.5t227 60q122 0 226 -60zM622 188.5q62 36.5 98.5 99.5t36.5 137t-36.5 137t-98.5 99.5t-135 36.5q-74 0 -136 -36.5t-98.5 -99.5
t-36.5 -137t36.5 -137t98.5 -99.5t136 -36.5q73 0 135 36.5zM660 1038.5q-27 -45.5 -72.5 -72.5t-100.5 -27t-100.5 27t-72.5 72.5t-27 100.5h106q4 -34 30.5 -56.5t63.5 -22.5q36 0 62.5 22.5t31.5 56.5h106q0 -55 -27 -100.5z" />
    <glyph glyph-name="Ocircumflex" unicode="&#xd4;" horiz-adv-x="976" 
d="M713 809q104 -60 165 -162t61 -222t-61 -222t-165 -162t-226 -60q-123 0 -227 60t-164.5 161.5t-60.5 222.5t60.5 222.5t164.5 161.5t227 60q122 0 226 -60zM622 188.5q62 36.5 98.5 99.5t36.5 137t-36.5 137t-98.5 99.5t-135 36.5q-74 0 -136 -36.5t-98.5 -99.5
t-36.5 -137t36.5 -137t98.5 -99.5t136 -36.5q73 0 135 36.5zM385 915l-79 75l181 183l181 -183l-79 -75l-102 89z" />
    <glyph glyph-name="Odieresis" unicode="&#xd6;" horiz-adv-x="976" 
d="M713 809q104 -60 165 -162t61 -222t-61 -222t-165 -162t-226 -60q-123 0 -227 60t-164.5 161.5t-60.5 222.5t60.5 222.5t164.5 161.5t227 60q122 0 226 -60zM622 188.5q62 36.5 98.5 99.5t36.5 137t-36.5 137t-98.5 99.5t-135 36.5q-74 0 -136 -36.5t-98.5 -99.5
t-36.5 -137t36.5 -137t98.5 -99.5t136 -36.5q73 0 135 36.5zM292.5 977q-24.5 24 -24.5 63t24.5 63t63.5 24t63.5 -24t24.5 -63t-24.5 -63t-63.5 -24t-63.5 24zM555 977q-25 24 -25 63t25 63t64 24t63.5 -24t24.5 -63t-24.5 -63t-63.5 -24t-64 24z" />
    <glyph glyph-name="Ograve" unicode="&#xd2;" horiz-adv-x="976" 
d="M713 809q104 -60 165 -162t61 -222t-61 -222t-165 -162t-226 -60q-123 0 -227 60t-164.5 161.5t-60.5 222.5t60.5 222.5t164.5 161.5t227 60q122 0 226 -60zM622 188.5q62 36.5 98.5 99.5t36.5 137t-36.5 137t-98.5 99.5t-135 36.5q-74 0 -136 -36.5t-98.5 -99.5
t-36.5 -137t36.5 -137t98.5 -99.5t136 -36.5q73 0 135 36.5zM684 1017l-60 -112l-273 127l60 111z" />
    <glyph glyph-name="Ohungarumlaut" unicode="&#x150;" horiz-adv-x="976" 
d="M713 809q104 -60 165 -162t61 -222t-61 -222t-165 -162t-226 -60q-123 0 -227 60t-164.5 161.5t-60.5 222.5t60.5 222.5t164.5 161.5t227 60q122 0 226 -60zM622 188.5q62 36.5 98.5 99.5t36.5 137t-36.5 137t-98.5 99.5t-135 36.5q-74 0 -136 -36.5t-98.5 -99.5
t-36.5 -137t36.5 -137t98.5 -99.5t136 -36.5q73 0 135 36.5zM329 940l66 168h129l-68 -168h-127zM517 940l67 168h128l-68 -168h-127z" />
    <glyph glyph-name="Omacron" unicode="&#x14c;" horiz-adv-x="976" 
d="M713 809q104 -60 165 -162t61 -222t-61 -222t-165 -162t-226 -60q-123 0 -227 60t-164.5 161.5t-60.5 222.5t60.5 222.5t164.5 161.5t227 60q122 0 226 -60zM622 188.5q62 36.5 98.5 99.5t36.5 137t-36.5 137t-98.5 99.5t-135 36.5q-74 0 -136 -36.5t-98.5 -99.5
t-36.5 -137t36.5 -137t98.5 -99.5t136 -36.5q73 0 135 36.5zM322 1085h331v-125h-331v125z" />
    <glyph glyph-name="Oslash" unicode="&#xd8;" horiz-adv-x="976" 
d="M892.5 620.5q46.5 -91.5 46.5 -195.5q0 -120 -61 -222t-165 -162t-226 -60q-83 0 -157 27l-85 -149l-130 56l92 161q-80 62 -126 153.5t-46 195.5q0 121 60.5 222.5t164.5 161.5t227 60q84 0 157 -27l85 149l130 -56l-93 -161q80 -62 126.5 -153.5zM351 661.5
q-62 -36.5 -98.5 -99.5t-36.5 -137q0 -58 23 -109.5t63 -89.5l262 461q-39 11 -77 11q-74 0 -136 -36.5zM622 188.5q62 36.5 98.5 99.5t36.5 137q0 58 -22.5 109.5t-62.5 89.5l-262 -461q39 -11 77 -11q73 0 135 36.5z" />
    <glyph glyph-name="Oslashacute" unicode="&#x1fe;" horiz-adv-x="976" 
d="M892.5 620.5q46.5 -91.5 46.5 -195.5q0 -120 -61 -222t-165 -162t-226 -60q-83 0 -157 27l-85 -149l-130 56l92 161q-80 62 -126 153.5t-46 195.5q0 121 60.5 222.5t164.5 161.5t227 60q84 0 157 -27l85 149l130 -56l-93 -161q80 -62 126.5 -153.5zM351 661.5
q-62 -36.5 -98.5 -99.5t-36.5 -137q0 -58 23 -109.5t63 -89.5l262 461q-39 11 -77 11q-74 0 -136 -36.5zM622 188.5q62 36.5 98.5 99.5t36.5 137q0 58 -22.5 109.5t-62.5 89.5l-262 -461q39 -11 77 -11q73 0 135 36.5zM290 1017l273 126l60 -111l-273 -127z" />
    <glyph glyph-name="Otilde" unicode="&#xd5;" horiz-adv-x="976" 
d="M713 809q104 -60 165 -162t61 -222t-61 -222t-165 -162t-226 -60q-123 0 -227 60t-164.5 161.5t-60.5 222.5t60.5 222.5t164.5 161.5t227 60q122 0 226 -60zM622 188.5q62 36.5 98.5 99.5t36.5 137t-36.5 137t-98.5 99.5t-135 36.5q-74 0 -136 -36.5t-98.5 -99.5
t-36.5 -137t36.5 -137t98.5 -99.5t136 -36.5q73 0 135 36.5zM624.5 964.5q-32.5 -28.5 -76.5 -28.5q-24 0 -42 8t-38 22q-10 7 -20.5 12.5t-19.5 5.5q-13 0 -25 -9.5t-25 -33.5l-76 62q15 49 47.5 77t76.5 28q24 0 41.5 -7.5t38.5 -21.5q13 -9 22 -13.5t18 -4.5q13 0 25 9.5
t25 33.5l76 -62q-15 -49 -47.5 -77.5z" />
    <glyph glyph-name="OE" unicode="&#x152;" horiz-adv-x="1337" 
d="M932 501h336v-152h-336q-17 -105 -86 -194h439v-155h-666q-61 -19 -132 -19q-123 0 -227 60t-164.5 161.5t-60.5 222.5t60.5 222.5t164.5 161.5t227 60q71 0 132 -19h666v-159h-436q65 -85 83 -190zM252.5 288q36.5 -63 98.5 -99.5t136 -36.5q73 0 135 36.5t98.5 99.5
t36.5 137t-36.5 137t-98.5 99.5t-135 36.5q-74 0 -136 -36.5t-98.5 -99.5t-36.5 -137t36.5 -137z" />
    <glyph glyph-name="P" unicode="P" horiz-adv-x="843" 
d="M673 814q67 -36 104.5 -98t37.5 -137t-37.5 -137t-104.5 -98t-152 -36h-274v-308h-178v850h452q85 0 152 -36zM596.5 490.5q36.5 33.5 36.5 84.5t-37 85t-96 33h-253v-236h253q60 0 96.5 33.5z" />
    <glyph glyph-name="Thorn" unicode="&#xde;" horiz-adv-x="843" 
d="M673 669q67 -36 104.5 -98t37.5 -137t-37.5 -137t-104.5 -98t-152 -36h-274v-163h-178v850h178v-145h274q85 0 152 -36zM596 345q37 34 37 85t-37 84.5t-96 33.5h-253v-237h253q59 0 96 34z" />
    <glyph glyph-name="Q" unicode="Q" horiz-adv-x="976" 
d="M669 20q-86 -39 -182 -39q-123 0 -227 60t-164.5 161.5t-60.5 222.5t60.5 222.5t164.5 161.5t227 60q122 0 226 -60t165 -162t61 -222q0 -92 -36 -174t-101 -144l162 -160h-230zM737 320q20 50 20 105q0 74 -36.5 137t-98.5 99.5t-135 36.5q-74 0 -136 -36.5t-98.5 -99.5
t-36.5 -137t36.5 -137t98.5 -99.5t136 -36.5q29 0 56 11l-142 149h207l72 -82q37 40 57 90z" />
    <glyph glyph-name="R" unicode="R" horiz-adv-x="840" 
d="M247 0h-178v850h457q84 0 149.5 -35t102.5 -95.5t37 -133.5q0 -95 -60.5 -163.5t-162.5 -89.5v0l241 -333h-211l-226 322h-149v-322zM597.5 503q35.5 32 35.5 80t-35.5 79.5t-91.5 31.5h-259v-223h259q56 0 91.5 32z" />
    <glyph glyph-name="Racute" unicode="&#x154;" horiz-adv-x="840" 
d="M247 0h-178v850h457q84 0 149.5 -35t102.5 -95.5t37 -133.5q0 -95 -60.5 -163.5t-162.5 -89.5v0l241 -333h-211l-226 322h-149v-322zM597.5 503q35.5 32 35.5 80t-35.5 79.5t-91.5 31.5h-259v-223h259q56 0 91.5 32zM212 1017l273 126l60 -111l-273 -127z" />
    <glyph glyph-name="Rcaron" unicode="&#x158;" horiz-adv-x="840" 
d="M247 0h-178v850h457q84 0 149.5 -35t102.5 -95.5t37 -133.5q0 -95 -60.5 -163.5t-162.5 -89.5v0l241 -333h-211l-226 322h-149v-322zM597.5 503q35.5 32 35.5 80t-35.5 79.5t-91.5 31.5h-259v-223h259q56 0 91.5 32zM409 915l-181 183l79 75l102 -89l102 89l79 -75z" />
    <glyph glyph-name="Rcommaaccent" unicode="&#x156;" horiz-adv-x="840" 
d="M247 0h-178v850h457q84 0 149.5 -35t102.5 -95.5t37 -133.5q0 -95 -60.5 -163.5t-162.5 -89.5v0l241 -333h-211l-226 322h-149v-322zM597.5 503q35.5 32 35.5 80t-35.5 79.5t-91.5 31.5h-259v-223h259q56 0 91.5 32zM263 -224l81 144h170l-82 -144h-169z" />
    <glyph glyph-name="S" unicode="S" horiz-adv-x="789" 
d="M529 683q-69 30 -147 30q-83 0 -123.5 -28t-40.5 -71q0 -31 24.5 -49t62 -27t105.5 -19q109 -17 178.5 -38.5t120.5 -76.5t51 -156q0 -132 -102 -199.5t-276 -67.5q-124 0 -221 35.5t-154 85.5l78 142q56 -47 135.5 -76t164.5 -29q97 0 143.5 29.5t46.5 76.5
q0 33 -25.5 52.5t-65 29.5t-108.5 21q-105 17 -173 38.5t-117 74.5t-49 148q0 81 43.5 139.5t122 89.5t181.5 31q110 0 198 -37.5t147 -89.5l-75 -135q-56 46 -125 76z" />
    <glyph glyph-name="Sacute" unicode="&#x15a;" horiz-adv-x="789" 
d="M529 683q-69 30 -147 30q-83 0 -123.5 -28t-40.5 -71q0 -31 24.5 -49t62 -27t105.5 -19q109 -17 178.5 -38.5t120.5 -76.5t51 -156q0 -132 -102 -199.5t-276 -67.5q-124 0 -221 35.5t-154 85.5l78 142q56 -47 135.5 -76t164.5 -29q97 0 143.5 29.5t46.5 76.5
q0 33 -25.5 52.5t-65 29.5t-108.5 21q-105 17 -173 38.5t-117 74.5t-49 148q0 81 43.5 139.5t122 89.5t181.5 31q110 0 198 -37.5t147 -89.5l-75 -135q-56 46 -125 76zM186 1017l273 126l60 -111l-273 -127z" />
    <glyph glyph-name="Scaron" unicode="&#x160;" horiz-adv-x="789" 
d="M529 683q-69 30 -147 30q-83 0 -123.5 -28t-40.5 -71q0 -31 24.5 -49t62 -27t105.5 -19q109 -17 178.5 -38.5t120.5 -76.5t51 -156q0 -132 -102 -199.5t-276 -67.5q-124 0 -221 35.5t-154 85.5l78 142q56 -47 135.5 -76t164.5 -29q97 0 143.5 29.5t46.5 76.5
q0 33 -25.5 52.5t-65 29.5t-108.5 21q-105 17 -173 38.5t-117 74.5t-49 148q0 81 43.5 139.5t122 89.5t181.5 31q110 0 198 -37.5t147 -89.5l-75 -135q-56 46 -125 76zM383 915l-181 183l79 75l102 -89l102 89l79 -75z" />
    <glyph glyph-name="Scedilla" unicode="&#x15e;" horiz-adv-x="789" 
d="M529 683q-69 30 -147 30q-83 0 -123.5 -28t-40.5 -71q0 -31 24.5 -49t62 -27t105.5 -19q109 -17 178.5 -38.5t120.5 -76.5t51 -156q0 -132 -102 -199.5t-276 -67.5q-124 0 -221 35.5t-154 85.5l78 142q56 -47 135.5 -76t164.5 -29q97 0 143.5 29.5t46.5 76.5
q0 33 -25.5 52.5t-65 29.5t-108.5 21q-105 17 -173 38.5t-117 74.5t-49 148q0 81 43.5 139.5t122 89.5t181.5 31q110 0 198 -37.5t147 -89.5l-75 -135q-56 46 -125 76zM214 -224l81 144h170l-82 -144h-169z" />
    <glyph glyph-name="Scircumflex" unicode="&#x15c;" horiz-adv-x="789" 
d="M529 683q-69 30 -147 30q-83 0 -123.5 -28t-40.5 -71q0 -31 24.5 -49t62 -27t105.5 -19q109 -17 178.5 -38.5t120.5 -76.5t51 -156q0 -132 -102 -199.5t-276 -67.5q-124 0 -221 35.5t-154 85.5l78 142q56 -47 135.5 -76t164.5 -29q97 0 143.5 29.5t46.5 76.5
q0 33 -25.5 52.5t-65 29.5t-108.5 21q-105 17 -173 38.5t-117 74.5t-49 148q0 81 43.5 139.5t122 89.5t181.5 31q110 0 198 -37.5t147 -89.5l-75 -135q-56 46 -125 76zM281 915l-79 75l181 183l181 -183l-79 -75l-102 89z" />
    <glyph glyph-name="Scommaaccent" unicode="&#x218;" horiz-adv-x="789" 
d="M529 683q-69 30 -147 30q-83 0 -123.5 -28t-40.5 -71q0 -31 24.5 -49t62 -27t105.5 -19q109 -17 178.5 -38.5t120.5 -76.5t51 -156q0 -132 -102 -199.5t-276 -67.5q-124 0 -221 35.5t-154 85.5l78 142q56 -47 135.5 -76t164.5 -29q97 0 143.5 29.5t46.5 76.5
q0 33 -25.5 52.5t-65 29.5t-108.5 21q-105 17 -173 38.5t-117 74.5t-49 148q0 81 43.5 139.5t122 89.5t181.5 31q110 0 198 -37.5t147 -89.5l-75 -135q-56 46 -125 76zM214 -224l81 144h170l-82 -144h-169z" />
    <glyph glyph-name="T" unicode="T" horiz-adv-x="838" 
d="M508 691v-691h-178v691h-314v159h806v-159h-314z" />
    <glyph glyph-name="Tbar" unicode="&#x166;" horiz-adv-x="838" 
d="M508 480h115v-118h-115v-362h-178v362h-115v118h115v211h-314v159h806v-159h-314v-211z" />
    <glyph glyph-name="Tcaron" unicode="&#x164;" horiz-adv-x="838" 
d="M508 691v-691h-178v691h-314v159h806v-159h-314zM418 915l-181 183l79 75l102 -89l102 89l79 -75z" />
    <glyph glyph-name="Tcedilla" unicode="&#x162;" horiz-adv-x="838" 
d="M508 691v-691h-178v691h-314v159h806v-159h-314zM252 -224l81 144h170l-82 -144h-169z" />
    <glyph glyph-name="uni021A" unicode="&#x21a;" horiz-adv-x="838" 
d="M508 691v-691h-178v691h-314v159h806v-159h-314zM252 -224l81 144h170l-82 -144h-169z" />
    <glyph glyph-name="U" unicode="U" horiz-adv-x="924" 
d="M800.5 176.5q-52.5 -91.5 -142.5 -143.5t-197 -52t-197 52t-142.5 143.5t-52.5 205.5v468h178v-479q0 -65 28.5 -116t77.5 -79.5t108 -28.5t108 28.5t77.5 79.5t28.5 116v479h178v-468q0 -114 -52.5 -205.5z" />
    <glyph glyph-name="Uacute" unicode="&#xda;" horiz-adv-x="924" 
d="M800.5 176.5q-52.5 -91.5 -142.5 -143.5t-197 -52t-197 52t-142.5 143.5t-52.5 205.5v468h178v-479q0 -65 28.5 -116t77.5 -79.5t108 -28.5t108 28.5t77.5 79.5t28.5 116v479h178v-468q0 -114 -52.5 -205.5zM264 1017l273 126l60 -111l-273 -127z" />
    <glyph glyph-name="Ubreve" unicode="&#x16c;" horiz-adv-x="924" 
d="M800.5 176.5q-52.5 -91.5 -142.5 -143.5t-197 -52t-197 52t-142.5 143.5t-52.5 205.5v468h178v-479q0 -65 28.5 -116t77.5 -79.5t108 -28.5t108 28.5t77.5 79.5t28.5 116v479h178v-468q0 -114 -52.5 -205.5zM634 1038.5q-27 -45.5 -72.5 -72.5t-100.5 -27t-100.5 27
t-72.5 72.5t-27 100.5h106q4 -34 30.5 -56.5t63.5 -22.5q36 0 62.5 22.5t31.5 56.5h106q0 -55 -27 -100.5z" />
    <glyph glyph-name="Ucircumflex" unicode="&#xdb;" horiz-adv-x="924" 
d="M800.5 176.5q-52.5 -91.5 -142.5 -143.5t-197 -52t-197 52t-142.5 143.5t-52.5 205.5v468h178v-479q0 -65 28.5 -116t77.5 -79.5t108 -28.5t108 28.5t77.5 79.5t28.5 116v479h178v-468q0 -114 -52.5 -205.5zM359 915l-79 75l181 183l181 -183l-79 -75l-102 89z" />
    <glyph glyph-name="Udieresis" unicode="&#xdc;" horiz-adv-x="924" 
d="M800.5 176.5q-52.5 -91.5 -142.5 -143.5t-197 -52t-197 52t-142.5 143.5t-52.5 205.5v468h178v-479q0 -65 28.5 -116t77.5 -79.5t108 -28.5t108 28.5t77.5 79.5t28.5 116v479h178v-468q0 -114 -52.5 -205.5zM266.5 977q-24.5 24 -24.5 63t24.5 63t63.5 24t63.5 -24
t24.5 -63t-24.5 -63t-63.5 -24t-63.5 24zM529 977q-25 24 -25 63t25 63t64 24t63.5 -24t24.5 -63t-24.5 -63t-63.5 -24t-64 24z" />
    <glyph glyph-name="Ugrave" unicode="&#xd9;" horiz-adv-x="924" 
d="M800.5 176.5q-52.5 -91.5 -142.5 -143.5t-197 -52t-197 52t-142.5 143.5t-52.5 205.5v468h178v-479q0 -65 28.5 -116t77.5 -79.5t108 -28.5t108 28.5t77.5 79.5t28.5 116v479h178v-468q0 -114 -52.5 -205.5zM658 1017l-60 -112l-273 127l60 111z" />
    <glyph glyph-name="Uhungarumlaut" unicode="&#x170;" horiz-adv-x="924" 
d="M800.5 176.5q-52.5 -91.5 -142.5 -143.5t-197 -52t-197 52t-142.5 143.5t-52.5 205.5v468h178v-479q0 -65 28.5 -116t77.5 -79.5t108 -28.5t108 28.5t77.5 79.5t28.5 116v479h178v-468q0 -114 -52.5 -205.5zM303 940l66 168h129l-68 -168h-127zM491 940l67 168h128
l-68 -168h-127z" />
    <glyph glyph-name="Umacron" unicode="&#x16a;" horiz-adv-x="924" 
d="M800.5 176.5q-52.5 -91.5 -142.5 -143.5t-197 -52t-197 52t-142.5 143.5t-52.5 205.5v468h178v-479q0 -65 28.5 -116t77.5 -79.5t108 -28.5t108 28.5t77.5 79.5t28.5 116v479h178v-468q0 -114 -52.5 -205.5zM296 1085h331v-125h-331v125z" />
    <glyph glyph-name="Uogonek" unicode="&#x172;" horiz-adv-x="924" 
d="M800.5 176.5q-52.5 -91.5 -142.5 -143.5t-197 -52t-197 52t-142.5 143.5t-52.5 205.5v468h178v-479q0 -65 28.5 -116t77.5 -79.5t108 -28.5t108 28.5t77.5 79.5t28.5 116v479h178v-468q0 -114 -52.5 -205.5zM627 -224h-170l-81 144h169z" />
    <glyph glyph-name="Uring" unicode="&#x16e;" horiz-adv-x="924" 
d="M800.5 176.5q-52.5 -91.5 -142.5 -143.5t-197 -52t-197 52t-142.5 143.5t-52.5 205.5v468h178v-479q0 -65 28.5 -116t77.5 -79.5t108 -28.5t108 28.5t77.5 79.5t28.5 116v479h178v-468q0 -114 -52.5 -205.5zM389 938q-33 19 -52 51.5t-19 70.5t19 70.5t52 51.5t72 19
t72 -19t52.5 -51.5t19.5 -70.5t-19.5 -70.5t-52.5 -51.5t-72 -19t-72 19zM500 1020.5q16 16.5 16 39.5t-16 39.5t-39 16.5q-22 0 -38 -16.5t-16 -39.5t16 -39.5t38 -16.5q23 0 39 16.5z" />
    <glyph glyph-name="Utilde" unicode="&#x168;" horiz-adv-x="924" 
d="M800.5 176.5q-52.5 -91.5 -142.5 -143.5t-197 -52t-197 52t-142.5 143.5t-52.5 205.5v468h178v-479q0 -65 28.5 -116t77.5 -79.5t108 -28.5t108 28.5t77.5 79.5t28.5 116v479h178v-468q0 -114 -52.5 -205.5zM598.5 964.5q-32.5 -28.5 -76.5 -28.5q-24 0 -42 8t-38 22
q-10 7 -20.5 12.5t-19.5 5.5q-13 0 -25 -9.5t-25 -33.5l-76 62q15 49 47.5 77t76.5 28q24 0 41.5 -7.5t38.5 -21.5q13 -9 22 -13.5t18 -4.5q13 0 25 9.5t25 33.5l76 -62q-15 -49 -47.5 -77.5z" />
    <glyph glyph-name="V" unicode="V" horiz-adv-x="999" 
d="M809 850h197l-506 -884l-506 884h195l311 -551z" />
    <glyph glyph-name="W" unicode="W" horiz-adv-x="1509" 
d="M443 329l312 555l312 -555l241 521h196l-417 -884l-332 589l-333 -589l-416 884h196z" />
    <glyph glyph-name="Wacute" unicode="&#x1e82;" horiz-adv-x="1509" 
d="M443 329l312 555l312 -555l241 521h196l-417 -884l-332 589l-333 -589l-416 884h196zM557 1017l273 126l60 -111l-273 -127z" />
    <glyph glyph-name="Wcircumflex" unicode="&#x174;" horiz-adv-x="1509" 
d="M443 329l312 555l312 -555l241 521h196l-417 -884l-332 589l-333 -589l-416 884h196zM652 915l-79 75l181 183l181 -183l-79 -75l-102 89z" />
    <glyph glyph-name="Wdieresis" unicode="&#x1e84;" horiz-adv-x="1509" 
d="M443 329l312 555l312 -555l241 521h196l-417 -884l-332 589l-333 -589l-416 884h196zM558.5 977q-24.5 24 -24.5 63t24.5 63t63.5 24t63.5 -24t24.5 -63t-24.5 -63t-63.5 -24t-63.5 24zM821 977q-25 24 -25 63t25 63t64 24t63.5 -24t24.5 -63t-24.5 -63t-63.5 -24t-64 24
z" />
    <glyph glyph-name="Wgrave" unicode="&#x1e80;" horiz-adv-x="1509" 
d="M443 329l312 555l312 -555l241 521h196l-417 -884l-332 589l-333 -589l-416 884h196zM951 1017l-60 -112l-273 127l60 111z" />
    <glyph glyph-name="X" unicode="X" horiz-adv-x="852" 
d="M655 0l-229 308l-229 -308h-206l329 437l-314 413h206l214 -285l214 285h206l-314 -413l329 -437h-206z" />
    <glyph glyph-name="Y" unicode="Y" horiz-adv-x="871" 
d="M347 0v326l-346 524h194l241 -365l240 365h194l-345 -524v-326h-178z" />
    <glyph glyph-name="Yacute" unicode="&#xdd;" horiz-adv-x="871" 
d="M347 0v326l-346 524h194l241 -365l240 365h194l-345 -524v-326h-178zM238 1017l273 126l60 -111l-273 -127z" />
    <glyph glyph-name="Ycircumflex" unicode="&#x176;" horiz-adv-x="871" 
d="M347 0v326l-346 524h194l241 -365l240 365h194l-345 -524v-326h-178zM333 915l-79 75l181 183l181 -183l-79 -75l-102 89z" />
    <glyph glyph-name="Ydieresis" unicode="&#x178;" horiz-adv-x="871" 
d="M347 0v326l-346 524h194l241 -365l240 365h194l-345 -524v-326h-178zM239.5 977q-24.5 24 -24.5 63t24.5 63t63.5 24t63.5 -24t24.5 -63t-24.5 -63t-63.5 -24t-63.5 24zM502 977q-25 24 -25 63t25 63t64 24t63.5 -24t24.5 -63t-24.5 -63t-63.5 -24t-64 24z" />
    <glyph glyph-name="Ygrave" unicode="&#x1ef2;" horiz-adv-x="871" 
d="M347 0v326l-346 524h194l241 -365l240 365h194l-345 -524v-326h-178zM631 1017l-60 -112l-273 127l60 111z" />
    <glyph glyph-name="Z" unicode="Z" horiz-adv-x="886" 
d="M858 159l-1 -159h-791l435 691h-479v159h792l-436 -691h480z" />
    <glyph glyph-name="Zacute" unicode="&#x179;" horiz-adv-x="886" 
d="M858 159l-1 -159h-791l435 691h-479v159h792l-436 -691h480zM201 1017l273 126l60 -111l-273 -127z" />
    <glyph glyph-name="Zcaron" unicode="&#x17d;" horiz-adv-x="886" 
d="M858 159l-1 -159h-791l435 691h-479v159h792l-436 -691h480zM398 915l-181 183l79 75l102 -89l102 89l79 -75z" />
    <glyph glyph-name="Zdotaccent" unicode="&#x17b;" horiz-adv-x="886" 
d="M858 159l-1 -159h-791l435 691h-479v159h792l-436 -691h480zM329.5 972q-26.5 26 -26.5 68t26.5 67.5t68.5 25.5q41 0 67.5 -25.5t26.5 -67.5t-26.5 -68t-67.5 -26q-42 0 -68.5 26z" />
    <glyph glyph-name="a" unicode="a" horiz-adv-x="699" 
d="M472 0v48q-63 -67 -171 -67q-76 0 -138 38.5t-97.5 106.5t-35.5 152t35.5 152t97.5 106.5t138 38.5q108 0 171 -67v48h170v-556h-170zM442 169.5q39 43.5 39 108.5t-39 108.5t-101 43.5t-100.5 -44t-38.5 -108t38.5 -108t100.5 -44t101 43.5z" />
    <glyph glyph-name="aacute" unicode="&#xe1;" horiz-adv-x="699" 
d="M472 0v48q-63 -67 -171 -67q-76 0 -138 38.5t-97.5 106.5t-35.5 152t35.5 152t97.5 106.5t138 38.5q108 0 171 -67v48h170v-556h-170zM442 169.5q39 43.5 39 108.5t-39 108.5t-101 43.5t-100.5 -44t-38.5 -108t38.5 -108t100.5 -44t101 43.5zM138 756l273 127l60 -112
l-273 -127z" />
    <glyph glyph-name="abreve" unicode="&#x103;" horiz-adv-x="699" 
d="M472 0v48q-63 -67 -171 -67q-76 0 -138 38.5t-97.5 106.5t-35.5 152t35.5 152t97.5 106.5t138 38.5q108 0 171 -67v48h170v-556h-170zM442 169.5q39 43.5 39 108.5t-39 108.5t-101 43.5t-100.5 -44t-38.5 -108t38.5 -108t100.5 -44t101 43.5zM508 749.5
q-27 -45.5 -72.5 -72.5t-100.5 -27t-100.5 27t-72.5 72.5t-27 100.5h106q4 -33 31 -56t63 -23t62.5 23t31.5 56h106q0 -55 -27 -100.5z" />
    <glyph glyph-name="acircumflex" unicode="&#xe2;" horiz-adv-x="699" 
d="M472 0v48q-63 -67 -171 -67q-76 0 -138 38.5t-97.5 106.5t-35.5 152t35.5 152t97.5 106.5t138 38.5q108 0 171 -67v48h170v-556h-170zM442 169.5q39 43.5 39 108.5t-39 108.5t-101 43.5t-100.5 -44t-38.5 -108t38.5 -108t100.5 -44t101 43.5zM233 634l-79 75l181 183
l181 -183l-79 -75l-102 89z" />
    <glyph glyph-name="adieresis" unicode="&#xe4;" horiz-adv-x="699" 
d="M472 0v48q-63 -67 -171 -67q-76 0 -138 38.5t-97.5 106.5t-35.5 152t35.5 152t97.5 106.5t138 38.5q108 0 171 -67v48h170v-556h-170zM442 169.5q39 43.5 39 108.5t-39 108.5t-101 43.5t-100.5 -44t-38.5 -108t38.5 -108t100.5 -44t101 43.5zM140 685.5
q-25 24.5 -25 63.5t24.5 63t63.5 24t63.5 -24t24.5 -63t-25 -63.5t-63 -24.5t-63 24.5zM402 685.5q-25 24.5 -25 63.5t25 63t64 24t63.5 -24t24.5 -63t-25 -63.5t-63 -24.5q-39 0 -64 24.5z" />
    <glyph glyph-name="agrave" unicode="&#xe0;" horiz-adv-x="699" 
d="M472 0v48q-63 -67 -171 -67q-76 0 -138 38.5t-97.5 106.5t-35.5 152t35.5 152t97.5 106.5t138 38.5q108 0 171 -67v48h170v-556h-170zM442 169.5q39 43.5 39 108.5t-39 108.5t-101 43.5t-100.5 -44t-38.5 -108t38.5 -108t100.5 -44t101 43.5zM471 644l-273 127l60 112
l273 -127z" />
    <glyph glyph-name="amacron" unicode="&#x101;" horiz-adv-x="699" 
d="M472 0v48q-63 -67 -171 -67q-76 0 -138 38.5t-97.5 106.5t-35.5 152t35.5 152t97.5 106.5t138 38.5q108 0 171 -67v48h170v-556h-170zM442 169.5q39 43.5 39 108.5t-39 108.5t-101 43.5t-100.5 -44t-38.5 -108t38.5 -108t100.5 -44t101 43.5zM169 812h331v-126h-331v126z
" />
    <glyph glyph-name="aogonek" unicode="&#x105;" horiz-adv-x="699" 
d="M472 0v48q-63 -67 -171 -67q-76 0 -138 38.5t-97.5 106.5t-35.5 152t35.5 152t97.5 106.5t138 38.5q108 0 171 -67v48h170v-556h-170zM442 169.5q39 43.5 39 108.5t-39 108.5t-101 43.5t-100.5 -44t-38.5 -108t38.5 -108t100.5 -44t101 43.5zM723 -224h-170l-81 144h169z
" />
    <glyph glyph-name="aring" unicode="&#xe5;" horiz-adv-x="699" 
d="M472 0v48q-63 -67 -171 -67q-76 0 -138 38.5t-97.5 106.5t-35.5 152t35.5 152t97.5 106.5t138 38.5q108 0 171 -67v48h170v-556h-170zM442 169.5q39 43.5 39 108.5t-39 108.5t-101 43.5t-100.5 -44t-38.5 -108t38.5 -108t100.5 -44t101 43.5zM262 645q-33 19 -52 51.5
t-19 70.5t19 70.5t52 51.5t72 19t72 -19t52.5 -51.5t19.5 -70.5t-19.5 -70.5t-52.5 -51.5t-72 -19t-72 19zM373 727.5q16 16.5 16 39.5t-16 39t-39 16q-22 0 -38 -16.5t-16 -38.5q0 -23 16 -39.5t38 -16.5q23 0 39 16.5z" />
    <glyph glyph-name="atilde" unicode="&#xe3;" horiz-adv-x="699" 
d="M472 0v48q-63 -67 -171 -67q-76 0 -138 38.5t-97.5 106.5t-35.5 152t35.5 152t97.5 106.5t138 38.5q108 0 171 -67v48h170v-556h-170zM442 169.5q39 43.5 39 108.5t-39 108.5t-101 43.5t-100.5 -44t-38.5 -108t38.5 -108t100.5 -44t101 43.5zM472 695.5
q-33 -28.5 -76 -28.5q-24 0 -41.5 7.5t-38.5 21.5q-25 18 -40 18q-13 0 -25 -9.5t-25 -33.5l-76 63q15 48 48 76.5t76 28.5q24 0 42 -8t38 -22q13 -9 22 -13t18 -4q13 0 25 9.5t25 33.5l76 -63q-15 -48 -48 -76.5z" />
    <glyph glyph-name="ae" unicode="&#xe6;" horiz-adv-x="1103" 
d="M932 535q63 -40 101 -114t38 -170q0 -19 -1 -28h-413q11 -46 49 -75t86 -29q49 0 82.5 15.5t62.5 44.5l106 -100q-45 -48 -106.5 -73t-136.5 -25q-99 0 -161 65v-46h-169v46q-62 -65 -169 -65q-76 0 -138 39t-97.5 107t-35.5 151t35.5 151t97.5 107t138 39q107 0 169 -65
v46h169v-46q28 32 68.5 48.5t91.5 16.5q70 0 133 -40zM853 414q-33 29 -77 29t-77 -29t-42 -76h237q-8 47 -41 76zM441.5 169q38.5 43 38.5 109t-38.5 109t-100.5 43t-100 -44t-38 -108t38 -108t100 -44t100.5 43z" />
    <glyph glyph-name="b" unicode="b" horiz-adv-x="704" 
d="M401 575q77 0 139 -38.5t97 -106.5t35 -152t-35 -152t-97 -106.5t-139 -38.5q-107 0 -171 67v-48h-169v850h169v-342q64 67 171 67zM461.5 170q38.5 44 38.5 108t-38.5 108t-100.5 44q-61 0 -100 -43.5t-39 -108.5t39 -108.5t100 -43.5q62 0 100.5 44z" />
    <glyph glyph-name="c" unicode="c" horiz-adv-x="507" 
d="M407.5 416.5q-32.5 12.5 -63.5 12.5q-39 0 -71.5 -20.5t-51 -55t-18.5 -75.5t18.5 -75.5t51 -55t71.5 -20.5q31 0 63.5 12.5t57.5 32.5l-1 -163q-52 -28 -130 -28q-88 0 -157 39t-108 107t-39 151q0 84 38.5 151.5t108 106.5t157.5 39q78 0 130 -28l1 -163
q-25 20 -57.5 32.5z" />
    <glyph glyph-name="cacute" unicode="&#x107;" horiz-adv-x="507" 
d="M407.5 416.5q-32.5 12.5 -63.5 12.5q-39 0 -71.5 -20.5t-51 -55t-18.5 -75.5t18.5 -75.5t51 -55t71.5 -20.5q31 0 63.5 12.5t57.5 32.5l-1 -163q-52 -28 -130 -28q-88 0 -157 39t-108 107t-39 151q0 84 38.5 151.5t108 106.5t157.5 39q78 0 130 -28l1 -163
q-25 20 -57.5 32.5zM119 756l273 127l60 -112l-273 -127z" />
    <glyph glyph-name="ccaron" unicode="&#x10d;" horiz-adv-x="507" 
d="M407.5 416.5q-32.5 12.5 -63.5 12.5q-39 0 -71.5 -20.5t-51 -55t-18.5 -75.5t18.5 -75.5t51 -55t71.5 -20.5q31 0 63.5 12.5t57.5 32.5l-1 -163q-52 -28 -130 -28q-88 0 -157 39t-108 107t-39 151q0 84 38.5 151.5t108 106.5t157.5 39q78 0 130 -28l1 -163
q-25 20 -57.5 32.5zM316 634l-181 183l79 75l102 -89l102 89l79 -75z" />
    <glyph glyph-name="ccedilla" unicode="&#xe7;" horiz-adv-x="507" 
d="M407.5 416.5q-32.5 12.5 -63.5 12.5q-39 0 -71.5 -20.5t-51 -55t-18.5 -75.5t18.5 -75.5t51 -55t71.5 -20.5q31 0 63.5 12.5t57.5 32.5l-1 -163q-52 -28 -130 -28q-88 0 -157 39t-108 107t-39 151q0 84 38.5 151.5t108 106.5t157.5 39q78 0 130 -28l1 -163
q-25 20 -57.5 32.5zM154 -224l81 144h170l-82 -144h-169z" />
    <glyph glyph-name="ccircumflex" unicode="&#x109;" horiz-adv-x="507" 
d="M407.5 416.5q-32.5 12.5 -63.5 12.5q-39 0 -71.5 -20.5t-51 -55t-18.5 -75.5t18.5 -75.5t51 -55t71.5 -20.5q31 0 63.5 12.5t57.5 32.5l-1 -163q-52 -28 -130 -28q-88 0 -157 39t-108 107t-39 151q0 84 38.5 151.5t108 106.5t157.5 39q78 0 130 -28l1 -163
q-25 20 -57.5 32.5zM214 634l-79 75l181 183l181 -183l-79 -75l-102 89z" />
    <glyph glyph-name="cdotaccent" unicode="&#x10b;" horiz-adv-x="507" 
d="M407.5 416.5q-32.5 12.5 -63.5 12.5q-39 0 -71.5 -20.5t-51 -55t-18.5 -75.5t18.5 -75.5t51 -55t71.5 -20.5q31 0 63.5 12.5t57.5 32.5l-1 -163q-52 -28 -130 -28q-88 0 -157 39t-108 107t-39 151q0 84 38.5 151.5t108 106.5t157.5 39q78 0 130 -28l1 -163
q-25 20 -57.5 32.5zM247.5 681q-26.5 26 -26.5 68t26.5 67.5t68.5 25.5q41 0 67.5 -25.5t26.5 -67.5t-26.5 -68t-67.5 -26q-42 0 -68.5 26z" />
    <glyph glyph-name="d" unicode="d" horiz-adv-x="699" 
d="M472 0v48q-63 -67 -171 -67q-76 0 -138 38.5t-97.5 106.5t-35.5 152t35.5 152t97.5 106.5t138 38.5q108 0 171 -67v342h170v-850h-170zM442 169.5q39 43.5 39 108.5t-39 108.5t-101 43.5t-100.5 -44t-38.5 -108t38.5 -108t100.5 -44t101 43.5z" />
    <glyph glyph-name="eth" unicode="&#xf0;" horiz-adv-x="660" 
d="M576 506.5q53 -119.5 53 -240.5q0 -80 -37.5 -145t-105.5 -102.5t-156 -37.5t-156 37.5t-105.5 102.5t-37.5 145t36.5 145.5t101.5 103t146 37.5q32 0 60 -13q-44 52 -111 100l-58 -56l-121 54l74 70q-77 42 -145 69l145 102q63 -32 112 -64l90 87l104 -70l-92 -88
q150 -117 203 -236.5zM422 166.5q35 40.5 35 99.5q0 60 -35 100t-92 40t-92 -40.5t-35 -99.5t35 -99.5t92 -40.5t92 40.5z" />
    <glyph glyph-name="dcaron" unicode="&#x10f;" horiz-adv-x="701" 
d="M472 0v48q-63 -67 -171 -67q-76 0 -138 38.5t-97.5 106.5t-35.5 152t35.5 152t97.5 106.5t138 38.5q108 0 171 -67v342h170v-850h-170zM442 169.5q39 43.5 39 108.5t-39 108.5t-101 43.5t-100.5 -44t-38.5 -108t38.5 -108t100.5 -44t101 43.5zM795 850h158l-109 -271
h-157z" />
    <glyph glyph-name="dcroat" unicode="&#x111;" horiz-adv-x="704" 
d="M642 648v-648h-170v48q-63 -67 -171 -67q-76 0 -138 38.5t-97.5 106.5t-35.5 152t35.5 152t97.5 106.5t138 38.5q108 0 171 -67v140h-138v118h138v84h170v-84h58v-118h-58zM442 169.5q39 43.5 39 108.5t-39 108.5t-101 43.5t-100.5 -44t-38.5 -108t38.5 -108t100.5 -44
t101 43.5z" />
    <glyph glyph-name="e" unicode="e" horiz-adv-x="653" 
d="M423.5 134.5q33.5 15.5 62.5 44.5l106 -100q-90 -98 -251 -98q-92 0 -162.5 39t-109.5 106.5t-39 151.5q0 83 38.5 151t106 107t150.5 39q81 0 148.5 -40t107 -114t39.5 -172q0 -17 -1 -26h-413q12 -46 50 -75t85 -29q49 0 82.5 15.5zM248 414q-33 -29 -42 -76h237
q-8 47 -41 76t-77 29t-77 -29z" />
    <glyph glyph-name="eacute" unicode="&#xe9;" horiz-adv-x="653" 
d="M423.5 134.5q33.5 15.5 62.5 44.5l106 -100q-90 -98 -251 -98q-92 0 -162.5 39t-109.5 106.5t-39 151.5q0 83 38.5 151t106 107t150.5 39q81 0 148.5 -40t107 -114t39.5 -172q0 -17 -1 -26h-413q12 -46 50 -75t85 -29q49 0 82.5 15.5zM248 414q-33 -29 -42 -76h237
q-8 47 -41 76t-77 29t-77 -29zM128 756l273 127l60 -112l-273 -127z" />
    <glyph glyph-name="ebreve" unicode="&#x115;" horiz-adv-x="653" 
d="M423.5 134.5q33.5 15.5 62.5 44.5l106 -100q-90 -98 -251 -98q-92 0 -162.5 39t-109.5 106.5t-39 151.5q0 83 38.5 151t106 107t150.5 39q81 0 148.5 -40t107 -114t39.5 -172q0 -17 -1 -26h-413q12 -46 50 -75t85 -29q49 0 82.5 15.5zM248 414q-33 -29 -42 -76h237
q-8 47 -41 76t-77 29t-77 -29zM498 749.5q-27 -45.5 -72.5 -72.5t-100.5 -27t-100.5 27t-72.5 72.5t-27 100.5h106q4 -33 31 -56t63 -23t62.5 23t31.5 56h106q0 -55 -27 -100.5z" />
    <glyph glyph-name="ecaron" unicode="&#x11b;" horiz-adv-x="653" 
d="M423.5 134.5q33.5 15.5 62.5 44.5l106 -100q-90 -98 -251 -98q-92 0 -162.5 39t-109.5 106.5t-39 151.5q0 83 38.5 151t106 107t150.5 39q81 0 148.5 -40t107 -114t39.5 -172q0 -17 -1 -26h-413q12 -46 50 -75t85 -29q49 0 82.5 15.5zM248 414q-33 -29 -42 -76h237
q-8 47 -41 76t-77 29t-77 -29zM325 634l-181 183l79 75l102 -89l102 89l79 -75z" />
    <glyph glyph-name="ecircumflex" unicode="&#xea;" horiz-adv-x="653" 
d="M423.5 134.5q33.5 15.5 62.5 44.5l106 -100q-90 -98 -251 -98q-92 0 -162.5 39t-109.5 106.5t-39 151.5q0 83 38.5 151t106 107t150.5 39q81 0 148.5 -40t107 -114t39.5 -172q0 -17 -1 -26h-413q12 -46 50 -75t85 -29q49 0 82.5 15.5zM248 414q-33 -29 -42 -76h237
q-8 47 -41 76t-77 29t-77 -29zM223 634l-79 75l181 183l181 -183l-79 -75l-102 89z" />
    <glyph glyph-name="edieresis" unicode="&#xeb;" horiz-adv-x="653" 
d="M423.5 134.5q33.5 15.5 62.5 44.5l106 -100q-90 -98 -251 -98q-92 0 -162.5 39t-109.5 106.5t-39 151.5q0 83 38.5 151t106 107t150.5 39q81 0 148.5 -40t107 -114t39.5 -172q0 -17 -1 -26h-413q12 -46 50 -75t85 -29q49 0 82.5 15.5zM248 414q-33 -29 -42 -76h237
q-8 47 -41 76t-77 29t-77 -29zM131 685.5q-25 24.5 -25 63.5t24.5 63t63.5 24t63.5 -24t24.5 -63t-25 -63.5t-63 -24.5t-63 24.5zM393 685.5q-25 24.5 -25 63.5t25 63t64 24t63.5 -24t24.5 -63t-25 -63.5t-63 -24.5q-39 0 -64 24.5z" />
    <glyph glyph-name="edotaccent" unicode="&#x117;" horiz-adv-x="653" 
d="M423.5 134.5q33.5 15.5 62.5 44.5l106 -100q-90 -98 -251 -98q-92 0 -162.5 39t-109.5 106.5t-39 151.5q0 83 38.5 151t106 107t150.5 39q81 0 148.5 -40t107 -114t39.5 -172q0 -17 -1 -26h-413q12 -46 50 -75t85 -29q49 0 82.5 15.5zM248 414q-33 -29 -42 -76h237
q-8 47 -41 76t-77 29t-77 -29zM257.5 681q-26.5 26 -26.5 68t26.5 67.5t68.5 25.5q41 0 67.5 -25.5t26.5 -67.5t-26.5 -68t-67.5 -26q-42 0 -68.5 26z" />
    <glyph glyph-name="egrave" unicode="&#xe8;" horiz-adv-x="653" 
d="M423.5 134.5q33.5 15.5 62.5 44.5l106 -100q-90 -98 -251 -98q-92 0 -162.5 39t-109.5 106.5t-39 151.5q0 83 38.5 151t106 107t150.5 39q81 0 148.5 -40t107 -114t39.5 -172q0 -17 -1 -26h-413q12 -46 50 -75t85 -29q49 0 82.5 15.5zM248 414q-33 -29 -42 -76h237
q-8 47 -41 76t-77 29t-77 -29zM462 644l-273 127l60 112l273 -127z" />
    <glyph glyph-name="emacron" unicode="&#x113;" horiz-adv-x="653" 
d="M423.5 134.5q33.5 15.5 62.5 44.5l106 -100q-90 -98 -251 -98q-92 0 -162.5 39t-109.5 106.5t-39 151.5q0 83 38.5 151t106 107t150.5 39q81 0 148.5 -40t107 -114t39.5 -172q0 -17 -1 -26h-413q12 -46 50 -75t85 -29q49 0 82.5 15.5zM248 414q-33 -29 -42 -76h237
q-8 47 -41 76t-77 29t-77 -29zM160 812h331v-126h-331v126z" />
    <glyph glyph-name="eogonek" unicode="&#x119;" horiz-adv-x="653" 
d="M423.5 134.5q33.5 15.5 62.5 44.5l106 -100q-90 -98 -251 -98q-92 0 -162.5 39t-109.5 106.5t-39 151.5q0 83 38.5 151t106 107t150.5 39q81 0 148.5 -40t107 -114t39.5 -172q0 -17 -1 -26h-413q12 -46 50 -75t85 -29q49 0 82.5 15.5zM248 414q-33 -29 -42 -76h237
q-8 47 -41 76t-77 29t-77 -29zM508 -224h-170l-81 144h169z" />
    <glyph glyph-name="f" unicode="f" horiz-adv-x="418" 
d="M281 655v-99h124v-141h-124v-415h-170v415h-96v141h96v90q0 121 54 170t155 49q32 0 68.5 -8t58.5 -20l-20 -135q-17 8 -40.5 13.5t-44.5 5.5q-61 0 -61 -66z" />
    <glyph glyph-name="g" unicode="g" horiz-adv-x="694" 
d="M594.5 -215q-41.5 -58 -107 -83t-141.5 -25q-72 0 -134.5 24t-104.5 74.5t-52 126.5h170q8 -41 42.5 -62t78.5 -21q49 0 85 27t36 91v113q-62 -65 -168 -65q-76 0 -137.5 38.5t-96.5 106t-35 150.5t35 150.5t96.5 106t137.5 38.5q105 0 168 -64v45h169v-619
q0 -94 -41.5 -152zM439 173.5q38 42.5 38 106.5t-38 106.5t-99 42.5q-62 0 -99.5 -43t-37.5 -106q0 -64 37.5 -106.5t99.5 -42.5q61 0 99 42.5z" />
    <glyph glyph-name="gbreve" unicode="&#x11f;" horiz-adv-x="694" 
d="M594.5 -215q-41.5 -58 -107 -83t-141.5 -25q-72 0 -134.5 24t-104.5 74.5t-52 126.5h170q8 -41 42.5 -62t78.5 -21q49 0 85 27t36 91v113q-62 -65 -168 -65q-76 0 -137.5 38.5t-96.5 106t-35 150.5t35 150.5t96.5 106t137.5 38.5q105 0 168 -64v45h169v-619
q0 -94 -41.5 -152zM439 173.5q38 42.5 38 106.5t-38 106.5t-99 42.5q-62 0 -99.5 -43t-37.5 -106q0 -64 37.5 -106.5t99.5 -42.5q61 0 99 42.5zM490 749.5q-27 -45.5 -72.5 -72.5t-100.5 -27t-100.5 27t-72.5 72.5t-27 100.5h106q4 -33 31 -56t63 -23t62.5 23t31.5 56h106
q0 -55 -27 -100.5z" />
    <glyph glyph-name="gcircumflex" unicode="&#x11d;" horiz-adv-x="694" 
d="M594.5 -215q-41.5 -58 -107 -83t-141.5 -25q-72 0 -134.5 24t-104.5 74.5t-52 126.5h170q8 -41 42.5 -62t78.5 -21q49 0 85 27t36 91v113q-62 -65 -168 -65q-76 0 -137.5 38.5t-96.5 106t-35 150.5t35 150.5t96.5 106t137.5 38.5q105 0 168 -64v45h169v-619
q0 -94 -41.5 -152zM439 173.5q38 42.5 38 106.5t-38 106.5t-99 42.5q-62 0 -99.5 -43t-37.5 -106q0 -64 37.5 -106.5t99.5 -42.5q61 0 99 42.5zM215 634l-79 75l181 183l181 -183l-79 -75l-102 89z" />
    <glyph glyph-name="gcommaaccent" unicode="&#x123;" horiz-adv-x="694" 
d="M594.5 -215q-41.5 -58 -107 -83t-141.5 -25q-72 0 -134.5 24t-104.5 74.5t-52 126.5h170q8 -41 42.5 -62t78.5 -21q49 0 85 27t36 91v113q-62 -65 -168 -65q-76 0 -137.5 38.5t-96.5 106t-35 150.5t35 150.5t96.5 106t137.5 38.5q105 0 168 -64v45h169v-619
q0 -94 -41.5 -152zM439 173.5q38 42.5 38 106.5t-38 106.5t-99 42.5q-62 0 -99.5 -43t-37.5 -106q0 -64 37.5 -106.5t99.5 -42.5q61 0 99 42.5zM485 780l-81 -144h-170l82 144h169z" />
    <glyph glyph-name="gdotaccent" unicode="&#x121;" horiz-adv-x="694" 
d="M594.5 -215q-41.5 -58 -107 -83t-141.5 -25q-72 0 -134.5 24t-104.5 74.5t-52 126.5h170q8 -41 42.5 -62t78.5 -21q49 0 85 27t36 91v113q-62 -65 -168 -65q-76 0 -137.5 38.5t-96.5 106t-35 150.5t35 150.5t96.5 106t137.5 38.5q105 0 168 -64v45h169v-619
q0 -94 -41.5 -152zM439 173.5q38 42.5 38 106.5t-38 106.5t-99 42.5q-62 0 -99.5 -43t-37.5 -106q0 -64 37.5 -106.5t99.5 -42.5q61 0 99 42.5zM249.5 681q-26.5 26 -26.5 68t26.5 67.5t68.5 25.5q41 0 67.5 -25.5t26.5 -67.5t-26.5 -68t-67.5 -26q-42 0 -68.5 26z" />
    <glyph glyph-name="h" unicode="h" horiz-adv-x="658" 
d="M302.5 557q42.5 18 90.5 18q86 0 146.5 -55t60.5 -177v-343h-170v302q0 128 -99 128q-45 0 -73 -32t-28 -96v-302h-169v850h169v-348q30 37 72.5 55z" />
    <glyph glyph-name="hbar" unicode="&#x127;" horiz-adv-x="658" 
d="M540.5 520q60.5 -55 60.5 -177v-343h-170v302q0 128 -99 128q-45 0 -73 -32t-28 -96v-302h-169v648h-58v118h58v84h169v-84h138v-118h-138v-146q30 37 72.5 55t90.5 18q86 0 146.5 -55z" />
    <glyph glyph-name="hcircumflex" unicode="&#x125;" horiz-adv-x="658" 
d="M302.5 557q42.5 18 90.5 18q86 0 146.5 -55t60.5 -177v-343h-170v302q0 128 -99 128q-45 0 -73 -32t-28 -96v-302h-169v850h169v-348q30 37 72.5 55zM229 915l-79 75l181 183l181 -183l-79 -75l-102 89z" />
    <glyph glyph-name="i" unicode="i" 
d="M230 556v-556h-169v556h169zM77.5 681q-26.5 26 -26.5 68t26.5 67.5t68.5 25.5q41 0 67.5 -25.5t26.5 -67.5t-26.5 -68t-67.5 -26q-42 0 -68.5 26z" />
    <glyph glyph-name="dotlessi" unicode="&#x131;" 
d="M230 556v-556h-169v556h169z" />
    <glyph glyph-name="iacute" unicode="&#xed;" 
d="M230 556v-556h-169v556h169zM-51 756l273 127l60 -112l-273 -127z" />
    <glyph glyph-name="ibreve" unicode="&#x12d;" 
d="M230 556v-556h-169v556h169zM319 749.5q-27 -45.5 -72.5 -72.5t-100.5 -27t-100.5 27t-72.5 72.5t-27 100.5h106q4 -33 31 -56t63 -23t62.5 23t31.5 56h106q0 -55 -27 -100.5z" />
    <glyph glyph-name="icircumflex" unicode="&#xee;" 
d="M230 556v-556h-169v556h169zM44 634l-79 75l181 183l181 -183l-79 -75l-102 89z" />
    <glyph glyph-name="idieresis" unicode="&#xef;" 
d="M230 556v-556h-169v556h169zM-49 685.5q-25 24.5 -25 63.5t24.5 63t63.5 24t63.5 -24t24.5 -63t-25 -63.5t-63 -24.5t-63 24.5zM213 685.5q-25 24.5 -25 63.5t25 63t64 24t63.5 -24t24.5 -63t-25 -63.5t-63 -24.5q-39 0 -64 24.5z" />
    <glyph glyph-name="i.loclTRK" 
d="M230 556v-556h-169v556h169zM77.5 681q-26.5 26 -26.5 68t26.5 67.5t68.5 25.5q41 0 67.5 -25.5t26.5 -67.5t-26.5 -68t-67.5 -26q-42 0 -68.5 26z" />
    <glyph glyph-name="igrave" unicode="&#xec;" 
d="M230 556v-556h-169v556h169zM282 644l-273 127l60 112l273 -127z" />
    <glyph glyph-name="ij" unicode="&#x133;" horiz-adv-x="576" 
d="M77.5 681q-26.5 26 -26.5 68t26.5 67.5t68.5 25.5q41 0 67.5 -25.5t26.5 -67.5t-26.5 -68t-67.5 -26q-42 0 -68.5 26zM365.5 681q-26.5 26 -26.5 68t26.5 67.5t68.5 25.5q41 0 67.5 -25.5t26.5 -67.5t-26.5 -68t-67.5 -26q-42 0 -68.5 26zM230 556v-556h-169v556h169z
M349 556h170v-879h-170v879z" />
    <glyph glyph-name="imacron" unicode="&#x12b;" 
d="M230 556v-556h-169v556h169zM-20 812h331v-126h-331v126z" />
    <glyph glyph-name="iogonek" unicode="&#x12f;" 
d="M230 556v-556h-169v556h169zM77.5 681q-26.5 26 -26.5 68t26.5 67.5t68.5 25.5q41 0 67.5 -25.5t26.5 -67.5t-26.5 -68t-67.5 -26q-42 0 -68.5 26zM312 -224h-170l-81 144h169z" />
    <glyph glyph-name="itilde" unicode="&#x129;" 
d="M230 556v-556h-169v556h169zM283 695.5q-33 -28.5 -76 -28.5q-24 0 -41.5 7.5t-38.5 21.5q-25 18 -40 18q-13 0 -25 -9.5t-25 -33.5l-76 63q15 48 48 76.5t76 28.5q24 0 42 -8t38 -22q13 -9 22 -13t18 -4q13 0 25 9.5t25 33.5l76 -63q-15 -48 -48 -76.5z" />
    <glyph glyph-name="j" unicode="j" 
d="M61 556h169v-879h-169v879zM77.5 681q-26.5 26 -26.5 68t26.5 67.5t68.5 25.5q41 0 67.5 -25.5t26.5 -67.5t-26.5 -68t-67.5 -26q-42 0 -68.5 26z" />
    <glyph glyph-name="dotlessj" unicode="&#x237;" 
d="M61 556h169v-879h-169v879z" />
    <glyph glyph-name="jcircumflex" unicode="&#x135;" 
d="M61 556h169v-879h-169v879zM44 634l-79 75l181 183l181 -183l-79 -75l-102 89z" />
    <glyph glyph-name="k" unicode="k" horiz-adv-x="624" 
d="M231 0h-170v850h170v-470l170 176h206l-224 -234l248 -322h-201l-158 204l-41 -42v-162z" />
    <glyph glyph-name="kcommaaccent" unicode="&#x137;" horiz-adv-x="624" 
d="M231 0h-170v850h170v-470l170 176h206l-224 -234l248 -322h-201l-158 204l-41 -42v-162zM157 -224l81 144h170l-82 -144h-169z" />
    <glyph glyph-name="kgreenlandic" unicode="&#x138;" horiz-adv-x="624" 
d="M231 0h-170v556h170v-176l170 176h206l-224 -234l248 -322h-201l-158 204l-41 -42v-162z" />
    <glyph glyph-name="l" unicode="l" 
d="M230 850v-850h-169v850h169z" />
    <glyph glyph-name="lacute" unicode="&#x13a;" 
d="M230 850v-850h-169v850h169zM-51 1017l273 126l60 -111l-273 -127z" />
    <glyph glyph-name="lcaron" unicode="&#x13e;" 
d="M230 850v-850h-169v850h169zM382 850h158l-109 -271h-157z" />
    <glyph glyph-name="lcommaaccent" unicode="&#x13c;" 
d="M230 850v-850h-169v850h169zM-21 -224l81 144h170l-82 -144h-169z" />
    <glyph glyph-name="ldot" unicode="&#x140;" horiz-adv-x="474" 
d="M230 850v-850h-169v850h169zM306 340.5q-29 28.5 -29 69.5t29 69.5t70 28.5t69.5 -28.5t28.5 -69.5t-28.5 -69.5t-69.5 -28.5t-70 28.5z" />
    <glyph glyph-name="lslash" unicode="&#x142;" horiz-adv-x="344" 
d="M256 0h-170v298l-39 -24l-59 109l98 61v406h170v-302l52 32l59 -108l-111 -69v-403z" />
    <glyph glyph-name="m" unicode="m" horiz-adv-x="992" 
d="M298 557.5q40 17.5 84 17.5q47 0 88.5 -17t69.5 -56q36 38 83.5 55.5t110.5 17.5q49 0 94.5 -22.5t75.5 -73t30 -130.5v-349h-169v310q0 60 -25 90t-67 30q-41 0 -65.5 -30t-24.5 -90l-1 -310h-169v310q0 60 -25 90t-67 30q-41 0 -66 -30t-25 -90v-310h-169v556h169v-53
q28 37 68 54.5z" />
    <glyph glyph-name="n" unicode="n" horiz-adv-x="658" 
d="M302.5 557q42.5 18 90.5 18q86 0 146.5 -55t60.5 -177v-343h-170v302q0 128 -99 128q-45 0 -73 -32t-28 -96v-302h-169v556h169v-54q30 37 72.5 55z" />
    <glyph glyph-name="nacute" unicode="&#x144;" horiz-adv-x="658" 
d="M302.5 557q42.5 18 90.5 18q86 0 146.5 -55t60.5 -177v-343h-170v302q0 128 -99 128q-45 0 -73 -32t-28 -96v-302h-169v556h169v-54q30 37 72.5 55zM176 756l273 127l60 -112l-273 -127z" />
    <glyph glyph-name="napostrophe" unicode="&#x149;" horiz-adv-x="658" 
d="M302.5 557q42.5 18 90.5 18q86 0 146.5 -55t60.5 -177v-343h-170v302q0 128 -99 128q-45 0 -73 -32t-28 -96v-302h-169v556h169v-54q30 37 72.5 55zM-4 850h158l-109 -271h-156z" />
    <glyph glyph-name="ncaron" unicode="&#x148;" horiz-adv-x="658" 
d="M302.5 557q42.5 18 90.5 18q86 0 146.5 -55t60.5 -177v-343h-170v302q0 128 -99 128q-45 0 -73 -32t-28 -96v-302h-169v556h169v-54q30 37 72.5 55zM373 634l-181 183l79 75l102 -89l102 89l79 -75z" />
    <glyph glyph-name="ncommaaccent" unicode="&#x146;" horiz-adv-x="658" 
d="M302.5 557q42.5 18 90.5 18q86 0 146.5 -55t60.5 -177v-343h-170v302q0 128 -99 128q-45 0 -73 -32t-28 -96v-302h-169v556h169v-54q30 37 72.5 55zM164 -224l81 144h170l-82 -144h-169z" />
    <glyph glyph-name="ntilde" unicode="&#xf1;" horiz-adv-x="658" 
d="M302.5 557q42.5 18 90.5 18q86 0 146.5 -55t60.5 -177v-343h-170v302q0 128 -99 128q-45 0 -73 -32t-28 -96v-302h-169v556h169v-54q30 37 72.5 55zM510 695.5q-33 -28.5 -76 -28.5q-24 0 -41.5 7.5t-38.5 21.5q-25 18 -40 18q-13 0 -25 -9.5t-25 -33.5l-76 63
q15 48 48 76.5t76 28.5q24 0 42 -8t38 -22q13 -9 22 -13t18 -4q13 0 25 9.5t25 33.5l76 -63q-15 -48 -48 -76.5z" />
    <glyph glyph-name="o" unicode="o" horiz-adv-x="685" 
d="M504 536.5q71 -38.5 109.5 -106.5t38.5 -152t-39 -151.5t-109.5 -106.5t-162.5 -39t-162.5 39t-109.5 106.5t-39 151.5t39 152t109.5 106.5t162.5 38.5t163 -38.5zM441.5 170q38.5 44 38.5 108t-38.5 108t-100.5 44t-100 -44t-38 -108t38 -108t100 -44t100.5 44z" />
    <glyph glyph-name="oacute" unicode="&#xf3;" horiz-adv-x="685" 
d="M504 536.5q71 -38.5 109.5 -106.5t38.5 -152t-39 -151.5t-109.5 -106.5t-162.5 -39t-162.5 39t-109.5 106.5t-39 151.5t39 152t109.5 106.5t162.5 38.5t163 -38.5zM441.5 170q38.5 44 38.5 108t-38.5 108t-100.5 44t-100 -44t-38 -108t38 -108t100 -44t100.5 44zM145 756
l273 127l60 -112l-273 -127z" />
    <glyph glyph-name="obreve" unicode="&#x14f;" horiz-adv-x="685" 
d="M504 536.5q71 -38.5 109.5 -106.5t38.5 -152t-39 -151.5t-109.5 -106.5t-162.5 -39t-162.5 39t-109.5 106.5t-39 151.5t39 152t109.5 106.5t162.5 38.5t163 -38.5zM441.5 170q38.5 44 38.5 108t-38.5 108t-100.5 44t-100 -44t-38 -108t38 -108t100 -44t100.5 44z
M515 749.5q-27 -45.5 -72.5 -72.5t-100.5 -27t-100.5 27t-72.5 72.5t-27 100.5h106q4 -33 31 -56t63 -23t62.5 23t31.5 56h106q0 -55 -27 -100.5z" />
    <glyph glyph-name="ocircumflex" unicode="&#xf4;" horiz-adv-x="685" 
d="M504 536.5q71 -38.5 109.5 -106.5t38.5 -152t-39 -151.5t-109.5 -106.5t-162.5 -39t-162.5 39t-109.5 106.5t-39 151.5t39 152t109.5 106.5t162.5 38.5t163 -38.5zM441.5 170q38.5 44 38.5 108t-38.5 108t-100.5 44t-100 -44t-38 -108t38 -108t100 -44t100.5 44zM240 634
l-79 75l181 183l181 -183l-79 -75l-102 89z" />
    <glyph glyph-name="odieresis" unicode="&#xf6;" horiz-adv-x="685" 
d="M504 536.5q71 -38.5 109.5 -106.5t38.5 -152t-39 -151.5t-109.5 -106.5t-162.5 -39t-162.5 39t-109.5 106.5t-39 151.5t39 152t109.5 106.5t162.5 38.5t163 -38.5zM441.5 170q38.5 44 38.5 108t-38.5 108t-100.5 44t-100 -44t-38 -108t38 -108t100 -44t100.5 44z
M147 685.5q-25 24.5 -25 63.5t24.5 63t63.5 24t63.5 -24t24.5 -63t-25 -63.5t-63 -24.5t-63 24.5zM409 685.5q-25 24.5 -25 63.5t25 63t64 24t63.5 -24t24.5 -63t-25 -63.5t-63 -24.5q-39 0 -64 24.5z" />
    <glyph glyph-name="ograve" unicode="&#xf2;" horiz-adv-x="685" 
d="M504 536.5q71 -38.5 109.5 -106.5t38.5 -152t-39 -151.5t-109.5 -106.5t-162.5 -39t-162.5 39t-109.5 106.5t-39 151.5t39 152t109.5 106.5t162.5 38.5t163 -38.5zM441.5 170q38.5 44 38.5 108t-38.5 108t-100.5 44t-100 -44t-38 -108t38 -108t100 -44t100.5 44zM478 644
l-273 127l60 112l273 -127z" />
    <glyph glyph-name="ohungarumlaut" unicode="&#x151;" horiz-adv-x="685" 
d="M504 536.5q71 -38.5 109.5 -106.5t38.5 -152t-39 -151.5t-109.5 -106.5t-162.5 -39t-162.5 39t-109.5 106.5t-39 151.5t39 152t109.5 106.5t162.5 38.5t163 -38.5zM441.5 170q38.5 44 38.5 108t-38.5 108t-100.5 44t-100 -44t-38 -108t38 -108t100 -44t100.5 44zM184 649
l66 168h129l-68 -168h-127zM372 649l67 168h128l-68 -168h-127z" />
    <glyph glyph-name="omacron" unicode="&#x14d;" horiz-adv-x="685" 
d="M504 536.5q71 -38.5 109.5 -106.5t38.5 -152t-39 -151.5t-109.5 -106.5t-162.5 -39t-162.5 39t-109.5 106.5t-39 151.5t39 152t109.5 106.5t162.5 38.5t163 -38.5zM441.5 170q38.5 44 38.5 108t-38.5 108t-100.5 44t-100 -44t-38 -108t38 -108t100 -44t100.5 44zM176 812
h331v-126h-331v126z" />
    <glyph glyph-name="oslash" unicode="&#xf8;" horiz-adv-x="685" 
d="M624.5 408.5q27.5 -59.5 27.5 -130.5q0 -84 -39 -151.5t-109.5 -106.5t-162.5 -39q-51 0 -91 11l-74 -131l-117 51l78 135q-51 41 -79 100.5t-28 130.5q0 84 39 152t109.5 106.5t162.5 38.5q52 0 91 -11l75 131l116 -51l-77 -135q51 -41 78.5 -100.5zM241 386
q-38 -44 -38 -108q0 -52 25 -91l138 241q-16 2 -25 2q-62 0 -100 -44zM441.5 170q38.5 44 38.5 108q0 52 -26 92l-137 -242q16 -2 24 -2q62 0 100.5 44z" />
    <glyph glyph-name="oslashacute" unicode="&#x1ff;" horiz-adv-x="685" 
d="M624.5 408.5q27.5 -59.5 27.5 -130.5q0 -84 -39 -151.5t-109.5 -106.5t-162.5 -39q-51 0 -91 11l-74 -131l-117 51l78 135q-51 41 -79 100.5t-28 130.5q0 84 39 152t109.5 106.5t162.5 38.5q52 0 91 -11l75 131l116 -51l-77 -135q51 -41 78.5 -100.5zM241 386
q-38 -44 -38 -108q0 -52 25 -91l138 241q-16 2 -25 2q-62 0 -100 -44zM441.5 170q38.5 44 38.5 108q0 52 -26 92l-137 -242q16 -2 24 -2q62 0 100.5 44zM145 756l273 127l60 -112l-273 -127z" />
    <glyph glyph-name="otilde" unicode="&#xf5;" horiz-adv-x="685" 
d="M504 536.5q71 -38.5 109.5 -106.5t38.5 -152t-39 -151.5t-109.5 -106.5t-162.5 -39t-162.5 39t-109.5 106.5t-39 151.5t39 152t109.5 106.5t162.5 38.5t163 -38.5zM441.5 170q38.5 44 38.5 108t-38.5 108t-100.5 44t-100 -44t-38 -108t38 -108t100 -44t100.5 44z
M478 695.5q-33 -28.5 -76 -28.5q-24 0 -41.5 7.5t-38.5 21.5q-25 18 -40 18q-13 0 -25 -9.5t-25 -33.5l-76 63q15 48 48 76.5t76 28.5q24 0 42 -8t38 -22q13 -9 22 -13t18 -4q13 0 25 9.5t25 33.5l76 -63q-15 -48 -48 -76.5z" />
    <glyph glyph-name="oe" unicode="&#x153;" horiz-adv-x="1102" 
d="M923 535q68 -40 107.5 -114t39.5 -172l-1 -26h-413q12 -46 50 -75t85 -29q49 0 82 15.5t62 44.5l107 -100q-92 -98 -251 -98q-146 0 -225 102q-79 -102 -225 -102q-92 0 -162.5 39t-109.5 106.5t-39 151.5t39 152t109.5 106.5t162.5 38.5q146 0 225 -101q37 51 90.5 76
t117.5 25q81 0 149 -40zM851.5 414q-33.5 29 -77.5 29t-76.5 -29t-41.5 -76h237q-8 47 -41.5 76zM441.5 170q38.5 44 38.5 108t-38.5 108t-100.5 44t-100 -44t-38 -108t38 -108t100 -44t100.5 44z" />
    <glyph glyph-name="p" unicode="p" horiz-adv-x="704" 
d="M401 575q77 0 139 -38.5t97 -106.5t35 -152t-35 -152t-97 -106.5t-139 -38.5q-107 0 -171 67v-371h-169v879h169v-48q64 67 171 67zM461.5 170q38.5 44 38.5 108t-38.5 108t-100.5 44q-61 0 -100 -43.5t-39 -108.5t39 -108.5t100 -43.5q62 0 100.5 44z" />
    <glyph glyph-name="thorn" unicode="&#xfe;" horiz-adv-x="704" 
d="M401 575q77 0 139 -38.5t97 -106.5t35 -152t-35 -152t-97 -106.5t-139 -38.5q-107 0 -171 67v-371h-169v1173h169v-342q64 67 171 67zM461.5 170q38.5 44 38.5 108t-38.5 108t-100.5 44q-61 0 -100 -43.5t-39 -108.5t39 -108.5t100 -43.5q62 0 100.5 44z" />
    <glyph glyph-name="q" unicode="q" horiz-adv-x="699" 
d="M472 -323v371q-63 -67 -171 -67q-76 0 -138 38.5t-97.5 106.5t-35.5 152t35.5 152t97.5 106.5t138 38.5q108 0 171 -67v48h170v-879h-170zM442 169.5q39 43.5 39 108.5t-39 108.5t-101 43.5t-100.5 -44t-38.5 -108t38.5 -108t100.5 -44t101 43.5z" />
    <glyph glyph-name="r" unicode="r" horiz-adv-x="430" 
d="M230 494q26 35 64 54t77 19q31 0 60 -11l-21 -144q-33 7 -50 7q-60 0 -95 -32.5t-35 -112.5v-274h-169v556h169v-62z" />
    <glyph glyph-name="racute" unicode="&#x155;" horiz-adv-x="430" 
d="M230 494q26 35 64 54t77 19q31 0 60 -11l-21 -144q-33 7 -50 7q-60 0 -95 -32.5t-35 -112.5v-274h-169v556h169v-62zM65 756l273 127l60 -112l-273 -127z" />
    <glyph glyph-name="rcaron" unicode="&#x159;" horiz-adv-x="430" 
d="M230 494q26 35 64 54t77 19q31 0 60 -11l-21 -144q-33 7 -50 7q-60 0 -95 -32.5t-35 -112.5v-274h-169v556h169v-62zM262 634l-181 183l79 75l102 -89l102 89l79 -75z" />
    <glyph glyph-name="rcommaaccent" unicode="&#x157;" horiz-adv-x="430" 
d="M230 494q26 35 64 54t77 19q31 0 60 -11l-21 -144q-33 7 -50 7q-60 0 -95 -32.5t-35 -112.5v-274h-169v556h169v-62zM-20 -224l81 144h170l-82 -144h-169z" />
    <glyph glyph-name="s" unicode="s" horiz-adv-x="542" 
d="M354.5 424.5q-47.5 18.5 -89.5 18.5q-76 0 -76 -43q0 -21 24.5 -30t82.5 -19q68 -11 113.5 -25.5t79 -50.5t33.5 -99q0 -96 -71 -145.5t-187 -49.5q-86 0 -156 24.5t-102 51.5l67 122q33 -29 87.5 -46.5t104.5 -17.5q39 0 60.5 12.5t21.5 33.5q0 22 -25 32t-80 20
q-65 12 -108 26.5t-75 50.5t-32 99q0 87 63 136.5t175 49.5q77 0 140.5 -25.5t97.5 -50.5l-66 -118q-35 25 -82.5 43.5z" />
    <glyph glyph-name="sacute" unicode="&#x15b;" horiz-adv-x="542" 
d="M354.5 424.5q-47.5 18.5 -89.5 18.5q-76 0 -76 -43q0 -21 24.5 -30t82.5 -19q68 -11 113.5 -25.5t79 -50.5t33.5 -99q0 -96 -71 -145.5t-187 -49.5q-86 0 -156 24.5t-102 51.5l67 122q33 -29 87.5 -46.5t104.5 -17.5q39 0 60.5 12.5t21.5 33.5q0 22 -25 32t-80 20
q-65 12 -108 26.5t-75 50.5t-32 99q0 87 63 136.5t175 49.5q77 0 140.5 -25.5t97.5 -50.5l-66 -118q-35 25 -82.5 43.5zM67 756l273 127l60 -112l-273 -127z" />
    <glyph glyph-name="scaron" unicode="&#x161;" horiz-adv-x="542" 
d="M354.5 424.5q-47.5 18.5 -89.5 18.5q-76 0 -76 -43q0 -21 24.5 -30t82.5 -19q68 -11 113.5 -25.5t79 -50.5t33.5 -99q0 -96 -71 -145.5t-187 -49.5q-86 0 -156 24.5t-102 51.5l67 122q33 -29 87.5 -46.5t104.5 -17.5q39 0 60.5 12.5t21.5 33.5q0 22 -25 32t-80 20
q-65 12 -108 26.5t-75 50.5t-32 99q0 87 63 136.5t175 49.5q77 0 140.5 -25.5t97.5 -50.5l-66 -118q-35 25 -82.5 43.5zM264 634l-181 183l79 75l102 -89l102 89l79 -75z" />
    <glyph glyph-name="scedilla" unicode="&#x15f;" horiz-adv-x="542" 
d="M354.5 424.5q-47.5 18.5 -89.5 18.5q-76 0 -76 -43q0 -21 24.5 -30t82.5 -19q68 -11 113.5 -25.5t79 -50.5t33.5 -99q0 -96 -71 -145.5t-187 -49.5q-86 0 -156 24.5t-102 51.5l67 122q33 -29 87.5 -46.5t104.5 -17.5q39 0 60.5 12.5t21.5 33.5q0 22 -25 32t-80 20
q-65 12 -108 26.5t-75 50.5t-32 99q0 87 63 136.5t175 49.5q77 0 140.5 -25.5t97.5 -50.5l-66 -118q-35 25 -82.5 43.5zM97 -224l81 144h170l-82 -144h-169z" />
    <glyph glyph-name="scircumflex" unicode="&#x15d;" horiz-adv-x="542" 
d="M354.5 424.5q-47.5 18.5 -89.5 18.5q-76 0 -76 -43q0 -21 24.5 -30t82.5 -19q68 -11 113.5 -25.5t79 -50.5t33.5 -99q0 -96 -71 -145.5t-187 -49.5q-86 0 -156 24.5t-102 51.5l67 122q33 -29 87.5 -46.5t104.5 -17.5q39 0 60.5 12.5t21.5 33.5q0 22 -25 32t-80 20
q-65 12 -108 26.5t-75 50.5t-32 99q0 87 63 136.5t175 49.5q77 0 140.5 -25.5t97.5 -50.5l-66 -118q-35 25 -82.5 43.5zM162 634l-79 75l181 183l181 -183l-79 -75l-102 89z" />
    <glyph glyph-name="scommaaccent" unicode="&#x219;" horiz-adv-x="542" 
d="M354.5 424.5q-47.5 18.5 -89.5 18.5q-76 0 -76 -43q0 -21 24.5 -30t82.5 -19q68 -11 113.5 -25.5t79 -50.5t33.5 -99q0 -96 -71 -145.5t-187 -49.5q-86 0 -156 24.5t-102 51.5l67 122q33 -29 87.5 -46.5t104.5 -17.5q39 0 60.5 12.5t21.5 33.5q0 22 -25 32t-80 20
q-65 12 -108 26.5t-75 50.5t-32 99q0 87 63 136.5t175 49.5q77 0 140.5 -25.5t97.5 -50.5l-66 -118q-35 25 -82.5 43.5zM97 -224l81 144h170l-82 -144h-169z" />
    <glyph glyph-name="germandbls" unicode="&#xdf;" horiz-adv-x="688" 
d="M620.5 374q35.5 -52 35.5 -126q0 -75 -38.5 -136t-104.5 -96t-146 -35q-53 0 -95 14v166q35 -28 80 -28q55 0 92 35t37 85t-36.5 83t-89.5 33q-44 0 -74 -13v153q47 -1 80 3q39 7 66 38t27 70q0 41 -31.5 69.5t-76.5 28.5q-46 0 -81 -28.5t-35 -72.5v-617h-169v621
q0 68 39 125t105.5 90t145.5 33q76 0 139 -32.5t99.5 -88t36.5 -119.5q0 -58 -24.5 -101t-77.5 -75q61 -27 96.5 -79z" />
    <glyph glyph-name="t" unicode="t" horiz-adv-x="418" 
d="M283 415v-415h-170v415h-95v141h95v216h170v-216h124v-141h-124z" />
    <glyph glyph-name="tbar" unicode="&#x167;" horiz-adv-x="418" 
d="M283 358h89v-118h-89v-240h-170v240h-66v118h66v57h-95v141h95v216h170v-216h124v-141h-124v-57z" />
    <glyph glyph-name="tcaron" unicode="&#x165;" horiz-adv-x="418" 
d="M283 415v-415h-170v415h-95v141h95v216h170v-216h124v-141h-124zM435 850h158l-109 -271h-157z" />
    <glyph glyph-name="tcedilla" unicode="&#x163;" horiz-adv-x="418" 
d="M283 415v-415h-170v415h-95v141h95v216h170v-216h124v-141h-124zM31 -224l81 144h170l-82 -144h-169z" />
    <glyph glyph-name="uni021B" unicode="&#x21b;" horiz-adv-x="418" 
d="M283 415v-415h-170v415h-95v141h95v216h170v-216h124v-141h-124zM31 -224l81 144h170l-82 -144h-169z" />
    <glyph glyph-name="u" unicode="u" horiz-adv-x="649" 
d="M258 155.5q28 -29.5 68 -29.5t68 29.5t28 74.5v326h169v-305q0 -84 -35 -144t-95.5 -91t-134.5 -31t-134.5 31t-95.5 91t-35 144v305h169v-326q0 -45 28 -74.5z" />
    <glyph glyph-name="uacute" unicode="&#xfa;" horiz-adv-x="649" 
d="M258 155.5q28 -29.5 68 -29.5t68 29.5t28 74.5v326h169v-305q0 -84 -35 -144t-95.5 -91t-134.5 -31t-134.5 31t-95.5 91t-35 144v305h169v-326q0 -45 28 -74.5zM129 756l273 127l60 -112l-273 -127z" />
    <glyph glyph-name="ubreve" unicode="&#x16d;" horiz-adv-x="649" 
d="M258 155.5q28 -29.5 68 -29.5t68 29.5t28 74.5v326h169v-305q0 -84 -35 -144t-95.5 -91t-134.5 -31t-134.5 31t-95.5 91t-35 144v305h169v-326q0 -45 28 -74.5zM499 749.5q-27 -45.5 -72.5 -72.5t-100.5 -27t-100.5 27t-72.5 72.5t-27 100.5h106q4 -33 31 -56t63 -23
t62.5 23t31.5 56h106q0 -55 -27 -100.5z" />
    <glyph glyph-name="ucircumflex" unicode="&#xfb;" horiz-adv-x="649" 
d="M258 155.5q28 -29.5 68 -29.5t68 29.5t28 74.5v326h169v-305q0 -84 -35 -144t-95.5 -91t-134.5 -31t-134.5 31t-95.5 91t-35 144v305h169v-326q0 -45 28 -74.5zM224 634l-79 75l181 183l181 -183l-79 -75l-102 89z" />
    <glyph glyph-name="udieresis" unicode="&#xfc;" horiz-adv-x="649" 
d="M258 155.5q28 -29.5 68 -29.5t68 29.5t28 74.5v326h169v-305q0 -84 -35 -144t-95.5 -91t-134.5 -31t-134.5 31t-95.5 91t-35 144v305h169v-326q0 -45 28 -74.5zM132 685.5q-25 24.5 -25 63.5t24.5 63t63.5 24t63.5 -24t24.5 -63t-25 -63.5t-63 -24.5t-63 24.5zM394 685.5
q-25 24.5 -25 63.5t25 63t64 24t63.5 -24t24.5 -63t-25 -63.5t-63 -24.5q-39 0 -64 24.5z" />
    <glyph glyph-name="ugrave" unicode="&#xf9;" horiz-adv-x="649" 
d="M258 155.5q28 -29.5 68 -29.5t68 29.5t28 74.5v326h169v-305q0 -84 -35 -144t-95.5 -91t-134.5 -31t-134.5 31t-95.5 91t-35 144v305h169v-326q0 -45 28 -74.5zM463 644l-273 127l60 112l273 -127z" />
    <glyph glyph-name="uhungarumlaut" unicode="&#x171;" horiz-adv-x="649" 
d="M258 155.5q28 -29.5 68 -29.5t68 29.5t28 74.5v326h169v-305q0 -84 -35 -144t-95.5 -91t-134.5 -31t-134.5 31t-95.5 91t-35 144v305h169v-326q0 -45 28 -74.5zM169 649l66 168h129l-68 -168h-127zM357 649l67 168h128l-68 -168h-127z" />
    <glyph glyph-name="umacron" unicode="&#x16b;" horiz-adv-x="649" 
d="M258 155.5q28 -29.5 68 -29.5t68 29.5t28 74.5v326h169v-305q0 -84 -35 -144t-95.5 -91t-134.5 -31t-134.5 31t-95.5 91t-35 144v305h169v-326q0 -45 28 -74.5zM161 812h331v-126h-331v126z" />
    <glyph glyph-name="uogonek" unicode="&#x173;" horiz-adv-x="649" 
d="M258 155.5q28 -29.5 68 -29.5t68 29.5t28 74.5v326h169v-305q0 -84 -35 -144t-95.5 -91t-134.5 -31t-134.5 31t-95.5 91t-35 144v305h169v-326q0 -45 28 -74.5zM492 -224h-170l-81 144h169z" />
    <glyph glyph-name="uring" unicode="&#x16f;" horiz-adv-x="649" 
d="M258 155.5q28 -29.5 68 -29.5t68 29.5t28 74.5v326h169v-305q0 -84 -35 -144t-95.5 -91t-134.5 -31t-134.5 31t-95.5 91t-35 144v305h169v-326q0 -45 28 -74.5zM254 645q-33 19 -52 51.5t-19 70.5t19 70.5t52 51.5t72 19t72 -19t52.5 -51.5t19.5 -70.5t-19.5 -70.5
t-52.5 -51.5t-72 -19t-72 19zM365 727.5q16 16.5 16 39.5t-16 39t-39 16q-22 0 -38 -16.5t-16 -38.5q0 -23 16 -39.5t38 -16.5q23 0 39 16.5z" />
    <glyph glyph-name="utilde" unicode="&#x169;" horiz-adv-x="649" 
d="M258 155.5q28 -29.5 68 -29.5t68 29.5t28 74.5v326h169v-305q0 -84 -35 -144t-95.5 -91t-134.5 -31t-134.5 31t-95.5 91t-35 144v305h169v-326q0 -45 28 -74.5zM463 695.5q-33 -28.5 -76 -28.5q-24 0 -41.5 7.5t-38.5 21.5q-25 18 -40 18q-13 0 -25 -9.5t-25 -33.5
l-76 63q15 48 48 76.5t76 28.5q24 0 42 -8t38 -22q13 -9 22 -13t18 -4q13 0 25 9.5t25 33.5l76 -63q-15 -48 -48 -76.5z" />
    <glyph glyph-name="v" unicode="v" horiz-adv-x="665" 
d="M189 556l145 -294l149 294h188l-338 -591l-339 591h195z" />
    <glyph glyph-name="w" unicode="w" horiz-adv-x="1050" 
d="M333 -35l-339 591h196l148 -292l187 321l188 -323l150 294h193l-339 -591l-193 330z" />
    <glyph glyph-name="wacute" unicode="&#x1e83;" horiz-adv-x="1050" 
d="M333 -35l-339 591h196l148 -292l187 321l188 -323l150 294h193l-339 -591l-193 330zM327 756l273 127l60 -112l-273 -127z" />
    <glyph glyph-name="wcircumflex" unicode="&#x175;" horiz-adv-x="1050" 
d="M333 -35l-339 591h196l148 -292l187 321l188 -323l150 294h193l-339 -591l-193 330zM422 634l-79 75l181 183l181 -183l-79 -75l-102 89z" />
    <glyph glyph-name="wdieresis" unicode="&#x1e85;" horiz-adv-x="1050" 
d="M333 -35l-339 591h196l148 -292l187 321l188 -323l150 294h193l-339 -591l-193 330zM330 685.5q-25 24.5 -25 63.5t24.5 63t63.5 24t63.5 -24t24.5 -63t-25 -63.5t-63 -24.5t-63 24.5zM592 685.5q-25 24.5 -25 63.5t25 63t64 24t63.5 -24t24.5 -63t-25 -63.5t-63 -24.5
q-39 0 -64 24.5z" />
    <glyph glyph-name="wgrave" unicode="&#x1e81;" horiz-adv-x="1050" 
d="M333 -35l-339 591h196l148 -292l187 321l188 -323l150 294h193l-339 -591l-193 330zM661 644l-273 127l60 112l273 -127z" />
    <glyph glyph-name="x" unicode="x" horiz-adv-x="608" 
d="M186 0h-192l205 276l-196 280h201l104 -166l105 166h191l-194 -272l206 -284h-202l-114 170z" />
    <glyph glyph-name="y" unicode="y" horiz-adv-x="673" 
d="M491 556h187l-502 -879h-190l263 443l-247 436h195l142 -286z" />
    <glyph glyph-name="yacute" unicode="&#xfd;" horiz-adv-x="673" 
d="M491 556h187l-502 -879h-190l263 443l-247 436h195l142 -286zM144 756l273 127l60 -112l-273 -127z" />
    <glyph glyph-name="ycircumflex" unicode="&#x177;" horiz-adv-x="673" 
d="M491 556h187l-502 -879h-190l263 443l-247 436h195l142 -286zM239 634l-79 75l181 183l181 -183l-79 -75l-102 89z" />
    <glyph glyph-name="ydieresis" unicode="&#xff;" horiz-adv-x="673" 
d="M491 556h187l-502 -879h-190l263 443l-247 436h195l142 -286zM147 685.5q-25 24.5 -25 63.5t24.5 63t63.5 24t63.5 -24t24.5 -63t-25 -63.5t-63 -24.5t-63 24.5zM409 685.5q-25 24.5 -25 63.5t25 63t64 24t63.5 -24t24.5 -63t-25 -63.5t-63 -24.5q-39 0 -64 24.5z" />
    <glyph glyph-name="ygrave" unicode="&#x1ef3;" horiz-adv-x="673" 
d="M491 556h187l-502 -879h-190l263 443l-247 436h195l142 -286zM478 644l-273 127l60 112l273 -127z" />
    <glyph glyph-name="z" unicode="z" horiz-adv-x="592" 
d="M290 417l-248 -1v140h539l-281 -416h260v-140h-551z" />
    <glyph glyph-name="zacute" unicode="&#x17a;" horiz-adv-x="592" 
d="M290 417l-248 -1v140h539l-281 -416h260v-140h-551zM114 756l273 127l60 -112l-273 -127z" />
    <glyph glyph-name="zcaron" unicode="&#x17e;" horiz-adv-x="592" 
d="M290 417l-248 -1v140h539l-281 -416h260v-140h-551zM311 634l-181 183l79 75l102 -89l102 89l79 -75z" />
    <glyph glyph-name="zdotaccent" unicode="&#x17c;" horiz-adv-x="592" 
d="M290 417l-248 -1v140h539l-281 -416h260v-140h-551zM243.5 681q-26.5 26 -26.5 68t26.5 67.5t68.5 25.5q41 0 67.5 -25.5t26.5 -67.5t-26.5 -68t-67.5 -26q-42 0 -68.5 26z" />
    <glyph glyph-name="f_i" horiz-adv-x="716" 
d="M281 655v-99h124v-141h-124v-415h-170v415h-96v141h96v90q0 121 54 170t155 49q32 0 68.5 -8t58.5 -20l-20 -135q-17 8 -40.5 13.5t-44.5 5.5q-61 0 -61 -66zM658 556v-556h-169v556h169zM505.5 681q-26.5 26 -26.5 68t26.5 67.5t68.5 25.5q41 0 67.5 -25.5t26.5 -67.5
t-26.5 -68t-67.5 -26q-42 0 -68.5 26z" />
    <glyph glyph-name="f_l" horiz-adv-x="706" 
d="M281 655v-99h124v-141h-124v-415h-170v415h-96v141h96v90q0 121 54 170t155 49q32 0 68.5 -8t58.5 -20l-20 -135q-17 8 -40.5 13.5t-44.5 5.5q-61 0 -61 -66zM648 850v-850h-169v850h169z" />
    <glyph glyph-name="fi" unicode="&#xfb01;" horiz-adv-x="716" 
d="M281 655v-99h124v-141h-124v-415h-170v415h-96v141h96v90q0 121 54 170t155 49q32 0 68.5 -8t58.5 -20l-20 -135q-17 8 -40.5 13.5t-44.5 5.5q-61 0 -61 -66zM658 556v-556h-169v556h169zM505.5 681q-26.5 26 -26.5 68t26.5 67.5t68.5 25.5q41 0 67.5 -25.5t26.5 -67.5
t-26.5 -68t-67.5 -26q-42 0 -68.5 26z" />
    <glyph glyph-name="fl" unicode="&#xfb02;" horiz-adv-x="706" 
d="M281 655v-99h124v-141h-124v-415h-170v415h-96v141h96v90q0 121 54 170t155 49q32 0 68.5 -8t58.5 -20l-20 -135q-17 8 -40.5 13.5t-44.5 5.5q-61 0 -61 -66zM648 850v-850h-169v850h169z" />
    <glyph glyph-name="ordfeminine" unicode="&#xaa;" horiz-adv-x="651" 
d="M415 396v38q-27 -27 -63 -40.5t-78 -13.5q-64 0 -115 32t-80.5 88t-29.5 125t29.5 125t80.5 88t115 32q42 0 78 -13.5t63 -40.5v38h135v-458h-135zM390 532q33 37 33 93t-33 93t-86 37t-86 -38t-33 -92t33 -92t86 -38t86 37zM42 0v147h565v-147h-565z" />
    <glyph glyph-name="ordmasculine" unicode="&#xba;" horiz-adv-x="651" 
d="M457.5 838q57.5 -32 89.5 -88t32 -125t-32 -125t-89.5 -88t-132.5 -32t-133 32t-90 88t-32 125t32 125t90 88t133 32t132.5 -32zM411 533q33 38 33 92t-33 92t-86 38t-86 -38t-33 -92t33 -92t86 -38t86 38zM42 0v147h565v-147h-565z" />
    <glyph glyph-name="zero" unicode="0" horiz-adv-x="712" 
d="M520.5 820.5q70.5 -48.5 110 -148t39.5 -247.5t-39.5 -247.5t-110 -148t-165.5 -48.5t-165.5 48.5t-110 148t-39.5 247.5t39.5 247.5t110 148t165.5 48.5t165.5 -48.5zM453 193.5q36 67.5 36 231.5t-36 231.5t-98 67.5q-63 0 -99 -67.5t-36 -231.5t36 -231.5t99 -67.5
q62 0 98 67.5z" />
    <glyph glyph-name="one" unicode="1" horiz-adv-x="336" 
d="M78 0v850h178v-850h-178z" />
    <glyph glyph-name="two" unicode="2" horiz-adv-x="601" 
d="M10 0q149 183 227 299.5t102.5 179t24.5 106.5q0 55 -36.5 91t-90.5 36q-43 0 -98 -34t-95 -78l-25 165q44 45 111.5 74.5t130.5 29.5q77 0 141 -31.5t102 -92t38 -141.5q0 -110 -60.5 -216.5t-167.5 -234.5h253v-153h-557z" />
    <glyph glyph-name="three" unicode="3" horiz-adv-x="629" 
d="M562.5 368q30.5 -53 30.5 -121q0 -73 -39 -134t-105.5 -96.5t-145.5 -35.5q-75 0 -136.5 31.5t-100 83.5t-46.5 109h172q11 -32 39.5 -55.5t71.5 -23.5q49 0 83 35.5t34 86.5q0 52 -35 87t-88 35q-35 0 -72 -10v150q32 -2 49 -2q23 0 37 3q41 7 67.5 35.5t26.5 71.5
q0 44 -30 76t-72 32q-38 0 -65.5 -24.5t-34.5 -56.5h-165q6 59 40.5 110.5t92.5 82.5t132 31q75 0 136.5 -33.5t96.5 -90.5t35 -124q0 -102 -94 -167q55 -33 85.5 -86z" />
    <glyph glyph-name="four" unicode="4" horiz-adv-x="721" 
d="M595 182v-182h-178v182h-425l603 699v-554h100v-145h-100zM417 506l-153 -179h153v179z" />
    <glyph glyph-name="five" unicode="5" horiz-adv-x="630" 
d="M462.5 503q61.5 -37 96 -101t34.5 -142q0 -79 -37.5 -142.5t-106.5 -100t-158 -36.5q-133 0 -219 60v174q44 -39 103 -64t115 -25q58 0 94.5 38.5t36.5 95.5t-36.5 95.5t-95.5 38.5q-94 0 -217 -52v508h456v-155h-290v-166q33 11 85 11q78 0 139.5 -37z" />
    <glyph glyph-name="six" unicode="6" horiz-adv-x="673" 
d="M502 484q62 -32 102 -92.5t40 -141.5q0 -76 -38 -137t-107 -96.5t-157 -35.5q-89 0 -157.5 35.5t-106.5 96.5t-38 137q0 59 22.5 118.5t67.5 143.5l185 338h190l-149 -273q-21 -40 -38 -70q31 9 56 9q66 0 128 -32zM434.5 161.5q36.5 35.5 36.5 88.5t-36.5 88.5
t-92.5 35.5q-57 0 -93.5 -35.5t-36.5 -88.5t36.5 -88.5t93.5 -35.5q56 0 92.5 35.5z" />
    <glyph glyph-name="seven" unicode="7" horiz-adv-x="603" 
d="M234 0h-188l294 691h-332v159h588z" />
    <glyph glyph-name="eight" unicode="8" horiz-adv-x="670" 
d="M606 368.5q30 -53.5 30 -118.5q0 -76 -37.5 -137.5t-106.5 -96.5t-158 -35t-157.5 35t-106 96.5t-37.5 137.5q0 65 29.5 118.5t82.5 89.5q-86 66 -86 166q0 67 37 123t100.5 89t137.5 33q75 0 138 -33t100 -89t37 -123q0 -100 -86 -166q53 -36 83 -89.5zM412 545
q32 31 32 75t-32 75t-78 31q-45 0 -77.5 -31.5t-32.5 -74.5q0 -44 32.5 -75t77.5 -31q46 0 78 31zM240.5 339q-35.5 -36 -35.5 -89t35.5 -88.5t93.5 -35.5t94 35.5t36 88.5q0 52 -36 88.5t-94 36.5t-93.5 -36z" />
    <glyph glyph-name="nine" unicode="9" horiz-adv-x="668" 
d="M169.5 366q-62.5 32 -102 92.5t-39.5 141.5q0 76 38 137t107 96.5t157 35.5q89 0 157.5 -35.5t106.5 -96.5t38 -137q0 -58 -22 -117t-68 -145l-186 -338h-189l149 273l37 70q-30 -9 -56 -9q-65 0 -127.5 32zM236.5 688.5q-36.5 -35.5 -36.5 -88.5t36.5 -88.5t93.5 -35.5
t93.5 35.5t36.5 88.5t-36.5 88.5t-93.5 35.5t-93.5 -35.5z" />
    <glyph glyph-name="one.tf" horiz-adv-x="336" 
d="M78 0v850h178v-850h-178z" />
    <glyph glyph-name="onesuperior" unicode="&#xb9;" horiz-adv-x="262" 
d="M76 433v417h108v-417h-108z" />
    <glyph glyph-name="twosuperior" unicode="&#xb2;" horiz-adv-x="357" 
d="M35 433q96 128 124.5 189t28.5 94q0 21 -13 33.5t-34 12.5q-19 0 -42.5 -13t-43.5 -32l-15 99q24 21 55.5 33t61.5 12q60 0 102 -35.5t42 -95.5q1 -89 -95 -205h114v-92h-285z" />
    <glyph glyph-name="threesuperior" unicode="&#xb3;" horiz-adv-x="359" 
d="M311.5 612q14.5 -26 14.5 -59q0 -35 -20 -65.5t-54 -48t-74 -17.5t-73 17.5t-52 45.5t-22 57h105q2 -12 12.5 -22.5t29.5 -10.5t31 13t12 34t-13.5 34t-37.5 13q-9 0 -25 -4v87q6 -1 18 -1q9 0 21 2q15 3 24.5 14.5t9.5 29.5q0 19 -11.5 31.5t-28.5 12.5q-16 0 -26 -10
t-12 -22h-100q2 30 19 57t47.5 44t71.5 17q39 0 71.5 -17t50.5 -46t18 -62q0 -55 -49 -83q28 -15 42.5 -41z" />
    <glyph glyph-name="asterisk" unicode="*" horiz-adv-x="464" 
d="M289 729l100 67l63 -111l-113 -52l113 -52l-63 -111l-100 67l8 -121h-131l9 121l-100 -67l-64 111l114 52l-114 52l64 111l100 -67l-9 121h131z" />
    <glyph glyph-name="backslash" unicode="\" horiz-adv-x="783" 
d="M573 -55l-502 873l140 90l500 -875z" />
    <glyph glyph-name="periodcentered" unicode="&#xb7;" horiz-adv-x="266" 
d="M62 251.5q-29 28.5 -29 69.5t29 69.5t70 28.5t69.5 -28.5t28.5 -69.5t-28.5 -69.5t-69.5 -28.5t-70 28.5z" />
    <glyph glyph-name="bullet" unicode="&#x2022;" horiz-adv-x="490" 
d="M140.5 163q-47.5 28 -75.5 75.5t-28 103.5t28 103.5t75.5 75.5t103.5 28q57 0 104.5 -28t75 -75.5t27.5 -103.5t-27.5 -103.5t-75 -75.5t-104.5 -28q-56 0 -103.5 28z" />
    <glyph glyph-name="colon" unicode=":" horiz-adv-x="266" 
d="M62 363.5q-29 28.5 -29 69.5t29 69.5t70 28.5t69.5 -28.5t28.5 -69.5t-28.5 -69.5t-69.5 -28.5t-70 28.5zM62 9.5q-29 28.5 -29 69.5t29 69.5t70 28.5t69.5 -28.5t28.5 -69.5t-28.5 -69.5t-69.5 -28.5t-70 28.5z" />
    <glyph glyph-name="comma" unicode="," horiz-adv-x="249" 
d="M-45 -159l122 306h164l-124 -306h-162z" />
    <glyph glyph-name="ellipsis" unicode="&#x2026;" horiz-adv-x="921" 
d="M63.5 11q-30.5 30 -30.5 73q0 42 30.5 72t72.5 30q43 0 73 -30t30 -72q0 -43 -30 -73t-73 -30q-42 0 -72.5 30zM387.5 11q-30.5 30 -30.5 73q0 42 30.5 72t72.5 30q43 0 73 -30t30 -72q0 -43 -30 -73t-73 -30q-42 0 -72.5 30zM709.5 11q-30.5 30 -30.5 73q0 42 30.5 72
t72.5 30q43 0 73 -30t30 -72q0 -43 -30 -73t-73 -30q-42 0 -72.5 30z" />
    <glyph glyph-name="exclam" unicode="!" horiz-adv-x="303" 
d="M56 850h189l-11 -606h-167zM81 9.5q-29 28.5 -29 69.5t29 69.5t70 28.5t69.5 -28.5t28.5 -69.5t-28.5 -69.5t-69.5 -28.5t-70 28.5z" />
    <glyph glyph-name="exclamdown" unicode="&#xa1;" horiz-adv-x="303" 
d="M220.5 502.5q28.5 -28.5 28.5 -69.5t-28.5 -69.5t-69.5 -28.5t-70 28.5t-29 69.5t29 69.5t70 28.5t69.5 -28.5zM56 -338l11 607h167l11 -607h-189z" />
    <glyph glyph-name="numbersign" unicode="#" horiz-adv-x="969" 
d="M707 347h149v-138h-191l-64 -209h-162l64 209h-173l-64 -209h-162l64 209h-147v138h189l49 157h-148v138h190l63 208h162l-63 -208h172l64 208h162l-64 -208h149v-138h-191zM420 504l-48 -157h173l48 157h-173z" />
    <glyph glyph-name="period" unicode="." horiz-adv-x="275" 
d="M63.5 11q-30.5 30 -30.5 73q0 42 30.5 72t72.5 30q43 0 73 -30t30 -72q0 -43 -30 -73t-73 -30q-42 0 -72.5 30z" />
    <glyph glyph-name="question" unicode="?" horiz-adv-x="588" 
d="M138.5 844.5q65.5 24.5 138.5 24.5q84 0 150.5 -32t104.5 -91.5t38 -139.5q0 -83 -35 -146.5t-115 -122.5t-220 -125l-75 139q141 67 203.5 125.5t62.5 113.5q0 53 -39.5 87.5t-97.5 34.5q-47 0 -105 -28.5t-104 -67.5l-24 161q52 43 117.5 67.5zM325.5 148.5
q28.5 -28.5 28.5 -69.5t-28.5 -69.5t-69.5 -28.5t-70 28.5t-29 69.5t29 69.5t70 28.5t69.5 -28.5z" />
    <glyph glyph-name="questiondown" unicode="&#xbf;" horiz-adv-x="583" 
d="M262 363.5q-29 28.5 -29 69.5t29 69.5t70 28.5t69.5 -28.5t28.5 -69.5t-28.5 -69.5t-69.5 -28.5t-70 28.5zM449 -332q-66 -25 -138 -25q-85 0 -151.5 32t-104 91.5t-37.5 139.5q0 83 35 146.5t114.5 122.5t220.5 125l74 -139q-141 -68 -203.5 -126t-62.5 -113
q0 -53 40 -87.5t98 -34.5q46 0 104 28.5t104 67.5l24 -160q-51 -43 -117 -68z" />
    <glyph glyph-name="quotedbl" unicode="&#x22;" horiz-adv-x="513" 
d="M50 850h163l-10 -311h-145zM298 850h163l-11 -311h-145z" />
    <glyph glyph-name="quotesingle" unicode="'" horiz-adv-x="285" 
d="M50 850h182l-16 -311h-153z" />
    <glyph glyph-name="semicolon" unicode=";" horiz-adv-x="289" 
d="M86.5 363.5q-28.5 28.5 -28.5 69.5t28.5 69.5t69.5 28.5t69.5 -28.5t28.5 -69.5t-28.5 -69.5t-69.5 -28.5t-69.5 28.5zM-45 -159l122 306h164l-124 -306h-162z" />
    <glyph glyph-name="slash" unicode="/" horiz-adv-x="898" 
d="M208 -256l-137 89l615 1075l140 -90z" />
    <glyph glyph-name="underscore" unicode="_" horiz-adv-x="713" 
d="M11 -91h691v-152h-691v152z" />
    <glyph glyph-name="braceleft" unicode="{" horiz-adv-x="491" 
d="M322.5 492.5q-26.5 -50.5 -78.5 -65.5q52 -17 78.5 -68t26.5 -125v-181q0 -56 27.5 -83.5t85.5 -27.5v-152q-145 0 -218 62t-73 183v172q0 58 -10.5 88.5t-31.5 42t-59 11.5h-58v153h58q37 0 58.5 11.5t32 42.5t10.5 89v170q0 122 71.5 183.5t219.5 61.5v-152
q-58 0 -85.5 -27.5t-27.5 -83.5v-180q0 -74 -26.5 -124.5z" />
    <glyph glyph-name="braceright" unicode="}" horiz-adv-x="491" 
d="M112.5 880.5q-27.5 27.5 -85.5 27.5v152q148 0 219.5 -61.5t71.5 -183.5v-170q0 -58 10.5 -89t32 -42.5t58.5 -11.5h58v-153h-58q-38 0 -59 -11.5t-31.5 -42t-10.5 -88.5v-172q0 -121 -73 -183t-218 -62v152q58 0 85.5 27.5t27.5 83.5v181q0 74 26.5 125t78.5 68
q-52 15 -78.5 65.5t-26.5 124.5v180q0 56 -27.5 83.5z" />
    <glyph glyph-name="bracketleft" unicode="[" horiz-adv-x="345" 
d="M319 2v-153h-288v1152h288v-153h-110v-846h110z" />
    <glyph glyph-name="bracketright" unicode="]" horiz-adv-x="345" 
d="M24 -151v153h110v846h-110v153h288v-1152h-288z" />
    <glyph glyph-name="parenleft" unicode="(" horiz-adv-x="419" 
d="M302 755.5q-49 -72.5 -78 -157.5t-29 -167q0 -83 29 -167.5t77.5 -157.5t106.5 -121l-121 -106q-117 100 -192.5 241t-75.5 311t75.5 310.5t192.5 240.5l121 -106q-57 -48 -106 -120.5z" />
    <glyph glyph-name="parenright" unicode=")" horiz-adv-x="419" 
d="M324.5 741q75.5 -141 75.5 -310q0 -170 -75.5 -311t-192.5 -241l-121 106q58 48 106.5 121t77.5 157.5t29 167.5q0 82 -29 167t-78 157.5t-106 120.5l121 106q117 -100 192.5 -241z" />
    <glyph glyph-name="emdash" unicode="&#x2014;" horiz-adv-x="1037" 
d="M25 403h986v-153h-986v153z" />
    <glyph glyph-name="endash" unicode="&#x2013;" horiz-adv-x="644" 
d="M25 403h593v-153h-593v153z" />
    <glyph glyph-name="hyphen" unicode="-" horiz-adv-x="486" 
d="M47 403h391v-153h-391v153z" />
    <glyph glyph-name="guillemotleft" unicode="&#xab;" horiz-adv-x="734" 
d="M694 166l-66 -116l-279 246l279 245l66 -116l-146 -129zM382 166l-66 -116l-279 246l279 245l66 -116l-146 -129z" />
    <glyph glyph-name="guillemotright" unicode="&#xbb;" horiz-adv-x="734" 
d="M382 296l-278 -246l-67 116l146 130l-146 129l67 116zM694 296l-278 -246l-67 116l146 130l-146 129l67 116z" />
    <glyph glyph-name="guilsinglleft" unicode="&#x2039;" horiz-adv-x="422" 
d="M382 166l-66 -116l-279 246l279 245l66 -116l-146 -129z" />
    <glyph glyph-name="guilsinglright" unicode="&#x203a;" horiz-adv-x="422" 
d="M382 296l-278 -246l-67 116l146 130l-146 129l67 116z" />
    <glyph glyph-name="quotedblbase" unicode="&#x201e;" horiz-adv-x="594" 
d="M23 -159l122 306h164l-124 -306h-162zM283 -159l122 306h164l-124 -306h-162z" />
    <glyph glyph-name="quotedblleft" unicode="&#x201c;" horiz-adv-x="600" 
d="M23 544l122 306h164l-124 -306h-162zM283 544l122 306h164l-124 -306h-162z" />
    <glyph glyph-name="quotedblright" unicode="&#x201d;" horiz-adv-x="594" 
d="M23 544l122 306h164l-124 -306h-162zM283 544l122 306h164l-124 -306h-162z" />
    <glyph glyph-name="quoteleft" unicode="&#x2018;" horiz-adv-x="333" 
d="M23 544l122 306h164l-124 -306h-162z" />
    <glyph glyph-name="quoteright" unicode="&#x2019;" horiz-adv-x="333" 
d="M23 544l122 306h164l-124 -306h-162z" />
    <glyph glyph-name="quotesinglbase" unicode="&#x201a;" horiz-adv-x="333" 
d="M23 -159l122 306h164l-124 -306h-162z" />
    <glyph glyph-name="uni2007" unicode="&#x2007;" horiz-adv-x="400" 
 />
    <glyph glyph-name="uni2008" unicode="&#x2008;" horiz-adv-x="311" 
 />
    <glyph glyph-name="uni00A0" unicode="&#xa0;" horiz-adv-x="200" 
 />
    <glyph glyph-name="zerowidthspace" unicode="&#x200b;" horiz-adv-x="0" 
 />
    <glyph glyph-name="space.001" horiz-adv-x="253" 
 />
    <glyph glyph-name="cent" unicode="&#xa2;" horiz-adv-x="507" 
d="M407.5 416.5q-32.5 12.5 -63.5 12.5q-39 0 -71.5 -20.5t-51 -55t-18.5 -75.5t18.5 -75.5t51 -55t71.5 -20.5q31 0 63.5 12.5t57.5 32.5l-1 -163q-37 -20 -85 -26l6 -126h-99l6 126q-77 9 -136.5 50t-92.5 105t-33 140q0 77 33 140.5t92.5 104.5t136.5 50l-6 127l99 -1
l-6 -126q48 -6 85 -26l1 -163q-25 20 -57.5 32.5z" />
    <glyph glyph-name="currency" unicode="&#xa4;" horiz-adv-x="657" 
d="M539 243l96 -96l-74 -59l-83 82q-31 -25 -70 -39t-80 -14q-84 0 -150 53l-84 -82l-74 59l97 96q-29 55 -29 114q0 60 29 113l-97 96l74 59l84 -82q66 53 150 53q41 0 80 -14t70 -39l83 82l74 -59l-96 -96q28 -51 28 -113q0 -61 -28 -114zM396 239.5q31 18.5 49.5 49.5
t18.5 68t-18.5 68t-49.5 49t-68 18t-68 -18t-49.5 -49t-18.5 -68t18.5 -68t49.5 -49.5t68 -18.5t68 18.5z" />
    <glyph glyph-name="dollar" unicode="$" horiz-adv-x="789" 
d="M674 60q-86 -67 -236 -77v-138h-109v138q-106 8 -189 41.5t-133 77.5l78 142q56 -47 135.5 -76t164.5 -29q97 0 143.5 29.5t46.5 76.5q0 33 -25.5 52.5t-65 29.5t-108.5 21q-105 17 -173 38.5t-117 74.5t-49 148q0 111 79 178.5t213 79.5v137h109v-137q92 -10 166 -45
t125 -80l-75 -135q-56 46 -125 76t-147 30q-83 0 -123.5 -28t-40.5 -71q0 -31 24.5 -49t62 -27t105.5 -19q109 -17 178.5 -38.5t120.5 -76.5t51 -156q0 -121 -86 -188z" />
    <glyph glyph-name="Euro" unicode="&#x20ac;" horiz-adv-x="899" 
d="M435.5 189.5q66.5 -42.5 149.5 -42.5q129 0 242 89v-192q-94 -63 -242 -63q-105 0 -196.5 41t-156 114t-91.5 166h-136l48 87h80v72h-128l48 87h88q27 93 91.5 166t156 114t196.5 41q94 0 172.5 -33t135.5 -86l-79 -142q-56 45 -112 68.5t-117 23.5q-83 0 -149.5 -41.5
t-101.5 -110.5h447l-49 -87h-418v-72h378l-48 -87h-310q35 -70 101.5 -112.5z" />
    <glyph glyph-name="florin" unicode="&#x192;" horiz-adv-x="496" 
d="M332 660l-14 -104h127l-19 -140h-128l-107 -762l-167 23l104 739h-101l19 140h102l13 95q17 120 78 169t162 49q32 0 67.5 -8t55.5 -20l-39 -135q-15 8 -37.5 13.5t-44.5 5.5q-61 0 -71 -65z" />
    <glyph glyph-name="franc" unicode="&#x20a3;" horiz-adv-x="964" 
d="M612 160v-160h-155v375h-210v-375h-178v850h644v-159h-466v-168l490 -1q62 0 109.5 -24t73.5 -65.5t26 -91.5q0 -52 -29 -94.5t-82 -64.5v0l135 -182h-181l-113 160h-64zM769 295.5q17 14.5 17 37.5q0 22 -17 36.5t-47 14.5h-110v-103h110q30 0 47 14.5z" />
    <glyph glyph-name="sterling" unicode="&#xa3;" horiz-adv-x="746" 
d="M117 0v285h-90v89h90v229q0 81 40 141.5t109.5 92.5t155.5 32q71 0 137 -25.5t112 -66.5l-23 -159q-53 47 -107 70.5t-101 23.5q-35 0 -68.5 -15t-55 -43.5t-21.5 -66.5v-213h315l-13 -89h-302v-130h424v-155h-602z" />
    <glyph glyph-name="yen" unicode="&#xa5;" horiz-adv-x="871" 
d="M742 485v-86h-169l-48 -73h217v-87h-217v-239h-178v239h-218v87h218l-48 73h-170v86h113l-241 365h194l241 -365l240 365h194l-240 -365h112z" />
    <glyph glyph-name="Ohm" unicode="&#x2126;" horiz-adv-x="985" 
d="M181 129q-66 55 -104 131.5t-38 164.5q0 120 61 222t165 162t226 60q123 0 227 -60t164.5 -161.5t60.5 -222.5q0 -88 -38 -164.5t-104 -131.5h141v-129h-411v122q110 32 170.5 113t60.5 190q0 74 -36.5 137t-98.5 99.5t-136 36.5q-73 0 -135 -36.5t-98.5 -99.5
t-36.5 -137q0 -109 60.5 -190t170.5 -113v-122h-411v129h140z" />
    <glyph glyph-name="approxequal" unicode="&#x2248;" horiz-adv-x="630" 
d="M210 525q28 0 52.5 -8.5t56.5 -23.5q31 -14 52.5 -21.5t44.5 -7.5q38 0 68 16t58 41v-122q-27 -23 -56 -39t-70 -16q-26 0 -49 7.5t-59 23.5q-33 15 -54 22.5t-44 7.5q-62 0 -124 -57v122q61 55 124 55zM210 325q27 0 51 -8t58 -23q33 -15 53.5 -22.5t43.5 -7.5
q38 0 68 16t58 41v-121q-27 -23 -56 -39t-70 -16q-26 0 -49 7.5t-59 23.5q-33 15 -54 22.5t-44 7.5q-62 0 -124 -57v121q61 55 124 55z" />
    <glyph glyph-name="asciitilde" unicode="~" horiz-adv-x="630" 
d="M210 438q27 0 51 -8t58 -23q33 -15 53.5 -22.5t43.5 -7.5q38 0 68 16t58 41v-121q-27 -23 -56 -39t-70 -16q-26 0 -49 7.5t-59 23.5q-33 15 -54 22.5t-44 7.5q-62 0 -124 -57v121q61 55 124 55z" />
    <glyph glyph-name="bulletoperator" unicode="&#x2219;" horiz-adv-x="266" 
d="M62 251.5q-29 28.5 -29 69.5t29 69.5t70 28.5t69.5 -28.5t28.5 -69.5t-28.5 -69.5t-69.5 -28.5t-70 28.5z" />
    <glyph glyph-name="divide" unicode="&#xf7;" horiz-adv-x="730" 
d="M301 500.5q-26 25.5 -26 62.5t26 63t63 26t62.5 -26t25.5 -63t-25.5 -62.5t-62.5 -25.5t-63 25.5zM86 409h556v-122h-556v122zM301 70.5q-26 25.5 -26 62.5t26 63t63 26t62.5 -26t25.5 -63t-25.5 -62.5t-62.5 -25.5t-63 25.5z" />
    <glyph glyph-name="emptyset" unicode="&#x2205;" horiz-adv-x="932" 
d="M812 511q35 -74 35 -159q0 -103 -51 -189.5t-138.5 -137t-192.5 -50.5q-93 0 -175 41l-28 -41h-115l64 94q-60 53 -94 126t-34 156q0 103 51 189.5t138.5 137t192.5 50.5q88 0 169 -38l30 44h115l-65 -96q63 -53 98 -127zM305 208l236 345q-35 16 -76 16
q-59 0 -108 -29.5t-77 -79.5t-28 -108q0 -81 53 -144zM572.5 163.5q48.5 29.5 76.5 80t28 108.5q0 42 -14.5 80t-41.5 68l-239 -347q40 -19 83 -19q59 0 107.5 29.5z" />
    <glyph glyph-name="equal" unicode="=" horiz-adv-x="647" 
d="M86 517h473v-122h-473v122zM86 297h473v-121h-473v121z" />
    <glyph glyph-name="greater" unicode="&#x3e;" horiz-adv-x="656" 
d="M312 348l-275 127v143l579 -270l-579 -270v142z" />
    <glyph glyph-name="greaterequal" unicode="&#x2265;" horiz-adv-x="656" 
d="M312 425l-275 127v143l579 -270l-579 -270v142zM616 0h-579v101h579v-101z" />
    <glyph glyph-name="increment" unicode="&#x2206;" horiz-adv-x="999" 
d="M-6 0l506 884l506 -884h-1012zM498 550l-229 -409h460z" />
    <glyph glyph-name="infinity" unicode="&#x221e;" horiz-adv-x="774" 
d="M648.5 504q41.5 -25 65.5 -66.5t24 -89.5t-24 -89.5t-65.5 -66.5t-90.5 -25q-87 0 -172 98q-87 -98 -172 -98q-49 0 -91 25t-66 66.5t-24 89.5t24 89.5t66 66.5t91 25q85 0 172 -98q85 98 172 98q49 0 90.5 -25zM265.5 283q24.5 21 62.5 65q-38 44 -62.5 65t-47.5 21
q-34 0 -58 -25.5t-24 -60.5t24 -60.5t58 -25.5q23 0 47.5 21zM611.5 287.5q23.5 25.5 23.5 60.5t-23.5 60.5t-56.5 25.5q-24 0 -48.5 -21t-62.5 -65q38 -44 62.5 -65t48.5 -21q33 0 56.5 25.5z" />
    <glyph glyph-name="integral" unicode="&#x222b;" horiz-adv-x="365" 
d="M375.5 1049.5q36.5 -8.5 57.5 -19.5l-20 -135q-16 8 -39.5 13.5t-44.5 5.5q-62 0 -62 -65v-973q0 -120 -54 -169.5t-155 -49.5q-32 0 -68.5 8t-58.5 20l20 136q17 -8 40.5 -13.5t44.5 -5.5q61 0 61 65v972q0 121 54.5 170t155.5 49q32 0 68.5 -8.5z" />
    <glyph glyph-name="less" unicode="&#x3c;" horiz-adv-x="656" 
d="M343 348l275 127v143l-579 -270l579 -270v142z" />
    <glyph glyph-name="lessequal" unicode="&#x2264;" horiz-adv-x="656" 
d="M343 425l275 127v143l-579 -270l579 -270v142zM39 0h579v101h-579v-101z" />
    <glyph glyph-name="logicalnot" unicode="&#xac;" horiz-adv-x="644" 
d="M429 150v137h-343v122h470v-259h-127z" />
    <glyph glyph-name="minus" unicode="&#x2212;" horiz-adv-x="623" 
d="M86 409h449v-122h-449v122z" />
    <glyph glyph-name="multiply" unicode="&#xd7;" horiz-adv-x="623" 
d="M396 325l172 -172l-85 -85l-172 172l-172 -172l-85 85l172 172l-170 170l85 85l170 -170l170 170l85 -85z" />
    <glyph glyph-name="notequal" unicode="&#x2260;" horiz-adv-x="647" 
d="M559 297v-113h-259l-49 -90h-135l50 90h-80v113h143l55 98h-198v114h261l49 89h132l-49 -89h80v-114h-143l-53 -98h196z" />
    <glyph glyph-name="partialdiff" unicode="&#x2202;" horiz-adv-x="686" 
d="M481 669.5q104 -108.5 138.5 -206.5t34.5 -197q0 -80 -37.5 -145t-105.5 -102.5t-156 -37.5t-156 37.5t-105.5 102.5t-37.5 145t36.5 145.5t101.5 103t146 37.5q32 0 60 -13q-45 53 -119.5 107t-171.5 100l75 132q193 -100 297 -208.5zM446.5 166.5q35.5 40.5 35.5 99.5
q0 60 -35 100.5t-92 40.5t-92 -41t-35 -100t35 -99.5t92 -40.5q56 0 91.5 40.5z" />
    <glyph glyph-name="percent" unicode="%" horiz-adv-x="1024" 
d="M306 -77l-100 81l511 923l99 -80zM135.5 496.5q-46.5 26.5 -73.5 72.5t-27 101t27 100.5t73.5 72t100.5 26.5t100 -26.5t72.5 -72t26.5 -100.5t-26.5 -101t-72.5 -72.5t-100 -26.5t-100.5 26.5zM300.5 605q26.5 27 26.5 65t-26.5 64.5t-64.5 26.5t-64.5 -26.5
t-26.5 -64.5t26.5 -65t64.5 -27t64.5 27zM887 353.5q46 -26.5 72.5 -72.5t26.5 -101t-26.5 -100.5t-72.5 -72t-100 -26.5q-55 0 -101 26.5t-73 72t-27 100.5t27 101t73 72.5t101 26.5q54 0 100 -26.5zM721.5 245q-26.5 -27 -26.5 -65q0 -37 27 -64t64 -27q38 0 65 26.5
t27 64.5t-27 65t-65 27t-64.5 -27z" />
    <glyph glyph-name="perthousand" unicode="&#x2030;" horiz-adv-x="1486" 
d="M306 -77l-100 81l511 923l99 -80zM135.5 496.5q-46.5 26.5 -73.5 72.5t-27 101t27 100.5t73.5 72t100.5 26.5t100 -26.5t72.5 -72t26.5 -100.5t-26.5 -101t-72.5 -72.5t-100 -26.5t-100.5 26.5zM300.5 605q26.5 27 26.5 65t-26.5 64.5t-64.5 26.5t-64.5 -26.5
t-26.5 -64.5t26.5 -65t64.5 -27t64.5 27zM887 353.5q46 -26.5 72.5 -72.5t26.5 -101t-26.5 -100.5t-72.5 -72t-100 -26.5q-55 0 -101 26.5t-73 72t-27 100.5t27 101t73 72.5t101 26.5q54 0 100 -26.5zM1350 353.5q46 -26.5 72.5 -72t26.5 -101.5q0 -55 -27 -100.5t-72.5 -72
t-100.5 -26.5t-100.5 26.5t-72.5 72t-27 100.5q0 56 26.5 101.5t72.5 72t101 26.5t101 -26.5zM721.5 245q-26.5 -27 -26.5 -65q0 -37 27 -64t64 -27q38 0 65 26.5t27 64.5t-27 65t-65 27t-64.5 -27zM1184.5 245q-26.5 -27 -26.5 -65q0 -37 27 -64t64 -27q38 0 64.5 27
t26.5 64q0 38 -26.5 65t-64.5 27t-64.5 -27z" />
    <glyph glyph-name="plus" unicode="+" horiz-adv-x="716" 
d="M628 409v-122h-207v-210h-128v210h-207v122h207v210h128v-210h207z" />
    <glyph glyph-name="plusminus" unicode="&#xb1;" horiz-adv-x="716" 
d="M628 477v-122h-207v-210h-128v210h-207v122h207v210h128v-210h207zM628 0h-542v103h542v-103z" />
    <glyph glyph-name="product" unicode="&#x220f;" horiz-adv-x="766" 
d="M561 694h-358v-840h-173v996h703v-989h-172v833z" />
    <glyph glyph-name="radical" unicode="&#x221a;" horiz-adv-x="751" 
d="M344 -181l-192 338l-76 -43l-64 115l208 119l118 -209l459 812l133 -101z" />
    <glyph glyph-name="summation" unicode="&#x2211;" horiz-adv-x="804" 
d="M753 156v-156h-759l499 425l-499 425h759v-156h-327l316 -269l-316 -269h327z" />
    <glyph glyph-name="arrowup" unicode="&#x2191;" horiz-adv-x="1001" 
d="M581 551v-551h-163v551l-180 -233l-135 79l396 487l397 -487l-135 -79z" />
    <glyph glyph-name="uni2197" unicode="&#x2197;" horiz-adv-x="966" 
d="M822 123h-145v349l-425 -427l-110 110l427 425h-349v145h602v-602z" />
    <glyph glyph-name="arrowright" unicode="&#x2192;" horiz-adv-x="1042" 
d="M638 344h-551v162h551l-233 180l79 136l487 -397l-487 -397l-79 136z" />
    <glyph glyph-name="uni2198" unicode="&#x2198;" horiz-adv-x="966" 
d="M569 270l-427 425l110 110l425 -427v349h145v-602h-602v145h349z" />
    <glyph glyph-name="arrowdown" unicode="&#x2193;" horiz-adv-x="1001" 
d="M103 454l135 78l180 -233v551h163v-551l180 233l135 -78l-397 -488z" />
    <glyph glyph-name="uni2199" unicode="&#x2199;" horiz-adv-x="966" 
d="M142 727h145v-349l425 427l110 -110l-427 -425h349v-145h-602v602z" />
    <glyph glyph-name="arrowleft" unicode="&#x2190;" horiz-adv-x="1042" 
d="M556 822l78 -136l-232 -180h551v-162h-551l232 -180l-78 -136l-488 397z" />
    <glyph glyph-name="uni2196" unicode="&#x2196;" horiz-adv-x="966" 
d="M395 580l427 -425l-110 -110l-425 427v-349h-145v602h602v-145h-349z" />
    <glyph glyph-name="uni2194" unicode="&#x2194;" horiz-adv-x="1652" 
d="M1016 164l232 180h-846l232 -180l-78 -136l-488 397l488 397l78 -136l-232 -180h846l-232 180l78 136l488 -397l-488 -397z" />
    <glyph glyph-name="arrowupdn" unicode="&#x2195;" horiz-adv-x="1001" 
d="M499 -290l-396 488l135 78l180 -232v762l-180 -232l-135 78l396 488l397 -488l-135 -78l-180 232v-762l180 232l135 -78z" />
    <glyph glyph-name="lozenge" unicode="&#x25ca;" horiz-adv-x="727" 
d="M32 425l331 459l331 -459l-331 -459zM217 425l146 -202l146 202l-146 202z" />
    <glyph glyph-name="bar" unicode="|" horiz-adv-x="396" 
d="M109 -146v1142h177v-1142h-177z" />
    <glyph glyph-name="brokenbar" unicode="&#xa6;" horiz-adv-x="396" 
d="M109 996h177v-462h-177v462zM109 317h177v-463h-177v463z" />
    <glyph glyph-name="at" unicode="@" horiz-adv-x="1316" 
d="M953 147.5q21 -20.5 56 -20.5q26 0 49 24.5t37 68.5t14 100q0 122 -55.5 214t-155.5 142.5t-230 50.5q-127 0 -233 -54.5t-168.5 -156.5t-62.5 -240q0 -135 63.5 -225t169.5 -133t235 -43h355v-140h-355q-168 0 -310.5 64.5t-228 188t-85.5 290.5q0 165 84.5 300.5
t227 213t307.5 77.5q168 0 304.5 -75t215 -201.5t78.5 -274.5q0 -91 -28.5 -163t-85 -113.5t-136.5 -41.5q-62 0 -116.5 19t-80.5 67v0q-70 -86 -203 -86q-72 0 -130 36.5t-91 100.5t-33 142t33 142t91 100.5t130 36.5q99 0 159 -60v37h158v-320q0 -47 21 -67.5zM747.5 176
q36.5 41 36.5 103t-36.5 103t-94.5 41q-59 0 -95.5 -41.5t-36.5 -102.5t36.5 -102.5t95.5 -41.5q58 0 94.5 41z" />
    <glyph glyph-name="ampersand" unicode="&#x26;" horiz-adv-x="947" 
d="M653 144q-37 -75 -110.5 -119t-166.5 -44q-89 0 -161.5 39.5t-113.5 107.5t-41 151q0 82 40.5 150.5t108 108t144.5 39.5h3l-187 273h603v-156h-292l476 -694h-205zM483.5 175.5q42.5 41.5 42.5 105.5t-42.5 105t-107.5 41q-64 0 -106.5 -41.5t-42.5 -106.5
q0 -63 43 -104t107 -41t106.5 41.5z" />
    <glyph glyph-name="paragraph" unicode="&#xb6;" horiz-adv-x="832" 
d="M596 -323v1061h-90v-1061h-119v623q-98 0 -171.5 35t-112.5 97.5t-39 143.5q0 79 39.5 141.5t112.5 97.5t171 35h329v-1173h-120z" />
    <glyph glyph-name="copyright" unicode="&#xa9;" horiz-adv-x="669" 
d="M197.5 363.5q-62.5 36.5 -99 99t-36.5 135.5q0 74 36.5 136t99 98.5t135.5 36.5q74 0 136 -36.5t98.5 -98.5t36.5 -136q0 -73 -36.5 -135.5t-98.5 -99t-136 -36.5q-73 0 -135.5 36.5zM432.5 427.5q45.5 26.5 72 71.5t26.5 99t-26.5 99.5t-72 72t-99.5 26.5t-99 -26.5
t-71.5 -72t-26.5 -99.5t26.5 -99t71.5 -71.5t99 -26.5t99.5 26.5zM333 687q-35 0 -60 -26t-25 -62q0 -37 25 -63.5t60 -26.5q44 0 82 31v-69q-31 -21 -82 -21q-41 0 -75.5 20t-55 54t-20.5 74t20.5 74.5t55 54.5t75.5 20q50 0 84 -24l-2 -67q-36 31 -82 31z" />
    <glyph glyph-name="registered" unicode="&#xae;" horiz-adv-x="669" 
d="M469 832.5q62 -36.5 98.5 -98.5t36.5 -136q0 -73 -36.5 -135.5t-98.5 -99t-136 -36.5q-73 0 -135.5 36.5t-99 99t-36.5 135.5q0 74 36.5 136t99 98.5t135.5 36.5q74 0 136 -36.5zM432.5 427.5q45.5 26.5 72 71.5t26.5 99t-26.5 99.5t-72 72t-99.5 26.5t-99 -26.5
t-71.5 -72t-26.5 -99.5t26.5 -99t71.5 -71.5t99 -26.5t99.5 26.5zM288 458h-63v281h117q42 0 69.5 -25.5t27.5 -62.5q0 -31 -19 -54.5t-51 -31.5v0l79 -107h-78l-71 103h-11v-103zM361.5 625.5q10.5 9.5 10.5 23.5t-10.5 23.5t-27.5 9.5h-46v-66h46q17 0 27.5 9.5z" />
    <glyph glyph-name="section" unicode="&#xa7;" horiz-adv-x="852" 
d="M275.5 -78q65.5 -27 136.5 -27q77 0 112 23.5t35 64.5q0 26 -23 43.5t-59 29.5t-98 27q-102 26 -166.5 51.5t-112 77.5t-47.5 137q0 54 28 95t73 66q-39 52 -39 123q0 73 37.5 126t104.5 81.5t155 28.5q96 0 172 -35.5t122 -80.5l-71 -128q-112 97 -225 97
q-65 0 -95 -22.5t-30 -61.5q0 -26 23 -43.5t58 -28.5t99 -27q102 -24 169 -49.5t115.5 -78.5t48.5 -140q0 -58 -29.5 -98.5t-74.5 -64.5q39 -52 39 -123q0 -116 -88.5 -178t-234.5 -62q-106 0 -189.5 33.5t-129.5 77.5l74 133q45 -40 110.5 -67zM227 392.5
q-9 -18.5 -9 -39.5q0 -27 24 -45.5t60 -30.5t102 -28q59 -15 102 -28t80 -30q20 19 29 37.5t9 39.5q0 28 -24 46.5t-60 30.5t-101 28q-66 16 -106 28t-77 30q-20 -20 -29 -38.5z" />
    <glyph glyph-name="trademark" unicode="&#x2122;" horiz-adv-x="638" 
d="M526 693l-86 -106l-86 106v-95h-61v263l147 -180l148 180v-263h-62v95zM185 794v-196h-63v196h-93v56h248v-56h-92z" />
    <glyph glyph-name="degree" unicode="&#xb0;" horiz-adv-x="564" 
d="M140.5 501q-45.5 26 -72 71.5t-26.5 99.5t26.5 99.5t72 71.5t99.5 26q53 0 98 -26t71.5 -71.5t26.5 -99.5t-26.5 -99.5t-71.5 -71.5t-98 -26q-54 0 -99.5 26zM303.5 608.5q26.5 26.5 26.5 63.5t-26.5 63.5t-64.5 26.5q-37 0 -63.5 -26.5t-26.5 -63.5t26.5 -63.5
t63.5 -26.5q38 0 64.5 26.5z" />
    <glyph glyph-name="uni2116" unicode="&#x2116;" horiz-adv-x="1656" 
d="M731 325v525h173v-884l-671 559v-525h-172v884zM1401 838q58 -32 90 -88t32 -125t-32 -125t-90 -88t-133 -32t-132.5 32t-89.5 88t-32 125t32 125t89.5 88t132.5 32t133 -32zM1354 533q33 38 33 92t-33 92t-86 38t-86 -38t-33 -92t33 -92t86 -38t86 38zM986 0v147h565
v-147h-565z" />
    <glyph glyph-name="asciicircum" unicode="^" horiz-adv-x="477" 
d="M238 709l-84 -111h-135l219 286l219 -286h-135z" />
    <glyph glyph-name="dagger" unicode="&#x2020;" horiz-adv-x="610" 
d="M581 556v-152h-188v-623h-181v623h-186v152h186v294h181v-294h188z" />
    <glyph glyph-name="daggerdbl" unicode="&#x2021;" horiz-adv-x="610" 
d="M581 556v-152h-188v-252h188v-152h-188v-219h-181v219h-186v152h186v252h-186v152h186v294h181v-294h188z" />
    <glyph glyph-name="acute" unicode="&#xb4;" horiz-adv-x="452" 
d="M61 756l273 127l60 -112l-273 -127z" />
    <glyph glyph-name="breve" unicode="&#x2d8;" horiz-adv-x="518" 
d="M434 749.5q-27 -45.5 -72.5 -72.5t-100.5 -27t-100.5 27t-72.5 72.5t-27 100.5h106q4 -33 31 -56t63 -23t62.5 23t31.5 56h106q0 -55 -27 -100.5z" />
    <glyph glyph-name="caron" unicode="&#x2c7;" horiz-adv-x="481" 
d="M242 634l-181 183l79 75l102 -89l102 89l79 -75z" />
    <glyph glyph-name="cedilla" unicode="&#xb8;" horiz-adv-x="370" 
d="M61 -224l81 144h170l-82 -144h-169z" />
    <glyph glyph-name="circumflex" unicode="&#x2c6;" horiz-adv-x="481" 
d="M140 634l-79 75l181 183l181 -183l-79 -75l-102 89z" />
    <glyph glyph-name="dieresis" unicode="&#xa8;" horiz-adv-x="558" 
d="M86 685.5q-25 24.5 -25 63.5t24.5 63t63.5 24t63.5 -24t24.5 -63t-25 -63.5t-63 -24.5t-63 24.5zM348 685.5q-25 24.5 -25 63.5t25 63t64 24t63.5 -24t24.5 -63t-25 -63.5t-63 -24.5q-39 0 -64 24.5z" />
    <glyph glyph-name="dotaccent" unicode="&#x2d9;" horiz-adv-x="307" 
d="M87.5 681q-26.5 26 -26.5 68t26.5 67.5t68.5 25.5q41 0 67.5 -25.5t26.5 -67.5t-26.5 -68t-67.5 -26q-42 0 -68.5 26z" />
    <glyph glyph-name="grave" unicode="`" horiz-adv-x="452" 
d="M334 644l-273 127l60 112l273 -127z" />
    <glyph glyph-name="hungarumlaut" unicode="&#x2dd;" horiz-adv-x="502" 
d="M61 649l66 168h129l-68 -168h-127zM249 649l67 168h128l-68 -168h-127z" />
    <glyph glyph-name="macron" unicode="&#xaf;" horiz-adv-x="449" 
d="M61 812h331v-126h-331v126z" />
    <glyph glyph-name="ogonek" unicode="&#x2db;" horiz-adv-x="370" 
d="M312 -224h-170l-81 144h169z" />
    <glyph glyph-name="ring" unicode="&#x2da;" horiz-adv-x="406" 
d="M132 645q-33 19 -52 51.5t-19 70.5t19 70.5t52 51.5t72 19t72 -19t52.5 -51.5t19.5 -70.5t-19.5 -70.5t-52.5 -51.5t-72 -19t-72 19zM243 727.5q16 16.5 16 39.5t-16 39t-39 16q-22 0 -38 -16.5t-16 -38.5q0 -23 16 -39.5t38 -16.5q23 0 39 16.5z" />
    <glyph glyph-name="tilde" unicode="&#x2dc;" horiz-adv-x="489" 
d="M383 695.5q-33 -28.5 -76 -28.5q-24 0 -41.5 7.5t-38.5 21.5q-25 18 -40 18q-13 0 -25 -9.5t-25 -33.5l-76 63q15 48 48 76.5t76 28.5q24 0 42 -8t38 -22q13 -9 22 -13t18 -4q13 0 25 9.5t25 33.5l76 -63q-15 -48 -48 -76.5z" />
    <glyph glyph-name="caron.alt" horiz-adv-x="337" 
d="M177 850h158l-109 -271h-157z" />
    <glyph glyph-name="acute.case" horiz-adv-x="452" 
d="M61 1017l273 126l60 -111l-273 -127z" />
    <glyph glyph-name="breve.case" horiz-adv-x="518" 
d="M434 1038.5q-27 -45.5 -72.5 -72.5t-100.5 -27t-100.5 27t-72.5 72.5t-27 100.5h106q4 -34 30.5 -56.5t63.5 -22.5q36 0 62.5 22.5t31.5 56.5h106q0 -55 -27 -100.5z" />
    <glyph glyph-name="caron.case" horiz-adv-x="481" 
d="M242 915l-181 183l79 75l102 -89l102 89l79 -75z" />
    <glyph glyph-name="cedilla.case" horiz-adv-x="370" 
d="M61 -224l81 144h170l-82 -144h-169z" />
    <glyph glyph-name="circumflex.case" horiz-adv-x="481" 
d="M140 915l-79 75l181 183l181 -183l-79 -75l-102 89z" />
    <glyph glyph-name="dieresis.case" horiz-adv-x="558" 
d="M85.5 977q-24.5 24 -24.5 63t24.5 63t63.5 24t63.5 -24t24.5 -63t-24.5 -63t-63.5 -24t-63.5 24zM348 977q-25 24 -25 63t25 63t64 24t63.5 -24t24.5 -63t-24.5 -63t-63.5 -24t-64 24z" />
    <glyph glyph-name="dotaccent.case" horiz-adv-x="307" 
d="M87.5 972q-26.5 26 -26.5 68t26.5 67.5t68.5 25.5q41 0 67.5 -25.5t26.5 -67.5t-26.5 -68t-67.5 -26q-42 0 -68.5 26z" />
    <glyph glyph-name="grave.case" horiz-adv-x="452" 
d="M394 1017l-60 -112l-273 127l60 111z" />
    <glyph glyph-name="hungarumlaut.case" horiz-adv-x="502" 
d="M61 940l66 168h129l-68 -168h-127zM249 940l67 168h128l-68 -168h-127z" />
    <glyph glyph-name="macron.case" horiz-adv-x="449" 
d="M61 1085h331v-125h-331v125z" />
    <glyph glyph-name="ogonek.case" horiz-adv-x="370" 
d="M312 -224h-170l-81 144h169z" />
    <glyph glyph-name="ring.case" horiz-adv-x="406" 
d="M132 938q-33 19 -52 51.5t-19 70.5t19 70.5t52 51.5t72 19t72 -19t52.5 -51.5t19.5 -70.5t-19.5 -70.5t-52.5 -51.5t-72 -19t-72 19zM243 1020.5q16 16.5 16 39.5t-16 39.5t-39 16.5q-22 0 -38 -16.5t-16 -39.5t16 -39.5t38 -16.5q23 0 39 16.5z" />
    <glyph glyph-name="tilde.case" horiz-adv-x="489" 
d="M383.5 964.5q-32.5 -28.5 -76.5 -28.5q-24 0 -42 8t-38 22q-10 7 -20.5 12.5t-19.5 5.5q-13 0 -25 -9.5t-25 -33.5l-76 62q15 49 47.5 77t76.5 28q24 0 41.5 -7.5t38.5 -21.5q13 -9 22 -13.5t18 -4.5q13 0 25 9.5t25 33.5l76 -62q-15 -49 -47.5 -77.5z" />
    <glyph glyph-name="uni0326" unicode="&#x326;" horiz-adv-x="0" 
d="M61 -224l81 144h170l-82 -144h-169z" />
    <glyph glyph-name="uni0326.case" horiz-adv-x="0" 
d="M61 -224l81 144h170l-82 -144h-169z" />
    <glyph glyph-name="uni02BC" unicode="&#x2bc;" horiz-adv-x="384" 
d="M168 850h158l-109 -271h-156z" />
    <glyph glyph-name="connect" horiz-adv-x="382" 
d="M30 354h319v-152h-319v152z" />
    </font>
</defs>
</svg>
