<?xml version="1.0" standalone="no"?>
<!DOCTYPE svg PUBLIC "-//W3C//DTD SVG 1.1//EN" "http://www.w3.org/Graphics/SVG/1.1/DTD/svg11.dtd" >
<svg xmlns="http://www.w3.org/2000/svg" xmlns:xlink="http://www.w3.org/1999/xlink" version="1.1">
<metadata>
Created by FontForge 20150824 at Wed Jan 20 22:11:10 2016
 By Everything Fonts
Copyright (c) 2014 by Andriy Konstantynov. All rights reserved.
</metadata>
<defs>
<font id="SynergaPro-Italic" horiz-adv-x="493" >
  <font-face 
    font-family="SynergaPro-Italic"
    font-weight="400"
    font-style="italic"
    font-stretch="normal"
    units-per-em="1000"
    panose-1="2 6 0 3 4 2 0 8 0 4"
    ascent="748"
    descent="-252"
    x-height="500"
    cap-height="700"
    bbox="-135 -259 1201 984"
    underline-thickness="50"
    underline-position="-100"
    slope="-10"
    unicode-range="U+0020-FB04"
  />
<missing-glyph horiz-adv-x="241" 
 />
    <glyph glyph-name="ff" unicode="ff" horiz-adv-x="649" 
d="M578 615l-20 -115h141l-15 -53h-137l-102 -562q-12 -65 -55.5 -102.5t-103.5 -37.5q-56 0 -90 32l23 41q22 -16 55 -16q34 0 58 21.5t31 61.5l102 562h-209l-102 -562q-12 -66 -55.5 -103t-103.5 -37q-55 0 -89 32l24 41q20 -16 54 -16q33 0 56.5 21.5t30.5 61.5l103 562
h-60l14 48l56 4l21 116q12 67 57.5 103.5t118.5 36.5q67 0 102 -31l-28 -43q-21 17 -67 17q-86 0 -101 -83l-20 -115h207l21 115q12 67 55.5 103.5t110.5 36.5q62 0 93 -31l-25 -43q-21 17 -59 17q-77 0 -92 -83z" />
    <glyph glyph-name="fi" unicode="fi" horiz-adv-x="560" 
d="M533 56l-1 -39q-46 -21 -83 -21q-66 0 -54 69l70 378l-58 4h-151l-102 -562q-12 -66 -55.5 -103t-103.5 -37q-55 0 -89 32l24 41q20 -16 54 -16q33 0 56.5 21.5t30.5 61.5l103 562h-60l14 48l56 4l21 116q12 67 54.5 103.5t107.5 36.5q59 0 91 -29l-24 -45q-20 17 -57 17
q-75 0 -90 -83l-20 -115h153q55 5 97 5q41 0 35 -40l-71 -387q-5 -31 17 -31q17 0 35 9zM482 650q4 24 22 39.5t41 15.5q25 0 37.5 -15.5t7.5 -39.5q-5 -23 -23 -38.5t-42 -15.5q-23 0 -35 15.5t-8 38.5z" />
    <glyph glyph-name="fl" unicode="fl" horiz-adv-x="560" 
d="M533 56l-1 -39q-46 -21 -83 -21q-66 0 -54 69l112 614q-34 19 -96 19q-110 0 -126 -93l-20 -105h141l-14 -53h-136l-102 -562q-12 -66 -55.5 -103t-103.5 -37q-55 0 -89 32l24 41q20 -16 54 -16q33 0 56.5 21.5t30.5 61.5l103 562h-60l14 48l54 4l20 106q13 72 65 111
t133 39q38 0 69 -9q58 9 88 9q26 0 34.5 -9.5t5.5 -31.5l-116 -636q-5 -31 17 -31q17 0 35 9z" />
    <glyph glyph-name="ffi" unicode="ffi" horiz-adv-x="851" 
d="M772 650q4 24 22.5 39.5t41.5 15.5t36.5 -15.5t9.5 -39.5q-4 -23 -23.5 -38.5t-42.5 -15.5t-35.5 15.5t-8.5 38.5zM824 56l-1 -39q-45 -21 -83 -21q-67 0 -54 69l69 378l-56 4h-152l-102 -562q-12 -65 -55.5 -102.5t-103.5 -37.5q-56 0 -90 32l23 41q22 -16 55 -16
q34 0 58 21.5t31 61.5l102 562h-209l-102 -562q-12 -66 -55.5 -103t-103.5 -37q-55 0 -89 32l24 41q20 -16 54 -16q33 0 56.5 21.5t30.5 61.5l103 562h-60l14 48l56 4l21 116q12 67 57.5 103.5t118.5 36.5q67 0 102 -31l-28 -43q-21 17 -67 17q-86 0 -101 -83l-20 -115h207
l21 115q12 67 55 103.5t109 36.5q59 0 89 -29l-23 -45q-20 17 -58 17q-74 0 -89 -83l-20 -115h154q52 5 91 5q24 0 33.5 -9t5.5 -31l-71 -387q-5 -31 18 -31q15 0 35 9z" />
    <glyph glyph-name="ffl" unicode="ffl" horiz-adv-x="850" 
d="M824 56l-1 -39q-45 -21 -83 -21q-67 0 -54 69l112 614q-33 19 -97 19q-108 0 -124 -93l-20 -105h140l-15 -53h-135l-102 -562q-12 -65 -55.5 -102.5t-103.5 -37.5q-56 0 -90 32l23 41q22 -16 55 -16q34 0 58 21.5t31 61.5l102 562h-209l-102 -562q-12 -66 -55.5 -103
t-103.5 -37q-55 0 -89 32l24 41q20 -16 54 -16q33 0 56.5 21.5t30.5 61.5l103 562h-60l14 48l56 4l21 116q12 67 57.5 103.5t118.5 36.5q67 0 102 -31l-28 -43q-21 17 -67 17q-86 0 -101 -83l-20 -115h207l20 105q13 72 64 111t132 39q38 0 70 -9q59 9 88 9q25 0 34 -9.5
t5 -30.5l-116 -637q-5 -31 18 -31q15 0 35 9z" />
    <glyph glyph-name="f_f_j" unicode="ffj" horiz-adv-x="852" 
d="M736 -115q-11 -65 -55 -102.5t-104 -37.5q-57 0 -89 32l22 41q20 -16 55 -16q33 0 57.5 21.5t31.5 61.5l102 558l-57 4h-152l-102 -562q-12 -65 -55.5 -102.5t-103.5 -37.5q-56 0 -90 32l23 41q22 -16 55 -16q34 0 58 21.5t31 61.5l102 562h-209l-102 -562
q-12 -66 -55.5 -103t-103.5 -37q-55 0 -89 32l24 41q20 -16 54 -16q33 0 56.5 21.5t30.5 61.5l103 562h-60l14 48l56 4l21 116q12 67 57.5 103.5t118.5 36.5q67 0 102 -31l-28 -43q-21 17 -67 17q-86 0 -101 -83l-20 -115h207l21 115q12 67 55 103.5t109 36.5q59 0 89 -29
l-23 -45q-20 17 -58 17q-74 0 -89 -83l-20 -115h154q52 5 91 5q24 0 33 -9t5 -31zM772 650q4 24 22.5 39.5t41.5 15.5t36.5 -15.5t9.5 -39.5q-4 -23 -23.5 -38.5t-42.5 -15.5t-35.5 15.5t-8.5 38.5z" />
    <glyph glyph-name="f_j" unicode="fj" horiz-adv-x="560" 
d="M517 505q41 0 35 -40l-107 -580q-12 -65 -55.5 -102.5t-103.5 -37.5q-56 0 -90 32l23 41q22 -16 55 -16q34 0 58 21.5t31 61.5l101 557l-57 5h-151l-102 -562q-12 -66 -55.5 -103t-103.5 -37q-55 0 -89 32l24 41q20 -16 54 -16q33 0 56.5 21.5t30.5 61.5l103 562h-60
l14 48l56 4l21 116q12 67 54.5 103.5t107.5 36.5q59 0 91 -29l-24 -45q-20 17 -57 17q-75 0 -90 -83l-20 -115h153q55 5 97 5zM482 650q4 24 22 39.5t41 15.5q25 0 37.5 -15.5t7.5 -39.5q-5 -23 -23 -38.5t-42 -15.5q-23 0 -35 15.5t-8 38.5z" />
    <glyph glyph-name="afii10104_afii10104" unicode="&#x457;&#x457;" horiz-adv-x="540" 
d="M118 627q3 19 19 32t34 13q20 0 31 -12.5t7 -32.5t-19 -33t-34 -13t-30.5 13.5t-7.5 32.5zM331 627q4 20 19 32.5t34 12.5t29.5 -12.5t6.5 -32.5t-18.5 -33t-33.5 -13t-30 13t-7 33zM544 627q4 20 19 32.5t34 12.5t29.5 -12.5t7.5 -32.5q-4 -19 -19.5 -32.5t-33.5 -13.5
q-19 0 -30 13t-7 33zM244 56l-2 -39q-45 -21 -83 -21q-66 0 -54 69l70 378l-54 7l5 45q60 10 101 10t35 -40l-71 -387q-5 -31 18 -31q15 0 35 9zM514 56l-1 -39q-48 -21 -84 -21q-67 0 -54 69l69 378l-52 7l4 45q57 10 100 10q41 0 34 -40l-70 -387q-4 -31 18 -31q15 0 36 9
z" />
    <glyph glyph-name=".notdef" horiz-adv-x="241" 
 />
    <glyph glyph-name=".null" horiz-adv-x="0" 
 />
    <glyph glyph-name="nonmarkingreturn" horiz-adv-x="333" 
 />
    <glyph glyph-name="space" unicode=" " horiz-adv-x="241" 
 />
    <glyph glyph-name="exclam" unicode="!" horiz-adv-x="212" 
d="M60 49q5 23 23.5 39t41.5 16t35.5 -16t7.5 -39q-5 -24 -22.5 -39t-41.5 -15q-23 0 -35.5 15.5t-8.5 38.5zM166 191l-50 5l29 241l49 265l78 -5l-47 -260z" />
    <glyph glyph-name="quotedbl" unicode="&#x22;" horiz-adv-x="321" 
d="M214 495l-53 5l28 202l71 -5zM341 495l-53 5l28 202l71 -5z" />
    <glyph glyph-name="numbersign" unicode="#" horiz-adv-x="598" 
d="M147 462l15 47h99l61 188l54 5l-62 -193h199l61 188l52 5l-62 -193h88l-15 -47h-88l-72 -223h98l-13 -48h-100l-60 -188l-53 -5l62 193h-200l-60 -188l-55 -5l62 193h-85l13 48h88l72 223h-99zM299 462l-72 -223h199l72 223h-199z" />
    <glyph glyph-name="dollar" unicode="$" horiz-adv-x="512" 
d="M235 536q-7 -36 6 -63t38.5 -43.5t57.5 -31.5t63.5 -32t56 -38.5t35.5 -58.5t2 -85q-15 -81 -71.5 -131t-150.5 -57l-12 -68l-49 -5l13 73q-102 5 -169 51l24 133l53 5l-11 -100q45 -33 120 -33q69 0 111.5 34.5t52.5 90.5q7 37 -5.5 64t-37.5 44.5t-56.5 32t-62.5 31.5
t-55 38.5t-35.5 57t-2.5 82.5q13 76 65 123t137 54l14 68l48 5l-13 -73q90 -5 149 -45l-25 -134l-53 -4l12 104q-45 23 -107 23q-60 0 -96.5 -31.5t-45.5 -80.5z" />
    <glyph glyph-name="percent" unicode="%" horiz-adv-x="816" 
d="M233 -7l-39 21l517 692l37 -20zM140 535q14 79 68 124.5t131 45.5q78 0 115.5 -45.5t23.5 -124.5q-15 -80 -69 -126t-132 -46t-115 46.5t-22 125.5zM204 535q-10 -58 12 -91t70 -33q49 0 83 33t45 91q10 57 -12 90t-70 33q-50 0 -84 -33t-44 -90zM464 165
q14 79 68.5 125.5t131.5 46.5q78 0 115 -46.5t23 -125.5q-15 -79 -68.5 -124.5t-131.5 -45.5t-115.5 46t-22.5 124zM529 165q-10 -57 11.5 -90t70.5 -33q48 0 83 33t45 90q10 58 -12.5 91t-70.5 33t-82.5 -33t-44.5 -91z" />
    <glyph glyph-name="ampersand" unicode="&#x26;" horiz-adv-x="656" 
d="M640 297q-22 -117 -115 -203q53 -47 85 -47q14 0 34 9v-39q-37 -21 -75 -21q-48 0 -97 57q-89 -58 -198 -58q-103 0 -153.5 54t-32.5 149q14 76 57.5 122t112.5 78q-24 86 -11 157t62 110.5t128 39.5q80 0 114 -37t22 -102q-4 -22 -13 -41t-17.5 -33t-26 -28.5t-28.5 -23
t-35 -20.5l-34 -17t-39 -17t-37 -16q45 -124 138 -231q63 54 80 147l-56 7l6 44q62 12 96 12q25 0 31.5 -12t1.5 -40zM278 52q78 0 150 48q-95 97 -150 237q-94 -56 -110 -147q-11 -63 15.5 -100.5t94.5 -37.5zM318 549q-10 -54 7 -122q36 15 50.5 21t42 21t40 27t25.5 31.5
t17 41.5q7 36 -11 58t-62 22q-92 0 -109 -100z" />
    <glyph glyph-name="quotesingle" unicode="'" horiz-adv-x="193" 
d="M213 495l-53 5l28 202l71 -5z" />
    <glyph glyph-name="parenleft" unicode="(" horiz-adv-x="326" 
d="M425 750l-13 -46q-14 0 -30 -9t-39 -39t-44.5 -77t-46 -132.5t-44.5 -196.5t-26.5 -196t-2 -132.5t17 -77.5t25.5 -39t29 -9l-13 -46q-24 0 -45.5 10t-43.5 42.5t-33 85t-8 146t25 216.5t53.5 216.5t61.5 146t64.5 85t60.5 42.5t52 10z" />
    <glyph glyph-name="parenright" unicode=")" horiz-adv-x="326" 
d="M-8 -250l13 46q14 0 29.5 9t38.5 39t45 77t46.5 132.5t44.5 196.5q14 81 21.5 148t8.5 113t-3.5 81.5t-12 56t-17.5 33.5t-20 17.5t-21 4.5l13 46q24 0 46 -10t44 -42.5t33.5 -85t8.5 -146t-25 -216.5t-53.5 -216.5t-62 -146t-65 -85t-60.5 -42.5t-52 -10z" />
    <glyph glyph-name="asterisk" unicode="*" horiz-adv-x="427" 
d="M229 683l46 20l44 -116l90 120l34 -28l-87 -115h135l-14 -48h-130l46 -119l-47 -20l-44 115l-89 -119l-33 28l86 115h-135l14 48h130z" />
    <glyph glyph-name="plus" unicode="+" horiz-adv-x="427" 
d="M92 300l14 48h146l28 151l48 4l-28 -155h152l-14 -48h-147l-27 -150l-49 -5l29 155h-152z" />
    <glyph glyph-name="comma" unicode="," horiz-adv-x="213" 
d="M85 70l77 20q5 -35 -2 -76q-20 -111 -114 -159l-25 40q55 41 67 114q5 34 -3 61z" />
    <glyph glyph-name="hyphen" unicode="-" horiz-adv-x="281" 
d="M85 258l13 47h199l-13 -47h-199z" />
    <glyph glyph-name="period" unicode="." horiz-adv-x="213" 
d="M60 49q5 23 23.5 39t41.5 16t35.5 -16t7.5 -39q-5 -24 -22.5 -39t-41.5 -15q-23 0 -35.5 15.5t-8.5 38.5z" />
    <glyph glyph-name="slash" unicode="/" horiz-adv-x="369" 
d="M-23 -255l-43 12l536 998l43 -12z" />
    <glyph glyph-name="zero" unicode="0" horiz-adv-x="566" 
d="M113 350q30 163 110.5 259t187.5 96t152.5 -96t16.5 -259q-30 -163 -110.5 -259t-186.5 -96q-107 0 -153 96t-17 259zM196 350q-25 -139 1 -218.5t96 -79.5q69 0 124 80t80 218q25 139 -1 218.5t-95 79.5t-124.5 -80t-80.5 -218z" />
    <glyph glyph-name="one" unicode="1" horiz-adv-x="348" 
d="M50 0l8 48l89 12l106 583h-93l4 44q60 18 131 18q26 0 37 -8.5t7 -31.5l-112 -617h80l-8 -48h-249z" />
    <glyph glyph-name="two" unicode="2" horiz-adv-x="522" 
d="M497 138l-24 -138h-416l6 41q42 41 113 111q200 198 242 249q46 57 56 108q12 67 -20 103t-100 36q-60 0 -124 -33l-27 -101l-52 4l24 133q99 54 197 54q106 0 153 -52t30 -145q-12 -68 -74.5 -140t-311.5 -313h256l19 79z" />
    <glyph glyph-name="three" unicode="3" horiz-adv-x="538" 
d="M379 705q95 0 143 -49t32 -133q-21 -121 -139 -164q63 -17 92.5 -62.5t18.5 -110.5q-15 -87 -92.5 -139t-183.5 -52q-111 0 -185 61l37 42q62 -46 148 -46q73 0 126 38.5t65 103.5q11 61 -22 98t-96 37h-77l15 52h48q63 0 107 36.5t55 99.5q11 59 -17.5 95t-90.5 36
q-71 0 -127 -35l-25 -94l-51 4l21 122q88 60 198 60z" />
    <glyph glyph-name="four" unicode="4" horiz-adv-x="542" 
d="M429 0h-77l30 169h-296l6 34l265 497l77 -1l-251 -477h208l50 278l79 -1l-51 -277h70l-16 -53h-63z" />
    <glyph glyph-name="five" unicode="5" horiz-adv-x="533" 
d="M567 700l-24 -134l-54 -4l11 83h-200l-61 -237h108q99 0 148.5 -58t33.5 -149q-17 -97 -95 -151.5t-184 -54.5q-111 0 -185 61l37 42q62 -46 147 -46q74 0 127.5 41t66.5 111q13 65 -20 107.5t-95 42.5h-170l89 346h320z" />
    <glyph glyph-name="six" unicode="6" horiz-adv-x="540" 
d="M514 707l29 -37q-5 -1 -13.5 -2.5t-34.5 -10t-51 -20.5t-59.5 -35.5t-63.5 -52t-58 -73t-49 -96.5q82 48 162 48q89 0 132.5 -59t26.5 -159q-18 -100 -85 -157.5t-170 -57.5q-230 0 -178 285q14 80 45 146.5t68 109.5t79 76t80.5 50.5t70 28t50.5 13.5zM343 371
q-83 0 -149 -56q-6 -19 -9 -41q-21 -114 9 -168t98 -54q64 0 105.5 42t54.5 115q13 77 -16 119.5t-93 42.5z" />
    <glyph glyph-name="seven" unicode="7" horiz-adv-x="538" 
d="M164 562l25 138h420l-6 -33l-341 -667h-79l329 645h-275l-20 -79z" />
    <glyph glyph-name="eight" unicode="8" horiz-adv-x="550" 
d="M570 532q-21 -109 -133 -172q55 -28 81.5 -68.5t14.5 -107.5q-15 -86 -83 -137.5t-177 -51.5q-107 0 -155 50.5t-33 135.5q23 120 159 186q-93 55 -73 161q15 81 75 129t157 48q95 0 138 -46t29 -127zM446 176q6 32 -1 56t-31 43.5t-40 28t-55 26.5q-10 5 -15 7
q-122 -55 -141 -156q-11 -59 18.5 -94t100.5 -35t112.5 34.5t51.5 89.5zM253 538q-6 -31 1 -54.5t28 -41.5t40 -28.5t53 -24.5q103 54 120 142q9 53 -16.5 85t-85.5 32t-95.5 -31t-44.5 -79z" />
    <glyph glyph-name="nine" unicode="9" horiz-adv-x="541" 
d="M145 -7l-29 37q5 0 14.5 1.5t37 9t54.5 19.5t62.5 35.5t66 53.5t60 78t48.5 106q-81 -53 -167 -53q-89 0 -133 58t-26 156t84 154.5t168 56.5q232 0 179 -291q-15 -82 -46 -150t-69 -110.5t-80.5 -74.5t-82 -47.5t-71.5 -25t-51 -11.5zM324 337q82 0 152 59l5 22
q21 117 -8.5 173.5t-98.5 56.5q-63 0 -104 -40.5t-54 -111.5q-14 -77 15.5 -118t92.5 -41z" />
    <glyph glyph-name="colon" unicode=":" horiz-adv-x="213" 
d="M60 49q5 23 23.5 39t41.5 16t35.5 -16t7.5 -39q-5 -24 -22.5 -39t-41.5 -15q-23 0 -35.5 15.5t-8.5 38.5zM134 451q4 23 22 38.5t41 15.5q24 0 37 -15.5t8 -38.5t-23 -39t-42 -16q-23 0 -35 16t-8 39z" />
    <glyph glyph-name="semicolon" unicode=";" horiz-adv-x="212" 
d="M134 451q5 23 22.5 38.5t40.5 15.5q24 0 37 -15.5t8 -38.5t-23 -39t-42 -16q-23 0 -35 16t-8 39zM85 70l77 20q5 -35 -2 -76q-18 -111 -114 -159l-25 40q55 41 67 114q5 34 -3 61z" />
    <glyph glyph-name="less" unicode="&#x3c;" horiz-adv-x="471" 
d="M445 166l-44 -30l-295 189l369 191l24 -36l-299 -155z" />
    <glyph glyph-name="equal" unicode="=" horiz-adv-x="463" 
d="M75 204l14 48h381l-15 -48h-380zM111 401l14 48h381l-14 -48h-381z" />
    <glyph glyph-name="greater" unicode="&#x3e;" horiz-adv-x="470" 
d="M144 484l43 30l295 -189l-369 -191l-24 35l301 156z" />
    <glyph glyph-name="question" unicode="?" horiz-adv-x="474" 
d="M165 659q83 46 183 46q98 0 141 -47.5t29 -124.5q-13 -75 -68 -127t-128 -81l-33 -134l-49 5l18 168q66 26 116 70t61 103q9 49 -16 80t-86 31q-59 0 -114 -25l-27 -102l-52 4zM183 49q5 23 23 39t42 16q23 0 35 -16t8 -39t-22 -38.5t-41 -15.5q-24 0 -37 15.5t-8 38.5z
" />
    <glyph glyph-name="at" unicode="@" horiz-adv-x="1014" 
d="M759 -5q-95 0 -120 64q-69 -64 -154 -64q-89 0 -131.5 69.5t-21.5 185.5q22 119 95.5 187t187.5 68q109 0 166 -54l-62 -337q-4 -28 12.5 -45t46.5 -17q48 0 93 48.5t65 156.5q33 180 -48 285.5t-258 105.5q-179 0 -302 -106.5t-157 -292.5q-33 -185 51 -291.5
t267 -106.5q185 0 311 98l31 -37q-148 -117 -356 -117q-215 0 -316.5 122.5t-63.5 332.5t184.5 332.5t359.5 122.5q212 0 310.5 -121.5t62.5 -320.5q-13 -75 -41 -129.5t-64 -83.5t-72.5 -42t-75.5 -13zM636 111l58 316q-33 23 -92 23q-73 0 -121 -52t-65 -147
q-17 -94 9.5 -146.5t90.5 -52.5q71 0 118 48z" />
    <glyph glyph-name="A" unicode="A" horiz-adv-x="719" 
d="M527 664l118 -616h59l-7 -48h-213l7 48l60 12l-24 148h-270l-83 -160h64l-8 -48h-208l8 48l60 12l323 582l-59 7l5 44q58 11 116 11q44 0 52 -40zM464 608l-179 -344h236z" />
    <glyph glyph-name="B" unicode="B" horiz-adv-x="587" 
d="M164 700h251q101 0 153 -48.5t36 -131.5q-10 -57 -46.5 -98t-92.5 -61q62 -17 91.5 -63t17.5 -113q-15 -85 -86 -135t-173 -50h-279l8 48l64 12l108 592h-60zM375 330h-132l-50 -277h131q63 0 108.5 37.5t56.5 100.5q12 64 -19.5 101.5t-94.5 37.5zM408 647h-107
l-48 -263h106q62 0 105.5 35t54.5 95q11 61 -19.5 97t-91.5 36z" />
    <glyph glyph-name="C" unicode="C" horiz-adv-x="596" 
d="M553 54q-91 -59 -204 -59q-139 0 -201 95.5t-33 259.5q30 164 127 259.5t233 95.5q111 0 180 -60l-23 -126l-56 -4l12 103q-44 30 -103 30q-110 0 -183.5 -79t-99.5 -219q-25 -140 19.5 -219t155.5 -79q61 0 117 30l27 98l56 4z" />
    <glyph glyph-name="D" unicode="D" horiz-adv-x="656" 
d="M435 700q136 0 199 -93.5t33 -256.5q-29 -163 -125.5 -256.5t-232.5 -93.5h-280l8 48l71 12l107 592h-66l8 48h278zM425 647h-124l-107 -594h123q98 0 168.5 79t95.5 218q25 138 -16.5 217.5t-139.5 79.5z" />
    <glyph glyph-name="E" unicode="E" horiz-adv-x="557" 
d="M36 0l8 48l64 12l108 592h-60l8 48h473l-24 -134l-54 -4l9 85h-267l-47 -261h201l14 56l52 4l-30 -170l-52 -5l5 61h-201l-50 -277h272l20 79l53 4l-24 -138h-478z" />
    <glyph glyph-name="F" unicode="F" horiz-adv-x="544" 
d="M36 0l8 48l64 12l108 592h-60l8 48h462l-23 -134l-55 -4l12 85h-259l-47 -261h195l16 56l51 4l-31 -170l-51 -5l4 61h-195l-51 -284h82l-8 -48h-230z" />
    <glyph glyph-name="G" unicode="G" horiz-adv-x="626" 
d="M598 304l-46 -252q-89 -57 -203 -57q-140 0 -201.5 95t-32.5 260q30 164 126.5 259.5t233.5 95.5q113 0 182 -60l-23 -126l-56 -4l12 103q-45 30 -105 30q-110 0 -183.5 -78.5t-99.5 -219.5q-25 -141 18 -219.5t154 -78.5q56 0 109 30l42 235h-108l8 48h239l-8 -48z" />
    <glyph glyph-name="H" unicode="H" horiz-adv-x="695" 
d="M786 700l-9 -48l-62 -12l-109 -592h61l-8 -48h-209l8 48l63 12l50 272h-328l-51 -284h61l-9 -48h-208l8 48l64 12l108 592h-60l8 48h207l-8 -48l-63 -12l-47 -255h328l48 267h-59l8 48h208z" />
    <glyph glyph-name="I" unicode="I" horiz-adv-x="281" 
d="M371 700l-8 -48l-63 -12l-108 -592h61l-9 -48h-208l8 48l64 12l108 592h-60l8 48h207z" />
    <glyph glyph-name="J" unicode="J" horiz-adv-x="523" 
d="M614 700l-9 -48l-64 -12l-80 -441q-17 -95 -79.5 -149.5t-157.5 -54.5q-103 0 -168 56l24 126l57 5l-11 -103q34 -27 93 -27q63 0 102.5 38.5t52.5 108.5l82 453h-60l8 48h210z" />
    <glyph glyph-name="K" unicode="K" horiz-adv-x="633" 
d="M374 700l-9 -48l-68 -10l-56 -305l317 315h-67l9 48h217l-8 -48l-74 -12l-226 -224l137 -357l69 -8l-4 -44q-55 -11 -99 -11q-32 0 -46 40l-123 327l-117 -109l-37 -206h67l-8 -48h-219l8 48l71 12l108 592h-67l8 48h217z" />
    <glyph glyph-name="L" unicode="L" horiz-adv-x="542" 
d="M371 700l-8 -48l-63 -12l-107 -585h256l19 79l54 4l-24 -138h-462l8 48l64 12l108 592h-60l8 48h207z" />
    <glyph glyph-name="M" unicode="M" horiz-adv-x="842" 
d="M779 700h156l-9 -48l-65 -12l-107 -592h61l-8 -48h-206l8 48l65 12l94 513l-293 -422h-50l-143 422l-95 -525h62l-8 -48h-207l8 48l66 12l106 583l-59 7l4 45q58 10 113 10q24 0 35 -8.5t17 -27.5l145 -410z" />
    <glyph glyph-name="N" unicode="N" horiz-adv-x="690" 
d="M309 670l234 -521l93 503h-60l8 48h196l-8 -48l-63 -12l-117 -640h-75l-244 551l-92 -503h61l-9 -48h-197l8 48l64 12l106 583l-60 7l5 45q55 10 101 10q34 0 49 -35z" />
    <glyph glyph-name="O" unicode="O" horiz-adv-x="673" 
d="M115 350q30 163 124.5 259t224.5 96t190 -96t30 -259q-29 -163 -123.5 -259t-225.5 -96t-190 96t-30 259zM202 350q-25 -139 13.5 -218.5t129.5 -79.5q92 0 159.5 79.5t92.5 218.5t-13 218.5t-129 79.5q-92 0 -160 -79.5t-93 -218.5z" />
    <glyph glyph-name="P" unicode="P" horiz-adv-x="566" 
d="M36 0l8 48l64 12l108 592h-60l8 48h260q102 0 152.5 -52t34.5 -142t-86 -142t-171 -52h-114l-48 -264h82l-8 -48h-230zM415 647h-114l-52 -282h114q62 0 105.5 38t56.5 103q12 65 -18 103t-92 38z" />
    <glyph glyph-name="Q" unicode="Q" horiz-adv-x="678" 
d="M115 350q30 163 125.5 259t226.5 96q130 0 190.5 -96t30.5 -259q-27 -151 -111 -245t-202 -107q-8 -51 17.5 -78.5t82.5 -27.5q64 0 113 29l15 -44q-66 -42 -153 -42t-126 42.5t-28 120.5q-111 15 -159.5 109t-21.5 243zM202 350q-25 -139 13.5 -218.5t132.5 -79.5
q92 0 160 80t93 218q25 139 -13.5 218.5t-130.5 79.5q-93 0 -161.5 -79.5t-93.5 -218.5z" />
    <glyph glyph-name="R" unicode="R" horiz-adv-x="598" 
d="M36 0l8 48l64 12l108 592h-60l8 48h260q102 0 153 -51.5t34 -141.5q-13 -70 -59 -117.5t-116 -65.5l73 -265l68 -8l-4 -44q-52 -11 -98 -11q-38 0 -48 40l-68 279h-118l-49 -267h61l-9 -48h-208zM415 647h-114l-51 -278h113q63 0 106.5 36.5t55.5 101.5q13 65 -17 102.5
t-93 37.5z" />
    <glyph glyph-name="S" unicode="S" horiz-adv-x="512" 
d="M235 536q-7 -36 6 -63t38.5 -43.5t57.5 -31.5t63.5 -32t56 -38.5t35.5 -58.5t2 -85q-16 -86 -80 -137.5t-170 -51.5q-111 0 -189 52l24 133l53 5l-10 -101q46 -32 119 -32q69 0 111.5 34.5t52.5 90.5q7 37 -5.5 64t-37.5 44.5t-56.5 32t-62.5 31.5t-55 38.5t-35.5 57
t-2.5 82.5q15 82 74 130t154 48q106 0 172 -46l-25 -134l-53 -4l12 102q-44 25 -107 25q-60 0 -96.5 -31.5t-45.5 -80.5z" />
    <glyph glyph-name="T" unicode="T" horiz-adv-x="616" 
d="M621 562l9 85h-161l-109 -599h60l-8 -48h-208l9 48l63 12l106 587h-162l-20 -81l-54 -4l26 138h527l-24 -134z" />
    <glyph glyph-name="U" unicode="U" horiz-adv-x="707" 
d="M301 640l-69 -381q-18 -97 16.5 -152t113.5 -55t134 55t72 152l72 393h-60l8 48h210l-9 -48l-63 -12l-69 -381q-22 -123 -104.5 -193.5t-200.5 -70.5q-117 0 -173 70.5t-34 193.5l71 393h-60l9 48h209l-10 -48z" />
    <glyph glyph-name="V" unicode="V" horiz-adv-x="717" 
d="M823 700l-8 -48l-60 -12l-354 -640h-74l-125 641l-60 8l4 44q55 11 100 11q40 0 45 -40l90 -568l290 556h-64l9 48h207z" />
    <glyph glyph-name="W" unicode="W" horiz-adv-x="1095" 
d="M1201 700l-9 -48l-60 -12l-334 -640h-73l-73 567l-273 -567h-73l-103 641l-61 8l4 44q53 11 100 11q42 0 45 -40l71 -556l276 592h73l67 -594l271 546h-65l9 48h208z" />
    <glyph glyph-name="X" unicode="X" horiz-adv-x="678" 
d="M28 0l8 48l69 12l245 301l-131 280l-67 8l4 44q44 11 93 11q24 0 33.5 -9t18.5 -31l114 -259l204 247h-69l8 48h218l-8 -48l-69 -12l-238 -285l131 -296l69 -8l-5 -44q-45 -11 -95 -11q-21 0 -31.5 9t-19.5 31l-116 273l-209 -261h71l-9 -48h-219z" />
    <glyph glyph-name="Y" unicode="Y" horiz-adv-x="679" 
d="M707 640l-267 -345l-44 -247h60l-8 -48h-209l8 48l63 12l43 234l-143 347l-67 8l4 44q45 11 95 11q23 0 33.5 -9t17.5 -31l117 -303l219 291h-71l9 48h217l-8 -48z" />
    <glyph glyph-name="Z" unicode="Z" horiz-adv-x="575" 
d="M162 562l25 138h460l-6 -33l-475 -612h308l19 79l53 4l-24 -138h-470l5 34l474 611h-296l-18 -79z" />
    <glyph glyph-name="bracketleft" unicode="[" horiz-adv-x="336" 
d="M435 750l-13 -46h-121l-165 -908h125l-13 -46h-196l182 1000h201z" />
    <glyph glyph-name="backslash" unicode="\" horiz-adv-x="371" 
d="M340 -238l-45 -21l-174 997l46 21z" />
    <glyph glyph-name="bracketright" unicode="]" horiz-adv-x="336" 
d="M-8 -250l13 46h121l165 908h-126l13 46h197l-182 -1000h-201z" />
    <glyph glyph-name="asciicircum" unicode="^" horiz-adv-x="414" 
d="M135 505l-17 34l220 187l152 -192l-32 -27l-134 142z" />
    <glyph glyph-name="underscore" unicode="_" horiz-adv-x="489" 
d="M-19 -114l8 48h488l-8 -48h-488z" />
    <glyph glyph-name="grave" unicode="`" horiz-adv-x="298" 
d="M170 690l49 44l141 -129l-32 -29z" />
    <glyph glyph-name="a" unicode="a" 
d="M166 413l-16 43q74 49 165 49q85 0 122 -46t22 -128l-46 -253q-5 -31 18 -31q14 0 35 9v-39q-50 -21 -84 -21q-30 0 -43.5 14t-12.5 39q-68 -54 -149 -54q-63 0 -94 35t-20 92q10 53 50.5 88t104.5 43l147 20l11 59q10 55 -13.5 85.5t-78.5 30.5q-62 0 -118 -35zM209 52
q77 0 125 49l23 127l-127 -20q-79 -12 -92 -81q-6 -36 13 -55.5t58 -19.5z" />
    <glyph glyph-name="b" unicode="b" horiz-adv-x="525" 
d="M283 715l-48 -262q64 52 140 52q89 0 131 -69.5t21 -186.5q-22 -118 -94.5 -186t-188.5 -68q-111 0 -167 49l119 649l-52 7l4 45q58 10 99 10q23 0 31 -9.5t5 -30.5zM344 448q-73 0 -119 -49l-60 -326q35 -23 93 -23q73 0 121 52t65 147q17 94 -9.5 146.5t-90.5 52.5z
" />
    <glyph glyph-name="c" unicode="c" horiz-adv-x="460" 
d="M492 463l-18 -101l-57 -4l7 79q-33 11 -68 11q-73 0 -120.5 -50.5t-63.5 -141.5q-18 -98 12 -151t107 -53q69 0 119 31l16 -42q-64 -46 -160 -46q-105 0 -152 68.5t-26 187.5q22 118 93 186t176 68q92 0 135 -42z" />
    <glyph glyph-name="d" unicode="d" horiz-adv-x="548" 
d="M520 56l1 -39q-47 -21 -85 -21q-28 0 -42 13.5t-13 37.5q-66 -52 -142 -52q-88 0 -130 69.5t-21 185.5q22 117 90.5 186t164.5 69q64 0 114 -28l40 216l-52 7l4 45q60 10 100 10q41 0 35 -40l-115 -637q-7 -31 18 -31q15 0 33 9zM271 52q68 0 118 47l58 319
q-36 30 -94 30q-69 0 -117 -53t-65 -146q-17 -92 9.5 -144.5t90.5 -52.5z" />
    <glyph glyph-name="e" unicode="e" 
d="M475 258h-303q-23 -98 9.5 -152t117.5 -54q74 0 124 29l16 -43q-71 -43 -161 -43q-108 0 -160 67.5t-30 190.5q21 116 90.5 184t171.5 68q83 0 122.5 -46t24.5 -129q-8 -38 -22 -72zM340 448q-57 0 -98 -38t-61 -105h239q6 21 9 35q9 51 -15.5 79.5t-73.5 28.5z" />
    <glyph glyph-name="f" unicode="f" horiz-adv-x="352" 
d="M287 615l-20 -115h141l-14 -53h-138l-102 -562q-12 -66 -55.5 -103t-103.5 -37q-55 0 -89 32l24 41q20 -16 54 -16q33 0 56.5 21.5t30.5 61.5l103 562h-60l14 48l56 4l21 116q12 67 55 103.5t109 36.5q63 0 94 -31l-26 -43q-21 17 -58 17q-77 0 -92 -83z" />
    <glyph glyph-name="g" unicode="g" horiz-adv-x="512" 
d="M112 337q14 77 72.5 122.5t143.5 45.5q50 0 87 -17q74 82 161 82l-21 -80q-12 5 -30 5q-37 0 -78 -27q53 -45 38 -131q-14 -78 -73 -123.5t-145 -45.5q-46 0 -82 14q-33 -28 -40 -66q-5 -29 10 -45t52 -16h128q73 0 108 -35.5t23 -100.5q-15 -84 -93.5 -129t-193.5 -45
q-102 0 -147.5 35.5t-34.5 97.5q13 78 99 125q-39 27 -28 83q12 65 81 118q-54 46 -37 133zM179 -16q-21 0 -38 3q-56 -38 -66 -94q-8 -44 19 -67.5t97 -23.5q75 0 132 26t67 80q6 36 -14 56t-65 20h-132zM189 337q-10 -53 13.5 -83.5t73.5 -30.5q51 0 86 30.5t45 83.5
t-13.5 83.5t-74.5 30.5q-50 0 -85 -30.5t-45 -83.5z" />
    <glyph glyph-name="h" unicode="h" horiz-adv-x="563" 
d="M155 2l-85 -5l127 696l-52 7l4 45q58 10 100 10q22 0 30.5 -9.5t4.5 -30.5l-48 -267q82 57 173 57q73 0 104.5 -43t17.5 -119l-49 -265q-4 -31 19 -31q16 0 34 9v-39q-47 -21 -84 -21q-67 0 -53 68l50 276q18 108 -80 108q-34 0 -73.5 -14t-68.5 -38z" />
    <glyph glyph-name="i" unicode="i" horiz-adv-x="270" 
d="M244 56l-2 -39q-45 -21 -83 -21q-66 0 -54 69l70 378l-54 7l5 45q60 10 101 10t35 -40l-71 -387q-5 -31 18 -31q15 0 35 9zM193 650q5 24 22.5 39.5t40.5 15.5q24 0 36.5 -15.5t8.5 -39.5q-4 -23 -23 -38.5t-42 -15.5t-35.5 15.5t-7.5 38.5z" />
    <glyph glyph-name="j" unicode="j" horiz-adv-x="270" 
d="M191 650q5 24 22.5 39.5t41.5 15.5t36.5 -15.5t8.5 -39.5q-4 -23 -23 -38.5t-42 -15.5t-35.5 15.5t-8.5 38.5zM260 465l-106 -580q-12 -66 -55.5 -103t-103.5 -37q-55 0 -89 32l24 41q20 -16 54 -16q33 0 56.5 21.5t30.5 61.5l102 558l-52 7l5 45q57 10 98 10
q23 0 31 -9.5t5 -30.5z" />
    <glyph glyph-name="k" unicode="k" horiz-adv-x="486" 
d="M341 36l-76 206l-81 -76l-30 -164l-84 -5l127 696l-52 7l4 45q58 10 101 10q40 0 34 -40l-85 -464l243 249h88l-202 -203l92 -238l57 -8l-5 -44q-53 -11 -87 -11q-31 0 -44 40z" />
    <glyph glyph-name="l" unicode="l" horiz-adv-x="247" 
d="M221 56l-2 -39q-45 -21 -83 -21q-66 0 -54 69l115 628l-53 7l5 45q58 10 100 10q41 0 35 -40l-116 -637q-5 -31 18 -31q16 0 35 9z" />
    <glyph glyph-name="m" unicode="m" horiz-adv-x="844" 
d="M178 2l-85 -5l82 446l-52 7l4 45q58 10 99 10q42 0 36 -40l-3 -17q77 57 161 57q88 0 107 -71q84 71 178 71q67 0 94 -40t14 -112l-50 -275q-5 -31 18 -31q16 0 34 9l1 -39q-48 -21 -84 -21q-67 0 -54 69l52 286q18 97 -65 97q-74 0 -134 -55q0 -12 -4 -40l-64 -351
l-83 -5l64 354q18 97 -65 97q-70 0 -129 -50z" />
    <glyph glyph-name="n" unicode="n" horiz-adv-x="586" 
d="M178 2l-85 -5l82 446l-52 7l4 45q58 10 99 10q42 0 36 -40l-3 -17q82 57 173 57q73 0 104.5 -43t17.5 -119l-49 -265q-4 -31 19 -31q16 0 34 9v-39q-46 -21 -84 -21q-67 0 -53 68l50 276q18 108 -80 108q-34 0 -73.5 -14t-68.5 -38z" />
    <glyph glyph-name="o" unicode="o" horiz-adv-x="528" 
d="M88 250q22 118 93.5 186.5t172.5 68.5q102 0 150.5 -69t26.5 -186t-94.5 -186t-173.5 -69q-102 0 -149.5 69t-25.5 186zM171 250q-17 -92 10 -145t91 -53q65 0 112 53t63 145q17 92 -10.5 145t-92.5 53q-63 0 -110 -53t-63 -145z" />
    <glyph glyph-name="p" unicode="p" horiz-adv-x="548" 
d="M132 -248l-85 -5l127 696l-52 7l4 45q58 10 100 10t35 -40l-2 -12q64 52 140 52q88 0 130.5 -69.5t21.5 -185.5q-22 -117 -90.5 -186t-164.5 -69q-67 0 -115 28zM368 448q-73 0 -119 -49l-58 -319q36 -28 96 -28q68 0 115.5 52.5t64.5 146.5q17 92 -9 144.5t-90 52.5z
" />
    <glyph glyph-name="q" unicode="q" horiz-adv-x="535" 
d="M409 -248l-83 -5l54 299q-64 -51 -141 -51q-88 0 -130.5 69.5t-20.5 185.5q21 119 94 187t188 68q109 0 166 -54zM270 52q72 0 120 48l59 327q-33 23 -92 23q-73 0 -121 -52t-65 -147q-17 -93 9.5 -146t89.5 -53z" />
    <glyph glyph-name="r" unicode="r" horiz-adv-x="382" 
d="M178 2l-85 -5l82 446l-52 7l4 45q58 10 99 10q42 0 36 -40l-8 -44q78 87 179 87l-21 -80q-16 4 -30 4q-34 0 -73.5 -19.5t-66.5 -56.5z" />
    <glyph glyph-name="s" unicode="s" horiz-adv-x="430" 
d="M197 382q-7 -34 15 -55.5t56.5 -34t69 -27t55 -46t11.5 -80.5q-12 -66 -64.5 -105t-136.5 -39q-85 0 -145 37l17 99l60 4l-8 -70q34 -20 82 -20t79 22.5t37 58.5q7 35 -14.5 57.5t-55.5 36t-68 28.5t-54 46t-11 79q11 61 57.5 96.5t120.5 35.5q81 0 137 -36l-19 -100
l-57 -4l6 73q-36 17 -74 17q-40 0 -65 -20.5t-31 -52.5z" />
    <glyph glyph-name="t" unicode="t" horiz-adv-x="366" 
d="M105 447l13 48l69 4l30 111l71 9l-21 -119h143l-15 -53h-138l-56 -312q-15 -83 59 -83q43 0 66 19l14 -41q-49 -35 -109 -35q-65 0 -95 37t-18 103l56 312h-69z" />
    <glyph glyph-name="u" unicode="u" horiz-adv-x="582" 
d="M554 56v-39q-46 -21 -84 -21q-61 0 -56 56q-83 -57 -173 -57q-72 0 -102.5 43t-16.5 118l52 287l-52 7l4 45q60 10 100 10q42 0 35 -40l-55 -305q-21 -108 76 -108q79 0 141 50l72 396l83 5l-76 -425q-7 -31 18 -31q14 0 34 9z" />
    <glyph glyph-name="v" unicode="v" horiz-adv-x="549" 
d="M516 500h93l-288 -500h-74l-92 441l-56 8l4 44q53 11 91 11t41 -40l66 -378z" />
    <glyph glyph-name="w" unicode="w" horiz-adv-x="834" 
d="M800 500h90l-277 -500h-73l-51 373l-180 -373h-74l-80 441l-56 8l4 44q53 11 92 11q20 0 29 -10t11 -30l54 -369l189 405h66l49 -406z" />
    <glyph glyph-name="x" unicode="x" horiz-adv-x="523" 
d="M129 0h-95l218 261l-87 180l-56 8l4 44q45 11 81 11q23 0 33 -9t18 -31l73 -163l166 199h93l-215 -245l90 -196l56 -8l-5 -44q-44 -11 -81 -11q-22 0 -31.5 8.5t-19.5 31.5l-76 177z" />
    <glyph glyph-name="y" unicode="y" horiz-adv-x="543" 
d="M512 500h90l-339 -600q-49 -87 -87 -121t-88 -34q-60 0 -93 39l24 41q24 -23 59 -23q31 0 54 22t55 77l58 99l-90 441l-56 8l4 44q52 11 87 11q23 0 33 -10t12 -30l63 -376z" />
    <glyph glyph-name="z" unicode="z" horiz-adv-x="454" 
d="M119 374l23 126h358l-6 -33l-342 -412h211l16 67l54 4l-21 -126h-369l5 34l342 411h-201l-16 -67z" />
    <glyph glyph-name="braceleft" unicode="{" horiz-adv-x="314" 
d="M101 -96l44 238q6 40 -11 61.5t-55 21.5l13 50q35 0 60 22t32 61l43 238q15 82 61 120.5t126 38.5l-14 -49q-36 0 -60.5 -22t-31.5 -62l-45 -241q-16 -90 -86 -131q55 -40 39 -131l-44 -242q-7 -40 10.5 -61.5t56.5 -21.5l-13 -49q-78 0 -109 38t-16 121z" />
    <glyph glyph-name="bar" unicode="|" horiz-adv-x="244" 
d="M145 -247l-47 -5v999l47 5v-999z" />
    <glyph glyph-name="braceright" unicode="}" horiz-adv-x="315" 
d="M302 596l-43 -238q-7 -39 11 -61t56 -22l-14 -50q-36 0 -60.5 -22t-31.5 -62l-44 -237q-15 -82 -60 -120.5t-125 -38.5l14 49q35 0 59.5 22t31.5 61l44 242q16 89 86 131q-54 40 -38 131l43 242q7 40 -10.5 61.5t-54.5 21.5l13 49q77 0 107.5 -38.5t15.5 -120.5z" />
    <glyph glyph-name="asciitilde" unicode="~" horiz-adv-x="429" 
d="M131 249l-45 7q36 98 117 98q34 0 73 -29t62 -29q49 0 70 56l44 -8q-16 -47 -48 -72.5t-70 -25.5q-32 0 -71 29.5t-64 29.5q-48 0 -68 -56z" />
    <glyph glyph-name="exclamdown" unicode="&#xa1;" horiz-adv-x="213" 
d="M242 451q-5 -24 -22.5 -39.5t-40.5 -15.5q-24 0 -37 16t-8 39q4 23 22.5 38.5t41.5 15.5q24 0 36.5 -15.5t7.5 -38.5zM138 309l49 -5l-29 -241l-49 -265l-78 5l48 260z" />
    <glyph glyph-name="cent" unicode="&#xa2;" horiz-adv-x="460" 
d="M276 -72l-50 -5l13 73q-91 9 -131 76.5t-20 177.5q20 111 84.5 178.5t158.5 75.5l13 68l49 5l-14 -73q74 -5 113 -41l-18 -101l-57 -4l7 79q-35 11 -69 11q-73 0 -120 -50.5t-63 -141.5q-18 -98 12 -151t107 -53q69 0 119 31l16 -42q-57 -40 -139 -45z" />
    <glyph glyph-name="sterling" unicode="&#xa3;" horiz-adv-x="543" 
d="M169 367l24 128q17 95 85.5 152.5t167.5 57.5q100 0 158 -60l-23 -126l-57 -4l12 103q-36 30 -88 30q-69 0 -114 -41.5t-57 -111.5l-23 -126h168l-14 -54h-164l-48 -260h253l19 79l54 4l-24 -138h-462l7 47l70 10l47 258h-64l12 48z" />
    <glyph glyph-name="currency" unicode="&#xa4;" horiz-adv-x="477" 
d="M127 325q12 63 51 107l-54 68l42 30l52 -66q47 32 110 32q62 0 97 -32l78 66l30 -30l-80 -68q24 -46 13 -107q-10 -60 -51 -108l54 -67l-42 -30l-52 65q-48 -31 -109 -31q-62 0 -98 31l-76 -65l-32 30l78 67q-22 43 -11 108zM186 325q-11 -57 13 -90t76 -33q51 0 86.5 33
t45.5 90q11 57 -12.5 90t-75.5 33q-51 0 -87 -33t-46 -90z" />
    <glyph glyph-name="yen" unicode="&#xa5;" horiz-adv-x="679" 
d="M210 238l13 44h127l3 12l-143 347l-67 8l4 44q45 11 95 11q23 0 33.5 -9t17.5 -31l117 -303l219 291h-71l9 48h217l-8 -48l-69 -12l-267 -345l-3 -13h133l-13 -44h-127l-13 -69h133l-14 -44h-127l-13 -77h60l-8 -48h-209l8 48l63 12l12 65h-131l12 44h127l12 69h-132z
" />
    <glyph glyph-name="brokenbar" unicode="&#xa6;" horiz-adv-x="244" 
d="M145 -247l-47 -5v449l47 5v-449zM145 303l-47 -5v449l47 5v-449z" />
    <glyph glyph-name="section" unicode="&#xa7;" horiz-adv-x="506" 
d="M103 230l78 10q-7 -37 6 -64t38 -43.5t56.5 -31t63 -29.5t56 -34t36.5 -50.5t4 -73.5q-14 -77 -77 -123t-169 -46q-110 0 -187 52l24 133l52 5l-10 -97q51 -36 120 -36q68 0 110 31.5t51 80.5q5 29 -4 50.5t-28.5 35t-45 26.5t-52.5 23t-52 26t-43.5 34.5t-26 49.5
t-0.5 71zM488 216l-83 -10q8 44 -9.5 76t-49.5 48.5t-70 35.5t-70 37.5t-49.5 54t-8.5 84.5q14 75 73 119t157 44q102 0 170 -46l-25 -134l-53 -4l9 100q-46 27 -105 27q-60 0 -97 -29t-45 -74q-6 -32 7 -56t38 -39t56.5 -28t62 -29.5t54.5 -37.5t35.5 -56.5t2.5 -82.5z" />
    <glyph glyph-name="dieresis" unicode="&#xa8;" horiz-adv-x="371" 
d="M163 627q4 19 19 32t35 13q19 0 29.5 -12.5t6.5 -32.5t-18.5 -33t-33.5 -13q-20 0 -31 13.5t-7 32.5zM345 627q4 20 18.5 32.5t34.5 12.5q19 0 29.5 -13t7.5 -32q-4 -20 -19 -33t-34 -13t-29.5 13t-7.5 33z" />
    <glyph glyph-name="copyright" unicode="&#xa9;" horiz-adv-x="792" 
d="M115 350q30 163 141 259t269 96t233 -96t46 -259q-30 -163 -140 -259t-268 -96t-234 96t-47 259zM170 350q-26 -143 36 -224.5t198 -81.5q135 0 228.5 82t119.5 224q25 142 -38 224t-198 82t-228 -82t-118 -224zM540 202q-45 -30 -105 -30q-69 0 -100.5 48t-16.5 130
t64 130t117 48q55 0 94 -30l-14 -65l-32 -3l5 51q-20 14 -47 14q-53 0 -87.5 -38.5t-46.5 -106.5q-12 -69 8.5 -107t74.5 -38q26 0 52 13l13 50l35 2z" />
    <glyph glyph-name="ordfeminine" unicode="&#xaa;" horiz-adv-x="364" 
d="M189 637l-12 32q53 35 116 35q60 0 87 -32.5t16 -89.5l-33 -176q-4 -21 13 -21q10 0 23 6v-29q-33 -15 -59 -15q-41 0 -41 35q-48 -36 -103 -36q-44 0 -65.5 24.5t-14.5 64.5q7 38 36.5 62.5t74.5 30.5l100 14l8 40q7 38 -9.5 59.5t-54.5 21.5q-41 0 -82 -26zM220 387
q50 0 84 33l17 88l-87 -13q-54 -8 -62 -55q-5 -25 8 -39t40 -14z" />
    <glyph glyph-name="guillemotleft" unicode="&#xab;" horiz-adv-x="441" 
d="M257 155l-35 -22l-122 167l186 168l22 -28l-138 -141zM409 155l-37 -22l-120 167l186 168l21 -28l-137 -141z" />
    <glyph glyph-name="logicalnot" unicode="&#xac;" horiz-adv-x="530" 
d="M96 325l14 48h429l-32 -179l-48 -5l25 136h-388z" />
    <glyph glyph-name="uni00AD" unicode="&#xad;" horiz-adv-x="281" 
d="M85 258l13 47h199l-13 -47h-199z" />
    <glyph glyph-name="registered" unicode="&#xae;" horiz-adv-x="792" 
d="M115 350q30 163 141 259t269 96t233 -96t46 -259q-30 -163 -140 -259t-268 -96t-234 96t-47 259zM170 350q-26 -143 36 -224.5t198 -81.5q135 0 228.5 82t119.5 224q25 142 -38 224t-198 82t-228 -82t-118 -224zM302 180l5 28l30 6l53 288h-29l5 28h132q54 0 80 -25.5
t18 -71.5q-14 -72 -86 -91l35 -129l34 -3l-2 -26q-38 -6 -54 -6q-20 0 -26 23l-33 135h-53l-23 -128h28l-5 -28h-109zM492 499h-51l-24 -132h51q29 0 50 17.5t26 48.5t-8.5 48.5t-43.5 17.5z" />
    <glyph glyph-name="macron" unicode="&#xaf;" horiz-adv-x="297" 
d="M138 614l14 48h238l-13 -48h-239z" />
    <glyph glyph-name="degree" unicode="&#xb0;" horiz-adv-x="318" 
d="M157 592q10 53 45 83t85 30t74.5 -30t14.5 -83q-10 -51 -45 -81.5t-84 -30.5q-51 0 -75.5 30.5t-14.5 81.5zM202 592q-6 -33 8.5 -52.5t43.5 -19.5t50 19.5t27 52.5q6 34 -8 53.5t-43 19.5t-50.5 -20t-27.5 -53z" />
    <glyph glyph-name="plusminus" unicode="&#xb1;" horiz-adv-x="426" 
d="M92 300l14 48h146l27 151l49 4l-28 -155h151l-13 -48h-147l-27 -150l-49 -5l28 155h-151zM38 0l13 48h345l-13 -48h-345z" />
    <glyph glyph-name="twosuperior" unicode="&#xb2;" horiz-adv-x="281" 
d="M326 424l-14 -74h-213l4 26q152 152 171 176q23 28 28 52q6 31 -8.5 47.5t-45.5 16.5q-25 0 -58 -15l-12 -51l-34 2l15 72q48 27 100 27q54 0 78 -26.5t16 -72.5q-6 -34 -36.5 -70t-146.5 -149h113l11 36z" />
    <glyph glyph-name="threesuperior" unicode="&#xb3;" horiz-adv-x="285" 
d="M258 703q50 0 75 -24.5t18 -67.5q-9 -61 -69 -81q66 -19 54 -86q-8 -44 -47.5 -70.5t-93.5 -26.5q-55 0 -94 31l23 27q31 -23 70 -23q33 0 58 18t31 49q4 28 -11 45t-42 17h-38l9 33h22q29 0 49.5 17t25.5 46q5 28 -7.5 44.5t-42.5 16.5q-29 0 -55 -16l-12 -45l-33 2
l12 64q44 30 98 30z" />
    <glyph glyph-name="acute" unicode="&#xb4;" horiz-adv-x="298" 
d="M176 574l-13 35l189 128l23 -50z" />
    <glyph glyph-name="mu" unicode="&#xb5;" horiz-adv-x="581" 
d="M0 -200l8 48l58 12l62 337l45 246l-52 7l4 45q58 10 99 10q23 0 31.5 -9.5t4.5 -30.5l-56 -305q-20 -108 76 -108q80 0 142 50l62 341l-53 7l5 45q58 10 99 10q43 0 36 -40l-71 -387q-5 -31 19 -31q15 0 34 9l-1 -39q-45 -21 -83 -21q-61 0 -56 56q-83 -57 -173 -57
q-38 0 -64 12l-29 -159h56l-9 -48h-194z" />
    <glyph glyph-name="paragraph" unicode="&#xb6;" horiz-adv-x="461" 
d="M344 -98l-72 -5l76 415h-37q-98 0 -147.5 52t-33.5 142q16 89 84.5 141.5t166.5 52.5h170l-8 -48l-64 -12z" />
    <glyph glyph-name="periodcentered" unicode="&#xb7;" horiz-adv-x="214" 
d="M103 280q5 23 23 38.5t41 15.5t35.5 -15.5t8.5 -38.5t-22 -38.5t-42 -15.5q-23 0 -35.5 15.5t-8.5 38.5z" />
    <glyph glyph-name="cedilla" unicode="&#xb8;" horiz-adv-x="210" 
d="M76 0h45q-5 -30 13.5 -61.5t13.5 -59.5q-14 -76 -119 -87l-1 52q63 12 71 52q3 16 -13 42.5t-10 61.5z" />
    <glyph glyph-name="onesuperior" unicode="&#xb9;" horiz-adv-x="198" 
d="M96 350l6 30l42 7l50 278h-43l3 28q31 10 72 10q14 0 20.5 -5t4.5 -18l-55 -300h37l-6 -30h-131z" />
    <glyph glyph-name="ordmasculine" unicode="&#xba;" horiz-adv-x="387" 
d="M134 525q15 83 65.5 131t122.5 48q70 0 103.5 -48.5t18.5 -130.5q-16 -83 -66 -131t-121 -48q-72 0 -105.5 48.5t-17.5 130.5zM195 525q-12 -64 6.5 -101t62.5 -37q43 0 75 37t44 101t-6.5 101t-61.5 37q-44 0 -76 -37t-44 -101z" />
    <glyph glyph-name="guillemotright" unicode="&#xbb;" horiz-adv-x="442" 
d="M141 444l37 23l121 -168l-187 -168l-21 28l137 141zM293 444l36 23l121 -168l-186 -168l-20 28l136 141z" />
    <glyph glyph-name="onequarter" unicode="&#xbc;" horiz-adv-x="567" 
d="M96 -7l-39 21l516 692l40 -20zM498 0h-48l14 82h-148l4 20l130 248l49 -1l-120 -234h91l24 135l50 -1l-25 -134h32l-8 -33h-30zM96 350l6 30l42 7l50 278h-43l3 28q30 10 71 10q16 0 22 -5t4 -18l-55 -300h37l-6 -30h-131z" />
    <glyph glyph-name="onehalf" unicode="&#xbd;" horiz-adv-x="609" 
d="M96 350l6 30l42 7l50 278h-43l3 28q30 10 71 10q16 0 22 -5t4 -18l-55 -300h37l-6 -30h-131zM96 -7l-39 21l516 692l40 -20zM581 74l-12 -74h-214l5 26q150 151 170 175q23 29 27 53q7 31 -8.5 47.5t-45.5 16.5q-26 0 -56 -15l-15 -51l-31 2l12 72q50 27 101 27
q55 0 78.5 -26.5t15.5 -72.5q-6 -34 -36.5 -70t-146.5 -149h113l10 36z" />
    <glyph glyph-name="threequarters" unicode="&#xbe;" horiz-adv-x="596" 
d="M136 -7l-40 21l517 692l39 -20zM259 703q50 0 74.5 -24.5t17.5 -67.5q-9 -61 -69 -81q67 -20 55 -86q-8 -44 -48.5 -70.5t-94.5 -26.5q-53 0 -94 31l24 27q31 -23 69 -23q34 0 59 18t31 49q4 28 -11 45t-43 17h-37l8 33h23q29 0 49.5 17t25.5 46q5 28 -8 44.5t-42 16.5
t-55 -16l-12 -45l-33 2l12 64q44 30 99 30zM531 0h-49l14 82h-148l5 20l130 248l47 -1l-120 -234h92l24 135l50 -1l-24 -134h31l-8 -33h-29z" />
    <glyph glyph-name="questiondown" unicode="&#xbf;" horiz-adv-x="473" 
d="M423 -25l-24 -134q-83 -46 -183 -46q-98 0 -141 47.5t-30 124.5q14 76 69 127.5t129 80.5l33 134l48 -5l-18 -168q-66 -26 -116.5 -70t-61.5 -103q-9 -49 16.5 -80.5t86.5 -31.5q57 0 114 26l27 102zM382 451q-5 -24 -23.5 -39.5t-41.5 -15.5q-24 0 -36.5 16t-7.5 39
q4 23 22 38.5t42 15.5q23 0 36 -15.5t9 -38.5z" />
    <glyph glyph-name="Agrave" unicode="&#xc0;" horiz-adv-x="719" 
d="M527 664l118 -616h59l-7 -48h-213l7 48l60 12l-24 148h-270l-83 -160h64l-8 -48h-208l8 48l60 12l323 582l-59 7l5 44q58 11 116 11q44 0 52 -40zM464 608l-179 -344h236zM387 851l49 43l140 -128l-30 -30z" />
    <glyph glyph-name="Aacute" unicode="&#xc1;" horiz-adv-x="719" 
d="M527 664l118 -616h59l-7 -48h-213l7 48l60 12l-24 148h-270l-83 -160h64l-8 -48h-208l8 48l60 12l323 582l-59 7l5 44q58 11 116 11q44 0 52 -40zM464 608l-179 -344h236zM428 735l-13 35l189 127l23 -49z" />
    <glyph glyph-name="Acircumflex" unicode="&#xc2;" horiz-adv-x="719" 
d="M527 664l118 -616h59l-7 -48h-213l7 48l60 12l-24 148h-270l-83 -160h64l-8 -48h-208l8 48l60 12l323 582l-59 7l5 44q58 11 116 11q44 0 52 -40zM464 608l-179 -344h236zM364 733l-15 34l172 138l124 -143l-33 -27l-104 97z" />
    <glyph glyph-name="Atilde" unicode="&#xc3;" horiz-adv-x="719" 
d="M527 664l118 -616h59l-7 -48h-213l7 48l60 12l-24 148h-270l-83 -160h64l-8 -48h-208l8 48l60 12l323 582l-59 7l5 44q58 11 116 11q44 0 52 -40zM464 608l-179 -344h236zM385 748l-44 7q31 88 100 88q29 0 62.5 -23.5t51.5 -23.5q41 0 56 46l45 -8q-14 -43 -41.5 -65.5
t-59.5 -22.5q-28 0 -61.5 24t-52.5 24q-38 0 -56 -46z" />
    <glyph glyph-name="Adieresis" unicode="&#xc4;" horiz-adv-x="719" 
d="M527 664l118 -616h59l-7 -48h-213l7 48l60 12l-24 148h-270l-83 -160h64l-8 -48h-208l8 48l60 12l323 582l-59 7l5 44q58 11 116 11q44 0 52 -40zM464 608l-179 -344h236zM361 788q4 19 19 32t33 13q20 0 31 -13t7 -32t-19 -32t-35 -13q-18 0 -29 13t-7 32zM542 788
q4 19 19 32t34 13q20 0 31 -13t7 -32t-19 -32t-35 -13q-19 0 -30 13t-7 32z" />
    <glyph glyph-name="Aring" unicode="&#xc5;" horiz-adv-x="719" 
d="M527 664l118 -616h59l-7 -48h-213l7 48l60 12l-24 148h-270l-83 -160h64l-8 -48h-208l8 48l60 12l323 582l-59 7l5 44q58 11 116 11q44 0 52 -40zM464 608l-179 -344h236zM423 811q7 36 31.5 57.5t59.5 21.5q36 0 54 -21t11 -58q-6 -37 -31.5 -58.5t-62.5 -21.5
q-34 0 -51 21.5t-11 58.5zM460 811q-4 -21 5.5 -33t27.5 -12t31 12t17 33q8 45 -32 45q-41 0 -49 -45z" />
    <glyph glyph-name="AE" unicode="&#xc6;" horiz-adv-x="804" 
d="M319 0l7 48l64 12l28 148h-152l-93 -160h65l-9 -48h-207l8 48l60 12l348 582l-57 6l4 44q52 8 116 8h384l-25 -134l-53 -4l8 85h-231l-48 -261h167l14 56l51 4l-29 -170l-53 -5l6 61h-166l-49 -277h235l20 79l53 4l-24 -138h-442zM492 615l-203 -351h139z" />
    <glyph glyph-name="Ccedilla" unicode="&#xc7;" horiz-adv-x="596" 
d="M553 54q-85 -56 -196 -59q-2 -26 16 -56.5t13 -59.5q-14 -76 -120 -87v52q63 12 71 52q3 16 -4.5 28.5t-15 29.5t-2.5 43q-122 12 -175 105.5t-25 247.5q30 164 127 259.5t233 95.5q111 0 180 -60l-23 -126l-56 -4l12 103q-44 30 -103 30q-110 0 -183.5 -79t-99.5 -219
q-25 -140 19.5 -219t155.5 -79q61 0 117 30l27 98l56 4z" />
    <glyph glyph-name="Egrave" unicode="&#xc8;" horiz-adv-x="557" 
d="M36 0l8 48l64 12l108 592h-60l8 48h473l-24 -134l-54 -4l9 85h-267l-47 -261h201l14 56l52 4l-30 -170l-52 -5l5 61h-201l-50 -277h272l20 79l53 4l-24 -138h-478zM323 851l49 43l141 -128l-31 -30z" />
    <glyph glyph-name="Eacute" unicode="&#xc9;" horiz-adv-x="557" 
d="M36 0l8 48l64 12l108 592h-60l8 48h473l-24 -134l-54 -4l9 85h-267l-47 -261h201l14 56l52 4l-30 -170l-52 -5l5 61h-201l-50 -277h272l20 79l53 4l-24 -138h-478zM365 735l-12 35l187 128l23 -49z" />
    <glyph glyph-name="Ecircumflex" unicode="&#xca;" horiz-adv-x="557" 
d="M36 0l8 48l64 12l108 592h-60l8 48h473l-24 -134l-54 -4l9 85h-267l-47 -261h201l14 56l52 4l-30 -170l-52 -5l5 61h-201l-50 -277h272l20 79l53 4l-24 -138h-478zM304 733l-16 34l172 138l124 -143l-33 -27l-104 97z" />
    <glyph glyph-name="Edieresis" unicode="&#xcb;" horiz-adv-x="557" 
d="M36 0l8 48l64 12l108 592h-60l8 48h473l-24 -134l-54 -4l9 85h-267l-47 -261h201l14 56l52 4l-30 -170l-52 -5l5 61h-201l-50 -277h272l20 79l53 4l-24 -138h-478zM296 788q4 19 19 32t34 13q20 0 30.5 -13t6.5 -32t-19 -32t-35 -13q-19 0 -29.5 13t-6.5 32zM477 788
q4 19 19.5 32t34.5 13t29.5 -13t6.5 -32t-18.5 -32t-33.5 -13q-20 0 -31 13t-7 32z" />
    <glyph glyph-name="Igrave" unicode="&#xcc;" horiz-adv-x="280" 
d="M370 700l-8 -48l-63 -12l-108 -592h61l-9 -48h-208l8 48l64 12l108 592h-60l8 48h207zM172 851l49 43l141 -128l-31 -30z" />
    <glyph glyph-name="Iacute" unicode="&#xcd;" horiz-adv-x="279" 
d="M371 700l-8 -48l-63 -12l-108 -592h61l-9 -48h-208l8 48l64 12l108 592h-60l8 48h207zM214 735l-12 35l188 128l21 -49z" />
    <glyph glyph-name="Icircumflex" unicode="&#xce;" horiz-adv-x="280" 
d="M371 700l-8 -48l-63 -12l-108 -592h61l-9 -48h-208l8 48l64 12l108 592h-60l8 48h207zM148 733l-17 34l173 138l123 -143l-32 -27l-105 97z" />
    <glyph glyph-name="Idieresis" unicode="&#xcf;" horiz-adv-x="280" 
d="M371 700l-8 -48l-63 -12l-108 -592h61l-9 -48h-208l8 48l64 12l108 592h-60l8 48h207zM147 788q4 19 19.5 32t34.5 13q20 0 30.5 -13t6.5 -32t-19 -32t-35 -13q-19 0 -30 13t-7 32zM329 788q4 19 19 32t34 13t30 -13t7 -32t-19 -32t-34 -13q-20 0 -30.5 12.5t-6.5 32.5z
" />
    <glyph glyph-name="Eth" unicode="&#xd0;" horiz-adv-x="656" 
d="M86 327l14 48h64l50 277h-65l8 48h278q136 0 199 -93.5t33 -256.5q-29 -163 -125.5 -256.5t-232.5 -93.5h-280l8 48l70 12l48 267h-69zM425 647h-124l-49 -272h152l-13 -48h-149l-48 -274h123q98 0 168.5 79t95.5 218q25 138 -16.5 217.5t-139.5 79.5z" />
    <glyph glyph-name="Ntilde" unicode="&#xd1;" horiz-adv-x="690" 
d="M309 670l234 -521l93 503h-60l8 48h196l-8 -48l-63 -12l-117 -640h-75l-244 551l-92 -503h61l-9 -48h-197l8 48l64 12l106 583l-60 7l5 45q55 10 101 10q34 0 49 -35zM376 748l-45 7q30 88 100 88q28 0 62.5 -23.5t53.5 -23.5q39 0 54 46l45 -8q-15 -43 -42.5 -65.5
t-58.5 -22.5q-28 0 -61 24t-52 24q-39 0 -56 -46z" />
    <glyph glyph-name="Ograve" unicode="&#xd2;" horiz-adv-x="673" 
d="M115 350q30 163 124.5 259t224.5 96t190 -96t30 -259q-29 -163 -123.5 -259t-225.5 -96t-190 96t-30 259zM202 350q-25 -139 13.5 -218.5t129.5 -79.5q92 0 159.5 79.5t92.5 218.5t-13 218.5t-129 79.5q-92 0 -160 -79.5t-93 -218.5zM368 851l49 43l141 -128l-31 -30z
" />
    <glyph glyph-name="Oacute" unicode="&#xd3;" horiz-adv-x="673" 
d="M115 350q30 163 124.5 259t224.5 96t190 -96t30 -259q-29 -163 -123.5 -259t-225.5 -96t-190 96t-30 259zM202 350q-25 -139 13.5 -218.5t129.5 -79.5q92 0 159.5 79.5t92.5 218.5t-13 218.5t-129 79.5q-92 0 -160 -79.5t-93 -218.5zM410 735l-13 35l188 128l23 -49z" />
    <glyph glyph-name="Ocircumflex" unicode="&#xd4;" horiz-adv-x="673" 
d="M115 350q30 163 124.5 259t224.5 96t190 -96t30 -259q-29 -163 -123.5 -259t-225.5 -96t-190 96t-30 259zM202 350q-25 -139 13.5 -218.5t129.5 -79.5q92 0 159.5 79.5t92.5 218.5t-13 218.5t-129 79.5q-92 0 -160 -79.5t-93 -218.5zM344 733l-17 34l172 138l124 -143
l-33 -27l-103 97z" />
    <glyph glyph-name="Otilde" unicode="&#xd5;" horiz-adv-x="673" 
d="M115 350q30 163 124.5 259t224.5 96t190 -96t30 -259q-29 -163 -123.5 -259t-225.5 -96t-190 96t-30 259zM202 350q-25 -139 13.5 -218.5t129.5 -79.5q92 0 159.5 79.5t92.5 218.5t-13 218.5t-129 79.5q-92 0 -160 -79.5t-93 -218.5zM368 748l-46 7q31 88 101 88
q29 0 63 -23.5t52 -23.5q38 0 56 46l43 -8q-14 -43 -41 -65.5t-58 -22.5q-29 0 -62.5 24t-52.5 24q-38 0 -55 -46z" />
    <glyph glyph-name="Odieresis" unicode="&#xd6;" horiz-adv-x="673" 
d="M115 350q30 163 124.5 259t224.5 96t190 -96t30 -259q-29 -163 -123.5 -259t-225.5 -96t-190 96t-30 259zM202 350q-25 -139 13.5 -218.5t129.5 -79.5q92 0 159.5 79.5t92.5 218.5t-13 218.5t-129 79.5q-92 0 -160 -79.5t-93 -218.5zM344 788q4 19 19 32t34 13t30 -13
t7 -32t-19 -32t-34 -13q-20 0 -30.5 13t-6.5 32zM525 788q4 20 19 32.5t34 12.5t29.5 -12.5t6.5 -32.5t-18.5 -32.5t-34.5 -12.5q-19 0 -29.5 13t-6.5 32z" />
    <glyph glyph-name="multiply" unicode="&#xd7;" horiz-adv-x="429" 
d="M131 431l43 30l101 -127l147 127l32 -30l-153 -131l106 -131l-44 -30l-100 127l-148 -127l-31 30l151 131z" />
    <glyph glyph-name="Oslash" unicode="&#xd8;" horiz-adv-x="673" 
d="M158 -10l-39 21l42 57q-79 95 -46 282q30 163 124.5 259t224.5 96q85 0 142 -43l36 48l39 -21l-43 -58q79 -95 46 -281q-29 -163 -123.5 -259t-225.5 -96q-84 0 -142 42zM200 350q-25 -135 11 -215l351 468q-40 46 -107 46q-93 0 -161 -80t-94 -219zM599 350
q24 133 -12 214l-350 -469q39 -44 108 -44q93 0 160.5 80t93.5 219z" />
    <glyph glyph-name="Ugrave" unicode="&#xd9;" horiz-adv-x="707" 
d="M301 640l-69 -381q-18 -97 16.5 -152t113.5 -55t134 55t72 152l72 393h-60l8 48h210l-9 -48l-63 -12l-69 -381q-22 -123 -104.5 -193.5t-200.5 -70.5q-117 0 -173 70.5t-34 193.5l71 393h-60l9 48h209l-10 -48zM386 851l49 43l139 -128l-29 -30z" />
    <glyph glyph-name="Uacute" unicode="&#xda;" horiz-adv-x="707" 
d="M301 640l-69 -381q-18 -97 16.5 -152t113.5 -55t134 55t72 152l72 393h-60l8 48h210l-9 -48l-63 -12l-69 -381q-22 -123 -104.5 -193.5t-200.5 -70.5q-117 0 -173 70.5t-34 193.5l71 393h-60l9 48h209l-10 -48zM426 735l-11 35l187 128l22 -49z" />
    <glyph glyph-name="Ucircumflex" unicode="&#xdb;" horiz-adv-x="707" 
d="M301 640l-69 -381q-18 -97 16.5 -152t113.5 -55t134 55t72 152l72 393h-60l8 48h210l-9 -48l-63 -12l-69 -381q-22 -123 -104.5 -193.5t-200.5 -70.5q-117 0 -173 70.5t-34 193.5l71 393h-60l9 48h209l-10 -48zM360 733l-16 34l172 138l124 -143l-32 -27l-105 97z" />
    <glyph glyph-name="Udieresis" unicode="&#xdc;" horiz-adv-x="707" 
d="M301 640l-69 -381q-18 -97 16.5 -152t113.5 -55t134 55t72 152l72 393h-60l8 48h210l-9 -48l-63 -12l-69 -381q-22 -123 -104.5 -193.5t-200.5 -70.5q-117 0 -173 70.5t-34 193.5l71 393h-60l9 48h209l-10 -48zM361 788q4 19 19 32t34 13q20 0 30.5 -13t6.5 -32
q-4 -20 -19 -32.5t-34 -12.5t-30 13t-7 32zM542 788q4 19 19 32t34 13t30 -13t7 -32t-19 -32t-34 -13q-20 0 -30.5 12.5t-6.5 32.5z" />
    <glyph glyph-name="Yacute" unicode="&#xdd;" horiz-adv-x="679" 
d="M707 640l-267 -345l-44 -247h60l-8 -48h-209l8 48l63 12l43 234l-143 347l-67 8l4 44q45 11 95 11q23 0 33.5 -9t17.5 -31l117 -303l219 291h-71l9 48h217l-8 -48zM418 735l-12 35l187 128l23 -49z" />
    <glyph glyph-name="Thorn" unicode="&#xde;" horiz-adv-x="539" 
d="M371 700l-8 -48l-63 -12l-18 -92h89q102 0 154 -50.5t36 -137.5t-86.5 -138t-172.5 -51h-88l-22 -123h61l-9 -48h-208l8 48l64 12l108 592h-60l8 48h207zM362 495h-89l-49 -271h88q62 0 106 37t55 99q12 62 -19 98.5t-92 36.5z" />
    <glyph glyph-name="germandbls" unicode="&#xdf;" horiz-adv-x="621" 
d="M398 391q-7 -40 13 -64.5t52.5 -37t65 -26.5t51.5 -45t10 -81q-12 -66 -60 -104t-131 -38t-143 37l18 99l60 4l-7 -75q35 -15 76 -15q47 0 76 22.5t35 59.5q6 30 -8 51.5t-38.5 31.5t-53 24t-52 29t-35.5 46.5t-4 76.5q7 39 28 70.5t42.5 49t41.5 45.5t26 60
q7 40 -10.5 63.5t-61.5 23.5q-87 0 -104 -95l-131 -718q-12 -66 -55.5 -103t-103.5 -37q-55 0 -89 32l24 41q20 -16 54 -16q33 0 56.5 21.5t30.5 61.5l103 562h-60l14 48l54 4l19 104q14 73 64.5 112.5t131.5 39.5q87 0 120.5 -42.5t21.5 -103.5q-7 -36 -28 -66.5
t-43.5 -48.5t-43 -45t-26.5 -58z" />
    <glyph glyph-name="agrave" unicode="&#xe0;" 
d="M166 413l-16 43q74 49 165 49q85 0 122 -46t22 -128l-46 -253q-5 -31 18 -31q14 0 35 9v-39q-50 -21 -84 -21q-30 0 -43.5 14t-12.5 39q-68 -54 -149 -54q-63 0 -94 35t-20 92q10 53 50.5 88t104.5 43l147 20l11 59q10 55 -13.5 85.5t-78.5 30.5q-62 0 -118 -35zM209 52
q77 0 125 49l23 127l-127 -20q-79 -12 -92 -81q-6 -36 13 -55.5t58 -19.5zM238 690l48 44l141 -129l-32 -29z" />
    <glyph glyph-name="aacute" unicode="&#xe1;" 
d="M166 413l-16 43q74 49 165 49q85 0 122 -46t22 -128l-46 -253q-5 -31 18 -31q14 0 35 9v-39q-50 -21 -84 -21q-30 0 -43.5 14t-12.5 39q-68 -54 -149 -54q-63 0 -94 35t-20 92q10 53 50.5 88t104.5 43l147 20l11 59q10 55 -13.5 85.5t-78.5 30.5q-62 0 -118 -35zM209 52
q77 0 125 49l23 127l-127 -20q-79 -12 -92 -81q-6 -36 13 -55.5t58 -19.5zM270 574l-12 35l188 128l23 -50z" />
    <glyph glyph-name="acircumflex" unicode="&#xe2;" horiz-adv-x="494" 
d="M166 413l-16 43q74 49 165 49q85 0 122 -46t22 -128l-46 -253q-5 -31 18 -31q14 0 35 9v-39q-50 -21 -84 -21q-30 0 -43.5 14t-12.5 39q-68 -54 -149 -54q-63 0 -94 35t-20 92q10 53 50.5 88t104.5 43l147 20l11 59q10 55 -13.5 85.5t-78.5 30.5q-62 0 -118 -35zM209 52
q77 0 125 49l23 127l-127 -20q-79 -12 -92 -81q-6 -36 13 -55.5t58 -19.5zM211 572l-16 33l172 139l124 -143l-33 -27l-106 97z" />
    <glyph glyph-name="atilde" unicode="&#xe3;" horiz-adv-x="494" 
d="M166 413l-16 43q74 49 165 49q85 0 122 -46t22 -128l-46 -253q-5 -31 18 -31q14 0 35 9v-39q-50 -21 -84 -21q-30 0 -43.5 14t-12.5 39q-68 -54 -149 -54q-63 0 -94 35t-20 92q10 53 50.5 88t104.5 43l147 20l11 59q10 55 -13.5 85.5t-78.5 30.5q-62 0 -118 -35zM209 52
q77 0 125 49l23 127l-127 -20q-79 -12 -92 -81q-6 -36 13 -55.5t58 -19.5zM232 587l-45 7q32 88 102 88q28 0 61.5 -24t51.5 -24q39 0 56 46l45 -7q-14 -43 -41.5 -65.5t-59.5 -22.5q-28 0 -61.5 24t-52.5 24q-39 0 -56 -46z" />
    <glyph glyph-name="adieresis" unicode="&#xe4;" 
d="M167 413l-16 43q75 49 165 49q85 0 122 -46t23 -128l-46 -253q-5 -31 17 -31q16 0 35 9v-39q-48 -21 -84 -21q-30 0 -43.5 14t-12.5 38q-69 -53 -149 -53q-62 0 -93 35t-21 92q10 53 51 88t105 43l147 21l11 58q9 55 -14 85.5t-78 30.5q-62 0 -119 -35zM210 52
q77 0 126 49l23 127l-128 -20q-39 -6 -62.5 -27t-28.5 -54q-6 -36 12.5 -55.5t57.5 -19.5zM388 627q4 19 19 32t34 13q20 0 31 -12.5t7 -32.5t-19 -33t-35 -13q-19 0 -30 13.5t-7 32.5zM207 627q4 20 19 32.5t35 12.5q19 0 29.5 -13t6.5 -32q-4 -20 -19 -33t-34 -13
t-29.5 13t-7.5 33z" />
    <glyph glyph-name="aring" unicode="&#xe5;" 
d="M166 413l-16 43q74 49 165 49q85 0 122 -46t22 -128l-46 -253q-5 -31 18 -31q14 0 35 9v-39q-50 -21 -84 -21q-30 0 -43.5 14t-12.5 39q-68 -54 -149 -54q-63 0 -94 35t-20 92q10 53 50.5 88t104.5 43l147 20l11 59q10 55 -13.5 85.5t-78.5 30.5q-62 0 -118 -35zM209 52
q77 0 125 49l23 127l-127 -20q-79 -12 -92 -81q-6 -36 13 -55.5t58 -19.5zM275 650q7 36 32 57.5t61 21.5q35 0 52.5 -21t11.5 -58q-7 -36 -32.5 -58t-61.5 -22q-35 0 -52.5 22t-10.5 58zM313 650q-4 -21 4.5 -33t26.5 -12q19 0 32 12t17 33t-4.5 33t-27.5 12q-18 0 -31 -12
t-17 -33z" />
    <glyph glyph-name="ae" unicode="&#xe6;" horiz-adv-x="736" 
d="M166 413l-16 43q74 49 165 49q92 0 122 -62q64 62 157 62q83 0 122.5 -46t24.5 -129q-8 -42 -21 -72h-277l-26 -140q32 -66 127 -66q71 0 123 29l16 -43q-71 -43 -161 -43q-118 0 -168 78q-35 -37 -82.5 -57.5t-94.5 -20.5q-63 0 -94 35t-20 92q10 53 50.5 88t104.5 43
l147 21l11 58q10 55 -13.5 85.5t-78.5 30.5q-62 0 -118 -35zM209 52q75 0 125 47l24 129l-128 -20q-79 -12 -92 -81q-6 -36 13 -55.5t58 -19.5zM584 448q-76 0 -121 -64q0 -18 -12 -79h212q6 13 10 35q9 51 -15.5 79.5t-73.5 28.5z" />
    <glyph glyph-name="ccedilla" unicode="&#xe7;" horiz-adv-x="460" 
d="M492 463l-18 -101l-57 -4l7 79q-33 11 -68 11q-73 0 -120.5 -50.5t-63.5 -141.5q-18 -98 12 -151t107 -53q69 0 119 31l16 -42q-58 -42 -145 -45q-3 -27 15.5 -58t13.5 -59q-14 -76 -121 -87v52q63 12 70 52q3 17 -12 42.5t-10 58.5q-90 9 -129.5 76.5t-19.5 177.5
q22 118 93 186t176 68q92 0 135 -42z" />
    <glyph glyph-name="egrave" unicode="&#xe8;" 
d="M475 258h-303q-23 -98 9.5 -152t117.5 -54q74 0 124 29l16 -43q-71 -43 -161 -43q-108 0 -160 67.5t-30 190.5q21 116 90.5 184t171.5 68q83 0 122.5 -46t24.5 -129q-8 -38 -22 -72zM340 448q-57 0 -98 -38t-61 -105h239q6 21 9 35q9 51 -15.5 79.5t-73.5 28.5zM260 690
l50 44l140 -129l-30 -29z" />
    <glyph glyph-name="eacute" unicode="&#xe9;" 
d="M475 258h-303q-23 -98 9.5 -152t117.5 -54q74 0 124 29l16 -43q-71 -43 -161 -43q-108 0 -160 67.5t-30 190.5q21 116 90.5 184t171.5 68q83 0 122.5 -46t24.5 -129q-8 -38 -22 -72zM340 448q-57 0 -98 -38t-61 -105h239q6 21 9 35q9 51 -15.5 79.5t-73.5 28.5zM301 574
l-13 35l189 128l23 -50z" />
    <glyph glyph-name="ecircumflex" unicode="&#xea;" 
d="M475 258h-303q-23 -98 9.5 -152t117.5 -54q74 0 124 29l16 -43q-71 -43 -161 -43q-108 0 -160 67.5t-30 190.5q21 116 90.5 184t171.5 68q83 0 122.5 -46t24.5 -129q-8 -38 -22 -72zM340 448q-57 0 -98 -38t-61 -105h239q6 21 9 35q9 51 -15.5 79.5t-73.5 28.5zM235 572
l-17 33l173 139l123 -143l-32 -27l-104 97z" />
    <glyph glyph-name="edieresis" unicode="&#xeb;" 
d="M476 258h-304q-23 -98 10 -152t118 -54q73 0 123 29l16 -43q-69 -43 -161 -43q-108 0 -159.5 67.5t-29.5 190.5q21 116 90 184t171 68q83 0 122.5 -46t24.5 -129q-7 -36 -21 -72zM341 448q-57 0 -98.5 -38t-61.5 -105h239q5 13 9 35q9 51 -15.5 79.5t-72.5 28.5zM233 627
q4 19 19 32t33 13q20 0 30.5 -13t6.5 -32q-4 -20 -19 -33t-34 -13t-29.5 13.5t-6.5 32.5zM413 627q4 19 19 32t35 13q19 0 30 -13t7 -32q-4 -20 -19 -33t-34 -13t-30 13t-8 33z" />
    <glyph glyph-name="igrave" unicode="&#xec;" horiz-adv-x="271" 
d="M133 690l48 44l141 -129l-32 -29zM244 56l-1 -39q-45 -21 -83 -21q-66 0 -54 69l70 378l-55 7l6 45q60 10 101 10t35 -40l-71 -387q-5 -31 17 -31q17 0 35 9z" />
    <glyph glyph-name="iacute" unicode="&#xed;" horiz-adv-x="271" 
d="M171 574l-12 35l189 128l22 -50zM244 56l-2 -39q-45 -21 -83 -21q-66 0 -54 69l70 378l-54 7l5 45q60 10 101 10t35 -40l-71 -387q-5 -31 18 -31q15 0 35 9z" />
    <glyph glyph-name="icircumflex" unicode="&#xee;" horiz-adv-x="270" 
d="M243 56v-39q-48 -21 -84 -21q-67 0 -54 69l69 378l-53 7l4 45q60 10 101 10t34 -40l-70 -387q-5 -31 18 -31q16 0 35 9zM108 572l-17 33l174 139l123 -143l-33 -27l-104 97z" />
    <glyph glyph-name="idieresis" unicode="&#xef;" horiz-adv-x="270" 
d="M244 56l-2 -39q-45 -21 -83 -21q-66 0 -54 69l70 378l-54 7l5 45q60 10 101 10t35 -40l-71 -387q-5 -31 18 -31q15 0 35 9zM118 627q3 19 19 32t34 13q20 0 31 -12.5t7 -32.5t-19 -33t-34 -13t-30.5 13.5t-7.5 32.5zM274 627q3 19 18.5 32t34.5 13q20 0 30.5 -13t6.5 -32
q-4 -20 -19 -33t-34 -13t-30 13.5t-7 32.5z" />
    <glyph glyph-name="eth" unicode="&#xf0;" horiz-adv-x="536" 
d="M300 588l75 64q-28 27 -61 44.5t-52 21.5l-20 5l41 34q73 -8 143 -61l70 61l32 -30l-69 -60q124 -125 79 -371q-55 -301 -273 -301q-106 0 -152.5 68t-24.5 187q21 115 86 185t151 70q79 0 137 -53q-10 100 -59 167l-71 -61zM453 286q7 42 11 96q-45 66 -123 66
q-62 0 -107.5 -52.5t-62.5 -145.5t9 -145.5t93 -52.5q63 0 110.5 57.5t69.5 176.5z" />
    <glyph glyph-name="ntilde" unicode="&#xf1;" horiz-adv-x="586" 
d="M178 2l-85 -5l82 446l-52 7l4 45q58 10 99 10q42 0 36 -40l-3 -17q82 57 173 57q73 0 104.5 -43t17.5 -119l-49 -265q-4 -31 19 -31q16 0 34 9v-39q-46 -21 -84 -21q-67 0 -53 68l50 276q18 108 -80 108q-34 0 -73.5 -14t-68.5 -38zM290 587l-45 7q32 88 102 88
q28 0 61.5 -24t52.5 -24q37 0 56 46l44 -7q-15 -43 -42 -65.5t-58 -22.5q-29 0 -63 24t-53 24q-38 0 -55 -46z" />
    <glyph glyph-name="ograve" unicode="&#xf2;" horiz-adv-x="528" 
d="M88 250q22 118 93.5 186.5t172.5 68.5q102 0 150.5 -69t26.5 -186t-94.5 -186t-173.5 -69q-102 0 -149.5 69t-25.5 186zM171 250q-17 -92 10 -145t91 -53q65 0 112 53t63 145q17 92 -10.5 145t-92.5 53q-63 0 -110 -53t-63 -145zM267 690l49 44l140 -129l-31 -29z" />
    <glyph glyph-name="oacute" unicode="&#xf3;" horiz-adv-x="528" 
d="M88 250q22 118 93.5 186.5t172.5 68.5q102 0 150.5 -69t26.5 -186t-94.5 -186t-173.5 -69q-102 0 -149.5 69t-25.5 186zM171 250q-17 -92 10 -145t91 -53q65 0 112 53t63 145q17 92 -10.5 145t-92.5 53q-63 0 -110 -53t-63 -145zM307 574l-13 35l189 128l23 -50z" />
    <glyph glyph-name="ocircumflex" unicode="&#xf4;" horiz-adv-x="528" 
d="M88 250q22 118 93.5 186.5t172.5 68.5q102 0 150.5 -69t26.5 -186t-94.5 -186t-173.5 -69q-102 0 -149.5 69t-25.5 186zM171 250q-17 -92 10 -145t91 -53q65 0 112 53t63 145q17 92 -10.5 145t-92.5 53q-63 0 -110 -53t-63 -145zM240 572l-16 33l172 139l124 -143
l-32 -27l-106 97z" />
    <glyph glyph-name="otilde" unicode="&#xf5;" horiz-adv-x="528" 
d="M88 250q22 118 93.5 186.5t172.5 68.5q102 0 150.5 -69t26.5 -186t-94.5 -186t-173.5 -69q-102 0 -149.5 69t-25.5 186zM171 250q-17 -92 10 -145t91 -53q65 0 112 53t63 145q17 92 -10.5 145t-92.5 53q-63 0 -110 -53t-63 -145zM264 587l-43 7q29 88 100 88
q29 0 62.5 -24t51.5 -24q38 0 57 46l44 -7q-14 -43 -41.5 -65.5t-59.5 -22.5q-28 0 -62 24t-52 24q-39 0 -57 -46z" />
    <glyph glyph-name="odieresis" unicode="&#xf6;" horiz-adv-x="528" 
d="M88 250q22 118 93.5 186.5t172.5 68.5q102 0 150.5 -69t26.5 -186t-94.5 -186t-173.5 -69q-102 0 -149.5 69t-25.5 186zM171 250q-17 -92 10 -145t91 -53q65 0 112 53t63 145q17 92 -10.5 145t-92.5 53q-63 0 -110 -53t-63 -145zM241 627q4 20 19.5 32.5t35.5 12.5
q19 0 29.5 -13t6.5 -32q-4 -20 -19 -33t-34 -13t-30 13t-8 33zM423 627q4 19 19 32t34 13q20 0 30 -12.5t7 -32.5q-4 -20 -19 -33t-34 -13t-30 13.5t-7 32.5z" />
    <glyph glyph-name="divide" unicode="&#xf7;" horiz-adv-x="511" 
d="M85 258l13 47h429l-13 -47h-429zM223 105q5 20 20.5 33.5t35.5 13.5t30.5 -13.5t6.5 -33.5t-19.5 -34t-34.5 -14q-21 0 -32 14t-7 34zM288 458q4 20 19.5 33.5t35.5 13.5t31.5 -13.5t7.5 -33.5t-20 -33.5t-36 -13.5q-21 0 -32 13.5t-6 33.5z" />
    <glyph glyph-name="oslash" unicode="&#xf8;" horiz-adv-x="528" 
d="M141 -10l-37 19l26 35q-68 69 -42 206q22 118 93.5 186.5t172.5 68.5q58 0 102 -25l22 30l37 -19l-27 -36q67 -69 43 -205q-22 -117 -94.5 -186t-173.5 -69q-59 0 -101 24zM452 250q15 90 -11 143l-239 -320q28 -23 70 -23q66 0 114.5 53.5t65.5 146.5zM167 250
q-16 -90 10 -143l239 319q-27 24 -71 24q-65 0 -113 -53.5t-65 -146.5z" />
    <glyph glyph-name="ugrave" unicode="&#xf9;" horiz-adv-x="582" 
d="M554 56v-39q-46 -21 -84 -21q-61 0 -56 56q-83 -57 -173 -57q-72 0 -102.5 43t-16.5 118l52 287l-52 7l4 45q60 10 100 10q42 0 35 -40l-55 -305q-21 -108 76 -108q79 0 141 50l72 396l83 5l-76 -425q-7 -31 18 -31q14 0 34 9zM294 690l49 44l140 -129l-32 -29z" />
    <glyph glyph-name="uacute" unicode="&#xfa;" horiz-adv-x="582" 
d="M554 56v-39q-46 -21 -84 -21q-61 0 -56 56q-83 -57 -173 -57q-72 0 -102.5 43t-16.5 118l52 287l-52 7l4 45q60 10 100 10q42 0 35 -40l-55 -305q-21 -108 76 -108q79 0 141 50l72 396l83 5l-76 -425q-7 -31 18 -31q14 0 34 9zM335 574l-14 35l189 128l23 -50z" />
    <glyph glyph-name="ucircumflex" unicode="&#xfb;" horiz-adv-x="582" 
d="M554 56v-39q-46 -21 -84 -21q-61 0 -56 56q-83 -57 -173 -57q-72 0 -102.5 43t-16.5 118l52 287l-52 7l4 45q60 10 100 10q42 0 35 -40l-55 -305q-21 -108 76 -108q79 0 141 50l72 396l83 5l-76 -425q-7 -31 18 -31q14 0 34 9zM268 572l-17 33l173 139l124 -143l-33 -27
l-105 97z" />
    <glyph glyph-name="udieresis" unicode="&#xfc;" horiz-adv-x="582" 
d="M554 56v-39q-46 -21 -84 -21q-61 0 -56 56q-83 -57 -173 -57q-72 0 -102.5 43t-16.5 118l52 287l-52 7l4 45q60 10 100 10q42 0 35 -40l-55 -305q-21 -108 76 -108q79 0 141 50l72 396l83 5l-76 -425q-7 -31 18 -31q14 0 34 9zM450 627q4 20 19.5 32.5t35.5 12.5
q18 0 28.5 -13t6.5 -32q-3 -20 -18.5 -33t-34.5 -13t-30 13t-7 33zM269 627q4 20 18.5 32.5t34.5 12.5q19 0 29.5 -13t7.5 -32q-4 -20 -18.5 -33t-33.5 -13q-20 0 -30.5 13t-7.5 33z" />
    <glyph glyph-name="yacute" unicode="&#xfd;" horiz-adv-x="543" 
d="M512 500h90l-339 -600q-49 -87 -87 -121t-88 -34q-60 0 -93 39l24 41q24 -23 59 -23q31 0 54 22t55 77l58 99l-90 441l-56 8l4 44q52 11 87 11q23 0 33 -10t12 -30l63 -376zM327 574l-13 35l188 128l23 -50z" />
    <glyph glyph-name="thorn" unicode="&#xfe;" horiz-adv-x="527" 
d="M108 -251l-83 1l171 943l-52 7l4 45q60 10 100 10q22 0 30 -9.5t5 -30.5l-48 -262q64 52 141 52q88 0 130.5 -69.5t21.5 -185.5q-22 -117 -90.5 -186t-164.5 -69q-68 0 -116 28zM345 448q-72 0 -120 -49l-57 -318q35 -29 96 -29q68 0 115.5 52.5t64.5 146.5
q17 92 -9 144.5t-90 52.5z" />
    <glyph glyph-name="ydieresis" unicode="&#xff;" horiz-adv-x="543" 
d="M512 500h90l-339 -600q-49 -87 -87 -121t-88 -34q-60 0 -93 39l24 41q24 -23 59 -23q31 0 54 22t55 77l58 99l-90 441l-56 8l4 44q52 11 87 11q23 0 33 -10t12 -30l63 -376zM260 627q4 19 19 32t35 13q19 0 29 -12.5t7 -32.5q-4 -19 -19 -32.5t-33 -13.5q-20 0 -31 13
t-7 33zM441 627q4 20 19.5 32.5t35.5 12.5q18 0 28.5 -13t6.5 -32q-3 -19 -18 -32.5t-34 -13.5q-20 0 -31 13t-7 33z" />
    <glyph glyph-name="Amacron" unicode="&#x100;" horiz-adv-x="719" 
d="M527 664l118 -616h59l-7 -48h-213l7 48l60 12l-24 148h-270l-83 -160h64l-8 -48h-208l8 48l60 12l323 582l-59 7l5 44q58 11 116 11q44 0 52 -40zM464 608l-179 -344h236zM374 775l13 48h238l-12 -48h-239z" />
    <glyph glyph-name="amacron" unicode="&#x101;" 
d="M166 413l-16 43q74 49 165 49q85 0 122 -46t22 -128l-46 -253q-5 -31 18 -31q14 0 35 9v-39q-50 -21 -84 -21q-30 0 -43.5 14t-12.5 39q-68 -54 -149 -54q-63 0 -94 35t-20 92q10 53 50.5 88t104.5 43l147 20l11 59q10 55 -13.5 85.5t-78.5 30.5q-62 0 -118 -35zM209 52
q77 0 125 49l23 127l-127 -20q-79 -12 -92 -81q-6 -36 13 -55.5t58 -19.5zM219 614l14 48h238l-13 -48h-239z" />
    <glyph glyph-name="Abreve" unicode="&#x102;" horiz-adv-x="719" 
d="M527 664l118 -616h59l-7 -48h-213l7 48l60 12l-24 148h-270l-83 -160h64l-8 -48h-208l8 48l60 12l323 582l-59 7l5 44q58 11 116 11q44 0 52 -40zM464 608l-179 -344h236zM585 852l61 -11q-39 -100 -159 -100q-119 0 -120 100l65 11q2 -62 65 -62q64 0 88 62z" />
    <glyph glyph-name="abreve" unicode="&#x103;" 
d="M167 413l-16 43q75 49 165 49q85 0 122 -46t23 -128l-46 -253q-5 -31 17 -31q16 0 35 9v-39q-48 -21 -84 -21q-30 0 -43.5 14t-12.5 38q-69 -53 -149 -53q-62 0 -93 35t-21 92q10 53 51 88t105 43l147 21l11 58q9 55 -14 85.5t-78 30.5q-62 0 -119 -35zM210 52
q77 0 126 49l23 127l-128 -20q-39 -6 -62.5 -27t-28.5 -54q-6 -36 12.5 -55.5t57.5 -19.5zM434 691l61 -11q-36 -100 -157 -100t-122 100l65 11q2 -62 67 -62q62 0 86 62z" />
    <glyph glyph-name="Aogonek" unicode="&#x104;" horiz-adv-x="719" 
d="M627 0h-143l7 48l60 12l-24 148h-270l-83 -160h64l-8 -48h-208l8 48l60 12l323 582l-59 7l5 44q58 11 116 11q44 0 52 -40l118 -616h59l-7 -48h-22q-42 -28 -51 -78q-13 -67 47 -81l-21 -58q-49 8 -69.5 39t-11.5 78q11 66 58 100zM464 608l-179 -344h236z" />
    <glyph glyph-name="aogonek" unicode="&#x105;" 
d="M166 413l-16 43q74 49 165 49q85 0 122 -46t22 -128l-46 -253q-5 -31 18 -31q14 0 35 9v-39q-16 -7 -30 -12q-38 -27 -48 -76q-11 -67 46 -82l-19 -57q-101 16 -83 117q9 55 45 89q-53 3 -51 53q-68 -54 -149 -54q-63 0 -94 35t-20 92q10 53 50.5 88t104.5 43l147 20
l11 59q10 55 -13.5 85.5t-78.5 30.5q-62 0 -118 -35zM209 52q77 0 125 49l23 127l-127 -20q-79 -12 -92 -81q-6 -36 13 -55.5t58 -19.5z" />
    <glyph glyph-name="Cacute" unicode="&#x106;" horiz-adv-x="596" 
d="M553 54q-91 -59 -204 -59q-139 0 -201 95.5t-33 259.5q30 164 127 259.5t233 95.5q111 0 180 -60l-23 -126l-56 -4l12 103q-44 30 -103 30q-110 0 -183.5 -79t-99.5 -219q-25 -140 19.5 -219t155.5 -79q61 0 117 30l27 98l56 4zM395 735l-12 35l188 128l23 -49z" />
    <glyph glyph-name="cacute" unicode="&#x107;" horiz-adv-x="459" 
d="M492 463l-18 -101l-57 -4l7 79q-33 11 -68 11q-73 0 -120.5 -50.5t-63.5 -141.5q-18 -98 12 -151t107 -53q69 0 119 31l16 -42q-64 -46 -160 -46q-105 0 -152 68.5t-26 187.5q22 118 93 186t176 68q92 0 135 -42zM287 574l-13 35l188 128l23 -50z" />
    <glyph glyph-name="Ccircumflex" unicode="&#x108;" horiz-adv-x="596" 
d="M553 54q-91 -59 -204 -59q-139 0 -201 95.5t-33 259.5q30 164 127 259.5t233 95.5q111 0 180 -60l-23 -126l-56 -4l12 103q-44 30 -103 30q-110 0 -183.5 -79t-99.5 -219q-25 -140 19.5 -219t155.5 -79q61 0 117 30l27 98l56 4zM349 733l-16 34l171 138l124 -143l-33 -27
l-104 97z" />
    <glyph glyph-name="ccircumflex" unicode="&#x109;" horiz-adv-x="459" 
d="M492 463l-18 -101l-57 -4l7 79q-33 11 -68 11q-73 0 -120.5 -50.5t-63.5 -141.5q-18 -98 12 -151t107 -53q69 0 119 31l16 -42q-64 -46 -160 -46q-105 0 -152 68.5t-26 187.5q22 118 93 186t176 68q92 0 135 -42zM234 572l-16 33l173 139l123 -143l-32 -27l-105 97z" />
    <glyph glyph-name="Cdotaccent" unicode="&#x10a;" horiz-adv-x="596" 
d="M553 54q-91 -59 -204 -59q-139 0 -201 95.5t-33 259.5q30 164 127 259.5t233 95.5q111 0 180 -60l-23 -126l-56 -4l12 103q-44 30 -103 30q-110 0 -183.5 -79t-99.5 -219q-25 -140 19.5 -219t155.5 -79q61 0 117 30l27 98l56 4zM425 815q4 22 20.5 37t38.5 15
q21 0 33.5 -15t8.5 -37t-21.5 -36.5t-38.5 -14.5q-22 0 -33.5 14.5t-7.5 36.5z" />
    <glyph glyph-name="cdotaccent" unicode="&#x10b;" horiz-adv-x="460" 
d="M492 463l-18 -101l-57 -4l7 79q-33 11 -68 11q-73 0 -120.5 -50.5t-63.5 -141.5q-18 -98 12 -151t107 -53q69 0 119 31l16 -42q-64 -46 -160 -46q-105 0 -152 68.5t-26 187.5q22 118 93 186t176 68q92 0 135 -42zM317 655q5 22 21.5 36t38.5 14q21 0 33.5 -14t8.5 -36
q-5 -22 -22 -37t-38 -15q-22 0 -34 15t-8 37z" />
    <glyph glyph-name="Ccaron" unicode="&#x10c;" horiz-adv-x="596" 
d="M553 54q-91 -59 -204 -59q-139 0 -201 95.5t-33 259.5q30 164 127 259.5t233 95.5q111 0 180 -60l-23 -126l-56 -4l12 103q-44 30 -103 30q-110 0 -183.5 -79t-99.5 -219q-25 -140 19.5 -219t155.5 -79q61 0 117 30l27 98l56 4zM625 903l15 -34l-162 -129h-17l-116 134
l32 27l105 -97z" />
    <glyph glyph-name="ccaron" unicode="&#x10d;" horiz-adv-x="460" 
d="M492 463l-18 -101l-57 -4l7 79q-33 11 -68 11q-73 0 -120.5 -50.5t-63.5 -141.5q-18 -98 12 -151t107 -53q69 0 119 31l16 -42q-64 -46 -160 -46q-105 0 -152 68.5t-26 187.5q22 118 93 186t176 68q92 0 135 -42zM513 742l16 -34l-161 -129h-20l-116 134l34 27l105 -97z
" />
    <glyph glyph-name="Dcaron" unicode="&#x10e;" horiz-adv-x="656" 
d="M435 700q136 0 199 -93.5t33 -256.5q-29 -163 -125.5 -256.5t-232.5 -93.5h-280l8 48l71 12l107 592h-66l8 48h278zM425 647h-124l-107 -594h123q98 0 168.5 79t95.5 218q25 138 -16.5 217.5t-139.5 79.5zM605 903l16 -34l-162 -129h-18l-116 134l32 27l106 -97z" />
    <glyph glyph-name="dcaron" unicode="&#x10f;" horiz-adv-x="614" 
d="M520 56l1 -39q-47 -21 -85 -21q-28 0 -42 13.5t-13 37.5q-66 -52 -142 -52q-88 0 -130 69.5t-21 185.5q22 117 90.5 186t164.5 69q64 0 114 -28l40 216l-52 7l4 45q60 10 100 10q41 0 35 -40l-115 -637q-7 -31 18 -31q15 0 33 9zM271 52q68 0 118 47l58 319
q-36 30 -94 30q-69 0 -117 -53t-65 -146q-17 -92 9.5 -144.5t90.5 -52.5zM702 741l54 14q4 -29 -1 -58q-15 -88 -91 -131l-18 30q46 34 57 97q4 26 -1 48z" />
    <glyph glyph-name="Dcroat" unicode="&#x110;" horiz-adv-x="656" 
d="M86 327l14 48h64l50 277h-65l8 48h278q136 0 199 -93.5t33 -256.5q-29 -163 -125.5 -256.5t-232.5 -93.5h-280l8 48l70 12l48 267h-69zM425 647h-124l-49 -272h152l-13 -48h-149l-48 -274h123q98 0 168.5 79t95.5 218q25 138 -16.5 217.5t-139.5 79.5z" />
    <glyph glyph-name="dcroat" unicode="&#x111;" horiz-adv-x="548" 
d="M341 584l14 48h132l12 68l-53 8l3 37q60 10 100 10q41 0 35 -40l-15 -83h63l-14 -48h-57l-92 -506q-5 -31 18 -31q15 0 33 9l1 -39q-47 -21 -85 -21q-54 0 -54 52q-65 -53 -143 -53q-88 0 -130 69.5t-21 185.5q22 117 90.5 186t164.5 69q66 0 115 -29l20 108h-137z
M271 52q71 0 119 48l58 318q-36 30 -95 30q-69 0 -117 -53t-65 -146q-17 -92 9.5 -144.5t90.5 -52.5z" />
    <glyph glyph-name="Emacron" unicode="&#x112;" horiz-adv-x="557" 
d="M36 0l8 48l64 12l108 592h-60l8 48h473l-24 -134l-54 -4l9 85h-267l-47 -261h201l14 56l52 4l-30 -170l-52 -5l5 61h-201l-50 -277h272l20 79l53 4l-24 -138h-478zM305 775l13 48h238l-13 -48h-238z" />
    <glyph glyph-name="emacron" unicode="&#x113;" 
d="M475 258h-303q-23 -98 9.5 -152t117.5 -54q74 0 124 29l16 -43q-71 -43 -161 -43q-108 0 -160 67.5t-30 190.5q21 116 90.5 184t171.5 68q83 0 122.5 -46t24.5 -129q-8 -38 -22 -72zM340 448q-57 0 -98 -38t-61 -105h239q6 21 9 35q9 51 -15.5 79.5t-73.5 28.5zM240 614
l14 48h239l-14 -48h-239z" />
    <glyph glyph-name="Ebreve" unicode="&#x114;" horiz-adv-x="557" 
d="M36 0l8 48l64 12l108 592h-60l8 48h473l-24 -134l-54 -4l9 85h-267l-47 -261h201l14 56l52 4l-30 -170l-52 -5l5 61h-201l-50 -277h272l20 79l53 4l-24 -138h-478zM520 852l61 -11q-37 -100 -158 -100q-119 0 -122 100l66 11q3 -62 65 -62t88 62z" />
    <glyph glyph-name="ebreve" unicode="&#x115;" 
d="M475 258h-303q-23 -98 9.5 -152t117.5 -54q74 0 124 29l16 -43q-71 -43 -161 -43q-108 0 -160 67.5t-30 190.5q21 116 90.5 184t171.5 68q83 0 122.5 -46t24.5 -129q-8 -38 -22 -72zM340 448q-57 0 -98 -38t-61 -105h239q6 21 9 35q9 51 -15.5 79.5t-73.5 28.5zM458 691
l62 -11q-37 -100 -157 -100q-122 0 -123 100l65 11q2 -62 67 -62q62 0 86 62z" />
    <glyph glyph-name="Edotaccent" unicode="&#x116;" horiz-adv-x="557" 
d="M36 0l8 48l64 12l108 592h-60l8 48h473l-24 -134l-54 -4l9 85h-267l-47 -261h201l14 56l52 4l-30 -170l-52 -5l5 61h-201l-50 -277h272l20 79l53 4l-24 -138h-478zM386 815q4 22 21 37t39 15t33.5 -15t7.5 -37q-5 -22 -21.5 -36.5t-38.5 -14.5q-21 0 -33 14.5t-8 36.5z
" />
    <glyph glyph-name="edotaccent" unicode="&#x117;" 
d="M476 258h-304q-23 -98 10 -152t118 -54q73 0 123 29l16 -43q-69 -43 -161 -43q-108 0 -159.5 67.5t-29.5 190.5q21 116 90 184t171 68q83 0 122.5 -46t24.5 -129q-7 -36 -21 -72zM341 448q-57 0 -98.5 -38t-61.5 -105h239q5 13 9 35q9 51 -15.5 79.5t-72.5 28.5zM319 655
q5 22 21.5 36t38.5 14t33.5 -14t7.5 -36q-5 -22 -21.5 -37t-38.5 -15q-21 0 -33 15t-8 37z" />
    <glyph glyph-name="Eogonek" unicode="&#x118;" horiz-adv-x="557" 
d="M36 0l8 48l64 12l108 592h-60l8 48h473l-24 -134l-54 -4l9 85h-267l-47 -261h201l14 56l52 4l-30 -170l-52 -5l5 61h-201l-50 -277h272l20 79l53 4l-24 -138h-23q-41 -29 -50 -78q-12 -67 46 -81l-20 -58q-100 16 -81 117q11 66 58 100h-408z" />
    <glyph glyph-name="eogonek" unicode="&#x119;" 
d="M475 258h-303q-23 -98 9.5 -152t117.5 -54q74 0 124 29l16 -43q-13 -8 -34 -17q-35 -29 -43 -74q-13 -67 45 -82l-20 -57q-99 16 -81 117q8 45 33 75q-35 -5 -61 -5q-108 0 -160 67.5t-30 190.5q21 116 90.5 184t171.5 68q83 0 122.5 -46t24.5 -129q-8 -38 -22 -72z
M340 448q-57 0 -98 -38t-61 -105h239q6 21 9 35q9 51 -15.5 79.5t-73.5 28.5z" />
    <glyph glyph-name="Ecaron" unicode="&#x11a;" horiz-adv-x="557" 
d="M36 0l8 48l64 12l108 592h-60l8 48h473l-24 -134l-54 -4l9 85h-267l-47 -261h201l14 56l52 4l-30 -170l-52 -5l5 61h-201l-50 -277h272l20 79l53 4l-24 -138h-478zM584 903l17 -34l-163 -129h-18l-117 134l34 27l104 -97z" />
    <glyph glyph-name="ecaron" unicode="&#x11b;" 
d="M475 258h-303q-23 -98 9.5 -152t117.5 -54q74 0 124 29l16 -43q-71 -43 -161 -43q-108 0 -160 67.5t-30 190.5q21 116 90.5 184t171.5 68q83 0 122.5 -46t24.5 -129q-8 -38 -22 -72zM340 448q-57 0 -98 -38t-61 -105h239q6 21 9 35q9 51 -15.5 79.5t-73.5 28.5zM519 742
l15 -34l-162 -129h-19l-115 134l34 27l104 -97z" />
    <glyph glyph-name="Gcircumflex" unicode="&#x11c;" horiz-adv-x="626" 
d="M598 304l-46 -252q-89 -57 -203 -57q-140 0 -201.5 95t-32.5 260q30 164 126.5 259.5t233.5 95.5q113 0 182 -60l-23 -126l-56 -4l12 103q-45 30 -105 30q-110 0 -183.5 -78.5t-99.5 -219.5q-25 -141 18 -219.5t154 -78.5q56 0 109 30l42 235h-108l8 48h239l-8 -48z
M345 733l-15 34l172 138l124 -143l-33 -27l-104 97z" />
    <glyph glyph-name="gcircumflex" unicode="&#x11d;" horiz-adv-x="512" 
d="M112 337q14 77 72.5 122.5t143.5 45.5q50 0 87 -17q74 82 161 82l-21 -80q-12 5 -30 5q-37 0 -78 -27q53 -45 38 -131q-14 -78 -73 -123.5t-145 -45.5q-46 0 -82 14q-33 -28 -40 -66q-5 -29 10 -45t52 -16h128q73 0 108 -35.5t23 -100.5q-15 -84 -93.5 -129t-193.5 -45
q-102 0 -147.5 35.5t-34.5 97.5q13 78 99 125q-39 27 -28 83q12 65 81 118q-54 46 -37 133zM179 -16q-21 0 -38 3q-56 -38 -66 -94q-8 -44 19 -67.5t97 -23.5q75 0 132 26t67 80q6 36 -14 56t-65 20h-132zM189 337q-10 -53 13.5 -83.5t73.5 -30.5q51 0 86 30.5t45 83.5
t-13.5 83.5t-74.5 30.5q-50 0 -85 -30.5t-45 -83.5zM214 572l-16 33l172 139l124 -143l-32 -27l-106 97z" />
    <glyph glyph-name="Gbreve" unicode="&#x11e;" horiz-adv-x="626" 
d="M598 304l-46 -252q-89 -57 -203 -57q-140 0 -201.5 95t-32.5 260q30 164 126.5 259.5t233.5 95.5q113 0 182 -60l-23 -126l-56 -4l12 103q-45 30 -105 30q-110 0 -183.5 -78.5t-99.5 -219.5q-25 -141 18 -219.5t154 -78.5q56 0 109 30l42 235h-108l8 48h239l-8 -48z
M564 852l62 -11q-39 -100 -159 -100q-121 0 -122 100l66 11q2 -62 64 -62q66 0 89 62z" />
    <glyph glyph-name="gbreve" unicode="&#x11f;" horiz-adv-x="512" 
d="M112 337q14 77 72.5 122.5t143.5 45.5q50 0 87 -17q74 82 161 82l-21 -80q-12 5 -30 5q-37 0 -78 -27q53 -45 38 -131q-14 -78 -73 -123.5t-145 -45.5q-46 0 -82 14q-33 -28 -40 -66q-5 -29 10 -45t52 -16h128q73 0 108 -35.5t23 -100.5q-15 -84 -93.5 -129t-193.5 -45
q-102 0 -147.5 35.5t-34.5 97.5q13 78 99 125q-39 27 -28 83q12 65 81 118q-54 46 -37 133zM179 -16q-21 0 -38 3q-56 -38 -66 -94q-8 -44 19 -67.5t97 -23.5q75 0 132 26t67 80q6 36 -14 56t-65 20h-132zM189 337q-10 -53 13.5 -83.5t73.5 -30.5q51 0 86 30.5t45 83.5
t-13.5 83.5t-74.5 30.5q-50 0 -85 -30.5t-45 -83.5zM437 691l62 -11q-37 -100 -159 -100q-121 0 -122 100l67 11q0 -30 17 -46t47 -16q64 0 88 62z" />
    <glyph glyph-name="Gdotaccent" unicode="&#x120;" horiz-adv-x="624" 
d="M598 304l-46 -252q-89 -57 -203 -57q-140 0 -201.5 95t-32.5 260q30 164 126.5 259.5t233.5 95.5q113 0 182 -60l-23 -126l-56 -4l12 103q-45 30 -105 30q-110 0 -183.5 -78.5t-99.5 -219.5q-25 -141 18 -219.5t154 -78.5q56 0 109 30l42 235h-108l8 48h239l-8 -48z
M430 815q4 22 21 37t38 15q23 0 34.5 -15t7.5 -37q-5 -22 -21 -36.5t-38 -14.5t-34 14.5t-8 36.5z" />
    <glyph glyph-name="gdotaccent" unicode="&#x121;" horiz-adv-x="512" 
d="M112 337q14 77 72.5 122.5t143.5 45.5q50 0 87 -17q74 82 161 82l-21 -80q-12 5 -30 5q-37 0 -78 -27q53 -45 38 -131q-14 -78 -73 -123.5t-145 -45.5q-46 0 -82 14q-33 -28 -40 -66q-5 -29 10 -45t52 -16h128q73 0 108 -35.5t23 -100.5q-15 -84 -93.5 -129t-193.5 -45
q-102 0 -147.5 35.5t-34.5 97.5q13 78 99 125q-39 27 -28 83q12 65 81 118q-54 46 -37 133zM179 -16q-21 0 -38 3q-56 -38 -66 -94q-8 -44 19 -67.5t97 -23.5q75 0 132 26t67 80q6 36 -14 56t-65 20h-132zM189 337q-10 -53 13.5 -83.5t73.5 -30.5q51 0 86 30.5t45 83.5
t-13.5 83.5t-74.5 30.5q-50 0 -85 -30.5t-45 -83.5zM305 655q4 22 20.5 36t38.5 14t34 -14t8 -36t-21.5 -37t-39.5 -15q-21 0 -32.5 15t-7.5 37z" />
    <glyph glyph-name="Gcommaaccent" unicode="&#x122;" horiz-adv-x="626" 
d="M598 304l-46 -252q-89 -57 -203 -57q-140 0 -201.5 95t-32.5 260q30 164 126.5 259.5t233.5 95.5q113 0 182 -60l-23 -126l-56 -4l12 103q-45 30 -105 30q-110 0 -183.5 -78.5t-99.5 -219.5q-25 -141 18 -219.5t154 -78.5q56 0 109 30l42 235h-108l8 48h239l-8 -48z
M302 -74l56 14q5 -29 -1 -55q-15 -89 -99 -133l-14 27q48 35 59 99q6 27 -1 48z" />
    <glyph glyph-name="gcommaaccent" unicode="&#x123;" horiz-adv-x="512" 
d="M112 337q14 77 72.5 122.5t143.5 45.5q50 0 87 -17q74 82 161 82l-21 -80q-12 5 -30 5q-37 0 -78 -27q53 -45 38 -131q-14 -78 -73 -123.5t-145 -45.5q-46 0 -82 14q-33 -28 -40 -66q-5 -29 10 -45t52 -16h128q73 0 108 -35.5t23 -100.5q-15 -84 -93.5 -129t-193.5 -45
q-102 0 -147.5 35.5t-34.5 97.5q13 78 99 125q-39 27 -28 83q12 65 81 118q-54 46 -37 133zM179 -16q-21 0 -38 3q-56 -38 -66 -94q-8 -44 19 -67.5t97 -23.5q75 0 132 26t67 80q6 36 -14 56t-65 20h-132zM189 337q-10 -53 13.5 -83.5t73.5 -30.5q51 0 86 30.5t45 83.5
t-13.5 83.5t-74.5 30.5q-50 0 -85 -30.5t-45 -83.5zM357 577l-58 -13q-4 27 0 54q16 88 101 133l14 -26q-45 -33 -58 -99q-5 -29 1 -49z" />
    <glyph glyph-name="Hcircumflex" unicode="&#x124;" horiz-adv-x="695" 
d="M786 700l-9 -48l-62 -12l-109 -592h61l-8 -48h-209l8 48l63 12l50 272h-328l-51 -284h61l-9 -48h-208l8 48l64 12l108 592h-60l8 48h207l-8 -48l-63 -12l-47 -255h328l48 267h-59l8 48h208zM354 733l-16 34l172 138l123 -143l-32 -27l-105 97z" />
    <glyph glyph-name="hcircumflex" unicode="&#x125;" horiz-adv-x="564" 
d="M155 2l-85 -5l127 696l-52 7l4 45q58 10 100 10q22 0 30.5 -9.5t4.5 -30.5l-48 -267q82 57 173 57q73 0 104.5 -43t17.5 -119l-49 -265q-4 -31 19 -31q16 0 34 9v-39q-47 -21 -84 -21q-67 0 -53 68l50 276q18 108 -80 108q-34 0 -73.5 -14t-68.5 -38zM284 773l-17 32
l173 139l124 -143l-34 -27l-103 97z" />
    <glyph glyph-name="Hbar" unicode="&#x126;" horiz-adv-x="688" 
d="M123 485l12 48h58l23 119h-60l8 48h207l-8 -48l-63 -12l-20 -107h320l23 119h-61l8 48h209l-9 -48l-63 -12l-20 -107h61l-13 -48h-56l-80 -437h60l-9 -48h-207l8 48l64 12l49 272h-321l-51 -284h61l-9 -48h-208l8 48l64 12l78 425h-63zM253 385h320l20 100h-321z" />
    <glyph glyph-name="hbar" unicode="&#x127;" horiz-adv-x="586" 
d="M559 56l-1 -39q-46 -21 -84 -21q-33 0 -46 18.5t-7 49.5l50 276q18 108 -80 108q-34 0 -73.5 -14t-68.5 -38l-72 -394l-84 -5l108 591h-59l13 48h54l13 64l-53 8l3 37q58 10 100 10q22 0 30 -9.5t5 -30.5l-15 -79h180l-14 -48h-173l-26 -140q82 57 173 57q73 0 104.5 -43
t17.5 -119l-49 -265q-4 -31 19 -31q16 0 35 9z" />
    <glyph glyph-name="Itilde" unicode="&#x128;" horiz-adv-x="281" 
d="M371 700l-8 -48l-63 -12l-108 -592h61l-9 -48h-208l8 48l64 12l108 592h-60l8 48h207zM172 748l-45 7q28 88 101 88q28 0 62 -23.5t52 -23.5q38 0 56 46l44 -8q-14 -43 -41 -65.5t-59 -22.5q-28 0 -61.5 24t-52.5 24q-41 0 -56 -46z" />
    <glyph glyph-name="itilde" unicode="&#x129;" horiz-adv-x="270" 
d="M131 587l-45 7q15 44 42.5 66t59.5 22q28 0 61.5 -24t51.5 -24q37 0 56 46l45 -7q-31 -88 -101 -88q-28 0 -61.5 24t-53.5 24q-38 0 -55 -46zM243 56l-1 -39q-45 -21 -83 -21q-67 0 -54 69l69 378l-53 7l4 45q60 10 101 10t34 -40l-70 -387q-5 -31 18 -31q14 0 35 9z" />
    <glyph glyph-name="Imacron" unicode="&#x12a;" horiz-adv-x="280" 
d="M371 700l-8 -48l-63 -12l-108 -592h61l-9 -48h-208l8 48l64 12l108 592h-60l8 48h207zM160 775l13 48h238l-14 -48h-237z" />
    <glyph glyph-name="imacron" unicode="&#x12b;" horiz-adv-x="269" 
d="M117 614l14 48h239l-14 -48h-239zM244 56l-2 -39q-45 -21 -83 -21q-66 0 -54 69l70 378l-54 7l5 45q60 10 101 10t35 -40l-71 -387q-5 -31 18 -31q15 0 35 9z" />
    <glyph glyph-name="Ibreve" unicode="&#x12c;" horiz-adv-x="280" 
d="M370 700l-8 -48l-63 -12l-108 -592h61l-9 -48h-208l8 48l64 12l108 592h-60l8 48h207zM370 852l62 -11q-37 -100 -158 -100t-122 100l66 11q2 -62 64 -62q65 0 88 62z" />
    <glyph glyph-name="ibreve" unicode="&#x12d;" horiz-adv-x="272" 
d="M328 691l63 -11q-40 -100 -159 -100q-60 0 -91 25t-30 75l64 11q2 -62 66 -62q65 0 87 62zM244 56l-1 -39q-45 -21 -83 -21q-66 0 -54 69l70 378l-54 7l5 45q60 10 101 10t35 -40l-71 -387q-5 -31 17 -31q17 0 35 9z" />
    <glyph glyph-name="Iogonek" unicode="&#x12e;" horiz-adv-x="281" 
d="M175 0h-139l8 48l64 12l108 592h-60l8 48h207l-8 -48l-63 -12l-108 -592h61l-9 -48h-20q-40 -28 -50 -78q-13 -68 45 -81l-21 -58q-49 8 -69 38.5t-12 78.5q12 66 58 100z" />
    <glyph glyph-name="iogonek" unicode="&#x12f;" horiz-adv-x="270" 
d="M243 56l-1 -39q-28 -13 -55 -18q-38 -27 -48 -77q-6 -31 6 -52.5t39 -28.5l-19 -58q-51 8 -71.5 38.5t-11.5 78.5q11 65 57 98q-44 10 -34 67l70 378l-54 7l5 45q60 10 100 10q41 0 35 -40l-71 -387q-5 -31 19 -31q16 0 34 9zM193 650q5 24 22 39.5t41 15.5
q23 0 36 -15.5t9 -39.5q-4 -23 -23 -38.5t-42 -15.5t-35.5 15.5t-7.5 38.5z" />
    <glyph glyph-name="Idotaccent" unicode="&#x130;" horiz-adv-x="281" 
d="M371 700l-8 -48l-63 -12l-108 -592h61l-9 -48h-208l8 48l64 12l108 592h-60l8 48h207zM238 815q4 22 21 37t39 15t33.5 -15t6.5 -37q-4 -22 -20.5 -36.5t-38.5 -14.5t-33.5 14.5t-7.5 36.5z" />
    <glyph glyph-name="dotlessi" unicode="&#x131;" horiz-adv-x="271" 
d="M244 56l-2 -39q-45 -21 -83 -21q-66 0 -54 69l70 378l-54 7l5 45q60 10 101 10t35 -40l-71 -387q-5 -31 18 -31q15 0 35 9z" />
    <glyph glyph-name="IJ" unicode="&#x132;" horiz-adv-x="619" 
d="M710 700l-9 -48l-63 -12l-79 -434q-39 -211 -253 -211l11 57q60 0 100 39t53 108l82 453h-59l8 48h209zM371 700l-8 -48l-63 -12l-108 -592h61l-9 -48h-208l8 48l64 12l108 592h-60l8 48h207z" />
    <glyph glyph-name="ij" unicode="&#x133;" horiz-adv-x="540" 
d="M244 56l-2 -39q-45 -21 -83 -21q-66 0 -54 69l70 378l-54 7l5 45q60 10 101 10t35 -40l-71 -387q-5 -31 18 -31q15 0 35 9zM193 650q5 24 22.5 39.5t40.5 15.5q24 0 36.5 -15.5t8.5 -39.5q-4 -23 -23 -38.5t-42 -15.5t-35.5 15.5t-7.5 38.5zM461 650q5 24 23 39.5
t42 15.5q23 0 35.5 -15.5t8.5 -39.5q-5 -24 -23 -39t-42 -15q-23 0 -35.5 15.5t-8.5 38.5zM530 465l-105 -579q-12 -66 -55.5 -103.5t-104.5 -37.5q-55 0 -90 32l24 41q20 -16 54 -16t58 21.5t31 61.5l102 558l-52 7l4 45q57 10 100 10q41 0 34 -40z" />
    <glyph glyph-name="Jcircumflex" unicode="&#x134;" horiz-adv-x="522" 
d="M614 700l-9 -48l-64 -12l-80 -441q-17 -95 -79.5 -149.5t-157.5 -54.5q-103 0 -168 56l24 126l57 5l-11 -103q34 -27 93 -27q63 0 102.5 38.5t52.5 108.5l82 453h-60l8 48h210zM391 733l-17 34l173 138l124 -143l-34 -27l-103 97z" />
    <glyph glyph-name="jcircumflex" unicode="&#x135;" horiz-adv-x="270" 
d="M260 465l-106 -580q-12 -66 -55.5 -103t-103.5 -37q-55 0 -89 32l24 41q20 -16 54 -16q33 0 56.5 21.5t30.5 61.5l102 558l-52 7l5 45q57 10 98 10q23 0 31 -9.5t5 -30.5zM108 572l-16 33l172 139l124 -143l-34 -27l-103 97z" />
    <glyph glyph-name="Kcommaaccent" unicode="&#x136;" horiz-adv-x="633" 
d="M374 700l-9 -48l-68 -10l-56 -305l317 315h-67l9 48h217l-8 -48l-74 -12l-226 -224l137 -357l69 -8l-4 -44q-55 -11 -99 -11q-32 0 -46 40l-123 327l-117 -109l-37 -206h67l-8 -48h-219l8 48l71 12l108 592h-67l8 48h217zM284 -74l56 14q5 -29 -1 -55q-14 -88 -99 -133
l-14 27q45 34 58 99q4 28 0 48z" />
    <glyph glyph-name="kcommaaccent" unicode="&#x137;" horiz-adv-x="486" 
d="M341 36l-76 206l-81 -76l-30 -164l-84 -5l127 696l-52 7l4 45q58 10 101 10q40 0 34 -40l-85 -464l243 249h88l-202 -203l92 -238l57 -8l-5 -44q-53 -11 -87 -11q-31 0 -44 40zM210 -74l57 14q3 -30 -2 -55q-15 -89 -99 -133l-14 27q47 35 58 99q5 25 0 48z" />
    <glyph glyph-name="Lacute" unicode="&#x139;" horiz-adv-x="542" 
d="M371 700l-8 -48l-63 -12l-107 -585h256l19 79l54 4l-24 -138h-462l8 48l64 12l108 592h-60l8 48h207zM216 735l-12 35l187 128l22 -49z" />
    <glyph glyph-name="lacute" unicode="&#x13a;" horiz-adv-x="247" 
d="M221 56l-2 -39q-45 -21 -83 -21q-66 0 -54 69l115 628l-53 7l5 45q58 10 100 10q41 0 35 -40l-116 -637q-5 -31 18 -31q16 0 35 9zM189 788l-15 34l189 129l23 -50z" />
    <glyph glyph-name="Lcommaaccent" unicode="&#x13b;" horiz-adv-x="542" 
d="M371 700l-8 -48l-63 -12l-107 -585h256l19 79l54 4l-24 -138h-462l8 48l64 12l108 592h-60l8 48h207zM245 -74l57 14q5 -29 -1 -55q-14 -88 -100 -133l-13 27q44 33 57 99q5 28 0 48z" />
    <glyph glyph-name="lcommaaccent" unicode="&#x13c;" horiz-adv-x="246" 
d="M220 56l-1 -39q-48 -21 -84 -21q-67 0 -54 69l114 628l-52 7l4 45q58 10 101 10q41 0 34 -40l-116 -637q-5 -31 18 -31q14 0 36 9zM71 -74l58 14q4 -24 -1 -55q-16 -90 -100 -133l-13 27q45 33 58 99q4 27 -2 48z" />
    <glyph glyph-name="Lcaron" unicode="&#x13d;" horiz-adv-x="541" 
d="M371 700l-8 -48l-63 -12l-107 -585h256l19 79l53 4l-24 -138h-461l8 48l64 12l108 592h-60l8 48h207zM431 903l15 -34l-162 -129h-17l-116 134l33 27l104 -97z" />
    <glyph glyph-name="lcaron" unicode="&#x13e;" horiz-adv-x="352" 
d="M221 56l-2 -39q-45 -21 -83 -21q-66 0 -54 69l115 628l-53 7l5 45q58 10 100 10q41 0 35 -40l-116 -637q-5 -31 18 -31q16 0 35 9zM402 736l76 19q6 -36 -1 -75q-20 -109 -114 -160l-26 41q53 40 67 113q5 33 -2 62z" />
    <glyph glyph-name="Ldot" unicode="&#x13f;" horiz-adv-x="543" 
d="M371 700l-8 -48l-63 -12l-107 -585h256l19 79l54 4l-24 -138h-462l8 48l64 12l108 592h-60l8 48h207zM427 350q4 20 19.5 33.5t35.5 13.5t30.5 -13.5t6.5 -33.5t-19 -33.5t-35 -13.5t-31 13.5t-7 33.5z" />
    <glyph glyph-name="ldot" unicode="&#x140;" horiz-adv-x="384" 
d="M221 56l-2 -39q-45 -21 -83 -21q-66 0 -54 69l115 628l-53 7l5 45q58 10 100 10q41 0 35 -40l-116 -637q-5 -31 18 -31q16 0 35 9zM332 350q4 20 19.5 33.5t35.5 13.5t31 -13.5t7 -33.5t-19.5 -33.5t-35.5 -13.5t-31 13.5t-7 33.5z" />
    <glyph glyph-name="Lslash" unicode="&#x141;" horiz-adv-x="541" 
d="M83 243l-12 43l85 41l59 325h-60l8 48h207l-8 -48l-63 -12l-49 -266l88 43l11 -43l-109 -54l-48 -265h257l18 79l54 4l-24 -138h-462l8 48l64 12l39 214z" />
    <glyph glyph-name="lslash" unicode="&#x142;" horiz-adv-x="269" 
d="M77 243l-12 43l87 43l67 364l-53 7l4 45q60 10 102 10q40 0 33 -40l-62 -341l67 33l12 -43l-88 -44l-44 -242q-7 -31 17 -31q15 0 35 9v-39q-46 -21 -84 -21q-66 0 -54 69l38 210z" />
    <glyph glyph-name="Nacute" unicode="&#x143;" horiz-adv-x="690" 
d="M309 670l234 -521l93 503h-60l8 48h196l-8 -48l-63 -12l-117 -640h-75l-244 551l-92 -503h61l-9 -48h-197l8 48l64 12l106 583l-60 7l5 45q55 10 101 10q34 0 49 -35zM417 735l-12 35l188 128l23 -49z" />
    <glyph glyph-name="nacute" unicode="&#x144;" horiz-adv-x="586" 
d="M178 2l-85 -5l82 446l-52 7l4 45q58 10 99 10q42 0 36 -40l-3 -17q82 57 173 57q73 0 104.5 -43t17.5 -119l-49 -265q-4 -31 19 -31q16 0 34 9v-39q-46 -21 -84 -21q-67 0 -53 68l50 276q18 108 -80 108q-34 0 -73.5 -14t-68.5 -38zM337 574l-13 35l188 128l23 -50z" />
    <glyph glyph-name="Ncommaaccent" unicode="&#x145;" horiz-adv-x="690" 
d="M309 670l234 -521l93 503h-60l8 48h196l-8 -48l-63 -12l-117 -640h-75l-244 551l-92 -503h61l-9 -48h-197l8 48l64 12l106 583l-60 7l5 45q55 10 101 10q34 0 49 -35zM310 -74l57 14q3 -30 -2 -55q-16 -90 -99 -133l-14 27q45 33 58 99q4 28 0 48z" />
    <glyph glyph-name="ncommaaccent" unicode="&#x146;" horiz-adv-x="586" 
d="M178 2l-85 -5l82 446l-52 7l4 45q58 10 99 10q42 0 36 -40l-3 -17q82 57 173 57q73 0 104.5 -43t17.5 -119l-49 -265q-4 -31 19 -31q16 0 34 9v-39q-46 -21 -84 -21q-67 0 -53 68l50 276q18 108 -80 108q-34 0 -73.5 -14t-68.5 -38zM262 -74l58 14q3 -25 -2 -55
q-16 -91 -100 -133l-13 27q46 35 59 99q4 27 -2 48z" />
    <glyph glyph-name="Ncaron" unicode="&#x147;" horiz-adv-x="690" 
d="M309 670l234 -521l93 503h-60l8 48h196l-8 -48l-63 -12l-117 -640h-75l-244 551l-92 -503h61l-9 -48h-197l8 48l64 12l106 583l-60 7l5 45q55 10 101 10q34 0 49 -35zM635 903l15 -34l-162 -129h-17l-116 134l32 27l105 -97z" />
    <glyph glyph-name="ncaron" unicode="&#x148;" horiz-adv-x="585" 
d="M178 2l-85 -5l82 446l-52 7l4 45q58 10 99 10q42 0 36 -40l-3 -17q82 57 173 57q73 0 104.5 -43t17.5 -119l-49 -265q-4 -31 19 -31q16 0 34 9v-39q-46 -21 -84 -21q-67 0 -53 68l50 276q18 108 -80 108q-34 0 -73.5 -14t-68.5 -38zM554 742l14 -34l-161 -129h-18
l-115 134l32 27l105 -97z" />
    <glyph glyph-name="Eng" unicode="&#x14a;" horiz-adv-x="690" 
d="M636 652h-60l8 48h196l-8 -48l-63 -12l-130 -711q-16 -87 -71 -135.5t-142 -48.5q-98 0 -161 56l23 126l58 5l-12 -103q35 -27 86 -27q109 0 133 127l15 89l-235 533l-92 -503h61l-9 -48h-197l8 48l64 12l106 583l-60 7l5 45q55 10 98 10q23 0 33.5 -8.5t18.5 -26.5
l234 -521z" />
    <glyph glyph-name="eng" unicode="&#x14b;" horiz-adv-x="587" 
d="M178 2l-85 -5l82 446l-52 7l4 45q58 10 99 10q42 0 36 -40l-3 -17q82 57 173 57q73 0 104.5 -43t17.5 -118l-84 -459q-12 -65 -55.5 -102.5t-103.5 -37.5q-57 0 -89 32l22 41q20 -16 55 -16q34 0 58 22t31 61l83 455q9 51 -10.5 79.5t-69.5 28.5q-34 0 -73.5 -14
t-68.5 -38z" />
    <glyph glyph-name="Omacron" unicode="&#x14c;" horiz-adv-x="673" 
d="M115 350q30 163 124.5 259t224.5 96t190 -96t30 -259q-29 -163 -123.5 -259t-225.5 -96t-190 96t-30 259zM202 350q-25 -139 13.5 -218.5t129.5 -79.5q92 0 159.5 79.5t92.5 218.5t-13 218.5t-129 79.5q-92 0 -160 -79.5t-93 -218.5zM355 775l13 48h238l-12 -48h-239z
" />
    <glyph glyph-name="omacron" unicode="&#x14d;" horiz-adv-x="528" 
d="M88 250q22 118 93.5 186.5t172.5 68.5q102 0 150.5 -69t26.5 -186t-94.5 -186t-173.5 -69q-102 0 -149.5 69t-25.5 186zM171 250q-17 -92 10 -145t91 -53q65 0 112 53t63 145q17 92 -10.5 145t-92.5 53q-63 0 -110 -53t-63 -145zM253 614l14 48h238l-14 -48h-238z" />
    <glyph glyph-name="Obreve" unicode="&#x14e;" horiz-adv-x="673" 
d="M115 350q30 163 124.5 259t224.5 96t190 -96t30 -259q-29 -163 -123.5 -259t-225.5 -96t-190 96t-30 259zM202 350q-25 -139 13.5 -218.5t129.5 -79.5q92 0 159.5 79.5t92.5 218.5t-13 218.5t-129 79.5q-92 0 -160 -79.5t-93 -218.5zM567 852l62 -11q-37 -100 -158 -100
q-122 0 -122 100l65 11q3 -62 65 -62q65 0 88 62z" />
    <glyph glyph-name="obreve" unicode="&#x14f;" horiz-adv-x="528" 
d="M88 250q22 118 93.5 186.5t172.5 68.5q102 0 150.5 -69t26.5 -186t-94.5 -186t-173.5 -69q-102 0 -149.5 69t-25.5 186zM171 250q-17 -92 10 -145t91 -53q65 0 112 53t63 145q17 92 -10.5 145t-92.5 53q-63 0 -110 -53t-63 -145zM465 691l62 -11q-37 -100 -158 -100
q-122 0 -122 100l65 11q2 -62 66 -62q65 0 87 62z" />
    <glyph glyph-name="Ohungarumlaut" unicode="&#x150;" horiz-adv-x="673" 
d="M115 350q30 163 124.5 259t224.5 96t190 -96t30 -259q-29 -163 -123.5 -259t-225.5 -96t-190 96t-30 259zM202 350q-25 -139 13.5 -218.5t129.5 -79.5q92 0 159.5 79.5t92.5 218.5t-13 218.5t-129 79.5q-92 0 -160 -79.5t-93 -218.5zM343 729l-20 30l162 149l32 -43z
M508 729l-19 30l162 149l31 -43z" />
    <glyph glyph-name="ohungarumlaut" unicode="&#x151;" horiz-adv-x="527" 
d="M88 250q22 118 93.5 186.5t172.5 68.5q102 0 150.5 -69t26.5 -186t-94.5 -186t-173.5 -69q-102 0 -149.5 69t-25.5 186zM171 250q-17 -92 10 -145t91 -53q65 0 112 53t63 145q17 92 -10.5 145t-92.5 53q-63 0 -110 -53t-63 -145zM240 568l-18 30l161 150l33 -44zM406 568
l-18 30l161 150l32 -44z" />
    <glyph glyph-name="OE" unicode="&#x152;" horiz-adv-x="935" 
d="M891 0h-416l6 41q-68 -46 -156 -46q-125 0 -182 96t-28 259q30 163 122 259t218 96q85 0 139 -46l8 41h413l-24 -134l-54 -4l9 85h-267l-48 -261h201l15 56l51 4l-30 -170l-52 -5l5 61h-200l-51 -277h272l19 79l54 4zM500 150l74 400q-30 98 -121 98t-158.5 -79.5
t-92.5 -218.5t12.5 -218.5t128.5 -79.5q93 0 157 98z" />
    <glyph glyph-name="oe" unicode="&#x153;" horiz-adv-x="802" 
d="M785 258h-303q-22 -98 10.5 -152t117.5 -54q73 0 122 29l17 -43q-71 -43 -161 -43q-107 0 -157 64q-72 -64 -168 -64q-102 0 -149.5 69t-25.5 186q22 118 93.5 186.5t172.5 68.5q95 0 143 -61q69 61 162 61q84 0 123.5 -46t24.5 -129q-5 -31 -22 -72zM272 52q75 0 127 75
q-13 53 0 126q12 69 43 123q-25 72 -98 72q-63 0 -110 -53t-63 -145q-17 -92 10 -145t91 -53zM650 448q-57 0 -98 -38t-60 -105h237q8 18 10 35q9 51 -15.5 79.5t-73.5 28.5z" />
    <glyph glyph-name="Racute" unicode="&#x154;" horiz-adv-x="598" 
d="M36 0l8 48l64 12l108 592h-60l8 48h260q102 0 153 -51.5t34 -141.5q-13 -70 -59 -117.5t-116 -65.5l73 -265l68 -8l-4 -44q-52 -11 -98 -11q-38 0 -48 40l-68 279h-118l-49 -267h61l-9 -48h-208zM415 647h-114l-51 -278h113q63 0 106.5 36.5t55.5 101.5q13 65 -17 102.5
t-93 37.5zM372 735l-14 35l189 128l22 -49z" />
    <glyph glyph-name="racute" unicode="&#x155;" horiz-adv-x="384" 
d="M178 2l-85 -5l82 446l-52 7l4 45q58 10 99 10q42 0 36 -40l-8 -44q78 87 179 87l-21 -80q-16 4 -30 4q-34 0 -73.5 -19.5t-66.5 -56.5zM245 574l-12 35l187 128l24 -50z" />
    <glyph glyph-name="Rcommaaccent" unicode="&#x156;" horiz-adv-x="598" 
d="M36 0l8 48l64 12l108 592h-60l8 48h260q102 0 153 -51.5t34 -141.5q-13 -70 -59 -117.5t-116 -65.5l73 -265l68 -8l-4 -44q-52 -11 -98 -11q-38 0 -48 40l-68 279h-118l-49 -267h61l-9 -48h-208zM415 647h-114l-51 -278h113q63 0 106.5 36.5t55.5 101.5q13 65 -17 102.5
t-93 37.5zM264 -74l58 14q4 -24 -1 -55q-16 -89 -100 -133l-13 27q46 34 57 99q6 27 -1 48z" />
    <glyph glyph-name="rcommaaccent" unicode="&#x157;" horiz-adv-x="380" 
d="M175 2l-84 -5l82 446l-52 7l4 45q57 10 99 10q22 0 30.5 -9.5t4.5 -30.5l-8 -45q77 88 180 88l-22 -80q-14 4 -28 4q-34 0 -74 -19.5t-68 -56.5zM97 -74l58 14q3 -25 -2 -55q-16 -90 -99 -133l-14 27q46 34 59 99q4 27 -2 48z" />
    <glyph glyph-name="Rcaron" unicode="&#x158;" horiz-adv-x="598" 
d="M36 0l8 48l64 12l108 592h-60l8 48h260q102 0 153 -51.5t34 -141.5q-13 -70 -59 -117.5t-116 -65.5l73 -265l68 -8l-4 -44q-52 -11 -98 -11q-38 0 -48 40l-68 279h-118l-49 -267h61l-9 -48h-208zM415 647h-114l-51 -278h113q63 0 106.5 36.5t55.5 101.5q13 65 -17 102.5
t-93 37.5zM583 903l17 -34l-162 -129h-19l-116 134l33 27l104 -97z" />
    <glyph glyph-name="rcaron" unicode="&#x159;" horiz-adv-x="382" 
d="M178 2l-85 -5l82 446l-52 7l4 45q58 10 99 10q42 0 36 -40l-8 -44q78 87 179 87l-21 -80q-16 4 -30 4q-34 0 -73.5 -19.5t-66.5 -56.5zM458 742l15 -34l-161 -129h-18l-116 134l33 27l104 -97z" />
    <glyph glyph-name="Sacute" unicode="&#x15a;" horiz-adv-x="512" 
d="M235 536q-7 -36 6 -63t38.5 -43.5t57.5 -31.5t63.5 -32t56 -38.5t35.5 -58.5t2 -85q-16 -86 -80 -137.5t-170 -51.5q-111 0 -189 52l24 133l53 5l-10 -101q46 -32 119 -32q69 0 111.5 34.5t52.5 90.5q7 37 -5.5 64t-37.5 44.5t-56.5 32t-62.5 31.5t-55 38.5t-35.5 57
t-2.5 82.5q15 82 74 130t154 48q106 0 172 -46l-25 -134l-53 -4l12 102q-44 25 -107 25q-60 0 -96.5 -31.5t-45.5 -80.5zM333 735l-13 35l188 128l23 -49z" />
    <glyph glyph-name="sacute" unicode="&#x15b;" horiz-adv-x="428" 
d="M197 382q-7 -34 15 -55.5t56.5 -34t69 -27t55 -46t11.5 -80.5q-12 -66 -64.5 -105t-136.5 -39q-85 0 -145 37l17 99l60 4l-8 -70q34 -20 82 -20t79 22.5t37 58.5q7 35 -14.5 57.5t-55.5 36t-68 28.5t-54 46t-11 79q11 61 57.5 96.5t120.5 35.5q81 0 137 -36l-19 -100
l-57 -4l6 73q-36 17 -74 17q-40 0 -65 -20.5t-31 -52.5zM257 574l-11 35l186 128l23 -50z" />
    <glyph glyph-name="Scircumflex" unicode="&#x15c;" horiz-adv-x="512" 
d="M235 536q-7 -36 6 -63t38.5 -43.5t57.5 -31.5t63.5 -32t56 -38.5t35.5 -58.5t2 -85q-16 -86 -80 -137.5t-170 -51.5q-111 0 -189 52l24 133l53 5l-10 -101q46 -32 119 -32q69 0 111.5 34.5t52.5 90.5q7 37 -5.5 64t-37.5 44.5t-56.5 32t-62.5 31.5t-55 38.5t-35.5 57
t-2.5 82.5q15 82 74 130t154 48q106 0 172 -46l-25 -134l-53 -4l12 102q-44 25 -107 25q-60 0 -96.5 -31.5t-45.5 -80.5zM264 733l-17 34l172 138l123 -143l-32 -27l-103 97z" />
    <glyph glyph-name="scircumflex" unicode="&#x15d;" horiz-adv-x="429" 
d="M197 382q-7 -34 15 -55.5t56.5 -34t69 -27t55 -46t11.5 -80.5q-12 -66 -64.5 -105t-136.5 -39q-85 0 -145 37l17 99l60 4l-8 -70q34 -20 82 -20t79 22.5t37 58.5q7 35 -14.5 57.5t-55.5 36t-68 28.5t-54 46t-11 79q11 61 57.5 96.5t120.5 35.5q81 0 137 -36l-19 -100
l-57 -4l6 73q-36 17 -74 17q-40 0 -65 -20.5t-31 -52.5zM193 572l-15 33l173 139l122 -143l-33 -27l-103 97z" />
    <glyph glyph-name="Scedilla" unicode="&#x15e;" horiz-adv-x="512" 
d="M235 536q-7 -36 6 -63t38.5 -43.5t57.5 -31.5t63.5 -32t56 -38.5t35.5 -58.5t2 -85q-15 -82 -74 -133t-157 -55q-3 -27 15.5 -58t13.5 -59q-14 -76 -121 -87l-1 52q65 12 72 52q4 17 -11 42.5t-10 57.5q-97 5 -166 51l24 133l53 5l-10 -101q46 -32 119 -32
q69 0 111.5 34.5t52.5 90.5q7 37 -5.5 64t-37.5 44.5t-56.5 32t-62.5 31.5t-55 38.5t-35.5 57t-2.5 82.5q15 82 74 130t154 48q106 0 172 -46l-25 -134l-53 -4l12 102q-44 25 -107 25q-60 0 -96.5 -31.5t-45.5 -80.5z" />
    <glyph glyph-name="scedilla" unicode="&#x15f;" horiz-adv-x="430" 
d="M197 382q-7 -34 15 -55.5t56.5 -34t69 -27t55 -46t11.5 -80.5q-12 -62 -59.5 -100.5t-123.5 -42.5q-3 -27 15 -58t13 -59q-14 -76 -120 -87l-1 52q63 12 71 52q4 17 -11.5 42.5t-10.5 57.5q-70 5 -119 36l17 99l60 4l-8 -70q34 -20 82 -20t79 22.5t37 58.5
q7 35 -14.5 57.5t-55.5 36t-68 28.5t-54 46t-11 79q11 61 57.5 96.5t120.5 35.5q81 0 137 -36l-19 -100l-57 -4l6 73q-36 17 -74 17q-40 0 -65 -20.5t-31 -52.5z" />
    <glyph glyph-name="Scaron" unicode="&#x160;" horiz-adv-x="512" 
d="M235 536q-7 -36 6 -63t38.5 -43.5t57.5 -31.5t63.5 -32t56 -38.5t35.5 -58.5t2 -85q-16 -86 -80 -137.5t-170 -51.5q-111 0 -189 52l24 133l53 5l-10 -101q46 -32 119 -32q69 0 111.5 34.5t52.5 90.5q7 37 -5.5 64t-37.5 44.5t-56.5 32t-62.5 31.5t-55 38.5t-35.5 57
t-2.5 82.5q15 82 74 130t154 48q106 0 172 -46l-25 -134l-53 -4l12 102q-44 25 -107 25q-60 0 -96.5 -31.5t-45.5 -80.5zM542 903l15 -34l-161 -129h-19l-116 134l34 27l104 -97z" />
    <glyph glyph-name="scaron" unicode="&#x161;" horiz-adv-x="428" 
d="M197 382q-7 -34 15 -55.5t56.5 -34t69 -27t55 -46t11.5 -80.5q-12 -66 -64.5 -105t-136.5 -39q-85 0 -145 37l17 99l60 4l-8 -70q34 -20 82 -20t79 22.5t37 58.5q7 35 -14.5 57.5t-55.5 36t-68 28.5t-54 46t-11 79q11 61 57.5 96.5t120.5 35.5q81 0 137 -36l-19 -100
l-57 -4l6 73q-36 17 -74 17q-40 0 -65 -20.5t-31 -52.5zM471 742l17 -34l-163 -129h-18l-116 134l33 27l105 -97z" />
    <glyph glyph-name="Tcommaaccent" unicode="&#x162;" horiz-adv-x="616" 
d="M621 562l9 85h-161l-109 -599h60l-8 -48h-208l9 48l63 12l106 587h-162l-20 -81l-54 -4l26 138h527l-24 -134zM272 -74l57 14q4 -27 0 -55q-16 -88 -101 -133l-13 27q46 33 57 99q6 28 0 48z" />
    <glyph glyph-name="tcommaaccent" unicode="&#x163;" horiz-adv-x="366" 
d="M105 447l13 48l69 4l30 111l71 9l-21 -119h143l-15 -53h-138l-56 -312q-15 -83 59 -83q43 0 66 19l14 -41q-49 -35 -109 -35q-65 0 -95 37t-18 103l56 312h-69zM168 -74l57 14q4 -26 -2 -55q-15 -89 -99 -133l-14 27q47 33 58 99q5 25 0 48z" />
    <glyph glyph-name="Tcaron" unicode="&#x164;" horiz-adv-x="616" 
d="M621 562l9 85h-161l-109 -599h60l-8 -48h-208l9 48l63 12l106 587h-162l-20 -81l-54 -4l26 138h527l-24 -134zM598 903l16 -34l-162 -129h-18l-116 134l33 27l104 -97z" />
    <glyph glyph-name="tcaron" unicode="&#x165;" horiz-adv-x="366" 
d="M105 447l13 48l69 4l30 111l71 9l-21 -119h143l-15 -53h-138l-56 -312q-15 -83 59 -83q43 0 66 19l14 -41q-49 -35 -109 -35q-65 0 -95 37t-18 103l56 312h-69zM457 740l53 15q5 -27 0 -59q-17 -88 -91 -130l-19 30q46 33 57 97q4 28 0 47z" />
    <glyph glyph-name="Tbar" unicode="&#x166;" horiz-adv-x="616" 
d="M186 352l13 48h138l45 247h-162l-20 -81l-54 -4l26 138h527l-24 -134l-54 -4l9 85h-161l-45 -247h144l-14 -48h-138l-56 -304h60l-8 -48h-208l9 48l63 12l53 292h-143z" />
    <glyph glyph-name="tbar" unicode="&#x167;" horiz-adv-x="366" 
d="M89 297l13 46l54 2l18 102h-70l13 48l70 4l30 111l72 9l-22 -119h142l-15 -53h-137l-19 -102h129l-13 -48h-124l-30 -162q-15 -83 59 -83q42 0 68 19l12 -41q-49 -35 -109 -35q-64 0 -94.5 37t-18.5 103l30 162h-58z" />
    <glyph glyph-name="Utilde" unicode="&#x168;" horiz-adv-x="707" 
d="M301 640l-69 -381q-18 -97 16.5 -152t113.5 -55t134 55t72 152l72 393h-60l8 48h210l-9 -48l-63 -12l-69 -381q-22 -123 -104.5 -193.5t-200.5 -70.5q-117 0 -173 70.5t-34 193.5l71 393h-60l9 48h209l-10 -48zM385 748l-45 7q30 88 100 88q29 0 63 -23.5t52 -23.5
q39 0 55 46l45 -8q-14 -43 -41 -65.5t-59 -22.5q-29 0 -62 24t-52 24q-41 0 -56 -46z" />
    <glyph glyph-name="utilde" unicode="&#x169;" horiz-adv-x="582" 
d="M554 56v-39q-46 -21 -84 -21q-61 0 -56 56q-83 -57 -173 -57q-72 0 -102.5 43t-16.5 118l52 287l-52 7l4 45q60 10 100 10q42 0 35 -40l-55 -305q-21 -108 76 -108q79 0 141 50l72 396l83 5l-76 -425q-7 -31 18 -31q14 0 34 9zM292 587l-44 7q14 44 41.5 66t59.5 22
q29 0 62 -24t52 -24q37 0 56 46l45 -7q-15 -43 -42.5 -65.5t-58.5 -22.5q-29 0 -62 24t-53 24q-39 0 -56 -46z" />
    <glyph glyph-name="Umacron" unicode="&#x16a;" horiz-adv-x="707" 
d="M301 640l-69 -381q-18 -97 16.5 -152t113.5 -55t134 55t72 152l72 393h-60l8 48h210l-9 -48l-63 -12l-69 -381q-22 -123 -104.5 -193.5t-200.5 -70.5q-117 0 -173 70.5t-34 193.5l71 393h-60l9 48h209l-10 -48zM371 775l14 48h240l-13 -48h-241z" />
    <glyph glyph-name="umacron" unicode="&#x16b;" horiz-adv-x="582" 
d="M554 56v-39q-46 -21 -84 -21q-61 0 -56 56q-83 -57 -173 -57q-72 0 -102.5 43t-16.5 118l52 287l-52 7l4 45q60 10 100 10q42 0 35 -40l-55 -305q-21 -108 76 -108q79 0 141 50l72 396l83 5l-76 -425q-7 -31 18 -31q14 0 34 9zM275 614l14 48h239l-14 -48h-239z" />
    <glyph glyph-name="Ubreve" unicode="&#x16c;" horiz-adv-x="707" 
d="M301 640l-69 -381q-18 -97 16.5 -152t113.5 -55t134 55t72 152l72 393h-60l8 48h210l-9 -48l-63 -12l-69 -381q-22 -123 -104.5 -193.5t-200.5 -70.5q-117 0 -173 70.5t-34 193.5l71 393h-60l9 48h209l-10 -48zM585 852l60 -11q-37 -100 -157 -100q-119 0 -122 100l65 11
q3 -62 66 -62q62 0 88 62z" />
    <glyph glyph-name="ubreve" unicode="&#x16d;" horiz-adv-x="582" 
d="M554 56v-39q-46 -21 -84 -21q-61 0 -56 56q-83 -57 -173 -57q-72 0 -102.5 43t-16.5 118l52 287l-52 7l4 45q60 10 100 10q42 0 35 -40l-55 -305q-21 -108 76 -108q79 0 141 50l72 396l83 5l-76 -425q-7 -31 18 -31q14 0 34 9zM492 691l62 -11q-37 -100 -158 -100
t-122 100l65 11q0 -62 67 -62q62 0 86 62z" />
    <glyph glyph-name="Uring" unicode="&#x16e;" horiz-adv-x="707" 
d="M301 640l-69 -381q-18 -97 16.5 -152t113.5 -55t134 55t72 152l72 393h-60l8 48h210l-9 -48l-63 -12l-69 -381q-22 -123 -104.5 -193.5t-200.5 -70.5q-117 0 -173 70.5t-34 193.5l71 393h-60l9 48h209l-10 -48zM423 811q6 36 31 57.5t60 21.5q36 0 54 -21t11 -58
q-6 -36 -32 -58t-62 -22q-35 0 -52 21.5t-10 58.5zM460 811q-4 -21 5 -33t27 -12t31 12t17 33q8 45 -31 45q-41 0 -49 -45z" />
    <glyph glyph-name="uring" unicode="&#x16f;" horiz-adv-x="582" 
d="M554 56v-39q-46 -21 -84 -21q-61 0 -56 56q-83 -57 -173 -57q-72 0 -102.5 43t-16.5 118l52 287l-52 7l4 45q60 10 100 10q42 0 35 -40l-55 -305q-21 -108 76 -108q79 0 141 50l72 396l83 5l-76 -425q-7 -31 18 -31q14 0 34 9zM331 650q6 36 31.5 57.5t61.5 21.5
q35 0 52 -21t10 -58q-6 -37 -31 -58.5t-61 -21.5q-35 0 -52.5 22t-10.5 58zM368 650q-4 -21 4.5 -33t27.5 -12q39 0 49 45q4 21 -5.5 33t-27.5 12t-31 -12t-17 -33z" />
    <glyph glyph-name="Uhungarumlaut" unicode="&#x170;" horiz-adv-x="707" 
d="M301 640l-69 -381q-18 -97 16.5 -152t113.5 -55t134 55t72 152l72 393h-60l8 48h210l-9 -48l-63 -12l-69 -381q-22 -123 -104.5 -193.5t-200.5 -70.5q-117 0 -173 70.5t-34 193.5l71 393h-60l9 48h209l-10 -48zM360 729l-19 30l162 149l32 -43zM525 729l-19 30l161 149
l33 -43z" />
    <glyph glyph-name="uhungarumlaut" unicode="&#x171;" horiz-adv-x="581" 
d="M554 56v-39q-46 -21 -84 -21q-61 0 -56 56q-83 -57 -173 -57q-72 0 -102.5 43t-16.5 118l52 287l-52 7l4 45q60 10 100 10q42 0 35 -40l-55 -305q-21 -108 76 -108q79 0 141 50l72 396l83 5l-76 -425q-7 -31 18 -31q14 0 34 9zM434 568l-19 30l162 150l32 -44zM267 568
l-18 30l162 150l32 -44z" />
    <glyph glyph-name="Uogonek" unicode="&#x172;" horiz-adv-x="707" 
d="M359 0h49q-40 -28 -50 -78q-13 -68 45 -81l-21 -58q-49 8 -69.5 39t-12.5 78q11 60 52 95q-117 0 -173 70.5t-34 193.5l71 393h-60l9 48h209l-10 -48l-63 -12l-69 -381q-18 -97 16.5 -152t113.5 -55t134 55t72 152l72 393h-60l8 48h210l-9 -48l-63 -12l-69 -381
q-22 -123 -104.5 -193.5t-200.5 -70.5z" />
    <glyph glyph-name="uogonek" unicode="&#x173;" horiz-adv-x="582" 
d="M554 56v-39q-15 -7 -30 -12q-39 -28 -46 -75q-12 -68 45 -82l-20 -57q-100 16 -82 117q9 52 45 88q-57 3 -52 56q-83 -57 -173 -57q-72 0 -102.5 43t-16.5 118l52 287l-52 7l4 45q60 10 100 10q42 0 35 -40l-55 -305q-21 -108 76 -108q79 0 141 50l72 396l83 5l-76 -425
q-7 -31 18 -31q14 0 34 9z" />
    <glyph glyph-name="Wcircumflex" unicode="&#x174;" horiz-adv-x="1095" 
d="M1201 700l-9 -48l-60 -12l-334 -640h-73l-73 567l-273 -567h-73l-103 641l-61 8l4 44q53 11 100 11q42 0 45 -40l71 -556l276 592h73l67 -594l271 546h-65l9 48h208zM556 733l-16 34l170 138l124 -143l-31 -27l-104 97z" />
    <glyph glyph-name="wcircumflex" unicode="&#x175;" horiz-adv-x="834" 
d="M800 500h90l-277 -500h-73l-51 373l-180 -373h-74l-80 441l-56 8l4 44q53 11 92 11q20 0 29 -10t11 -30l54 -369l189 405h66l49 -406zM399 572l-17 33l172 139l124 -143l-32 -27l-106 97z" />
    <glyph glyph-name="Ycircumflex" unicode="&#x176;" horiz-adv-x="679" 
d="M707 640l-267 -345l-44 -247h60l-8 -48h-209l8 48l63 12l43 234l-143 347l-67 8l4 44q45 11 95 11q23 0 33.5 -9t17.5 -31l117 -303l219 291h-71l9 48h217l-8 -48zM351 733l-15 34l171 138l124 -143l-33 -27l-104 97z" />
    <glyph glyph-name="ycircumflex" unicode="&#x177;" horiz-adv-x="543" 
d="M512 500h90l-339 -600q-49 -87 -87 -121t-88 -34q-60 0 -93 39l24 41q24 -23 59 -23q31 0 54 22t55 77l58 99l-90 441l-56 8l4 44q52 11 87 11q23 0 33 -10t12 -30l63 -376zM260 572l-17 33l174 139l123 -143l-33 -27l-103 97z" />
    <glyph glyph-name="Ydieresis" unicode="&#x178;" horiz-adv-x="679" 
d="M707 640l-267 -345l-44 -247h60l-8 -48h-209l8 48l63 12l43 234l-143 347l-67 8l4 44q45 11 95 11q23 0 33.5 -9t17.5 -31l117 -303l219 291h-71l9 48h217l-8 -48zM352 788q4 19 18.5 32t33.5 13q20 0 30.5 -12.5t6.5 -32.5q-4 -19 -19 -32t-34 -13t-29.5 13t-6.5 32z
M533 788q4 20 19 32.5t34 12.5t30 -13t7 -32t-19.5 -32t-34.5 -13q-20 0 -30 12.5t-6 32.5z" />
    <glyph glyph-name="Zacute" unicode="&#x179;" horiz-adv-x="575" 
d="M162 562l25 138h460l-6 -33l-475 -612h308l19 79l53 4l-24 -138h-470l5 34l474 611h-296l-18 -79zM358 735l-12 35l187 128l22 -49z" />
    <glyph glyph-name="zacute" unicode="&#x17a;" horiz-adv-x="454" 
d="M119 374l23 126h358l-6 -33l-342 -412h211l16 67l54 4l-21 -126h-369l5 34l342 411h-201l-16 -67zM270 574l-15 35l189 128l24 -50z" />
    <glyph glyph-name="Zdotaccent" unicode="&#x17b;" horiz-adv-x="575" 
d="M162 562l25 138h460l-6 -33l-475 -612h308l19 79l53 4l-24 -138h-470l5 34l474 611h-296l-18 -79zM384 815q5 22 21.5 37t39.5 15q21 0 32.5 -15t7.5 -37t-20.5 -36.5t-38.5 -14.5t-34 14.5t-8 36.5z" />
    <glyph glyph-name="zdotaccent" unicode="&#x17c;" horiz-adv-x="454" 
d="M119 374l23 126h358l-6 -33l-342 -412h211l16 67l54 4l-21 -126h-369l5 34l342 411h-201l-16 -67zM296 655q4 22 20.5 36t37.5 14q23 0 35 -14t7 -36q-4 -22 -21 -37t-39 -15q-21 0 -32.5 15t-7.5 37z" />
    <glyph glyph-name="Zcaron" unicode="&#x17d;" horiz-adv-x="575" 
d="M162 562l25 138h460l-6 -33l-475 -612h308l19 79l53 4l-24 -138h-470l5 34l474 611h-296l-18 -79zM577 903l17 -34l-163 -129h-18l-116 134l34 27l104 -97z" />
    <glyph glyph-name="zcaron" unicode="&#x17e;" horiz-adv-x="454" 
d="M119 374l23 126h358l-6 -33l-342 -412h211l16 67l54 4l-21 -126h-369l5 34l342 411h-201l-16 -67zM488 742l16 -34l-162 -129h-17l-116 134l32 27l104 -97z" />
    <glyph glyph-name="longs" unicode="&#x17f;" horiz-adv-x="363" 
d="M287 615l-133 -729q-12 -66 -55.5 -103.5t-103.5 -37.5q-55 0 -89 32l24 41q20 -16 54 -16q33 0 56.5 21.5t30.5 61.5l103 562h-60l14 48l56 4l21 116q12 67 55 103.5t109 36.5q63 0 94 -31l-26 -43q-21 17 -58 17q-77 0 -92 -83z" />
    <glyph glyph-name="uni018F" unicode="&#x18f;" horiz-adv-x="626" 
d="M122 365h430q22 133 -23 208t-150 75q-63 0 -116 -30l-27 -103l-53 4l22 126q91 60 202 60q137 0 198 -96t30 -264q-29 -160 -116 -255t-209 -95q-125 0 -178 99t-10 271zM317 52q80 0 140 68.5t85 188.5h-351q-25 -119 10 -188t116 -69z" />
    <glyph glyph-name="florin" unicode="&#x192;" horiz-adv-x="361" 
d="M236 615l-20 -115h143l-16 -53h-135l-97 -562q-11 -65 -54 -102.5t-103 -37.5q-57 0 -89 32l23 41q22 -16 54 -16q35 0 57.5 21.5t29.5 61.5l96 562h-59l12 48l56 4l19 116q12 67 55 103.5t110 36.5q63 0 94 -31l-26 -43q-21 17 -59 17q-77 0 -91 -83z" />
    <glyph glyph-name="uni01DD" unicode="&#x1dd;" horiz-adv-x="494" 
d="M107 242h305q22 98 -11 152t-117 54q-71 0 -124 -29l-16 43q72 43 162 43q108 0 160 -67.5t30 -190.5q-21 -116 -91 -184t-171 -68q-83 0 -123 46t-24 129q4 25 20 72zM243 52q57 0 98.5 38t60.5 105h-238q-5 -13 -9 -35q-10 -51 14.5 -79.5t73.5 -28.5z" />
    <glyph glyph-name="Aringacute" unicode="&#x1fa;" horiz-adv-x="719" 
d="M527 664l118 -616h59l-7 -48h-213l7 48l60 12l-24 148h-270l-83 -160h64l-8 -48h-208l8 48l60 12l323 582l-59 7l5 44q58 11 116 11q44 0 52 -40zM464 608l-179 -344h236zM421 798q4 26 20 46l-4 11l187 129l25 -50l-108 -61q47 -16 36 -75q-6 -37 -31.5 -58t-62.5 -21
q-35 0 -51.5 21t-10.5 58zM458 798q-4 -21 4.5 -33t27.5 -12q18 0 31 12t17 33q8 45 -32 45t-48 -45z" />
    <glyph glyph-name="aringacute" unicode="&#x1fb;" 
d="M166 413l-16 43q74 49 165 49q85 0 122 -46t22 -128l-46 -253q-5 -31 18 -31q14 0 35 9v-39q-50 -21 -84 -21q-30 0 -43.5 14t-12.5 39q-68 -54 -149 -54q-63 0 -94 35t-20 92q10 53 50.5 88t104.5 43l147 20l11 59q10 55 -13.5 85.5t-78.5 30.5q-62 0 -118 -35zM291 664
l-13 35l188 128l23 -50l-164 -94q15 5 30 5q35 0 53 -21.5t11 -58.5t-32 -58t-61 -21q-35 0 -52.5 21t-11.5 58q6 35 29 56zM209 52q77 0 125 49l23 127l-127 -20q-79 -12 -92 -81q-6 -36 13 -55.5t58 -19.5zM299 608q-8 -45 33 -45q38 0 48 45q8 45 -31 45q-42 0 -50 -45z
" />
    <glyph glyph-name="AEacute" unicode="&#x1fc;" horiz-adv-x="804" 
d="M319 0l7 48l64 12l28 148h-152l-93 -160h65l-9 -48h-207l8 48l60 12l348 582l-57 6l4 44q52 8 116 8h384l-25 -134l-53 -4l8 85h-231l-48 -261h167l14 56l51 4l-29 -170l-53 -5l6 61h-166l-49 -277h235l20 79l53 4l-24 -138h-442zM492 615l-203 -351h139zM479 735l-13 35
l189 128l22 -49z" />
    <glyph glyph-name="aeacute" unicode="&#x1fd;" horiz-adv-x="736" 
d="M166 413l-16 43q74 49 165 49q92 0 122 -62q64 62 157 62q83 0 122.5 -46t24.5 -129q-8 -42 -21 -72h-277l-26 -140q32 -66 127 -66q71 0 123 29l16 -43q-71 -43 -161 -43q-118 0 -168 78q-35 -37 -82.5 -57.5t-94.5 -20.5q-63 0 -94 35t-20 92q10 53 50.5 88t104.5 43
l147 21l11 58q10 55 -13.5 85.5t-78.5 30.5q-62 0 -118 -35zM209 52q75 0 125 47l24 129l-128 -20q-79 -12 -92 -81q-6 -36 13 -55.5t58 -19.5zM584 448q-76 0 -121 -64q0 -18 -12 -79h212q6 13 10 35q9 51 -15.5 79.5t-73.5 28.5zM413 574l-12 35l188 128l23 -50z" />
    <glyph glyph-name="Oslashacute" unicode="&#x1fe;" horiz-adv-x="673" 
d="M158 -10l-39 21l42 57q-79 95 -46 282q30 163 124.5 259t224.5 96q85 0 142 -43l36 48l39 -21l-43 -58q79 -95 46 -281q-29 -163 -123.5 -259t-225.5 -96q-84 0 -142 42zM200 350q-25 -135 11 -215l351 468q-40 46 -107 46q-93 0 -161 -80t-94 -219zM599 350
q24 133 -12 214l-350 -469q39 -44 108 -44q93 0 160.5 80t93.5 219zM410 735l-13 35l188 128l23 -49z" />
    <glyph glyph-name="oslashacute" unicode="&#x1ff;" horiz-adv-x="528" 
d="M141 -10l-37 19l26 35q-68 69 -42 206q22 118 93.5 186.5t172.5 68.5q58 0 102 -25l22 30l37 -19l-27 -36q67 -69 43 -205q-22 -117 -94.5 -186t-173.5 -69q-59 0 -101 24zM452 250q15 90 -11 143l-239 -320q28 -23 70 -23q66 0 114.5 53.5t65.5 146.5zM167 250
q-16 -90 10 -143l239 319q-27 24 -71 24q-65 0 -113 -53.5t-65 -146.5zM307 574l-13 35l189 128l23 -50z" />
    <glyph glyph-name="Scommaaccent" unicode="&#x218;" horiz-adv-x="512" 
d="M235 536q-7 -36 6 -63t38.5 -43.5t57.5 -31.5t63.5 -32t56 -38.5t35.5 -58.5t2 -85q-16 -86 -80 -137.5t-170 -51.5q-111 0 -189 52l24 133l53 5l-10 -101q46 -32 119 -32q69 0 111.5 34.5t52.5 90.5q7 37 -5.5 64t-37.5 44.5t-56.5 32t-62.5 31.5t-55 38.5t-35.5 57
t-2.5 82.5q15 82 74 130t154 48q106 0 172 -46l-25 -134l-53 -4l12 102q-44 25 -107 25q-60 0 -96.5 -31.5t-45.5 -80.5zM210 -74l57 14q4 -24 -1 -55q-16 -89 -100 -133l-14 27q45 33 58 99q5 32 0 48z" />
    <glyph glyph-name="scommaaccent" unicode="&#x219;" horiz-adv-x="430" 
d="M197 382q-7 -34 15 -55.5t56.5 -34t69 -27t55 -46t11.5 -80.5q-12 -66 -64.5 -105t-136.5 -39q-85 0 -145 37l17 99l60 4l-8 -70q34 -20 82 -20t79 22.5t37 58.5q7 35 -14.5 57.5t-55.5 36t-68 28.5t-54 46t-11 79q11 61 57.5 96.5t120.5 35.5q81 0 137 -36l-19 -100
l-57 -4l6 73q-36 17 -74 17q-40 0 -65 -20.5t-31 -52.5zM178 -74l57 14q4 -27 0 -55q-16 -88 -101 -133l-13 27q46 33 57 99q6 28 0 48z" />
    <glyph glyph-name="uni021A" unicode="&#x21a;" horiz-adv-x="616" 
d="M621 562l9 85h-161l-109 -599h60l-8 -48h-208l9 48l63 12l106 587h-162l-20 -81l-54 -4l26 138h527l-24 -134zM272 -74l57 14q4 -27 0 -55q-16 -88 -101 -133l-13 27q46 33 57 99q6 28 0 48z" />
    <glyph glyph-name="uni021B" unicode="&#x21b;" horiz-adv-x="366" 
d="M105 447l13 48l69 4l30 111l71 9l-21 -119h143l-15 -53h-138l-56 -312q-15 -83 59 -83q43 0 66 19l14 -41q-49 -35 -109 -35q-65 0 -95 37t-18 103l56 312h-69zM168 -74l57 14q4 -26 -2 -55q-15 -89 -99 -133l-14 27q47 33 58 99q5 25 0 48z" />
    <glyph glyph-name="dotlessj" unicode="&#x237;" horiz-adv-x="271" 
d="M260 465l-106 -580q-12 -66 -55.5 -103t-103.5 -37q-55 0 -89 32l24 41q20 -16 54 -16q33 0 56.5 21.5t30.5 61.5l102 558l-52 7l5 45q57 10 98 10q23 0 31 -9.5t5 -30.5z" />
    <glyph glyph-name="circumflex" unicode="&#x2c6;" horiz-adv-x="338" 
d="M147 572l-16 33l172 139l123 -143l-32 -27l-105 97z" />
    <glyph glyph-name="caron" unicode="&#x2c7;" horiz-adv-x="338" 
d="M430 742l16 -34l-163 -129h-17l-115 134l31 27l106 -97z" />
    <glyph glyph-name="breve" unicode="&#x2d8;" horiz-adv-x="414" 
d="M408 691l63 -11q-39 -100 -159 -100q-122 0 -122 100l66 11q0 -62 65 -62t87 62z" />
    <glyph glyph-name="dotaccent" unicode="&#x2d9;" horiz-adv-x="270" 
d="M196 655q4 22 21 36t39 14t33.5 -14t7.5 -36q-5 -22 -21.5 -37t-38.5 -15q-21 0 -33 15t-8 37z" />
    <glyph glyph-name="ring" unicode="&#x2da;" horiz-adv-x="266" 
d="M173 650q7 36 32.5 57.5t61.5 21.5q35 0 52 -21t11 -58q-7 -37 -32.5 -58.5t-60.5 -21.5t-52.5 21.5t-11.5 58.5zM210 650q-4 -21 5 -33t28 -12q18 0 31 12t17 33t-5 33t-27 12q-39 0 -49 -45z" />
    <glyph glyph-name="ogonek" unicode="&#x2db;" horiz-adv-x="210" 
d="M94 0h48q-40 -28 -49 -78q-13 -67 44 -81l-20 -58q-49 8 -69.5 38.5t-12.5 78.5q13 68 59 100z" />
    <glyph glyph-name="tilde" unicode="&#x2dc;" horiz-adv-x="406" 
d="M204 587l-44 7q15 44 42.5 66t59.5 22q28 0 61 -24t52 -24q37 0 56 46l44 -7q-14 -43 -41 -65.5t-59 -22.5q-28 0 -62 24t-53 24q-38 0 -56 -46z" />
    <glyph glyph-name="hungarumlaut" unicode="&#x2dd;" horiz-adv-x="326" 
d="M120 568l-19 30l162 150l32 -44zM286 568l-20 30l163 150l32 -44z" />
    <glyph glyph-name="uni0400" unicode="&#x400;" horiz-adv-x="557" 
d="M36 0l8 48l64 12l108 592h-60l8 48h473l-24 -134l-54 -4l9 85h-267l-47 -261h201l14 56l52 4l-30 -170l-52 -5l5 61h-201l-50 -277h272l20 79l53 4l-24 -138h-478zM323 851l49 43l140 -128l-32 -30z" />
    <glyph glyph-name="afii10023" unicode="&#x401;" horiz-adv-x="557" 
d="M36 0l8 48l64 12l108 592h-60l8 48h473l-24 -134l-54 -4l9 85h-267l-47 -261h201l14 56l52 4l-30 -170l-52 -5l5 61h-201l-50 -277h272l20 79l53 4l-24 -138h-478zM296 788q4 19 19 32t34 13q20 0 30.5 -13t6.5 -32t-19 -32t-35 -13q-19 0 -29.5 13t-6.5 32zM477 788
q4 19 19.5 32t34.5 13t29.5 -13t6.5 -32t-18.5 -32t-33.5 -13q-20 0 -31 13t-7 32z" />
    <glyph glyph-name="afii10051" unicode="&#x402;" horiz-adv-x="770" 
d="M719 269l-70 -383q-12 -66 -56.5 -103.5t-105.5 -37.5q-57 0 -92 32l24 41q20 -16 55 -16q33 0 57 22t31 61l69 380q10 51 -10 79.5t-69 28.5q-35 0 -74.5 -13.5t-68.5 -38.5l-49 -273h60l-8 -48h-208l9 48l63 12l106 587h-162l-20 -81l-54 -4l26 138h527l-24 -134
l-54 -4l9 85h-161l-50 -275q82 58 176 58q74 0 106 -43t18 -118z" />
    <glyph glyph-name="afii10052" unicode="&#x403;" horiz-adv-x="525" 
d="M349 735l-13 35l189 128l22 -49zM36 0l8 48l64 12l108 592h-60l8 48h443l-24 -134l-54 -4l11 85h-239l-109 -599h82l-8 -48h-230z" />
    <glyph glyph-name="afii10053" unicode="&#x404;" horiz-adv-x="596" 
d="M553 54q-91 -59 -204 -59q-139 0 -201 95.5t-33 259.5q30 164 127 259.5t233 95.5q111 0 180 -60l-23 -126l-56 -4l12 103q-44 30 -103 30q-104 0 -175.5 -69t-99.5 -193h305l-15 -54h-301q-21 -132 24.5 -206t153.5 -74q61 0 117 30l27 98l56 4z" />
    <glyph glyph-name="afii10054" unicode="&#x405;" horiz-adv-x="512" 
d="M235 536q-7 -36 6 -63t38.5 -43.5t57.5 -31.5t63.5 -32t56 -38.5t35.5 -58.5t2 -85q-16 -86 -80 -137.5t-170 -51.5q-111 0 -189 52l24 133l53 5l-10 -101q46 -32 119 -32q69 0 111.5 34.5t52.5 90.5q7 37 -5.5 64t-37.5 44.5t-56.5 32t-62.5 31.5t-55 38.5t-35.5 57
t-2.5 82.5q15 82 74 130t154 48q106 0 172 -46l-25 -134l-53 -4l12 102q-44 25 -107 25q-60 0 -96.5 -31.5t-45.5 -80.5z" />
    <glyph glyph-name="afii10055" unicode="&#x406;" horiz-adv-x="281" 
d="M371 700l-8 -48l-63 -12l-108 -592h61l-9 -48h-208l8 48l64 12l108 592h-60l8 48h207z" />
    <glyph glyph-name="afii10056" unicode="&#x407;" horiz-adv-x="280" 
d="M371 700l-8 -48l-63 -12l-108 -592h61l-9 -48h-208l8 48l64 12l108 592h-60l8 48h207zM147 788q4 19 19.5 32t34.5 13q20 0 30.5 -13t6.5 -32t-19 -32t-35 -13q-19 0 -30 13t-7 32zM329 788q4 19 19 32t34 13t30 -13t7 -32t-19 -32t-34 -13q-20 0 -30.5 12.5t-6.5 32.5z
" />
    <glyph glyph-name="afii10057" unicode="&#x408;" horiz-adv-x="523" 
d="M614 700l-9 -48l-64 -12l-80 -441q-17 -95 -79.5 -149.5t-157.5 -54.5q-103 0 -168 56l24 126l57 5l-11 -103q34 -27 93 -27q63 0 102.5 38.5t52.5 108.5l82 453h-60l8 48h210z" />
    <glyph glyph-name="afii10058" unicode="&#x409;" horiz-adv-x="969" 
d="M22 23l16 39q18 -13 43 -13q33 0 59 40t59 139l139 418l-61 7l4 42q60 5 111 5h380l-10 -48l-63 -12l-45 -251h125q101 0 152 -52.5t35 -142.5q-16 -89 -86.5 -141.5t-170.5 -52.5h-274l8 48l65 12l106 587h-194l-146 -433q-38 -115 -75.5 -166.5t-93.5 -51.5
q-43 0 -83 27zM769 335h-125l-51 -282h125q62 0 105.5 38t55.5 103q13 65 -17.5 103t-92.5 38z" />
    <glyph glyph-name="afii10059" unicode="&#x40a;" horiz-adv-x="968" 
d="M771 700l-8 -48l-63 -12l-47 -255h125q101 0 152 -52t35 -140q-16 -89 -86 -141t-171 -52h-273l7 48l66 12l48 272h-313l-51 -284h61l-9 -48h-208l8 48l64 12l108 592h-60l8 48h207l-8 -48l-63 -12l-47 -255h313l49 267h-60l9 48h207zM767 332h-124l-50 -279h124
q62 0 106 38t56 102t-18.5 101.5t-93.5 37.5z" />
    <glyph glyph-name="afii10060" unicode="&#x40b;" horiz-adv-x="768" 
d="M522 0l9 48l63 12l37 205q10 51 -10 79.5t-69 28.5q-35 0 -74.5 -13.5t-68.5 -38.5l-49 -273h60l-8 -48h-208l9 48l63 12l106 587h-162l-20 -81l-54 -4l26 138h527l-24 -134l-54 -4l9 85h-161l-50 -275q82 58 176 58q74 0 106 -43t18 -118l-41 -221h61l-8 -48h-209z" />
    <glyph glyph-name="afii10061" unicode="&#x40c;" horiz-adv-x="633" 
d="M374 700l-9 -48l-68 -10l-56 -305l317 315h-67l9 48h217l-8 -48l-74 -12l-226 -224l137 -357l69 -8l-4 -44q-55 -11 -99 -11q-32 0 -46 40l-123 327l-117 -109l-37 -206h67l-8 -48h-219l8 48l71 12l108 592h-67l8 48h217zM386 735l-13 35l189 128l22 -49z" />
    <glyph glyph-name="uni040D" unicode="&#x40d;" horiz-adv-x="685" 
d="M375 851l51 43l138 -128l-29 -30zM776 700l-9 -48l-63 -12l-108 -592h60l-8 -48h-208l8 48l63 12l85 462l-399 -449l-5 -25h61l-9 -48h-208l8 48l64 12l108 592h-60l8 48h207l-8 -48l-63 -12l-84 -462l398 449l5 25h-61l9 48h209z" />
    <glyph glyph-name="afii10062" unicode="&#x40e;" horiz-adv-x="662" 
d="M566 852l61 -11q-36 -100 -157 -100q-122 0 -122 100l65 11q2 -62 66 -62q63 0 87 62zM334 198l-129 443l-64 8l5 44q62 11 93 11q23 0 33.5 -10t14.5 -30l98 -389l230 377h-65l9 48h209l-9 -48l-64 -12l-295 -464q-62 -98 -110 -139.5t-100 -41.5q-63 0 -99 40l30 44
q24 -24 60 -24q37 0 72 35t81 108z" />
    <glyph glyph-name="afii10145" unicode="&#x40f;" horiz-adv-x="680" 
d="M36 0l8 48l64 12l108 592h-60l8 48h207l-8 -48l-63 -12l-107 -587h312l109 599h-61l9 48h209l-9 -48l-64 -12l-107 -592h60l-8 -48h-266l-35 -142l-57 -4l26 146h-275z" />
    <glyph glyph-name="afii10017" unicode="&#x410;" horiz-adv-x="719" 
d="M527 664l118 -616h59l-7 -48h-213l7 48l60 12l-24 148h-270l-83 -160h64l-8 -48h-208l8 48l60 12l323 582l-59 7l5 44q58 11 116 11q44 0 52 -40zM464 608l-179 -344h236z" />
    <glyph glyph-name="afii10018" unicode="&#x411;" horiz-adv-x="568" 
d="M36 0l8 48l64 12l108 592h-60l8 48h448l-23 -134l-55 -4l10 85h-243l-47 -258h131q101 0 149 -52t32 -143q-17 -90 -84 -142t-167 -52h-279zM369 335h-125l-51 -282h125q62 0 105.5 38t56.5 103q12 65 -18 103t-93 38z" />
    <glyph glyph-name="afii10019" unicode="&#x412;" horiz-adv-x="587" 
d="M164 700h251q101 0 153 -48.5t36 -131.5q-10 -57 -46.5 -98t-92.5 -61q62 -17 91.5 -63t17.5 -113q-15 -85 -86 -135t-173 -50h-279l8 48l64 12l108 592h-60zM375 330h-132l-50 -277h131q63 0 108.5 37.5t56.5 100.5q12 64 -19.5 101.5t-94.5 37.5zM408 647h-107
l-48 -263h106q62 0 105.5 35t54.5 95q11 61 -19.5 97t-91.5 36z" />
    <glyph glyph-name="afii10020" unicode="&#x413;" horiz-adv-x="525" 
d="M36 0l8 48l64 12l108 592h-60l8 48h443l-24 -134l-54 -4l11 85h-239l-109 -599h82l-8 -48h-230z" />
    <glyph glyph-name="afii10021" unicode="&#x414;" horiz-adv-x="693" 
d="M59 53h27q29 0 52.5 39t55.5 136l140 418l-62 7l4 42q60 5 111 5h380l-8 -48l-63 -12l-108 -587h42q22 0 29.5 -12.5t2.5 -41.5q-17 -87 -38 -146l-52 -3l18 150h-494l-37 -147l-58 -4l36 200zM270 214q-41 -123 -74 -161h305l109 594h-194z" />
    <glyph glyph-name="afii10022" unicode="&#x415;" horiz-adv-x="557" 
d="M36 0l8 48l64 12l108 592h-60l8 48h473l-24 -134l-54 -4l9 85h-267l-47 -261h201l14 56l52 4l-30 -170l-52 -5l5 61h-201l-50 -277h272l20 79l53 4l-24 -138h-478z" />
    <glyph glyph-name="afii10024" unicode="&#x416;" horiz-adv-x="968" 
d="M503 334l58 318h-66l9 48h212l-9 -48l-67 -10l-58 -308l314 318h-67l9 48h217l-9 -48l-74 -12l-218 -219l126 -362l69 -8l-4 -44q-55 -11 -98 -11q-35 0 -47 40l-110 332l-122 -114l-37 -206h67l-8 -48h-213l8 48l69 12l35 194l-79 114l-230 -332q-26 -40 -62 -40
q-45 0 -94 11l11 44l72 8l257 362l-137 219l-70 12l9 48h217l-8 -48h-69z" />
    <glyph glyph-name="afii10025" unicode="&#x417;" horiz-adv-x="556" 
d="M389 705q99 0 149.5 -49.5t34.5 -133.5q-21 -119 -139 -161q62 -17 92 -63.5t18 -111.5q-16 -87 -94 -139t-190 -52q-120 0 -191 59l24 130l55 -4l-9 -94q48 -34 128 -34q75 0 127 38t64 104q11 61 -21 98.5t-95 37.5h-90l15 54h61q62 0 105.5 35t54.5 96t-19 97t-96 36
q-73 0 -134 -35l-26 -98l-52 4l22 126q89 60 206 60z" />
    <glyph glyph-name="afii10026" unicode="&#x418;" horiz-adv-x="685" 
d="M776 700l-9 -48l-63 -12l-108 -592h60l-8 -48h-208l8 48l63 12l85 462l-399 -449l-5 -25h61l-9 -48h-208l8 48l64 12l108 592h-60l8 48h207l-8 -48l-63 -12l-84 -462l398 449l5 25h-61l9 48h209z" />
    <glyph glyph-name="afii10027" unicode="&#x419;" horiz-adv-x="685" 
d="M572 852l61 -11q-37 -100 -157 -100q-121 0 -121 100l64 11q3 -62 66 -62t87 62zM776 700l-9 -48l-63 -12l-108 -592h60l-8 -48h-208l8 48l63 12l85 462l-399 -449l-5 -25h61l-9 -48h-208l8 48l64 12l108 592h-60l8 48h207l-8 -48l-63 -12l-84 -462l398 449l5 25h-61
l9 48h209z" />
    <glyph glyph-name="afii10028" unicode="&#x41a;" horiz-adv-x="633" 
d="M374 700l-9 -48l-68 -10l-56 -305l317 315h-67l9 48h217l-8 -48l-74 -12l-226 -224l137 -357l69 -8l-4 -44q-55 -11 -99 -11q-32 0 -46 40l-123 327l-117 -109l-37 -206h67l-8 -48h-219l8 48l71 12l108 592h-67l8 48h217z" />
    <glyph glyph-name="afii10029" unicode="&#x41b;" horiz-adv-x="681" 
d="M22 23l16 39q18 -13 43 -13q33 0 59 40t59 139l139 418l-61 7l4 42q60 5 111 5h380l-10 -48l-63 -12l-107 -592h60l-8 -48h-209l8 48l65 12l106 587h-194l-146 -433q-38 -115 -75.5 -166.5t-93.5 -51.5q-43 0 -83 27z" />
    <glyph glyph-name="afii10030" unicode="&#x41c;" horiz-adv-x="842" 
d="M779 700h156l-9 -48l-65 -12l-107 -592h61l-8 -48h-206l8 48l65 12l94 513l-293 -422h-50l-143 422l-95 -525h62l-8 -48h-207l8 48l66 12l106 583l-59 7l4 45q58 10 113 10q24 0 35 -8.5t17 -27.5l145 -410z" />
    <glyph glyph-name="afii10031" unicode="&#x41d;" horiz-adv-x="695" 
d="M786 700l-9 -48l-62 -12l-109 -592h61l-8 -48h-209l8 48l63 12l50 272h-328l-51 -284h61l-9 -48h-208l8 48l64 12l108 592h-60l8 48h207l-8 -48l-63 -12l-47 -255h328l48 267h-59l8 48h208z" />
    <glyph glyph-name="afii10032" unicode="&#x41e;" horiz-adv-x="673" 
d="M115 350q30 163 124.5 259t224.5 96t190 -96t30 -259q-29 -163 -123.5 -259t-225.5 -96t-190 96t-30 259zM202 350q-25 -139 13.5 -218.5t129.5 -79.5q92 0 159.5 79.5t92.5 218.5t-13 218.5t-129 79.5q-92 0 -160 -79.5t-93 -218.5z" />
    <glyph glyph-name="afii10033" unicode="&#x41f;" horiz-adv-x="680" 
d="M771 700l-9 -48l-64 -12l-107 -592h60l-8 -48h-209l8 48l64 12l107 587h-312l-109 -599h61l-9 -48h-208l8 48l64 12l108 592h-60l8 48h607z" />
    <glyph glyph-name="afii10034" unicode="&#x420;" horiz-adv-x="566" 
d="M36 0l8 48l64 12l108 592h-60l8 48h260q102 0 152.5 -52t34.5 -142t-86 -142t-171 -52h-114l-48 -264h82l-8 -48h-230zM415 647h-114l-52 -282h114q62 0 105.5 38t56.5 103q12 65 -18 103t-92 38z" />
    <glyph glyph-name="afii10035" unicode="&#x421;" horiz-adv-x="596" 
d="M553 54q-91 -59 -204 -59q-139 0 -201 95.5t-33 259.5q30 164 127 259.5t233 95.5q111 0 180 -60l-23 -126l-56 -4l12 103q-44 30 -103 30q-110 0 -183.5 -79t-99.5 -219q-25 -140 19.5 -219t155.5 -79q61 0 117 30l27 98l56 4z" />
    <glyph glyph-name="afii10036" unicode="&#x422;" horiz-adv-x="616" 
d="M621 562l9 85h-161l-109 -599h60l-8 -48h-208l9 48l63 12l106 587h-162l-20 -81l-54 -4l26 138h527l-24 -134z" />
    <glyph glyph-name="afii10037" unicode="&#x423;" horiz-adv-x="662" 
d="M334 198l-129 443l-64 8l5 44q62 11 93 11q23 0 33.5 -10t14.5 -30l98 -389l230 377h-65l9 48h209l-9 -48l-64 -12l-295 -464q-62 -98 -110 -139.5t-100 -41.5q-63 0 -99 40l30 44q24 -24 60 -24q37 0 72 35t81 108z" />
    <glyph glyph-name="afii10038" unicode="&#x424;" horiz-adv-x="794" 
d="M461 596l10 58h-60l9 46h209l-8 -46l-63 -12l-9 -46h27q127 0 188.5 -66t41.5 -180q-21 -114 -107 -180t-213 -66h-27l-10 -58h60l-8 -46h-208l7 46l63 12l9 46h-28q-127 0 -188 66t-41 180q21 114 106.5 180t212.5 66h27zM452 542h-27q-88 0 -147.5 -51.5t-76.5 -140.5
q-16 -89 25 -140.5t128 -51.5h27zM539 542l-70 -384h27q88 0 147.5 51.5t75.5 140.5q17 89 -24 140.5t-129 51.5h-27z" />
    <glyph glyph-name="afii10039" unicode="&#x425;" horiz-adv-x="678" 
d="M28 0l8 48l69 12l245 301l-131 280l-67 8l4 44q44 11 93 11q24 0 33.5 -9t18.5 -31l114 -259l204 247h-69l8 48h218l-8 -48l-69 -12l-238 -285l131 -296l69 -8l-5 -44q-45 -11 -95 -11q-21 0 -31.5 9t-19.5 31l-116 273l-209 -261h71l-9 -48h-219z" />
    <glyph glyph-name="afii10040" unicode="&#x426;" horiz-adv-x="687" 
d="M36 0l8 48l64 12l108 592h-60l8 48h207l-8 -48l-63 -12l-107 -587h304l109 599h-60l8 48h209l-9 -48l-63 -12l-107 -587h42q41 0 31 -54q-14 -70 -37 -146l-52 -3l18 150h-550z" />
    <glyph glyph-name="afii10041" unicode="&#x427;" horiz-adv-x="642" 
d="M292 640l-27 -148q-15 -79 12 -114t101 -35q86 0 149 40l50 269h-61l8 48h209l-9 -48l-63 -12l-108 -592h60l-9 -48h-207l8 48l63 12l50 275q-83 -49 -182 -49q-195 0 -158 203l30 163h-61l9 48h209l-9 -48z" />
    <glyph glyph-name="afii10042" unicode="&#x428;" horiz-adv-x="1004" 
d="M36 0l8 48l64 12l108 592h-60l8 48h207l-8 -48l-63 -12l-107 -587h275l110 599h-61l9 48h208l-8 -48l-63 -12l-108 -587h274l110 599h-60l9 48h207l-8 -48l-63 -12l-108 -592h54l-8 -48h-926z" />
    <glyph glyph-name="afii10043" unicode="&#x429;" horiz-adv-x="1020" 
d="M36 0l8 48l64 12l108 592h-60l8 48h207l-8 -48l-63 -12l-107 -587h275l110 599h-61l9 48h208l-8 -48l-63 -12l-108 -587h274l110 599h-60l9 48h207l-8 -48l-63 -12l-107 -587h41q22 0 29.5 -12.5t2.5 -41.5q-11 -68 -38 -146l-51 -3l18 150h-883z" />
    <glyph glyph-name="afii10044" unicode="&#x42a;" horiz-adv-x="725" 
d="M527 700l-8 -48l-63 -12l-47 -251h126q101 0 152 -52.5t35 -142.5t-86 -142t-172 -52h-272l8 48l63 12l107 587h-150l-20 -81l-54 -4l26 138h355zM523 335h-123l-52 -282h125q62 0 106 38t56 103q13 65 -17.5 103t-94.5 38z" />
    <glyph glyph-name="afii10045" unicode="&#x42b;" horiz-adv-x="826" 
d="M371 700l-8 -48l-63 -12l-46 -251h126q101 0 151.5 -52.5t34.5 -142.5q-16 -89 -86 -141.5t-170 -52.5h-274l8 48l64 12l108 592h-60l8 48h207zM369 335h-125l-51 -282h125q62 0 105.5 38t56.5 103q12 65 -18 103t-93 38zM917 700l-8 -48l-64 -12l-108 -592h60l-8 -48
h-209l9 48l64 12l107 592h-60l8 48h209z" />
    <glyph glyph-name="afii10046" unicode="&#x42c;" horiz-adv-x="570" 
d="M371 700l-8 -48l-63 -12l-46 -251h126q101 0 151.5 -52.5t34.5 -142.5q-16 -89 -86 -141.5t-170 -52.5h-274l8 48l64 12l108 592h-60l8 48h207zM369 335h-125l-51 -282h125q62 0 105.5 38t56.5 103q12 65 -18 103t-93 38z" />
    <glyph glyph-name="afii10047" unicode="&#x42d;" horiz-adv-x="595" 
d="M61 53l24 131l56 -4l-9 -96q43 -32 111 -32q105 0 175.5 74.5t97.5 205.5h-257l15 54h252q17 124 -28 193t-146 69q-64 0 -119 -32l-27 -101l-52 4l22 127q88 59 200 59q138 0 199 -95.5t31 -259.5q-29 -164 -125.5 -259.5t-235.5 -95.5q-114 0 -184 58z" />
    <glyph glyph-name="afii10048" unicode="&#x42e;" horiz-adv-x="929" 
d="M383 332h-140l-51 -284h61l-9 -48h-208l8 48l64 12l108 592h-60l8 48h207l-8 -48l-63 -12l-47 -255h140q36 148 125.5 234t208.5 86q128 0 185.5 -96t28.5 -259q-30 -163 -122.5 -259t-220.5 -96q-123 0 -181 90.5t-34 246.5zM472 350q-25 -139 11.5 -218.5t125.5 -79.5
t154.5 80t90.5 218q25 139 -11 218.5t-125 79.5t-155 -79.5t-91 -218.5z" />
    <glyph glyph-name="afii10049" unicode="&#x42f;" horiz-adv-x="597" 
d="M353 0l9 48l63 12l47 254h-116l-176 -278q-25 -40 -62 -40q-45 0 -94 11l11 44l72 8l173 262q-69 16 -100.5 64.5t-18.5 121.5q16 89 85.5 141t170.5 52h272l-8 -48l-63 -12l-109 -592h60l-8 -48h-208zM358 367h123l51 280h-124q-62 0 -105.5 -37.5t-55.5 -102.5
t18 -102.5t93 -37.5z" />
    <glyph glyph-name="afii10065" unicode="&#x430;" 
d="M167 413l-16 43q75 49 165 49q85 0 122 -46t23 -128l-46 -253q-5 -31 17 -31q16 0 35 9v-39q-48 -21 -84 -21q-30 0 -43.5 14t-12.5 38q-69 -53 -149 -53q-62 0 -93 35t-21 92q10 53 51 88t105 43l147 21l11 58q9 55 -14 85.5t-78 30.5q-62 0 -119 -35zM210 52
q77 0 126 49l23 127l-128 -20q-39 -6 -62.5 -27t-28.5 -54q-6 -36 12.5 -55.5t57.5 -19.5z" />
    <glyph glyph-name="afii10066" unicode="&#x431;" horiz-adv-x="537" 
d="M567 777l-13 -80q-24 -23 -57.5 -35t-63 -15t-63.5 -13.5t-61.5 -28.5t-54.5 -62.5t-46 -112.5q85 75 185 75q88 0 127.5 -69.5t17.5 -189.5q-21 -118 -88 -184.5t-178 -66.5q-52 0 -87 15.5t-60 55t-26.5 106.5t14.5 170q18 97 46 165.5t58 102.5t69 55.5t71 27t72 14.5
t64 21l17 45zM358 448q-41 0 -83.5 -21.5t-69.5 -51.5q-6 -23 -9 -45q-22 -106 -13 -168t34 -86t69 -24q134 0 169 192q18 99 -8 151.5t-89 52.5z" />
    <glyph glyph-name="afii10067" unicode="&#x432;" horiz-adv-x="508" 
d="M228 500h141q75 0 111 -34.5t25 -94.5q-14 -78 -89 -109q42 -14 60.5 -46.5t10.5 -77.5q-11 -64 -66 -101t-138 -37h-189l82 446l-53 7l4 42q57 5 101 5zM186 52h95q51 0 84.5 24t40.5 67q8 43 -16 67.5t-74 24.5h-95zM228 285h90q47 0 75 21.5t35 60.5t-13.5 60
t-66.5 21h-89z" />
    <glyph glyph-name="afii10068" unicode="&#x433;" horiz-adv-x="413" 
d="M152 413l-16 43q72 49 162 49q71 0 104.5 -34t23.5 -88q-7 -39 -36 -70.5t-65.5 -51.5t-72.5 -39t-63.5 -42.5t-32.5 -51.5q-6 -32 16 -54t72 -22q63 0 120 35l15 -43q-73 -49 -168 -49q-78 0 -113.5 34.5t-25.5 90.5q7 39 36 70.5t66.5 51.5t74 38.5t64 42t32.5 51.5
q5 30 -15 52t-66 22q-60 0 -112 -35z" />
    <glyph glyph-name="afii10069" unicode="&#x434;" horiz-adv-x="536" 
d="M242 723l41 34l45 -10q133 -42 188 -162q53 -116 22 -289q-55 -301 -273 -301q-106 0 -152.5 68t-24.5 187q21 115 86 185t151 70q79 0 137 -53q-6 68 -31 120.5t-56 79.5t-61.5 44.5t-51.5 21.5zM453 286q7 42 11 96q-45 66 -123 66q-62 0 -107.5 -52.5t-62.5 -145.5
t9 -145.5t93 -52.5q63 0 110.5 57.5t69.5 176.5z" />
    <glyph glyph-name="afii10070" unicode="&#x435;" 
d="M476 258h-304q-23 -98 10 -152t118 -54q73 0 123 29l16 -43q-69 -43 -161 -43q-108 0 -159.5 67.5t-29.5 190.5q21 116 90 184t171 68q83 0 122.5 -46t24.5 -129q-7 -36 -21 -72zM341 448q-57 0 -98.5 -38t-61.5 -105h239q5 13 9 35q9 51 -15.5 79.5t-72.5 28.5z" />
    <glyph glyph-name="afii10072" unicode="&#x436;" horiz-adv-x="759" 
d="M429 498l81 5l-47 -256l252 253h92l-208 -203l92 -238l57 -8l-5 -44q-53 -11 -87 -11q-33 0 -45 40l-72 215l-89 -77l-31 -172l-80 -5l32 177l-61 77l-151 -215q-27 -40 -60 -40t-82 11l11 44l60 8l178 239l-133 202h91l160 -253z" />
    <glyph glyph-name="afii10073" unicode="&#x437;" horiz-adv-x="452" 
d="M192 234l13 49h53q48 0 78 21t37 59q7 40 -18 62.5t-73 22.5q-43 0 -90 -19l-19 -65l-54 -5l18 100q69 46 165 46q79 0 119.5 -36t29.5 -97q-15 -77 -91 -112q41 -14 60 -47t11 -78q-11 -64 -72.5 -102t-152.5 -38q-95 0 -158 48l34 42q48 -34 121 -34q59 0 99.5 25
t48.5 68q8 41 -18 65.5t-78 24.5h-63z" />
    <glyph glyph-name="afii10074" unicode="&#x438;" horiz-adv-x="582" 
d="M554 56v-39q-46 -21 -84 -21q-61 0 -56 56q-83 -57 -173 -57q-72 0 -102.5 43t-16.5 118l52 287l-52 7l4 45q60 10 100 10q42 0 35 -40l-55 -305q-21 -108 76 -108q79 0 141 50l72 396l83 5l-76 -425q-7 -31 18 -31q14 0 34 9z" />
    <glyph glyph-name="afii10075" unicode="&#x439;" horiz-adv-x="582" 
d="M554 56v-39q-46 -21 -84 -21q-61 0 -56 56q-83 -57 -173 -57q-72 0 -102.5 43t-16.5 118l52 287l-52 7l4 45q60 10 100 10q42 0 35 -40l-55 -305q-21 -108 76 -108q79 0 141 50l72 396l83 5l-76 -425q-7 -31 18 -31q14 0 34 9zM492 691l62 -11q-37 -100 -158 -100
t-122 100l65 11q0 -62 67 -62q62 0 86 62z" />
    <glyph glyph-name="afii10076" unicode="&#x43a;" horiz-adv-x="522" 
d="M377 36l-85 207l-85 -77l-30 -164l-84 -5l82 446l-52 7l4 45q58 10 100 10q41 0 35 -40l-40 -216l250 251h94l-210 -203l101 -238l56 -8l-4 -44q-52 -11 -87 -11q-29 0 -45 40z" />
    <glyph glyph-name="afii10077" unicode="&#x43b;" horiz-adv-x="569" 
d="M542 56l-1 -39q-48 -21 -83 -21q-67 0 -54 69l70 382h-138l-81 -247q-36 -109 -68.5 -156.5t-86.5 -47.5q-46 0 -79 25l16 40q18 -12 40 -12q31 0 54 36t53 128l76 233l-57 7l4 42q58 5 106 5h253l-77 -422q-5 -31 18 -31q14 0 35 9z" />
    <glyph glyph-name="afii10078" unicode="&#x43c;" horiz-adv-x="678" 
d="M651 56l-1 -39q-48 -21 -80 -21q-61 0 -48 69l60 328l-197 -285h-52l-93 284l-72 -390l-75 -5l82 446l-52 7l4 45q58 10 101 10q25 0 37 -8.5t17 -27.5l92 -273l209 304h92l-77 -422q-5 -31 17 -31q15 0 36 9z" />
    <glyph glyph-name="afii10079" unicode="&#x43d;" horiz-adv-x="584" 
d="M557 56l-1 -39q-46 -21 -83 -21q-67 0 -54 69l31 169h-230l-43 -232l-84 -5l82 446l-52 7l4 45q58 10 100 10q41 0 35 -40l-33 -179h229l39 212l83 5l-77 -425q-5 -31 19 -31q14 0 35 9z" />
    <glyph glyph-name="afii10080" unicode="&#x43e;" horiz-adv-x="528" 
d="M88 250q22 118 93.5 186.5t172.5 68.5q102 0 150.5 -69t26.5 -186t-94.5 -186t-173.5 -69q-102 0 -149.5 69t-25.5 186zM171 250q-17 -92 10 -145t91 -53q65 0 112 53t63 145q17 92 -10.5 145t-92.5 53q-63 0 -110 -53t-63 -145z" />
    <glyph glyph-name="afii10081" unicode="&#x43f;" horiz-adv-x="586" 
d="M178 2l-85 -5l82 446l-52 7l4 45q58 10 99 10q42 0 36 -40l-3 -17q82 57 173 57q73 0 104.5 -43t17.5 -119l-49 -265q-4 -31 19 -31q16 0 34 9v-39q-46 -21 -84 -21q-67 0 -53 68l50 276q18 108 -80 108q-34 0 -73.5 -14t-68.5 -38z" />
    <glyph glyph-name="afii10082" unicode="&#x440;" horiz-adv-x="548" 
d="M132 -248l-85 -5l127 696l-52 7l4 45q58 10 100 10t35 -40l-2 -12q64 52 140 52q88 0 130.5 -69.5t21.5 -185.5q-22 -117 -90.5 -186t-164.5 -69q-67 0 -115 28zM368 448q-73 0 -119 -49l-58 -319q36 -28 96 -28q68 0 115.5 52.5t64.5 146.5q17 92 -9 144.5t-90 52.5z
" />
    <glyph glyph-name="afii10083" unicode="&#x441;" horiz-adv-x="460" 
d="M492 463l-18 -101l-57 -4l7 79q-33 11 -68 11q-73 0 -120.5 -50.5t-63.5 -141.5q-18 -98 12 -151t107 -53q69 0 119 31l16 -42q-64 -46 -160 -46q-105 0 -152 68.5t-26 187.5q22 118 93 186t176 68q92 0 135 -42z" />
    <glyph glyph-name="afii10084" unicode="&#x442;" horiz-adv-x="844" 
d="M178 2l-85 -5l82 446l-52 7l4 45q58 10 99 10q42 0 36 -40l-3 -17q77 57 161 57q88 0 107 -71q84 71 178 71q67 0 94 -40t14 -112l-50 -275q-5 -31 18 -31q16 0 34 9l1 -39q-48 -21 -84 -21q-67 0 -54 69l52 286q18 97 -65 97q-74 0 -134 -55q0 -12 -4 -40l-64 -351
l-83 -5l64 354q18 97 -65 97q-70 0 -129 -50z" />
    <glyph glyph-name="afii10085" unicode="&#x443;" horiz-adv-x="543" 
d="M512 500h90l-339 -600q-49 -87 -87 -121t-88 -34q-60 0 -93 39l24 41q24 -23 59 -23q31 0 54 22t55 77l58 99l-90 441l-56 8l4 44q52 11 87 11q23 0 33 -10t12 -30l63 -376z" />
    <glyph glyph-name="afii10086" unicode="&#x444;" horiz-adv-x="706" 
d="M349 -248l-83 -5l46 252q-32 -4 -49 -4q-104 0 -150.5 68.5t-24.5 186.5t92.5 186.5t172.5 68.5q20 0 50 -4l35 192l-54 7l5 45q58 10 101 10q41 0 34 -40l-39 -214q36 4 55 4q101 0 146 -68.5t23 -186.5q-22 -119 -91.5 -187t-172.5 -68q-30 0 -51 4zM288 52q23 0 34 2
l71 391q-16 3 -34 3q-73 0 -122 -52.5t-66 -145.5t13 -145.5t104 -52.5zM512 448q-13 0 -37 -4l-71 -390q12 -2 35 -2q74 0 121.5 52.5t64.5 145.5q18 94 -11 146t-102 52z" />
    <glyph glyph-name="afii10087" unicode="&#x445;" horiz-adv-x="523" 
d="M129 0h-95l218 261l-87 180l-56 8l4 44q45 11 81 11q23 0 33 -9t18 -31l73 -163l166 199h93l-215 -245l90 -196l56 -8l-5 -44q-44 -11 -81 -11q-22 0 -31.5 8.5t-19.5 31.5l-76 177z" />
    <glyph glyph-name="afii10088" unicode="&#x446;" horiz-adv-x="606" 
d="M522 53h27q22 0 29 -11.5t2 -39.5q-18 -89 -37 -144l-51 -3l18 145h-38q-30 0 -44.5 13t-13.5 38q-84 -56 -173 -56q-72 0 -102.5 43t-16.5 118l52 287l-52 7l4 45q60 10 100 10q42 0 35 -40l-55 -305q-21 -108 76 -108q78 0 140 50l72 396l84 5l-76 -421q-5 -29 20 -29z
" />
    <glyph glyph-name="afii10089" unicode="&#x447;" horiz-adv-x="544" 
d="M244 465l-23 -128q-15 -89 69 -89q76 0 130 43l38 208l83 2l-76 -423q-5 -31 17 -31q16 0 35 9l-1 -39q-46 -21 -84 -21q-66 0 -53 69l32 178q-76 -52 -166 -52q-66 0 -92.5 37.5t-14.5 104.5l20 110l-53 7l5 45q58 10 100 10q41 0 34 -40z" />
    <glyph glyph-name="afii10090" unicode="&#x448;" horiz-adv-x="844" 
d="M757 498l82 5l-77 -425q-5 -31 19 -31q16 0 34 9v-39q-47 -21 -83 -21q-61 0 -56 57q-82 -58 -162 -58q-89 0 -108 70q-86 -70 -178 -70q-67 0 -94 40.5t-14 111.5l54 296l-52 7l4 45q60 10 101 10q40 0 34 -40l-58 -315q-18 -98 65 -98q70 0 133 54q0 17 5 42l63 350
l85 5l-65 -353q-18 -98 66 -98q69 0 130 52z" />
    <glyph glyph-name="afii10091" unicode="&#x449;" horiz-adv-x="856" 
d="M174 443l-52 7l4 45q60 10 101 10q40 0 34 -40l-58 -315q-18 -98 65 -98q70 0 133 54q0 17 5 42l63 350l85 5l-65 -353q-18 -98 66 -98q69 0 129 51l72 395l84 5l-76 -421q-4 -17 1 -23t18 -6h27q22 0 29 -11.5t2 -39.5q-15 -74 -36 -144l-51 -3l16 145h-37
q-31 0 -45 13.5t-12 39.5q-82 -58 -162 -58q-89 0 -108 70q-86 -70 -178 -70q-67 0 -94 40.5t-14 111.5z" />
    <glyph glyph-name="afii10092" unicode="&#x44a;" horiz-adv-x="590" 
d="M371 500l-40 -214h85q86 0 127.5 -38t28.5 -105q-11 -66 -67 -104.5t-140 -38.5h-168l80 447h-101l-19 -69l-52 -4l22 126h244zM400 235h-77l-35 -183h78q51 0 83.5 24t40.5 67q7 43 -16.5 67.5t-73.5 24.5z" />
    <glyph glyph-name="afii10093" unicode="&#x44b;" horiz-adv-x="709" 
d="M262 465l-33 -179h84q85 0 127 -38t29 -105q-12 -66 -67 -104.5t-140 -38.5h-168l81 443l-52 7l4 45q58 10 100 10q41 0 35 -40zM297 235h-76l-35 -183h78q50 0 83 24t40 67q8 43 -15.5 67.5t-74.5 24.5zM681 56l-1 -39q-46 -21 -83 -21q-67 0 -54 69l79 435l82 1
l-76 -423q-5 -31 18 -31q16 0 35 9z" />
    <glyph glyph-name="afii10094" unicode="&#x44c;" horiz-adv-x="487" 
d="M262 0h-168l81 443l-52 7l4 45q58 10 100 10q41 0 35 -40l-33 -179h84q85 0 127 -38t29 -105q-12 -66 -67 -104.5t-140 -38.5zM297 235h-76l-35 -183h78q50 0 83 24t40 67q8 43 -15.5 67.5t-74.5 24.5z" />
    <glyph glyph-name="afii10095" unicode="&#x44d;" horiz-adv-x="463" 
d="M120 367l18 104q67 34 148 34q108 0 156 -68t26 -187t-94.5 -187t-182.5 -68q-82 0 -143 46l33 42q43 -31 107 -31q75 0 124.5 46.5t67.5 131.5h-182l14 52h177q12 77 -18 121.5t-100 44.5q-43 0 -82 -15l-17 -62z" />
    <glyph glyph-name="afii10096" unicode="&#x44e;" horiz-adv-x="742" 
d="M177 2l-84 -5l82 446l-52 7l4 45q58 10 100 10q41 0 35 -40l-33 -179h104q28 102 94 160.5t154 58.5q96 0 140.5 -69t22.5 -186q-22 -118 -90.5 -186.5t-165.5 -68.5q-92 0 -136.5 64t-28.5 175h-103zM407 250q-17 -92 7.5 -145t83.5 -53t103 53t60 145q17 92 -7 145
t-83 53t-103 -53t-61 -145z" />
    <glyph glyph-name="afii10097" unicode="&#x44f;" horiz-adv-x="516" 
d="M488 56v-39q-45 -21 -84 -21q-66 0 -53 69l27 150h-98l-109 -179q-20 -40 -61 -40q-39 0 -78 11l11 44l60 8l110 163q-104 28 -83 135q11 67 63.5 105t137.5 38h181l-76 -422q-7 -31 18 -31q16 0 34 9zM303 266h84l33 182h-85q-50 0 -82.5 -24t-40.5 -67t15.5 -67
t75.5 -24z" />
    <glyph glyph-name="uni0450" unicode="&#x450;" 
d="M476 258h-304q-23 -98 10 -152t118 -54q73 0 123 29l16 -43q-69 -43 -161 -43q-108 0 -159.5 67.5t-29.5 190.5q21 116 90 184t171 68q83 0 122.5 -46t24.5 -129q-7 -36 -21 -72zM341 448q-57 0 -98.5 -38t-61.5 -105h239q5 13 9 35q9 51 -15.5 79.5t-72.5 28.5zM261 690
l49 44l139 -129l-30 -29z" />
    <glyph glyph-name="afii10071" unicode="&#x451;" 
d="M476 258h-304q-23 -98 10 -152t118 -54q73 0 123 29l16 -43q-69 -43 -161 -43q-108 0 -159.5 67.5t-29.5 190.5q21 116 90 184t171 68q83 0 122.5 -46t24.5 -129q-7 -36 -21 -72zM341 448q-57 0 -98.5 -38t-61.5 -105h239q5 13 9 35q9 51 -15.5 79.5t-72.5 28.5zM229 609
q4 19 19 32t34 13q20 0 30.5 -13t6.5 -32t-19.5 -32.5t-33.5 -13.5q-19 0 -30 13.5t-7 32.5zM410 609q4 19 19 32t34 13t30 -13t7 -32q-4 -20 -19 -33t-34 -13q-20 0 -30 13t-7 33z" />
    <glyph glyph-name="afii10099" unicode="&#x452;" horiz-adv-x="587" 
d="M554 344l-84 -459q-12 -65 -55.5 -102.5t-103.5 -37.5q-57 0 -89 32l22 41q20 -16 55 -16q34 0 58 22t31 61l83 455q9 51 -10.5 79.5t-69.5 28.5q-34 0 -73.5 -14t-68.5 -38l-72 -394l-84 -5l108 591h-59l13 48h54l13 64l-53 8l3 37q58 10 100 10q22 0 30 -9.5t5 -30.5
l-15 -79h180l-14 -48h-173l-26 -140q82 57 173 57q73 0 104.5 -43t17.5 -118z" />
    <glyph glyph-name="afii10100" unicode="&#x453;" horiz-adv-x="412" 
d="M257 574l-13 35l187 128l24 -50zM152 413l-16 43q72 49 162 49q71 0 104.5 -34t23.5 -88q-7 -39 -36 -70.5t-65.5 -51.5t-72.5 -39t-63.5 -42.5t-32.5 -51.5q-6 -32 16 -54t72 -22q63 0 120 35l15 -43q-73 -49 -168 -49q-78 0 -113.5 34.5t-25.5 90.5q7 39 36 70.5
t66.5 51.5t74 38.5t64 42t32.5 51.5q5 30 -15 52t-66 22q-60 0 -112 -35z" />
    <glyph glyph-name="afii10101" unicode="&#x454;" horiz-adv-x="465" 
d="M498 463l-17 -101l-57 -4l6 79q-36 11 -71 11q-70 0 -117 -44t-66 -124h218l-14 -53h-211q-11 -83 21 -129t105 -46q71 0 121 31l15 -42q-65 -46 -161 -46q-107 0 -155.5 68.5t-26.5 186.5t94.5 186.5t178.5 68.5q92 0 137 -42z" />
    <glyph glyph-name="afii10102" unicode="&#x455;" horiz-adv-x="430" 
d="M197 382q-7 -34 15 -55.5t56.5 -34t69 -27t55 -46t11.5 -80.5q-12 -66 -64.5 -105t-136.5 -39q-85 0 -145 37l17 99l60 4l-8 -70q34 -20 82 -20t79 22.5t37 58.5q7 35 -14.5 57.5t-55.5 36t-68 28.5t-54 46t-11 79q11 61 57.5 96.5t120.5 35.5q81 0 137 -36l-19 -100
l-57 -4l6 73q-36 17 -74 17q-40 0 -65 -20.5t-31 -52.5z" />
    <glyph glyph-name="afii10103" unicode="&#x456;" horiz-adv-x="270" 
d="M244 56l-2 -39q-45 -21 -83 -21q-66 0 -54 69l70 378l-54 7l5 45q60 10 101 10t35 -40l-71 -387q-5 -31 18 -31q15 0 35 9zM193 650q5 24 22.5 39.5t40.5 15.5q24 0 36.5 -15.5t8.5 -39.5q-4 -23 -23 -38.5t-42 -15.5t-35.5 15.5t-7.5 38.5z" />
    <glyph glyph-name="afii10104" unicode="&#x457;" horiz-adv-x="270" 
d="M244 56l-2 -39q-45 -21 -83 -21q-66 0 -54 69l70 378l-54 7l5 45q60 10 101 10t35 -40l-71 -387q-5 -31 18 -31q15 0 35 9zM118 627q3 19 19 32t34 13q20 0 31 -12.5t7 -32.5t-19 -33t-34 -13t-30.5 13.5t-7.5 32.5zM274 627q3 19 18.5 32t34.5 13q20 0 30.5 -13t6.5 -32
q-4 -20 -19 -33t-34 -13t-30 13.5t-7 32.5z" />
    <glyph glyph-name="afii10105" unicode="&#x458;" horiz-adv-x="270" 
d="M191 650q5 24 22.5 39.5t41.5 15.5t36.5 -15.5t8.5 -39.5q-4 -23 -23 -38.5t-42 -15.5t-35.5 15.5t-8.5 38.5zM260 465l-106 -580q-12 -66 -55.5 -103t-103.5 -37q-55 0 -89 32l24 41q20 -16 54 -16q33 0 56.5 21.5t30.5 61.5l102 558l-52 7l5 45q57 10 98 10
q23 0 31 -9.5t5 -30.5z" />
    <glyph glyph-name="afii10106" unicode="&#x459;" horiz-adv-x="785" 
d="M22 21l16 40q17 -12 39 -12q32 0 55 36t53 128l75 233l-57 7l4 42q60 5 107 5h252l-39 -214h84q84 0 126 -38t29 -105q-12 -66 -67.5 -104.5t-139.5 -38.5h-166l81 447h-137l-82 -247q-36 -109 -68.5 -156.5t-86.5 -47.5q-46 0 -78 25zM595 235h-77l-33 -183h76
q50 0 83 24t40 67q8 43 -15.5 67.5t-73.5 24.5z" />
    <glyph glyph-name="afii10107" unicode="&#x45a;" horiz-adv-x="793" 
d="M262 465l-33 -179h223l38 212l84 5l-39 -217h84q85 0 126.5 -38t29.5 -105q-12 -66 -67.5 -104.5t-139.5 -38.5h-168l43 234h-223l-43 -232l-84 -5l82 446l-52 7l4 45q58 10 100 10q41 0 35 -40zM603 235h-77l-34 -183h77q51 0 83.5 24t40.5 67q7 43 -16.5 67.5
t-73.5 24.5z" />
    <glyph glyph-name="afii10108" unicode="&#x45b;" horiz-adv-x="586" 
d="M559 56l-1 -39q-46 -21 -84 -21q-33 0 -46 18.5t-7 49.5l50 276q18 108 -80 108q-34 0 -73.5 -14t-68.5 -38l-72 -394l-84 -5l108 591h-59l13 48h54l13 64l-53 8l3 37q58 10 100 10q22 0 30 -9.5t5 -30.5l-15 -79h180l-14 -48h-173l-26 -140q82 57 173 57q73 0 104.5 -43
t17.5 -119l-49 -265q-4 -31 19 -31q16 0 35 9z" />
    <glyph glyph-name="afii10109" unicode="&#x45c;" horiz-adv-x="522" 
d="M317 574l-13 35l188 128l24 -50zM377 36l-85 207l-85 -77l-30 -164l-84 -5l82 446l-52 7l4 45q58 10 100 10q41 0 35 -40l-40 -216l250 251h94l-210 -203l101 -238l56 -8l-4 -44q-52 -11 -87 -11q-29 0 -45 40z" />
    <glyph glyph-name="uni045D" unicode="&#x45d;" horiz-adv-x="582" 
d="M554 56v-39q-46 -21 -84 -21q-61 0 -56 56q-83 -57 -173 -57q-72 0 -102.5 43t-16.5 118l52 287l-52 7l4 45q60 10 100 10q42 0 35 -40l-55 -305q-21 -108 76 -108q79 0 141 50l72 396l83 5l-76 -425q-7 -31 18 -31q14 0 34 9zM294 690l49 44l140 -129l-32 -29z" />
    <glyph glyph-name="afii10110" unicode="&#x45e;" horiz-adv-x="543" 
d="M512 500h90l-339 -600q-49 -87 -87 -121t-88 -34q-60 0 -93 39l24 41q24 -23 59 -23q31 0 54 22t55 77l58 99l-90 441l-56 8l4 44q52 11 87 11q23 0 33 -10t12 -30l63 -376zM476 674l62 -11q-38 -100 -158 -100q-121 0 -121 100l63 11q5 -62 67 -62q63 0 87 62z" />
    <glyph glyph-name="afii10193" unicode="&#x45f;" horiz-adv-x="582" 
d="M554 56v-39q-46 -21 -84 -21q-61 0 -56 56q-62 -42 -130 -53q-5 -30 14 -61t14 -59q-14 -76 -121 -87v52q63 12 71 52q4 17 -11.5 42t-10.5 57q-72 1 -102 43.5t-16 117.5l52 287l-52 7l4 45q60 10 100 10q42 0 35 -40l-55 -305q-21 -108 76 -108q79 0 141 50l72 396
l83 5l-76 -425q-7 -31 18 -31q14 0 34 9z" />
    <glyph glyph-name="afii10050" unicode="&#x490;" horiz-adv-x="497" 
d="M583 797l-27 -150h-255l-109 -599h82l-8 -48h-230l8 48l64 12l108 592h-60l8 48h343l23 96z" />
    <glyph glyph-name="afii10098" unicode="&#x491;" horiz-adv-x="396" 
d="M228 500h166l20 83l53 2l-25 -138h-185l-66 -369q-5 -31 18 -31q15 0 35 9l-2 -39q-45 -21 -83 -21q-66 0 -54 69l70 381l-54 7l5 42q58 5 102 5z" />
    <glyph glyph-name="uni04D8" unicode="&#x4d8;" horiz-adv-x="626" 
d="M122 365h430q22 133 -23 208t-150 75q-63 0 -116 -30l-27 -103l-53 4l22 126q91 60 202 60q137 0 198 -96t30 -264q-29 -160 -116 -255t-209 -95q-125 0 -178 99t-10 271zM317 52q80 0 140 68.5t85 188.5h-351q-25 -119 10 -188t116 -69z" />
    <glyph glyph-name="afii10846" unicode="&#x4d9;" horiz-adv-x="494" 
d="M107 242h305q22 98 -11 152t-117 54q-71 0 -124 -29l-16 43q72 43 162 43q108 0 160 -67.5t30 -190.5q-21 -116 -91 -184t-171 -68q-83 0 -123 46t-24 129q4 25 20 72zM243 52q57 0 98.5 38t60.5 105h-238q-5 -13 -9 -35q-10 -51 14.5 -79.5t73.5 -28.5z" />
    <glyph glyph-name="Wgrave" unicode="&#x1e80;" horiz-adv-x="1095" 
d="M1201 700l-9 -48l-60 -12l-334 -640h-73l-73 567l-273 -567h-73l-103 641l-61 8l4 44q53 11 100 11q42 0 45 -40l71 -556l276 592h73l67 -594l271 546h-65l9 48h208zM580 851l49 43l141 -128l-30 -30z" />
    <glyph glyph-name="wgrave" unicode="&#x1e81;" horiz-adv-x="834" 
d="M800 500h90l-277 -500h-73l-51 373l-180 -373h-74l-80 441l-56 8l4 44q53 11 92 11q20 0 29 -10t11 -30l54 -369l189 405h66l49 -406zM424 690l48 44l141 -129l-31 -29z" />
    <glyph glyph-name="Wacute" unicode="&#x1e82;" horiz-adv-x="1095" 
d="M1201 700l-9 -48l-60 -12l-334 -640h-73l-73 567l-273 -567h-73l-103 641l-61 8l4 44q53 11 100 11q42 0 45 -40l71 -556l276 592h73l67 -594l271 546h-65l9 48h208zM622 735l-13 35l188 128l24 -49z" />
    <glyph glyph-name="wacute" unicode="&#x1e83;" horiz-adv-x="834" 
d="M800 500h90l-277 -500h-73l-51 373l-180 -373h-74l-80 441l-56 8l4 44q53 11 92 11q20 0 29 -10t11 -30l54 -369l189 405h66l49 -406zM465 574l-13 35l188 128l23 -50z" />
    <glyph glyph-name="Wdieresis" unicode="&#x1e84;" horiz-adv-x="1095" 
d="M1201 700l-9 -48l-60 -12l-334 -640h-73l-73 567l-273 -567h-73l-103 641l-61 8l4 44q53 11 100 11q42 0 45 -40l71 -556l276 592h73l67 -594l271 546h-65l9 48h208zM556 788q4 20 18.5 32.5t33.5 12.5q20 0 30.5 -13t6.5 -32t-19.5 -32t-33.5 -13q-19 0 -29.5 12.5
t-6.5 32.5zM735 788q4 19 19.5 32t34.5 13q20 0 30.5 -13t6.5 -32t-19 -32t-35 -13t-30.5 13t-6.5 32z" />
    <glyph glyph-name="wdieresis" unicode="&#x1e85;" horiz-adv-x="834" 
d="M800 500h90l-277 -500h-73l-51 373l-180 -373h-74l-80 441l-56 8l4 44q53 11 92 11q20 0 29 -10t11 -30l54 -369l189 405h66l49 -406zM398 627q4 19 19 32t35 13q18 0 29.5 -13t7.5 -32q-4 -20 -19 -33t-34 -13t-30 13t-8 33zM579 627q4 19 19.5 32t34.5 13t29 -12.5
t7 -32.5q-4 -20 -18.5 -33t-33.5 -13q-20 0 -31 13.5t-7 32.5z" />
    <glyph glyph-name="Ygrave" unicode="&#x1ef2;" horiz-adv-x="679" 
d="M707 640l-267 -345l-44 -247h60l-8 -48h-209l8 48l63 12l43 234l-143 347l-67 8l4 44q45 11 95 11q23 0 33.5 -9t17.5 -31l117 -303l219 291h-71l9 48h217l-8 -48zM377 851l48 43l141 -128l-30 -30z" />
    <glyph glyph-name="ygrave" unicode="&#x1ef3;" horiz-adv-x="543" 
d="M512 500h90l-339 -600q-49 -87 -87 -121t-88 -34q-60 0 -93 39l24 41q24 -23 59 -23q31 0 54 22t55 77l58 99l-90 441l-56 8l4 44q52 11 87 11q23 0 33 -10t12 -30l63 -376zM286 690l49 44l140 -129l-32 -29z" />
    <glyph glyph-name="figuredash" unicode="&#x2012;" horiz-adv-x="511" 
d="M96 325l14 48h429l-14 -48h-429z" />
    <glyph glyph-name="endash" unicode="&#x2013;" horiz-adv-x="511" 
d="M85 258l13 47h429l-13 -47h-429z" />
    <glyph glyph-name="emdash" unicode="&#x2014;" horiz-adv-x="682" 
d="M85 258l13 47h600l-13 -47h-600z" />
    <glyph glyph-name="quoteleft" unicode="&#x2018;" horiz-adv-x="213" 
d="M237 534l-77 -20q-6 37 1 75q18 108 114 160l26 -40q-54 -42 -66 -114q-6 -29 2 -61z" />
    <glyph glyph-name="quoteright" unicode="&#x2019;" horiz-adv-x="212" 
d="M206 730l76 19q5 -33 -2 -76q-18 -109 -113 -159l-25 41q54 42 66 113q5 31 -2 62z" />
    <glyph glyph-name="quotesinglbase" unicode="&#x201a;" horiz-adv-x="213" 
d="M85 70l77 20q5 -35 -2 -76q-20 -111 -114 -159l-25 40q55 41 67 114q5 34 -3 61z" />
    <glyph glyph-name="quotedblleft" unicode="&#x201c;" horiz-adv-x="360" 
d="M237 534l-77 -20q-6 37 1 75q18 108 114 160l26 -40q-54 -42 -66 -114q-6 -29 2 -61zM422 749l26 -40q-54 -42 -66 -114q-6 -35 1 -61l-76 -20q-6 37 1 75q18 108 114 160z" />
    <glyph glyph-name="quotedblright" unicode="&#x201d;" horiz-adv-x="359" 
d="M206 730l76 19q5 -33 -2 -76q-18 -109 -113 -159l-25 41q54 42 66 113q5 31 -2 62zM352 730l77 19q6 -36 -1 -76q-18 -108 -114 -159l-26 41q53 40 67 113q6 33 -3 62z" />
    <glyph glyph-name="quotedblbase" unicode="&#x201e;" horiz-adv-x="360" 
d="M85 70l77 20q5 -35 -2 -76q-20 -111 -114 -159l-25 40q55 41 67 114q5 34 -3 61zM231 70l78 20q5 -43 -1 -76q-20 -110 -115 -159l-26 40q54 40 67 114q6 37 -3 61z" />
    <glyph glyph-name="dagger" unicode="&#x2020;" horiz-adv-x="427" 
d="M124 476l14 47h145l33 175l49 5l-33 -180h151l-13 -47h-147l-104 -574l-48 -5l105 579h-152z" />
    <glyph glyph-name="daggerdbl" unicode="&#x2021;" horiz-adv-x="427" 
d="M69 176l14 48h146l46 252h-151l14 47h144l33 175l50 5l-33 -180h151l-13 -47h-147l-46 -252h152l-14 -48h-147l-49 -274l-49 -5l51 279h-152z" />
    <glyph glyph-name="bullet" unicode="&#x2022;" horiz-adv-x="318" 
d="M108 325q9 52 44.5 82.5t85.5 30.5t74 -30.5t15 -82.5t-44.5 -82.5t-84.5 -30.5q-50 0 -74.5 30.5t-15.5 82.5z" />
    <glyph glyph-name="ellipsis" unicode="&#x2026;" horiz-adv-x="638" 
d="M60 49q5 23 23.5 39t41.5 16t35.5 -16t7.5 -39q-5 -24 -22.5 -39t-41.5 -15q-23 0 -35.5 15.5t-8.5 38.5zM272 49q4 23 22.5 39t41.5 16q24 0 36.5 -16t7.5 -39q-5 -24 -22 -39t-41 -15q-23 0 -36 15.5t-9 38.5zM485 49q5 24 22.5 39.5t40.5 15.5q24 0 36.5 -15.5
t8.5 -39.5q-5 -23 -22.5 -38.5t-41.5 -15.5q-23 0 -35.5 15.5t-8.5 38.5z" />
    <glyph glyph-name="perthousand" unicode="&#x2030;" horiz-adv-x="1205" 
d="M233 -7l-39 21l517 692l37 -20zM140 535q14 79 68 124.5t131 45.5q78 0 115.5 -45.5t23.5 -124.5q-15 -80 -69 -126t-132 -46t-115 46.5t-22 125.5zM204 535q-10 -58 12 -91t70 -33q49 0 83 33t45 91q10 57 -12 90t-70 33q-50 0 -84 -33t-44 -90zM464 165
q14 79 68.5 125.5t131.5 46.5q78 0 115 -46.5t23 -125.5q-15 -79 -68.5 -124.5t-131.5 -45.5t-115.5 46t-22.5 124zM529 165q-10 -57 11.5 -90t70.5 -33q48 0 83 33t45 90q10 58 -12.5 91t-70.5 33t-82.5 -33t-44.5 -91zM853 165q14 79 68 125.5t132 46.5t115.5 -46.5
t23.5 -125.5q-15 -79 -69 -124.5t-132 -45.5q-79 0 -116 45.5t-22 124.5zM917 165q-11 -57 11 -90t71 -33t83 33t44 90q10 58 -11.5 91t-69.5 33q-50 0 -84 -33t-44 -91z" />
    <glyph glyph-name="guilsinglleft" unicode="&#x2039;" horiz-adv-x="291" 
d="M257 155l-35 -22l-122 167l186 168l22 -28l-138 -141z" />
    <glyph glyph-name="guilsinglright" unicode="&#x203a;" horiz-adv-x="292" 
d="M141 444l37 23l121 -168l-187 -168l-21 28l137 141z" />
    <glyph glyph-name="fraction" unicode="&#x2044;" horiz-adv-x="469" 
d="M60 -7l-40 21l517 692l39 -20z" />
    <glyph glyph-name="Euro" unicode="&#x20ac;" horiz-adv-x="634" 
d="M108 395l12 44h57q42 125 130.5 195.5t204.5 70.5q112 0 181 -60l-23 -126l-56 -4l12 103q-45 30 -104 30q-90 0 -157 -55t-102 -154h249l-12 -44h-251l-9 -45q-2 -13 -7 -45h255l-13 -44h-245q-1 -100 46 -154.5t137 -54.5q64 0 119 30l27 98l56 4l-24 -130
q-89 -59 -204 -59q-119 0 -182 70t-61 196h-61l12 44h52q5 32 7 45q6 30 10 45h-56z" />
    <glyph glyph-name="uni20B4" unicode="&#x20b4;" horiz-adv-x="505" 
d="M96 308h419l-14 -46h-280q-50 -52 -58 -102q-9 -49 21 -78.5t100 -29.5q98 0 174 48l18 -43q-101 -62 -218 -62q-104 0 -148.5 44t-31.5 117q10 54 53 106h-48zM525 392h-419l13 46h275q67 50 79 113q9 44 -17.5 70.5t-85.5 26.5q-89 0 -162 -42l-17 42q86 57 203 57
q92 0 132 -41.5t29 -108.5q-12 -67 -71 -117h54z" />
    <glyph glyph-name="afii61352" unicode="&#x2116;" horiz-adv-x="1041" 
d="M309 670l234 -521l93 503h-60l8 48h196l-8 -48l-63 -12l-117 -640h-75l-244 551l-92 -503h61l-9 -48h-197l8 48l64 12l106 583l-60 7l5 45q55 10 101 10q34 0 49 -35zM787 525q16 83 66.5 131t122.5 48q71 0 104.5 -48.5t17.5 -130.5q-15 -82 -65.5 -130.5t-121.5 -48.5
t-105 48.5t-19 130.5zM848 525q-12 -63 7 -100.5t63 -37.5t76 37t44 101t-7 101t-63 37q-43 0 -75.5 -37t-44.5 -101z" />
    <glyph glyph-name="trademark" unicode="&#x2122;" horiz-adv-x="755" 
d="M382 627l4 42h-75l-53 -291h30l-5 -28h-110l5 28l30 6l53 285h-76l-9 -39l-32 -3l13 73h269l-14 -70zM772 700h85l-5 -28l-30 -6l-53 -288h29l-6 -28h-107l6 28l31 6l44 242l-139 -201h-29l-65 201l-45 -248h29l-5 -28h-109l5 28l32 6l52 283l-29 4l4 26q30 6 62 6
q24 0 30 -21l66 -192z" />
    <glyph glyph-name="arrowleft" unicode="&#x2190;" horiz-adv-x="821" 
d="M411 -172l-354 354l39 39l287 -288v767h55v-767l287 287l39 -38z" />
    <glyph glyph-name="arrowup" unicode="&#x2191;" horiz-adv-x="1012" 
d="M411 -4l-354 354l354 354l38 -39l-287 -287h767v-55h-767l288 -288z" />
    <glyph glyph-name="arrowright" unicode="&#x2192;" horiz-adv-x="1012" 
d="M83 323v55h767l-287 287l38 39l354 -354l-354 -354l-39 39l288 288h-767z" />
    <glyph glyph-name="arrowdown" unicode="&#x2193;" horiz-adv-x="821" 
d="M383 -168v767l-287 -288l-39 39l354 354l353 -354l-39 -38l-287 287v-767h-55z" />
    <glyph glyph-name="uni2196" unicode="&#x2196;" horiz-adv-x="776" 
d="M83 132v500h500v-55h-406l543 -543l-39 -39l-543 543v-406h-55z" />
    <glyph glyph-name="uni2197" unicode="&#x2197;" horiz-adv-x="776" 
d="M193 577v55h500v-500h-55v406l-542 -543l-39 39l543 543h-407z" />
    <glyph glyph-name="uni2198" unicode="&#x2198;" horiz-adv-x="776" 
d="M193 0v55h407l-543 543l39 38l542 -543v407h55v-500h-500z" />
    <glyph glyph-name="uni2199" unicode="&#x2199;" horiz-adv-x="776" 
d="M83 0v500h55v-407l543 543l39 -38l-543 -543h406v-55h-500z" />
    <glyph glyph-name="minus" unicode="&#x2212;" horiz-adv-x="427" 
d="M92 300l14 48h346l-14 -48h-346z" />
    <glyph glyph-name="commaaccent" unicode="&#xf6c3;" horiz-adv-x="212" 
d="M68 -74l56 14q5 -29 -1 -55q-15 -89 -99 -133l-14 27q46 34 59 99q5 23 -1 48z" />
    <glyph glyph-name="f_b" horiz-adv-x="839" 
d="M597 715l-47 -263q61 53 138 53q89 0 131.5 -69.5t21.5 -186.5q-22 -118 -94.5 -186t-188.5 -68q-111 0 -167 49l117 635q-35 19 -97 19q-110 0 -126 -93l-20 -105h141l-14 -53h-136l-102 -562q-12 -66 -55.5 -103t-103.5 -37q-55 0 -89 32l24 41q20 -16 54 -16
q33 0 56.5 21.5t30.5 61.5l103 562h-60l14 48l54 4l20 106q13 72 65 111t133 39q38 0 69 -9q58 9 88 9q25 0 34 -9.5t6 -30.5zM657 448q-69 0 -118 -48l-60 -327q35 -23 92 -23q74 0 122 52t65 147q17 94 -9.5 146.5t-91.5 52.5z" />
    <glyph glyph-name="f_f_b" horiz-adv-x="1130" 
d="M887 715l-47 -263q61 53 140 53q88 0 130 -69.5t21 -186.5q-21 -118 -94 -186t-189 -68q-110 0 -166 49l116 635q-33 19 -97 19q-108 0 -124 -93l-20 -105h140l-15 -53h-135l-102 -562q-12 -65 -55.5 -102.5t-103.5 -37.5q-56 0 -90 32l23 41q22 -16 55 -16q34 0 58 21.5
t31 61.5l102 562h-209l-102 -562q-12 -66 -55.5 -103t-103.5 -37q-55 0 -89 32l24 41q20 -16 54 -16q33 0 56.5 21.5t30.5 61.5l103 562h-60l14 48l56 4l21 116q12 67 57.5 103.5t118.5 36.5q67 0 102 -31l-28 -43q-21 17 -67 17q-86 0 -101 -83l-20 -115h207l20 105
q13 72 64 111t132 39q38 0 70 -9q59 9 88 9q25 0 34 -9.5t5 -30.5zM830 400l-60 -327q34 -23 92 -23q73 0 121 52t65 147q17 93 -9.5 146t-89.5 53q-71 0 -119 -48z" />
    <glyph glyph-name="f_h" horiz-adv-x="876" 
d="M468 2l-85 -5l125 682q-35 19 -97 19q-110 0 -126 -93l-20 -105h141l-14 -53h-136l-102 -562q-12 -66 -55.5 -103t-103.5 -37q-55 0 -89 32l24 41q20 -16 54 -16q33 0 56.5 21.5t30.5 61.5l103 562h-60l14 48l54 4l20 106q13 72 65 111t133 39q38 0 69 -9q58 9 88 9
q26 0 35 -9.5t5 -30.5l-48 -267q82 57 172 57q74 0 105 -43t17 -119l-49 -265q-4 -31 19 -31q15 0 35 9v-39q-48 -21 -84 -21q-34 0 -47 18.5t-7 49.5l49 276q20 108 -78 108q-81 0 -142 -51z" />
    <glyph glyph-name="f_f_h" horiz-adv-x="961" 
d="M757 2l-83 -5l124 682q-33 19 -97 19q-108 0 -124 -93l-20 -105h140l-15 -53h-135l-102 -562q-12 -65 -55.5 -102.5t-103.5 -37.5q-56 0 -90 32l23 41q22 -16 55 -16q34 0 58 21.5t31 61.5l102 562h-209l-102 -562q-12 -66 -55.5 -103t-103.5 -37q-55 0 -89 32l24 41
q20 -16 54 -16q33 0 56.5 21.5t30.5 61.5l103 562h-60l14 48l56 4l21 116q12 67 57.5 103.5t118.5 36.5q67 0 102 -31l-28 -43q-21 17 -67 17q-86 0 -101 -83l-20 -115h207l20 105q13 72 64 111t132 39q38 0 70 -9q59 9 88 9q25 0 34 -9.5t5 -30.5l-49 -268q84 58 174 58
q73 0 104.5 -43t17.5 -118l-48 -266q-5 -31 18 -31q14 0 35 9l-1 -39q-46 -21 -83 -21q-66 0 -54 68l50 276q20 108 -80 108q-81 0 -142 -52z" />
    <glyph glyph-name="f_k" horiz-adv-x="799" 
d="M654 36l-76 206l-81 -76l-30 -164l-84 -5l125 682q-35 19 -97 19q-110 0 -126 -93l-20 -105h141l-14 -53h-136l-102 -562q-12 -66 -55.5 -103t-103.5 -37q-55 0 -89 32l24 41q20 -16 54 -16q33 0 56.5 21.5t30.5 61.5l103 562h-60l14 48l54 4l20 106q13 72 65 111t133 39
q38 0 69 -9q58 9 88 9q25 0 34 -9.5t6 -30.5l-85 -464l241 249h90l-203 -203l92 -238l58 -8l-4 -44q-57 -11 -89 -11q-30 0 -43 40z" />
    <glyph glyph-name="f_f_k" horiz-adv-x="1090" 
d="M945 36l-76 207l-81 -77l-31 -164l-83 -5l124 682q-33 19 -97 19q-108 0 -124 -93l-20 -105h140l-15 -53h-135l-102 -562q-12 -65 -55.5 -102.5t-103.5 -37.5q-56 0 -90 32l23 41q22 -16 55 -16q34 0 58 21.5t31 61.5l102 562h-209l-102 -562q-12 -66 -55.5 -103
t-103.5 -37q-55 0 -89 32l24 41q20 -16 54 -16q33 0 56.5 21.5t30.5 61.5l103 562h-60l14 48l56 4l21 116q12 67 57.5 103.5t118.5 36.5q67 0 102 -31l-28 -43q-21 17 -67 17q-86 0 -101 -83l-20 -115h207l20 105q13 72 64 111t132 39q38 0 70 -9q59 9 88 9q25 0 34 -9.5
t5 -30.5l-85 -464l241 249h90l-201 -203l90 -238l59 -8l-4 -44q-55 -11 -89 -11q-30 0 -43 40z" />
    <glyph glyph-name="f_t" horiz-adv-x="656" 
d="M256 447l-102 -562q-12 -66 -55.5 -103t-103.5 -37q-55 0 -89 32l24 41q20 -16 54 -16q33 0 56.5 21.5t30.5 61.5l103 562h-60l14 48l56 4l21 116q12 67 55 103.5t109 36.5q63 0 94 -31l-26 -43q-21 17 -58 17q-77 0 -92 -83l-20 -115h210l30 110l72 9l-21 -119h141
l-15 -53h-137l-56 -312q-15 -83 59 -83q41 0 67 19l13 -41q-50 -35 -109 -35q-65 0 -95 37t-18 103l57 312h-209z" />
    <glyph glyph-name="f_f_t" horiz-adv-x="946" 
d="M474 500l21 115q12 67 55.5 103.5t110.5 36.5q62 0 93 -31l-25 -43q-21 17 -59 17q-77 0 -92 -83l-20 -115h209l31 110l72 9l-22 -119h142l-16 -53h-136l-57 -312q-15 -83 59 -83q42 0 67 19l13 -41q-47 -35 -109 -35q-65 0 -94.5 36.5t-17.5 103.5l56 312h-208
l-102 -562q-12 -65 -55.5 -102.5t-103.5 -37.5q-56 0 -90 32l23 41q22 -16 55 -16q34 0 58 21.5t31 61.5l102 562h-209l-102 -562q-12 -66 -55.5 -103t-103.5 -37q-55 0 -89 32l24 41q20 -16 54 -16q33 0 56.5 21.5t30.5 61.5l103 562h-60l14 48l56 4l21 116
q12 67 57.5 103.5t118.5 36.5q67 0 102 -31l-28 -43q-21 17 -67 17q-86 0 -101 -83l-20 -115h207z" />
    <glyph glyph-name="f_t_t" horiz-adv-x="946" 
d="M114 447l14 48l56 4l21 116q12 67 55 103.5t109 36.5q63 0 94 -31l-26 -43q-21 17 -58 17q-77 0 -92 -83l-20 -115h210l30 110l72 9l-21 -119h209l31 110l72 9l-22 -119h142l-16 -53h-136l-57 -312q-15 -83 59 -83q42 0 67 19l13 -41q-47 -35 -110 -35q-64 0 -93.5 37
t-17.5 103l56 312h-207l-59 -325q-6 -33 7 -51.5t43 -18.5q37 0 60 17l13 -41q-45 -33 -102 -33q-59 0 -87 34t-17 93l59 325h-209l-102 -562q-12 -66 -55.5 -103t-103.5 -37q-55 0 -89 32l24 41q20 -16 54 -16q33 0 56.5 21.5t30.5 61.5l103 562h-60z" />
    <glyph glyph-name="t_t" horiz-adv-x="657" 
d="M105 447l13 48l69 4l30 111l71 9l-21 -119h210l31 110l72 9l-21 -119h142l-16 -53h-136l-57 -312q-15 -83 59 -83q41 0 67 19l12 -41q-47 -35 -109 -35q-64 0 -94 37t-18 103l57 312h-209l-59 -325q-6 -33 7.5 -51.5t44.5 -18.5q34 0 59 17l13 -41q-45 -33 -101 -33
q-60 0 -88.5 34t-17.5 93l59 325h-69z" />
    <glyph glyph-name="zero.fitted" horiz-adv-x="565" 
d="M113 350q29 163 110 259t187 96q107 0 152.5 -96t15.5 -259q-29 -163 -109.5 -259t-186.5 -96q-107 0 -152.5 96t-16.5 259zM196 350q-25 -139 0.5 -218.5t95.5 -79.5q69 0 123.5 80t79.5 218q16 93 10.5 159.5t-32.5 102.5t-72 36q-70 0 -125 -80t-80 -218z" />
    <glyph glyph-name="one.fitted" horiz-adv-x="564" 
d="M128 0l8 48l119 12l107 583h-128l4 44q69 18 156 18q31 0 45 -8.5t10 -31.5l-112 -617h110l-8 -48h-311z" />
    <glyph glyph-name="two.fitted" horiz-adv-x="564" 
d="M526 138l-25 -138h-430l6 41q49 47 131 125q185 177 235 233t60 110q12 67 -22.5 103t-105.5 36q-63 0 -131 -33l-27 -101l-52 4l24 133q102 54 203 54q110 0 159.5 -52t32.5 -145q-12 -68 -77.5 -141t-323.5 -312h270l20 79z" />
    <glyph glyph-name="three.fitted" horiz-adv-x="564" 
d="M391 705q98 0 147.5 -49t34.5 -133q-23 -121 -143 -164q65 -17 95 -62.5t19 -110.5q-16 -88 -94.5 -139.5t-185.5 -51.5q-116 0 -190 61l36 42q64 -46 153 -46q75 0 129.5 38.5t66.5 103.5q11 61 -23.5 98t-98.5 37h-79l16 52h48q65 0 110 36.5t56 99.5q11 59 -18.5 95
t-93.5 36q-73 0 -131 -35l-26 -94l-51 4l22 122q88 60 201 60z" />
    <glyph glyph-name="four.fitted" horiz-adv-x="564" 
d="M443 0h-78l31 169h-302l6 34l269 497l77 -1l-255 -477h214l51 278l77 -1l-50 -277h71l-13 -53h-68z" />
    <glyph glyph-name="five.fitted" horiz-adv-x="564" 
d="M586 700l-24 -134l-53 -4l9 83h-205l-64 -237h113q102 0 152.5 -58t34.5 -149q-17 -97 -96.5 -151.5t-187.5 -54.5q-115 0 -191 61l37 42q64 -46 154 -46q75 0 130.5 41t68.5 111q13 65 -21.5 107.5t-99.5 42.5h-175l90 346h328z" />
    <glyph glyph-name="six.fitted" horiz-adv-x="564" 
d="M530 707l29 -37q-10 -1 -26.5 -5t-63 -24t-87 -48.5t-86.5 -85t-73 -128.5q82 49 167 49q91 0 135.5 -59t27.5 -159q-18 -100 -85.5 -157.5t-174.5 -57.5q-105 0 -157.5 66t-24.5 219q14 80 45 146.5t69 109.5t80.5 76t82 50.5t71.5 28t51 13.5zM356 371q-85 0 -153 -56
q-6 -19 -9 -41q-21 -114 10 -168t100 -54q68 0 110 41.5t55 115.5q14 77 -16.5 119.5t-96.5 42.5z" />
    <glyph glyph-name="seven.fitted" horiz-adv-x="564" 
d="M172 562l25 138h430l-6 -33l-348 -667h-79l335 645h-284l-20 -79z" />
    <glyph glyph-name="eight.fitted" horiz-adv-x="565" 
d="M580 532q-21 -110 -135 -172q55 -29 81.5 -69t14.5 -107q-15 -86 -82.5 -137.5t-177.5 -51.5q-109 0 -157.5 50t-33.5 136q21 120 160 186q-95 55 -75 161q15 81 76 129t159 48q96 0 140 -46t30 -127zM456 176q6 33 -2 57.5t-31.5 43t-44 29.5t-56.5 26q-8 3 -12 5
q-122 -54 -142 -156q-11 -59 19 -94t102 -35t114.5 34.5t52.5 89.5zM258 538q-6 -31 1 -54.5t28.5 -41.5t40.5 -28.5t53 -25.5q51 27 82.5 60t40.5 83q10 53 -16 85t-88 32q-60 0 -96.5 -31t-45.5 -79z" />
    <glyph glyph-name="nine.fitted" horiz-adv-x="563" 
d="M154 -7l-29 37q5 0 14.5 1.5t37.5 9t55.5 19t63.5 35t66.5 54t61 78t49.5 105.5q-81 -52 -170 -52q-92 0 -137 58t-27 156t85.5 154.5t171.5 56.5q235 0 182 -291q-15 -82 -46.5 -150t-69.5 -110.5t-81 -74.5t-83 -47.5t-72.5 -25t-51.5 -11.5zM335 337q44 0 86 17.5
t69 41.5l5 22q22 117 -8.5 173.5t-100.5 56.5q-66 0 -108.5 -40.5t-55.5 -111.5q-14 -77 16.5 -118t96.5 -41z" />
    <glyph glyph-name="germandbls.case" horiz-adv-x="622" 
d="M394 367q-7 -37 13.5 -59t53.5 -33.5t66 -24.5t52.5 -42t11.5 -75q-12 -63 -60 -100.5t-131 -37.5t-143 37l19 99l58 4l-6 -74q33 -16 76 -16q47 0 75 21.5t34 56.5q5 28 -9 47.5t-38.5 29t-53 22.5t-52 26.5t-35.5 42.5t-5 70q7 36 27 65t40.5 45t40 41.5t25.5 55.5
q7 37 -10.5 58.5t-61.5 21.5q-88 0 -103 -89l-102 -559h-139l8 48l59 12l71 387h-59l13 48l55 4l15 83q11 59 59.5 91t128.5 32q87 0 121.5 -39.5t24.5 -96.5q-6 -34 -27.5 -62t-43.5 -44.5t-42.5 -41.5t-25.5 -54z" />
    <glyph glyph-name="plus.case" horiz-adv-x="427" 
d="M96 325l14 48h146l28 151l49 4l-29 -155h152l-14 -48h-147l-27 -150l-48 -5l28 155h-152z" />
    <glyph glyph-name="plusminus.case" horiz-adv-x="426" 
d="M111 400l13 48h146l27 151l50 4l-29 -155h151l-12 -48h-147l-28 -150l-48 -5l29 155h-152zM56 100l14 48h345l-14 -48h-345z" />
    <glyph glyph-name="slash.case" horiz-adv-x="345" 
d="M59 -55l-43 12l430 798l43 -12z" />
    <glyph glyph-name="backslash.case" horiz-adv-x="342" 
d="M306 -38l-47 -21l-138 797l46 21z" />
    <glyph glyph-name="at.case" horiz-adv-x="814" 
d="M631 151q-74 0 -92 48q-59 -51 -122 -51q-69 0 -103 56t-18 146q17 92 75.5 147t146.5 55q87 0 133 -43l-48 -265q-4 -22 9 -34t36 -12q38 0 71 36.5t48 121.5q25 140 -37 221t-200 81q-140 0 -234 -82t-120 -227q-26 -144 38 -225.5t207 -81.5q144 0 242 76l25 -31
q-117 -92 -278 -92q-168 0 -247 95.5t-50 259.5q30 164 144.5 259.5t280.5 95.5q165 0 242.5 -95t49.5 -249q-21 -112 -77 -161t-122 -49zM536 241l45 247q-27 19 -73 19q-56 0 -92.5 -41t-50.5 -115q-14 -73 7 -114.5t71 -41.5q55 0 92 40q0 4 1 6z" />
    <glyph glyph-name="parenleft.case" horiz-adv-x="326" 
d="M425 750l-13 -46q-18 0 -38.5 -13.5t-47.5 -48t-53.5 -110t-46.5 -182.5q-11 -63 -16 -115t-4 -88t7 -63.5t14.5 -44t19 -26.5t20.5 -13.5t21 -3.5l-13 -46q-19 0 -37.5 6t-39 21t-34.5 44.5t-23.5 71.5t-7 108t17.5 149q18 98 45.5 173t56 117t62 68t59 34t51.5 8z" />
    <glyph glyph-name="parenright.case" horiz-adv-x="326" 
d="M28 -50l13 46q18 0 38.5 13.5t47.5 48t53.5 110t46.5 182.5q16 87 19 153t-3.5 103t-20.5 60.5t-27.5 30.5t-29.5 7l13 46q20 0 38 -6t39 -21t35 -44.5t23 -71.5t6.5 -108t-17.5 -149q-18 -98 -45.5 -173t-56 -117t-62 -68t-59 -34t-51.5 -8z" />
    <glyph glyph-name="bracketleft.case" horiz-adv-x="336" 
d="M435 750l-13 -46h-121l-129 -708h126l-13 -46h-196l145 800h201z" />
    <glyph glyph-name="bracketright.case" horiz-adv-x="336" 
d="M28 -50l13 46h121l129 708h-126l13 46h197l-145 -800h-202z" />
    <glyph glyph-name="braceleft.case" horiz-adv-x="314" 
d="M137 104l25 138q7 40 -10.5 61.5t-55.5 21.5l14 50q36 0 60 22t31 62l26 137q15 82 60.5 120.5t126.5 38.5l-14 -49q-36 0 -61 -22t-32 -62l-26 -141q-16 -89 -86 -131q55 -40 39 -131l-26 -142q-7 -39 11 -61t57 -22l-15 -49q-77 0 -107.5 38t-16.5 121z" />
    <glyph glyph-name="braceright.case" horiz-adv-x="315" 
d="M302 596l-25 -137q-7 -40 11 -62t57 -22l-15 -50q-36 0 -60.5 -21.5t-31.5 -61.5l-26 -138q-15 -82 -60 -120.5t-125 -38.5l14 49q36 0 60 22t31 62l26 141q16 90 86 131q-55 42 -39 131l26 142q7 40 -10.5 61.5t-54.5 21.5l13 49q77 0 107.5 -38.5t15.5 -120.5z" />
    <glyph glyph-name="exclamdown.case" horiz-adv-x="212" 
d="M278 651q-4 -24 -21.5 -39.5t-40.5 -15.5q-24 0 -37 16t-8 39q4 23 22 38.5t41 15.5q24 0 36.5 -15.5t7.5 -38.5zM174 509l50 -5l-30 -241l-49 -265l-78 5l48 260z" />
    <glyph glyph-name="questiondown.case" horiz-adv-x="473" 
d="M459 175l-24 -134q-81 -46 -184 -46q-98 0 -140.5 47.5t-28.5 124.5q14 76 69 127.5t129 80.5l32 134l49 -5l-19 -168q-66 -26 -116 -70t-61 -103q-9 -49 16 -80t86 -31t114 25l28 102zM418 651q-4 -24 -22.5 -39.5t-41.5 -15.5q-24 0 -37 16t-8 39q4 23 22 38.5t42 15.5
q23 0 36 -15.5t9 -38.5z" />
    <glyph glyph-name="guillemotleft.case" horiz-adv-x="442" 
d="M267 205l-35 -22l-122 167l186 168l22 -28l-138 -141zM419 205l-37 -22l-120 167l186 168l21 -28l-137 -141z" />
    <glyph glyph-name="guillemotright.case" horiz-adv-x="443" 
d="M150 494l37 23l122 -168l-187 -168l-21 28l137 141zM303 494l35 23l122 -168l-186 -168l-21 28l137 141z" />
    <glyph glyph-name="guilsinglleft.case" horiz-adv-x="292" 
d="M267 205l-35 -22l-122 167l186 168l22 -28l-138 -141z" />
    <glyph glyph-name="guilsinglright.case" horiz-adv-x="292" 
d="M150 494l37 23l122 -168l-187 -168l-21 28l137 141z" />
    <glyph glyph-name="hyphen.case" horiz-adv-x="281" 
d="M96 325l14 48h199l-13 -48h-200z" />
    <glyph glyph-name="endash.case" horiz-adv-x="511" 
d="M96 325l14 48h429l-14 -48h-429z" />
    <glyph glyph-name="emdash.case" horiz-adv-x="682" 
d="M96 325l14 48h600l-14 -48h-600z" />
    <glyph glyph-name="bar.case" horiz-adv-x="244" 
d="M145 -47l-47 -5v799l47 5v-799z" />
    <glyph glyph-name="brokenbar.case" horiz-adv-x="244" 
d="M145 -47l-47 -5v349l47 5v-349zM145 403l-47 -5v349l47 5v-349z" />
    <glyph glyph-name="asciitilde.case" horiz-adv-x="428" 
d="M140 299l-46 7q36 98 118 98q34 0 73 -29t62 -29q49 0 70 56l44 -8q-16 -47 -48 -72.5t-70 -25.5q-32 0 -71.5 29.5t-64.5 29.5q-47 0 -67 -56z" />
    <glyph glyph-name="dagger.case" horiz-adv-x="427" 
d="M124 476l14 47h145l33 175l49 5l-33 -180h151l-13 -47h-147l-85 -474l-50 -5l88 479h-152z" />
    <glyph glyph-name="daggerdbl.case" horiz-adv-x="427" 
d="M69 176l14 48h146l46 252h-151l14 47h144l33 175l50 5l-33 -180h151l-13 -47h-147l-46 -252h152l-14 -48h-147l-31 -174l-49 -5l33 179h-152z" />
    <glyph glyph-name="section.case" horiz-adv-x="482" 
d="M122 346l79 9q-6 -35 11.5 -60t48 -38t66.5 -28.5t66.5 -30.5t47 -44t9.5 -69q-12 -63 -70.5 -101.5t-159.5 -38.5q-104 0 -176 52l24 133l53 5l-12 -97q45 -36 110 -36q63 0 100.5 25t44.5 65q7 35 -18.5 58t-65.5 36.5t-79.5 29.5t-63.5 48.5t-15 81.5zM481 300
l-82 -10q8 43 -17.5 71.5t-66 45t-81.5 33.5t-66 49.5t-16 80.5q11 62 66.5 98.5t147.5 36.5q98 0 160 -46l-24 -134l-53 -4l10 100q-41 27 -96 27t-88.5 -23.5t-39.5 -59.5q-6 -35 20 -58t66.5 -37.5t80.5 -31.5t64 -51.5t15 -86.5z" />
    <glyph glyph-name="paragraph.case" horiz-adv-x="461" 
d="M362 2l-72 -5l58 315h-37q-98 0 -147.5 52t-33.5 142q16 89 84.5 141.5t166.5 52.5h170l-8 -48l-64 -12z" />
    <glyph glyph-name="a.ord" horiz-adv-x="364" 
d="M189 637l-12 32q53 35 116 35q60 0 87 -32.5t16 -89.5l-33 -176q-4 -21 13 -21q10 0 23 6v-29q-33 -15 -59 -15q-41 0 -41 35q-48 -36 -103 -36q-44 0 -65.5 24.5t-14.5 64.5q7 38 36.5 62.5t74.5 30.5l100 14l8 40q7 38 -9.5 59.5t-54.5 21.5q-41 0 -82 -26zM220 387
q50 0 84 33l17 88l-87 -13q-54 -8 -62 -55q-5 -25 8 -39t40 -14z" />
    <glyph glyph-name="b.ord" horiz-adv-x="385" 
d="M273 850l-34 -183q46 37 97 37q63 0 92 -49t14 -131q-15 -83 -65.5 -130.5t-132.5 -47.5q-76 0 -117 35l82 453l-37 5l4 32q40 8 71 8q30 0 26 -29zM314 663q-48 0 -82 -34l-41 -227q25 -16 64 -16q101 0 126 138q13 65 -5.5 102t-61.5 37z" />
    <glyph glyph-name="c.ord" horiz-adv-x="339" 
d="M419 674l-14 -71l-42 -3l4 56q-26 7 -46 7q-50 0 -82 -35.5t-43 -98.5q-13 -68 7.5 -105t73.5 -37q49 0 82 23l11 -32q-44 -32 -112 -32q-73 0 -106.5 48.5t-17.5 131.5q14 82 64.5 130t123.5 48q66 0 97 -30z" />
    <glyph glyph-name="d.ord" horiz-adv-x="403" 
d="M438 391v-29q-33 -15 -60 -15q-40 0 -40 35q-45 -36 -98 -36q-62 0 -92 48.5t-14 130.5q14 82 62 130.5t116 48.5q45 0 79 -20l28 150l-37 5l4 32q42 8 71 8q30 0 26 -28l-80 -445q-4 -21 12 -21q11 0 23 6zM263 387q47 0 80 34l41 221q-26 21 -66 21q-47 0 -79 -36.5
t-44 -101.5q-12 -64 6 -101t62 -37z" />
    <glyph glyph-name="e.ord" horiz-adv-x="363" 
d="M406 530h-211q-15 -67 7.5 -105t80.5 -38q48 0 85 21l12 -31q-50 -31 -113 -31q-75 0 -112 48t-21 134q15 81 63.5 128.5t120.5 47.5q58 0 85.5 -32.5t17.5 -90.5q-3 -20 -15 -51zM310 663q-78 0 -108 -99h163l3 12l3 12q6 35 -11 55t-50 20z" />
    <glyph glyph-name="egrave.ord" horiz-adv-x="363" 
d="M406 530h-211q-15 -67 7.5 -105t80.5 -38q48 0 85 21l12 -31q-50 -31 -113 -31q-75 0 -112 48t-21 134q15 81 63.5 128.5t120.5 47.5q58 0 85.5 -32.5t17.5 -90.5q-3 -20 -15 -51zM310 663q-78 0 -108 -99h163l3 12l3 12q6 35 -11 55t-50 20zM253 832l38 32l97 -91
l-22 -21z" />
    <glyph glyph-name="f.ord" horiz-adv-x="265" 
d="M275 780l-14 -80h98l-10 -39h-95l-71 -391q-9 -46 -40 -72.5t-73 -26.5t-63 23l16 30q17 -12 38 -12q23 0 39.5 15.5t20.5 42.5l71 391h-39l9 35l37 3l15 81q8 47 39 73t78 26q43 0 66 -22l-17 -31q-16 12 -42 12q-52 0 -63 -58z" />
    <glyph glyph-name="g.ord" horiz-adv-x="376" 
d="M151 586q10 54 51 86t101 32q36 0 60 -12q52 58 114 58l-16 -58q-12 2 -21 2q-28 0 -53 -17q36 -31 25 -91q-10 -54 -51 -86t-101 -32q-34 0 -56 9q-23 -19 -28 -45q-4 -20 6.5 -31t37.5 -11h88q51 0 75.5 -25t16.5 -71q-11 -59 -66.5 -91t-134.5 -32q-72 0 -104.5 25.5
t-24.5 68.5q10 53 70 86q-27 19 -19 59q8 47 56 83q-38 32 -26 93zM198 338q-18 0 -26 2q-37 -25 -44 -64q-6 -31 12.5 -47.5t67.5 -16.5q51 0 90.5 18t45.5 55q5 25 -9 39t-45 14h-92zM207 586q-7 -37 9.5 -58t51.5 -21q34 0 57.5 21t30.5 58t-9 57.5t-51 20.5t-58.5 -20.5
t-30.5 -57.5z" />
    <glyph glyph-name="h.ord" horiz-adv-x="431" 
d="M200 352l-62 -4l88 486l-37 5l4 32q40 8 72 8q31 0 25 -29l-34 -186q57 40 120 40q52 0 74 -30.5t12 -83.5l-33 -184q-4 -21 13 -21q9 0 24 6v-29q-36 -15 -61 -15q-46 0 -38 49l35 192q6 35 -7.5 55t-47.5 20q-52 0 -98 -36z" />
    <glyph glyph-name="i.ord" horiz-adv-x="209" 
d="M246 391l-1 -29q-35 -15 -60 -15q-47 0 -39 49l49 263l-38 5l5 32q38 8 71 8q30 0 25 -29l-48 -269q-4 -21 12 -21q9 0 24 6zM206 805q3 17 17 28.5t31 11.5q16 0 25 -11.5t6 -28.5q-2 -16 -15.5 -27t-30.5 -11t-26 11t-7 27z" />
    <glyph glyph-name="j.ord" horiz-adv-x="208" 
d="M205 805q3 17 16.5 28.5t30.5 11.5t26 -11.5t6 -28.5t-16 -27.5t-31 -10.5q-17 0 -26 11t-6 27zM256 675l-73 -405q-9 -46 -40 -72.5t-73 -26.5t-63 23l16 30q17 -12 38 -12q23 0 39.5 15.5t20.5 42.5l71 389l-36 5l5 32q38 8 71 8q30 0 24 -29z" />
    <glyph glyph-name="k.ord" horiz-adv-x="376" 
d="M327 376l-52 142l-55 -53l-21 -113l-61 -4l88 486l-37 5l4 32q40 8 72 8q30 0 25 -29l-59 -323l166 173h65l-141 -142l64 -166l40 -5l-3 -32q-40 -8 -63 -8q-22 0 -32 29z" />
    <glyph glyph-name="l.ord" horiz-adv-x="209" 
d="M246 391l-1 -29q-35 -15 -60 -15q-47 0 -39 49l79 438l-36 5l4 32q40 8 72 8q30 0 25 -29l-80 -444q-4 -21 12 -21q9 0 24 6z" />
    <glyph glyph-name="m.ord" horiz-adv-x="610" 
d="M199 352l-61 -4l57 311l-38 5l5 32q38 8 71 8q31 0 25 -29l-2 -12q55 41 113 41q61 0 74 -50q63 50 125 50q47 0 66 -28.5t10 -78.5l-35 -191q-4 -21 13 -21q9 0 24 6l-1 -29q-35 -15 -60 -15q-47 0 -39 49l36 200q11 67 -44 67q-50 0 -91 -38q0 -13 -3 -28l-44 -245
l-61 -4l44 248q13 67 -43 67q-49 0 -91 -37z" />
    <glyph glyph-name="n.ord" horiz-adv-x="431" 
d="M199 352l-61 -4l57 311l-38 5l5 32q38 8 71 8q31 0 25 -29l-2 -11q57 40 120 40q52 0 74 -30.5t12 -83.5l-33 -184q-4 -21 13 -21q9 0 24 6v-29q-36 -15 -61 -15q-46 0 -38 49l35 192q6 35 -7.5 55t-47.5 20q-53 0 -98 -37z" />
    <glyph glyph-name="o.ord" horiz-adv-x="387" 
d="M134 525q15 83 65.5 131t122.5 48q70 0 103.5 -48.5t18.5 -130.5q-16 -83 -66 -131t-121 -48q-72 0 -105.5 48.5t-17.5 130.5zM195 525q-12 -64 6.5 -101t62.5 -37q43 0 75 37t44 101t-6.5 101t-61.5 37q-44 0 -76 -37t-44 -101z" />
    <glyph glyph-name="p.ord" horiz-adv-x="402" 
d="M168 177l-62 -4l89 486l-38 5l5 32q38 8 71 8q31 0 25 -29l-2 -8q46 37 97 37q63 0 93 -48.5t14 -130.5q-14 -82 -62.5 -130.5t-116.5 -48.5q-47 0 -79 19zM331 663q-48 0 -82 -34l-40 -222q27 -20 66 -20q47 0 79.5 36.5t44.5 101.5q11 64 -7 101t-61 37z" />
    <glyph glyph-name="q.ord" horiz-adv-x="394" 
d="M361 177l-62 -4l37 208q-46 -35 -96 -35q-62 0 -91.5 49t-14.5 130q15 83 66 131t131 48q77 0 119 -39zM263 387q48 0 81 34l41 227q-26 16 -64 16q-50 0 -82.5 -36t-43.5 -102q-12 -65 6 -102t62 -37z" />
    <glyph glyph-name="r.ord" horiz-adv-x="289" 
d="M199 352l-61 -4l57 311l-38 5l5 32q38 8 71 8q31 0 25 -29l-6 -31q55 61 127 61l-17 -58q-6 3 -20 3q-57 0 -98 -51z" />
    <glyph glyph-name="s.ord" horiz-adv-x="320" 
d="M214 618q-5 -24 10 -39t39 -23.5t48 -19t37.5 -32.5t7.5 -56q-8 -46 -44 -74t-96 -28q-58 0 -103 26l13 70l43 3l-5 -48q24 -14 56 -14q34 0 54.5 15t24.5 40q4 24 -10.5 40t-38 25t-47 19.5t-37.5 32t-8 54.5q8 44 40.5 69.5t84.5 25.5q56 0 97 -25l-12 -71l-43 -3l4 50
q-26 12 -50 12q-56 0 -65 -49z" />
    <glyph glyph-name="t.ord" horiz-adv-x="277" 
d="M147 661l8 35l48 3l21 78l54 7l-15 -84h97l-10 -39h-94l-39 -216q-11 -58 39 -58q26 0 47 13l8 -29q-36 -25 -77 -25q-45 0 -66 26t-13 73l39 216h-47z" />
    <glyph glyph-name="u.ord" horiz-adv-x="427" 
d="M463 391l-1 -29q-34 -15 -61 -15q-41 0 -38 40q-58 -41 -122 -41q-50 0 -71.5 30.5t-12.5 83.5l36 199l-36 5l5 32q38 8 70 8t26 -29l-39 -213q-13 -75 52 -75q55 0 98 37l50 274l61 4l-54 -296q-4 -21 12 -21q10 0 25 6z" />
    <glyph glyph-name="uacute.ord" horiz-adv-x="427" 
d="M463 391l-1 -29q-34 -15 -61 -15q-41 0 -38 40q-58 -41 -122 -41q-50 0 -71.5 30.5t-12.5 83.5l36 199l-36 5l5 32q38 8 70 8t26 -29l-39 -213q-13 -75 52 -75q55 0 98 37l50 274l61 4l-54 -296q-4 -21 12 -21q10 0 25 6zM307 751l-9 25l133 91l16 -37z" />
    <glyph glyph-name="v.ord" horiz-adv-x="405" 
d="M434 700h67l-201 -350h-55l-63 308l-39 5l3 32q38 8 64 8q27 0 30 -29l44 -262z" />
    <glyph glyph-name="w.ord" horiz-adv-x="604" 
d="M632 700h65l-193 -350h-54l-35 257l-124 -257h-54l-56 308l-38 5l3 32q38 8 65 8t30 -29l35 -254l130 280h49l35 -281z" />
    <glyph glyph-name="x.ord" horiz-adv-x="385" 
d="M163 350h-68l151 182l-59 126l-39 5l3 32q32 8 57 8q17 0 24 -6.5t13 -22.5l49 -112l116 138h67l-149 -172l62 -136l39 -5l-3 -32q-32 -8 -58 -8q-16 0 -23 6.5t-14 22.5l-52 122z" />
    <glyph glyph-name="y.ord" horiz-adv-x="401" 
d="M430 700h65l-236 -419q-34 -61 -61.5 -85.5t-62.5 -24.5q-42 0 -67 28l20 30q16 -17 40 -17q20 0 36.5 15.5t38.5 53.5l39 69l-61 308l-39 5l3 32q38 8 62 8q29 0 32 -29l43 -260z" />
    <glyph glyph-name="z.ord" horiz-adv-x="336" 
d="M155 611l16 89h251l-4 -24l-238 -286h144l12 46l39 3l-16 -89h-258l4 24l236 286h-136l-12 -46z" />
    <glyph glyph-name="germandbls.smcp" horiz-adv-x="528" 
d="M332 275q-5 -27 11.5 -43t43 -24.5t53 -18t42 -31t9.5 -56.5q-9 -48 -48.5 -77t-106.5 -29q-65 0 -115 28l14 76l50 4l-5 -54q26 -11 60 -11q36 0 57 15t25 39q5 23 -11.5 38t-42.5 23.5t-51.5 19.5t-41 34.5t-8.5 60.5q6 34 29 58.5t46 46.5t28 49q5 26 -9 42t-48 16
q-68 0 -79 -65l-76 -416h-117l7 42l46 10l51 277h-46l10 42l44 3l10 60q17 95 155 95q72 0 100.5 -30.5t20.5 -74.5q-5 -32 -29.5 -56t-48.5 -46t-29 -47z" />
    <glyph glyph-name="zero.sup" horiz-adv-x="301" 
d="M127 525q15 82 56 130t95 48t77.5 -48t8.5 -130t-56 -130t-95 -48t-77.5 48t-8.5 130zM180 525q-13 -67 -2 -105t42 -38q30 0 54 38t37 105q12 66 1 104.5t-41 38.5t-54 -38.5t-37 -104.5z" />
    <glyph glyph-name="one.sup" horiz-adv-x="198" 
d="M96 350l6 30l42 7l50 278h-43l3 28q31 10 72 10q14 0 20.5 -5t4.5 -18l-55 -300h37l-6 -30h-131z" />
    <glyph glyph-name="two.sup" horiz-adv-x="281" 
d="M326 424l-14 -74h-213l4 26q152 152 171 176q23 28 28 52q6 31 -8.5 47.5t-45.5 16.5q-25 0 -58 -15l-12 -51l-34 2l15 72q48 27 100 27q54 0 78 -26.5t16 -72.5q-6 -34 -36.5 -70t-146.5 -149h113l11 36z" />
    <glyph glyph-name="three.sup" horiz-adv-x="285" 
d="M258 703q50 0 75 -24.5t18 -67.5q-9 -61 -69 -81q66 -19 54 -86q-8 -44 -47.5 -70.5t-93.5 -26.5q-55 0 -94 31l23 27q31 -23 70 -23q33 0 58 18t31 49q4 28 -11 45t-42 17h-38l9 33h22q29 0 49.5 17t25.5 46q5 28 -7.5 44.5t-42.5 16.5q-29 0 -55 -16l-12 -45l-33 2
l12 64q44 30 98 30z" />
    <glyph glyph-name="four.sup" horiz-adv-x="292" 
d="M294 350h-49l15 82h-147l4 20l129 248l50 -1l-122 -234h92l24 135l50 -1l-25 -134h33l-8 -33h-31z" />
    <glyph glyph-name="five.sup" horiz-adv-x="284" 
d="M357 700l-12 -71l-35 -3l5 40h-88l-29 -109h45q51 0 77.5 -29t17.5 -76q-9 -50 -48.5 -77.5t-94.5 -27.5t-94 31l23 27q31 -23 69 -23q34 0 59 19.5t32 52.5q5 30 -9.5 49.5t-42.5 19.5h-85l44 177h166z" />
    <glyph glyph-name="six.sup" horiz-adv-x="291" 
d="M330 704l20 -23q-4 -1 -12 -2.5t-29.5 -11t-40.5 -22.5t-41 -39.5t-36 -59.5q38 20 76 20q44 0 65.5 -30t13.5 -80q-9 -51 -44 -80t-88 -29q-118 0 -92 143q10 55 35 97t53.5 63t56 34.5t45.5 16.5zM246 531q-36 0 -67 -25q-2 -6 -4 -18q-19 -106 46 -106q58 0 71 73
q7 35 -6 55.5t-40 20.5z" />
    <glyph glyph-name="seven.sup" horiz-adv-x="288" 
d="M151 626l13 74h216l-4 -20l-167 -330h-50l160 316h-124l-10 -37z" />
    <glyph glyph-name="eight.sup" horiz-adv-x="297" 
d="M361 614q-10 -53 -61 -84q55 -29 45 -86q-9 -45 -43 -71t-91 -26t-82.5 25.5t-16.5 68.5q10 57 72 90q-42 29 -32 79q8 42 40 67.5t83 25.5q49 0 71.5 -23.5t14.5 -65.5zM288 439q3 15 -0.5 26.5t-16 20.5t-21 13.5t-28.5 12.5q-52 -27 -60 -71q-5 -26 8.5 -42.5
t45.5 -16.5q62 0 72 57zM206 618q-5 -27 10 -41.5t47 -28.5q44 25 52 65q4 24 -7.5 39.5t-38.5 15.5q-55 0 -63 -50z" />
    <glyph glyph-name="nine.sup" horiz-adv-x="292" 
d="M146 346l-19 23q5 0 13 1.5t31 10.5t42.5 22.5t42 41t35.5 63.5q-38 -21 -75 -21q-45 0 -67.5 29.5t-13.5 78.5q9 50 44 79t88 29q118 0 92 -147q-10 -56 -35.5 -98.5t-55 -62.5t-57.5 -32.5t-47 -14.5zM237 522q37 0 66 25l2 11q10 54 -2.5 82t-42.5 28q-29 0 -47 -19.5
t-23 -52.5q-7 -35 6 -54.5t41 -19.5z" />
    <glyph glyph-name="comma.sup" horiz-adv-x="130" 
d="M114 392l48 12q4 -21 0 -44q-10 -61 -63 -88l-17 26q26 21 34 58q4 19 -2 36z" />
    <glyph glyph-name="period.sup" horiz-adv-x="131" 
d="M101 379q3 15 14 24.5t25 9.5t21.5 -9.5t5.5 -24.5q-2 -14 -13.5 -23t-26.5 -9q-13 0 -20.5 9t-5.5 23z" />
    <glyph glyph-name="parenleft.sup" horiz-adv-x="187" 
d="M291 725l-8 -28q-12 0 -26.5 -14t-35.5 -67.5t-37 -140.5q-19 -93 -15 -142t13 -64.5t23 -15.5l-8 -28q-13 0 -24.5 5t-24 21.5t-19 42.5t-5.5 73t12 108q14 76 34.5 129t43 77.5t41 34t36.5 9.5z" />
    <glyph glyph-name="parenright.sup" horiz-adv-x="186" 
d="M67 225l8 28q13 0 27 14t35 67.5t37 140.5q19 93 15 142t-13 64.5t-22 15.5l7 28q13 0 24.5 -5t24 -21.5t19 -42.5t5.5 -73t-12 -108q-14 -76 -34.5 -129t-43 -77.5t-41 -34t-36.5 -9.5z" />
    <glyph glyph-name="hyphen.sup" horiz-adv-x="162" 
d="M113 474l8 30h105l-8 -30h-105z" />
    <glyph glyph-name="zero.sub" horiz-adv-x="301" 
d="M54 125q15 82 56 130t96 48q54 0 77.5 -48t8.5 -130t-56 -130t-95 -48q-55 0 -78.5 48t-8.5 130zM108 125q-12 -67 -2 -105t41 -38q30 0 54.5 38.5t36.5 104.5q13 66 2 104.5t-41 38.5t-54 -38.5t-37 -104.5z" />
    <glyph glyph-name="one.sub" horiz-adv-x="199" 
d="M24 -50l5 30l43 6l49 279h-43l3 28q31 10 73 10q14 0 20 -5t4 -18l-55 -300h37l-5 -30h-131z" />
    <glyph glyph-name="two.sub" horiz-adv-x="281" 
d="M253 24l-13 -74h-213l4 26q152 153 169 174q25 30 30 54q6 31 -9 47.5t-46 16.5q-23 0 -58 -15l-12 -51l-33 2l14 72q48 27 101 27q54 0 78 -26.5t16 -72.5q-7 -34 -37 -70t-146 -150h113l10 37z" />
    <glyph glyph-name="three.sub" horiz-adv-x="286" 
d="M186 303q50 0 75.5 -25t17.5 -67q-11 -61 -70 -81q67 -20 55 -86q-8 -44 -48 -70.5t-94 -26.5q-55 0 -93 31l23 27q29 -23 69 -23q34 0 58.5 18t30.5 49q5 28 -10 45t-43 17h-37l8 33h23q28 0 48.5 17t25.5 46q5 28 -7.5 44.5t-41.5 16.5t-56 -16l-11 -45l-34 2l12 64
q46 30 99 30z" />
    <glyph glyph-name="four.sub" horiz-adv-x="292" 
d="M222 -50h-49l15 82h-148l4 20l130 248l49 -1l-122 -234h93l24 135l50 -1l-25 -134h32l-8 -33h-30z" />
    <glyph glyph-name="five.sub" horiz-adv-x="284" 
d="M284 300l-12 -71l-35 -3l6 40h-88l-29 -109h45q50 0 76 -29t18 -76q-9 -50 -48.5 -77.5t-94.5 -27.5t-93 31l23 27q29 -23 69 -23q34 0 59 19.5t32 52.5q5 30 -10 49.5t-43 19.5h-85l44 177h166z" />
    <glyph glyph-name="six.sub" horiz-adv-x="293" 
d="M257 304l20 -23q-4 -1 -12 -2.5t-29 -11t-40 -22.5t-41 -39.5t-35 -59.5q37 20 74 20q44 0 66.5 -30.5t13.5 -79.5q-10 -51 -44.5 -80t-87.5 -29q-119 0 -93 143q10 55 35 97t54 63t56 34.5t45 16.5zM173 131q-36 0 -66 -24l-4 -19q-20 -106 46 -106q28 0 46.5 19.5
t24.5 53.5q6 35 -7 55.5t-40 20.5z" />
    <glyph glyph-name="seven.sub" horiz-adv-x="288" 
d="M79 226l12 74h216l-3 -20l-167 -330h-50l160 316h-124l-10 -37z" />
    <glyph glyph-name="eight.sub" horiz-adv-x="297" 
d="M289 214q-10 -53 -61 -84q54 -29 44 -86q-8 -44 -42.5 -70.5t-91.5 -26.5q-56 0 -81.5 25.5t-17.5 68.5q11 57 73 90q-42 29 -32 79q8 43 40 68t83 25q48 0 71 -23.5t15 -65.5zM216 39q3 15 -1 26.5t-16.5 20.5t-20.5 13t-28 13q-51 -26 -60 -71q-5 -26 8 -42.5t46 -16.5
q62 0 72 57zM134 218q-5 -27 9.5 -41.5t46.5 -28.5q45 26 52 65q4 25 -7 40t-38 15q-55 0 -63 -50z" />
    <glyph glyph-name="nine.sub" horiz-adv-x="292" 
d="M74 -54l-20 23q5 0 13 1.5t31 10.5t43 22.5t42.5 41.5t35.5 64q-37 -22 -76 -22q-45 0 -67 29.5t-13 78.5q9 50 43.5 79t87.5 29q118 0 92 -147q-10 -56 -35.5 -98.5t-55 -62.5t-57 -32.5t-46.5 -14.5zM164 122q37 0 67 26q0 4 2 10q10 54 -2.5 82t-42.5 28
q-29 0 -47 -19.5t-23 -52.5q-7 -36 5.5 -55t40.5 -19z" />
    <glyph glyph-name="comma.sub" horiz-adv-x="131" 
d="M41 -7l48 11q3 -24 0 -44q-9 -60 -64 -88l-16 26q27 21 33 58q5 17 -1 37z" />
    <glyph glyph-name="period.sub" horiz-adv-x="132" 
d="M28 -21q7 33 40 33q14 0 21 -9t5 -24q-2 -14 -13 -23t-26 -9q-14 0 -21.5 9t-5.5 23z" />
    <glyph glyph-name="parenleft.sub" horiz-adv-x="187" 
d="M219 325l-8 -28q-13 0 -27 -14t-35 -67.5t-37 -140.5q-19 -93 -15.5 -142t12.5 -64.5t23 -15.5l-7 -28q-13 0 -24.5 5t-24 21.5t-19 42.5t-5.5 73t12 108q14 76 34.5 129t43 77.5t41 34t36.5 9.5z" />
    <glyph glyph-name="parenright.sub" horiz-adv-x="187" 
d="M-5 -175l8 28q12 0 26.5 14t35.5 67.5t37 140.5q19 93 15 142t-13 64.5t-23 15.5l8 28q13 0 24.5 -5t24 -21.5t19 -42.5t5.5 -73t-12 -108q-14 -76 -34.5 -129t-43 -77.5t-41 -34t-36.5 -9.5z" />
    <glyph glyph-name="hyphen.sub" horiz-adv-x="161" 
d="M40 74l7 30h105l-8 -30h-104z" />
    <glyph glyph-name="zero.smcp" horiz-adv-x="478" 
d="M99 263q22 123 85.5 194.5t149.5 71.5t124.5 -71.5t16.5 -194.5t-86 -195t-150 -72t-124 71.5t-16 195.5zM173 263q-19 -102 1 -160.5t73 -58.5t94 58.5t60 160.5q19 101 -2 159.5t-74 58.5t-93.5 -58.5t-58.5 -159.5z" />
    <glyph glyph-name="one.smcp" horiz-adv-x="307" 
d="M53 0l7 42l68 10l78 424h-73l4 39q48 14 110 14q21 0 30 -7t5 -26l-83 -454h64l-7 -42h-203z" />
    <glyph glyph-name="two.smcp" horiz-adv-x="444" 
d="M413 108l-19 -108h-337l5 35q34 32 92 86q162 152 193 191q29 36 35 69q9 48 -17 74t-77 26q-42 0 -95 -24l-22 -77l-45 4l20 105q76 40 157 40q86 0 125 -39.5t26 -108.5q-9 -52 -58.5 -106t-239.5 -227h196l14 57z" />
    <glyph glyph-name="three.smcp" horiz-adv-x="455" 
d="M307 529q78 0 118 -37t28 -100q-7 -44 -36 -76t-74 -47q50 -13 74 -47t16 -82q-12 -65 -74.5 -104.5t-147.5 -39.5q-90 0 -149 46l32 37q50 -35 116 -35q56 0 97.5 28.5t50.5 75.5q8 43 -18 69t-75 26h-60l12 46h38q48 0 82.5 26.5t41.5 70.5q8 43 -15 69t-70 26
q-54 0 -97 -26l-19 -69l-45 4l16 94q70 45 158 45z" />
    <glyph glyph-name="four.smcp" horiz-adv-x="460" 
d="M361 0h-69l22 125h-236l4 29l207 372l67 -2l-193 -353h159l37 205l69 -2l-37 -203h53l-12 -46h-49z" />
    <glyph glyph-name="five.smcp" horiz-adv-x="452" 
d="M461 525l-19 -105l-47 -3l6 60h-151l-45 -169h80q80 0 121 -43t28 -113q-13 -74 -75.5 -115t-147.5 -41q-90 0 -149 46l32 37q50 -35 115 -35q58 0 99.5 30.5t50.5 80.5q9 47 -16.5 77.5t-74.5 30.5h-135l68 262h260z" />
    <glyph glyph-name="six.smcp" horiz-adv-x="460" 
d="M417 531l26 -32q-7 -1 -19.5 -4t-47.5 -17t-65.5 -34.5t-65.5 -61t-56 -92.5q63 33 124 33q72 0 107 -44.5t22 -119.5q-14 -76 -67 -119.5t-137 -43.5q-187 0 -148 214q15 82 54.5 145.5t84.5 95t88 51.5t71 24zM283 273q-64 0 -113 -38l-6 -29q-28 -162 84 -162
q49 0 80 30.5t40 83.5q10 55 -13 85t-72 30z" />
    <glyph glyph-name="seven.smcp" horiz-adv-x="454" 
d="M136 417l19 108h339l-5 -28l-264 -497h-70l256 477h-213l-15 -57z" />
    <glyph glyph-name="eight.smcp" horiz-adv-x="477" 
d="M473 398q-15 -82 -100 -128q43 -21 63.5 -50.5t11.5 -79.5q-12 -65 -67 -104.5t-145 -39.5q-88 0 -128 38t-28 102q15 87 121 137q-71 43 -56 120q12 62 61 99t128 37q78 0 114 -35t25 -96zM371 133q3 18 -2 34t-11.5 25t-26 20.5t-28.5 15.5t-36 15q-8 3 -12 5
q-92 -40 -105 -112q-8 -41 15.5 -66.5t79.5 -25.5q55 0 87 25t39 64zM219 402q-7 -42 17.5 -64t78.5 -44q80 39 92 102q7 38 -14 61.5t-68 23.5t-73.5 -22.5t-32.5 -56.5z" />
    <glyph glyph-name="nine.smcp" horiz-adv-x="459" 
d="M130 -6l-27 32q8 1 21 3t50 15.5t69 34.5t68 64t56 99q-60 -36 -127 -36q-70 0 -105.5 44.5t-22.5 118.5q14 74 67 117t136 43q85 0 127 -51.5t20 -168.5q-11 -61 -35.5 -112t-54.5 -82.5t-63.5 -55.5t-65 -36t-57 -19t-40.5 -8zM271 256q63 0 112 39q2 6 4 18
q16 84 -6.5 126t-75.5 42q-48 0 -79 -30t-40 -81q-10 -55 13 -84.5t72 -29.5z" />
    <glyph glyph-name="Euro.smcp" horiz-adv-x="533" 
d="M93 293l11 38h45q33 93 103 145.5t163 52.5t147 -45l-18 -98l-48 -3l6 77q-34 21 -78 21q-70 0 -121 -39t-78 -111h193l-11 -38h-194l-6 -30q-2 -11 -4 -31h198l-11 -38h-189q1 -72 37 -111t107 -39q44 0 89 20l22 74l49 4l-19 -101q-74 -45 -165 -45q-95 0 -146 52
t-51 146h-49l11 38h40q1 8 5 31l6 30h-44z" />
    <glyph glyph-name="sterling.smcp" horiz-adv-x="458" 
d="M141 278l17 90q13 74 68 117.5t137 43.5q81 0 127 -45l-18 -98l-48 -3l7 77q-31 21 -67 21q-54 0 -88.5 -30.5t-43.5 -82.5l-17 -88h134l-12 -47h-130l-34 -185h196l14 57l48 3l-19 -108h-372l6 41l54 9l33 183h-49l11 42z" />
    <glyph glyph-name="yen.smcp" horiz-adv-x="568" 
d="M178 180l10 37h100l1 2l-116 256l-54 6l4 38q35 9 79 9q33 0 44 -33l92 -217l165 205h-56l8 42h179l-7 -42l-54 -10l-207 -253l-1 -3h104l-11 -37h-100l-8 -48h104l-11 -37h-100l-10 -53h47l-7 -42h-172l7 42l49 10l8 43h-103l10 37h100l9 48h-103z" />
    <glyph glyph-name="uni20B4.smcp" horiz-adv-x="431" 
d="M86 233h339l-11 -39h-223q-37 -37 -44 -73q-6 -35 17.5 -56t78.5 -21q76 0 138 38l14 -37q-78 -49 -176 -49q-84 0 -120.5 33.5t-26.5 87.5q6 41 41 77h-39zM432 292h-340l11 39h219q52 36 60 80q5 31 -15.5 50.5t-65.5 19.5q-69 0 -129 -34l-14 37q67 45 163 45
q75 0 108.5 -31.5t24.5 -81.5q-8 -48 -53 -85h42z" />
    <glyph glyph-name="numbersign.smcp" horiz-adv-x="502" 
d="M125 343l11 41h79l46 139l47 4l-47 -143h155l46 139l46 4l-47 -143h67l-12 -41h-69l-53 -161h77l-12 -41h-78l-46 -139l-47 -4l47 143h-154l-46 -139l-48 -4l47 143h-66l11 41h69l53 161h-76zM247 343l-53 -161h155l53 161h-155z" />
    <glyph glyph-name="exclam.smcp" horiz-adv-x="199" 
d="M60 42q3 20 19 33t36 13t31 -13t8 -33t-19 -33t-37 -13q-20 0 -31 13t-7 33zM147 146l-43 4l20 185l35 192l70 -4l-35 -188z" />
    <glyph glyph-name="ampersand.smcp" horiz-adv-x="551" 
d="M527 224q-17 -87 -90 -151q42 -32 67 -32q12 0 27 6l-1 -34q-30 -16 -63 -16q-36 0 -77 41q-71 -42 -158 -42q-84 0 -125 39.5t-28 113.5q18 98 132 150q-18 67 -9 115q21 115 154 115q65 0 92.5 -29t18.5 -78q-3 -16 -10 -30.5t-13.5 -25t-21.5 -22t-21.5 -17
t-27.5 -15.5t-26.5 -12.5t-31 -13t-28.5 -11.5q40 -93 110 -165q45 36 58 102l-41 6l4 38q45 9 79 9q21 0 27.5 -9.5t2.5 -31.5zM236 44q56 0 113 33q-75 68 -119 171q-68 -39 -80 -105q-8 -45 13 -72t73 -27zM264 409q-7 -37 6 -86q33 13 48 19.5t37.5 19.5t33 28t14.5 34
q4 25 -9.5 41t-46.5 16q-70 0 -83 -72z" />
    <glyph glyph-name="slash.smcp" horiz-adv-x="303" 
d="M64 -41l-38 10l335 597l38 -9z" />
    <glyph glyph-name="backslash.smcp" horiz-adv-x="300" 
d="M260 -28l-42 -17l-118 598l40 17z" />
    <glyph glyph-name="at.smcp" horiz-adv-x="676" 
d="M517 113q-59 0 -77 36q-46 -38 -97 -38q-55 0 -82 42t-14 109q12 70 58 111t118 41q71 0 108 -34l-35 -191q-4 -17 6.5 -26.5t28.5 -9.5q28 0 52.5 26.5t35.5 86.5q19 103 -31 163t-159 60q-110 0 -182.5 -60t-92.5 -167q-20 -106 32 -166t165 -60q114 0 190 55l22 -27
q-93 -68 -223 -68q-135 0 -199 71.5t-42 195.5q23 123 112.5 194.5t223.5 71.5t197.5 -71t42.5 -187q-16 -84 -60 -121t-98 -37zM436 186l32 177q-22 12 -53 12q-88 0 -109 -112q-10 -53 6 -82.5t53 -29.5q41 0 70 27q0 5 1 8z" />
    <glyph glyph-name="parenleft.smcp" horiz-adv-x="290" 
d="M350 563l-11 -40q-14 0 -30.5 -10t-37 -35.5t-40.5 -81t-34 -133.5q-12 -64 -14 -113t3.5 -76t16.5 -44t22 -22.5t23 -5.5l-12 -40q-19 0 -37 6.5t-38.5 25t-30.5 52t-13.5 87t12.5 130.5q17 91 45 154.5t61 93t60.5 41t54.5 11.5z" />
    <glyph glyph-name="parenright.smcp" horiz-adv-x="289" 
d="M35 -38l10 40q14 0 30.5 10t37 35.5t41 81t34.5 134.5q12 64 14 112.5t-3.5 75.5t-16.5 44t-22 22.5t-23 5.5l11 40q20 0 38 -6.5t38.5 -25t30.5 -51.5t13.5 -86.5t-12.5 -130.5q-13 -74 -35 -130t-45 -87.5t-50.5 -51.5t-48.5 -26t-42 -6z" />
    <glyph glyph-name="bracketleft.smcp" horiz-adv-x="298" 
d="M358 563l-12 -40h-96l-95 -521h100l-12 -40h-161l109 601h167z" />
    <glyph glyph-name="bracketright.smcp" horiz-adv-x="297" 
d="M35 -38l10 40h95l95 521h-98l11 40h163l-110 -601h-166z" />
    <glyph glyph-name="braceleft.smcp" horiz-adv-x="279" 
d="M121 85l18 95q5 29 -9.5 45t-44.5 16l12 43q59 0 72 61l17 95q12 67 49.5 97t104.5 30l-11 -42q-28 0 -47 -16.5t-24 -44.5l-18 -98q-13 -70 -71 -104q46 -32 33 -102l-18 -99q-5 -29 9 -45t44 -16l-12 -42q-65 0 -90.5 30t-13.5 97z" />
    <glyph glyph-name="braceright.smcp" horiz-adv-x="279" 
d="M252 440l-18 -95q-5 -29 9 -45t44 -16l-10 -43q-28 0 -47 -16t-24 -45l-18 -95q-13 -66 -50.5 -96.5t-104.5 -30.5l13 42q27 0 46 16.5t24 45.5l18 97q12 68 70 104q-46 33 -33 102l18 99q6 29 -8 45t-44 16l11 42q66 0 91.5 -30.5t12.5 -96.5z" />
    <glyph glyph-name="exclamdown.smcp" horiz-adv-x="198" 
d="M234 483q-3 -20 -19 -33t-37 -13q-19 0 -30 13t-8 33q4 20 19.5 33t34.5 13q21 0 32.5 -13t7.5 -33zM145 379l44 -4l-20 -185l-36 -192l-69 4l35 188z" />
    <glyph glyph-name="questiondown.smcp" horiz-adv-x="406" 
d="M383 136l-18 -105q-69 -35 -149 -35t-115.5 36.5t-25.5 94.5q10 57 53.5 95.5t102.5 60.5l25 96l43 -4l-14 -126q-50 -19 -88.5 -51t-46.5 -74q-6 -35 13.5 -57.5t65.5 -22.5q44 0 87 19l21 76zM345 483q-4 -20 -19.5 -33t-37.5 -13q-19 0 -29.5 13t-7.5 33q4 20 18.5 33
t34.5 13q22 0 33 -13t8 -33z" />
    <glyph glyph-name="question.smcp" horiz-adv-x="406" 
d="M136 494q67 35 148 35q80 0 116 -36.5t25 -94.5q-19 -106 -156 -156l-24 -96l-43 4l13 126q51 19 89.5 51.5t46.5 73.5q6 35 -14 57.5t-67 22.5q-38 0 -85 -19l-21 -76l-47 3zM156 42q4 20 20 33t35 13q20 0 31.5 -13t8.5 -33q-4 -20 -20 -33t-36 -13t-31 13t-8 33z" />
    <glyph glyph-name="bar.smcp" horiz-adv-x="218" 
d="M128 -35l-40 -4v599l40 4v-599z" />
    <glyph glyph-name="brokenbar.smcp" horiz-adv-x="218" 
d="M128 -35l-40 -4v262l40 4v-262zM128 302l-40 -4v262l40 4v-262z" />
    <glyph glyph-name="percent.smcp" horiz-adv-x="681" 
d="M202 -5l-35 18l406 517l35 -18zM118 400q10 60 54 94.5t107 34.5t93.5 -34.5t19.5 -94.5q-10 -60 -53.5 -95t-106.5 -35t-93.5 35t-20.5 95zM176 400q-8 -41 9 -65t54 -24t63.5 24t33.5 65t-10 64.5t-54 23.5q-38 0 -63.5 -23.5t-32.5 -64.5zM384 125q10 60 53.5 95
t105.5 35q64 0 94.5 -35t19.5 -95q-10 -60 -53.5 -94.5t-106.5 -34.5q-64 0 -94 34.5t-19 94.5zM439 125q-7 -41 10.5 -64.5t53.5 -23.5q38 0 64 23.5t33 64.5q8 41 -9.5 65t-54.5 24t-63.5 -24t-33.5 -65z" />
    <glyph glyph-name="perthousand.smcp" horiz-adv-x="992" 
d="M202 -5l-35 18l406 517l35 -18zM118 400q10 60 54 94.5t107 34.5t93.5 -34.5t19.5 -94.5q-10 -60 -53.5 -95t-106.5 -35t-93.5 35t-20.5 95zM176 400q-8 -41 9 -65t54 -24t63.5 24t33.5 65t-10 64.5t-54 23.5q-38 0 -63.5 -23.5t-32.5 -64.5zM384 125q10 60 53.5 95
t105.5 35q64 0 94.5 -35t19.5 -95q-10 -60 -53.5 -94.5t-106.5 -34.5q-64 0 -94 34.5t-19 94.5zM439 125q-7 -41 10.5 -64.5t53.5 -23.5q38 0 64 23.5t33 64.5q8 41 -9.5 65t-54.5 24t-63.5 -24t-33.5 -65zM695 125q10 60 54 95t107 35q62 0 92.5 -35t20.5 -95t-53.5 -94.5
t-107.5 -34.5q-63 0 -93.5 34.5t-19.5 94.5zM752 125q-7 -41 10 -64.5t54 -23.5t63 23.5t33 64.5t-10 65t-54 24t-63 -24t-33 -65z" />
    <glyph glyph-name="dagger.smcp" horiz-adv-x="367" 
d="M107 354l11 41h116l24 128l42 4l-25 -132h120l-11 -41h-116l-64 -352l-42 -5l65 357h-120z" />
    <glyph glyph-name="daggerdbl.smcp" horiz-adv-x="366" 
d="M65 129l12 42h116l33 183h-120l11 41h116l24 128l42 4l-25 -132h120l-11 -41h-116l-33 -183h120l-12 -42h-115l-24 -127l-42 -5l24 132h-120z" />
    <glyph glyph-name="section.smcp" horiz-adv-x="432" 
d="M107 258l69 9q-5 -30 17.5 -50.5t57.5 -32t70 -24.5t57 -36.5t16 -59.5q-9 -47 -59 -76.5t-137 -29.5q-88 0 -152 40l19 105l47 3l-7 -72q39 -27 94 -27q52 0 82.5 18.5t34.5 45.5q5 25 -17 41t-56 26t-67.5 22t-54.5 36.5t-14 61.5zM415 226l-73 -9q6 31 -16 51.5
t-57 33l-70 25t-56.5 37t-14.5 60.5q9 49 55 77t126 28q84 0 138 -35l-19 -105l-47 -3l7 75q-38 20 -82 20q-47 0 -74 -17.5t-31 -42.5q-5 -25 18 -41.5t57.5 -27t69 -23t55.5 -38.5t14 -65z" />
    <glyph glyph-name="paragraph.smcp" horiz-adv-x="396" 
d="M308 2l-65 -5l42 233h-26q-80 0 -121 40t-28 108t67.5 107.5t134.5 39.5h139l-7 -42l-50 -10z" />
    <glyph glyph-name="afii61352.smcp" horiz-adv-x="859" 
d="M260 500l186 -370l65 353h-47l8 42h160l-8 -42l-50 -10l-85 -473h-67l-193 395l-66 -353h47l-8 -42h-161l7 42l50 10l77 424l-46 6l5 39q43 8 84 8q29 0 42 -29zM638 394q10 62 50.5 98t99.5 36q56 0 83 -36t17 -98q-11 -62 -51.5 -98t-98.5 -36q-57 0 -84 36t-16 98z
M691 394q-8 -47 6 -73t48 -26q33 0 57.5 26.5t32.5 72.5t-6.5 72.5t-47.5 26.5t-57.5 -27t-32.5 -72z" />
    <glyph glyph-name="afii10017.smcp" horiz-adv-x="601" 
d="M431 495l99 -453h48l-7 -42h-177l7 42l47 10l-19 100h-208l-62 -110h49l-6 -42h-172l6 42l48 10l247 424l-46 5l6 38q46 9 96 9q37 0 44 -33zM376 444l-133 -244h179z" />
    <glyph glyph-name="afii10018.smcp" horiz-adv-x="483" 
d="M40 0l6 42l50 10l78 431h-46l8 42h362l-19 -105l-46 -3l6 62h-188l-34 -184h100q83 0 123 -39.5t27 -108.5q-12 -68 -66.5 -107.5t-137.5 -39.5h-223zM304 248h-94l-38 -202h94q49 0 82.5 27.5t41.5 73.5q8 47 -15 74t-71 27z" />
    <glyph glyph-name="afii10019.smcp" horiz-adv-x="495" 
d="M136 525h201q83 0 125.5 -36.5t32.5 -98.5q-15 -86 -111 -119q50 -13 74.5 -47.5t14.5 -83.5q-11 -65 -68 -102.5t-140 -37.5h-225l6 42l50 10l78 431h-46zM310 245h-101l-37 -199h100q48 0 83 27t43 72q8 46 -16.5 73t-71.5 27zM331 479h-80l-35 -188h80q48 0 81.5 25
t40.5 68q8 44 -15.5 69.5t-71.5 25.5z" />
    <glyph glyph-name="afii10020.smcp" horiz-adv-x="444" 
d="M40 0l6 42l50 10l78 431h-46l8 42h357l-19 -105l-46 -3l6 62h-183l-80 -437h64l-6 -42h-189z" />
    <glyph glyph-name="afii10021.smcp" horiz-adv-x="583" 
d="M60 46h21q24 0 42.5 28t43.5 101l104 303l-49 6l5 37q60 4 92 4h306l-8 -42l-50 -10l-77 -427h32q18 0 23.5 -10t1.5 -34q-16 -74 -30 -113l-46 -3l14 114h-391l-29 -110l-51 -4l28 157zM233 163q-32 -89 -55 -117h234l79 433h-148z" />
    <glyph glyph-name="afii10022.smcp" horiz-adv-x="468" 
d="M40 0l6 42l50 10l78 431h-46l8 42h380l-19 -105l-46 -3l6 62h-206l-34 -186h153l11 40l47 4l-25 -132l-46 -4l4 44h-152l-36 -197h208l15 57l46 3l-19 -108h-383z" />
    <glyph glyph-name="afii10023.smcp" horiz-adv-x="468" 
d="M40 0l6 42l50 10l78 431h-46l8 42h380l-19 -105l-46 -3l6 62h-206l-34 -186h153l11 40l47 4l-25 -132l-46 -4l4 44h-152l-36 -197h208l15 57l46 3l-19 -108h-383zM238 593q2 16 15 27t30 11q16 0 25 -10.5t7 -27.5q-3 -16 -16.5 -27t-29.5 -11q-15 0 -24.5 11t-6.5 27z
M384 593q3 16 16 27t29 11q17 0 26 -10.5t6 -27.5q-2 -16 -15 -27t-29 -11q-17 0 -26 11t-7 27z" />
    <glyph glyph-name="afii10024.smcp" horiz-adv-x="802" 
d="M412 259l41 224h-53l8 42h174l-8 -42l-53 -7l-39 -217l238 224h-53l7 42h178l-8 -42l-60 -10l-166 -159l102 -264l55 -6l-3 -38q-46 -9 -83 -9q-29 0 -40 33l-88 238l-90 -79l-28 -147h51l-6 -42h-177l7 42l56 10l26 137l-63 79l-175 -238q-22 -33 -52 -33q-39 0 -78 9
l9 38l58 6l198 264l-111 159l-54 10l7 42h178l-8 -42h-52z" />
    <glyph glyph-name="afii10025.smcp" horiz-adv-x="471" 
d="M316 529q81 0 123 -37.5t30 -100.5q-15 -88 -110 -120q50 -13 74.5 -47.5t15.5 -82.5q-12 -67 -75 -106t-154 -39q-97 0 -154 45l17 101l50 -4l-7 -70q45 -24 100 -24q58 0 98 28t49 75q8 44 -17.5 71t-74.5 27h-71l12 46h50q48 0 80.5 25.5t40.5 69.5q8 43 -16 69
t-74 26q-57 0 -103 -26l-19 -72l-47 3l17 98q72 45 165 45z" />
    <glyph glyph-name="afii10026.smcp" horiz-adv-x="571" 
d="M626 525l-7 -42l-49 -10l-79 -431h47l-7 -42h-172l7 42l50 10l58 321l-300 -314l-3 -17h48l-7 -42h-172l6 42l50 10l78 431h-46l8 42h172l-8 -42l-50 -10l-60 -321l300 314l4 17h-46l8 42h170z" />
    <glyph glyph-name="afii10027.smcp" horiz-adv-x="571" 
d="M460 642l54 -9q-30 -79 -128 -79q-99 0 -101 79l58 9q1 -44 50 -44t67 44zM626 525l-7 -42l-49 -10l-79 -431h47l-7 -42h-172l7 42l50 10l58 321l-300 -314l-3 -17h48l-7 -42h-172l6 42l50 10l78 431h-46l8 42h172l-8 -42l-50 -10l-60 -321l300 314l4 17h-46l8 42h170z
" />
    <glyph glyph-name="afii10028.smcp" horiz-adv-x="535" 
d="M308 525l-8 -42l-52 -7l-40 -213l241 220h-52l8 42h178l-8 -42l-60 -10l-172 -162l110 -261l55 -6l-4 -38q-44 -9 -83 -9q-27 0 -41 33l-96 234l-88 -75l-27 -147h52l-7 -42h-179l6 42l56 10l79 431h-52l7 42h177z" />
    <glyph glyph-name="afii10029.smcp" horiz-adv-x="571" 
d="M29 18l14 34q16 -10 34 -10q26 0 46.5 30.5t45.5 102.5l104 303l-48 6l4 37q60 4 93 4h304l-7 -42l-50 -10l-78 -431h48l-8 -42h-170l6 42l49 10l78 427h-148l-110 -316q-30 -88 -60.5 -127t-77.5 -39q-38 0 -69 21z" />
    <glyph glyph-name="afii10030.smcp" horiz-adv-x="700" 
d="M623 525h134l-8 -42l-52 -10l-78 -431h48l-7 -42h-169l6 42l52 10l67 364l-225 -305h-42l-112 305l-69 -374h49l-7 -42h-171l7 42l52 10l77 424l-46 6l4 39q46 8 95 8q35 0 47 -31l113 -289z" />
    <glyph glyph-name="afii10031.smcp" horiz-adv-x="580" 
d="M635 525l-7 -42l-50 -10l-79 -431h47l-7 -42h-171l7 42l50 10l36 193h-252l-38 -203h48l-7 -42h-172l6 42l50 10l78 431h-46l8 42h172l-8 -42l-50 -10l-33 -181h253l34 191h-48l7 42h172z" />
    <glyph glyph-name="afii10032.smcp" horiz-adv-x="564" 
d="M101 263q22 123 96.5 194.5t179.5 71.5q106 0 155 -71.5t27 -194.5t-97.5 -195t-180.5 -72t-153.5 71.5t-26.5 195.5zM178 263q-19 -102 11 -160.5t101 -58.5t122 58.5t70 160.5q19 101 -11.5 159.5t-101.5 58.5q-70 0 -121 -58.5t-70 -159.5z" />
    <glyph glyph-name="afii10033.smcp" horiz-adv-x="567" 
d="M622 525l-7 -42l-49 -10l-79 -431h47l-7 -42h-171l7 42l49 10l77 427h-238l-80 -437h48l-7 -42h-172l6 42l50 10l78 431h-46l8 42h486z" />
    <glyph glyph-name="afii10034.smcp" horiz-adv-x="479" 
d="M40 0l6 42l50 10l78 431h-46l8 42h210q82 0 124.5 -40t29.5 -107q-12 -69 -68.5 -108.5t-139.5 -39.5h-86l-35 -188h64l-6 -42h-189zM336 479h-85l-37 -202h86q49 0 83 27t42 74q8 46 -16 73.5t-73 27.5z" />
    <glyph glyph-name="afii10035.smcp" horiz-adv-x="503" 
d="M457 41q-75 -45 -166 -45q-111 0 -161.5 71.5t-28.5 195.5q22 123 98 194.5t186 71.5q93 0 147 -45l-19 -98l-47 -3l7 77q-36 21 -79 21q-85 0 -141 -57.5t-75 -160.5q-19 -102 16 -160.5t120 -58.5q43 0 90 20l21 74l50 4z" />
    <glyph glyph-name="afii10036.smcp" horiz-adv-x="519" 
d="M502 417l6 62h-123l-81 -437h47l-6 -42h-172l7 42l50 10l78 427h-123l-16 -59l-47 -3l19 108h426l-19 -105z" />
    <glyph glyph-name="afii10037.smcp" horiz-adv-x="558" 
d="M276 149l-108 326l-49 6l5 38q50 9 76 9q33 0 42 -33l78 -279l173 267h-50l8 42h173l-8 -42l-52 -10l-228 -341q-50 -75 -88 -105.5t-81 -30.5q-54 0 -82 31l25 39q21 -17 50 -17t55.5 24.5t60.5 75.5z" />
    <glyph glyph-name="afii10038.smcp" horiz-adv-x="665" 
d="M375 443l7 42h-47l8 40h171l-8 -40l-50 -9l-5 -33h22q102 0 152.5 -48t34.5 -132t-83.5 -132.5t-168.5 -48.5h-23l-7 -42h46l-6 -40h-170l6 40l48 9l7 33h-22q-102 0 -152 48t-34 133q15 84 82.5 132t169.5 48h22zM367 397h-23q-66 0 -110.5 -36t-56.5 -98
q-11 -63 20 -99t98 -36h22zM443 397l-50 -269h23q66 0 111 36.5t56 98.5q12 62 -19.5 98t-98.5 36h-22z" />
    <glyph glyph-name="afii10039.smcp" horiz-adv-x="569" 
d="M34 0l7 42l55 10l188 218l-104 205l-54 6l4 38q35 9 79 9q30 0 43 -33l91 -185l153 173h-54l7 42h179l-7 -42l-54 -10l-183 -207l105 -216l53 -6l-4 -38q-35 -9 -79 -9q-18 0 -27 7.5t-16 25.5l-93 195l-156 -183h54l-7 -42h-180z" />
    <glyph glyph-name="afii10040.smcp" horiz-adv-x="575" 
d="M40 0l6 42l50 10l78 431h-46l8 42h172l-8 -42l-50 -10l-78 -427h233l80 437h-48l8 42h172l-8 -42l-49 -10l-77 -427h31q33 0 26 -44q-14 -66 -30 -113l-45 -3l12 114h-437z" />
    <glyph glyph-name="afii10041.smcp" horiz-adv-x="541" 
d="M245 473l-19 -106q-10 -57 11.5 -82t76.5 -25q65 0 114 28l36 195h-48l8 42h172l-7 -42l-50 -10l-79 -431h47l-7 -42h-172l7 42l50 10l36 195q-69 -36 -145 -36q-156 0 -128 152l22 120h-47l8 42h172l-7 -42z" />
    <glyph glyph-name="afii10042.smcp" horiz-adv-x="828" 
d="M40 0l6 42l50 10l78 431h-46l8 42h172l-8 -42l-50 -10l-78 -427h211l79 437h-46l7 42h172l-8 -42l-50 -10l-77 -427h211l79 437h-47l8 42h172l-7 -42l-50 -10l-78 -431h41l-7 -42h-742z" />
    <glyph glyph-name="afii10043.smcp" horiz-adv-x="841" 
d="M40 0l6 42l50 10l78 431h-46l8 42h172l-8 -42l-50 -10l-78 -427h211l79 437h-46l7 42h172l-8 -42l-50 -10l-77 -427h211l79 437h-47l8 42h172l-7 -42l-50 -10l-77 -427h30q34 0 27 -44q-6 -35 -30 -113l-46 -3l13 114h-703z" />
    <glyph glyph-name="afii10044.smcp" horiz-adv-x="608" 
d="M432 525l-8 -42l-48 -10l-33 -178h95q82 0 124 -39.5t30 -108.5q-12 -68 -68 -107.5t-140 -39.5h-219l6 42l50 10l77 427h-113l-16 -59l-47 -3l19 108h291zM429 248h-95l-36 -202h95q47 0 80.5 27.5t41.5 73.5q8 47 -15 74t-71 27z" />
    <glyph glyph-name="afii10045.smcp" horiz-adv-x="689" 
d="M308 525l-8 -42l-50 -10l-33 -178h95q83 0 125.5 -39.5t29.5 -108.5q-12 -68 -68.5 -107.5t-139.5 -39.5h-219l6 42l50 10l78 431h-46l8 42h172zM304 248h-94l-38 -202h94q49 0 82.5 27.5t41.5 73.5q8 47 -15 74t-71 27zM744 525l-8 -42l-49 -10l-79 -431h47l-7 -42h-172
l7 42l49 10l80 431h-47l7 42h172z" />
    <glyph glyph-name="afii10046.smcp" horiz-adv-x="484" 
d="M308 525l-8 -42l-50 -10l-33 -178h95q83 0 125.5 -39.5t29.5 -108.5q-12 -68 -68.5 -107.5t-139.5 -39.5h-219l6 42l50 10l78 431h-46l8 42h172zM304 248h-94l-38 -202h94q49 0 82.5 27.5t41.5 73.5q8 47 -15 74t-71 27z" />
    <glyph glyph-name="afii10047.smcp" horiz-adv-x="502" 
d="M60 40l18 102l50 -4l-7 -71q36 -23 86 -23q81 0 135 53.5t74 147.5h-200l12 48h195q12 89 -23 138.5t-114 49.5q-46 0 -90 -23l-21 -75l-46 3l18 100q68 43 160 43q110 0 161 -71.5t29 -195.5q-23 -123 -100 -194.5t-188 -71.5q-95 0 -149 44z" />
    </font>
</defs>
</svg>
