<?xml version="1.0" standalone="no"?>
<!DOCTYPE svg PUBLIC "-//W3C//DTD SVG 1.1//EN" "http://www.w3.org/Graphics/SVG/1.1/DTD/svg11.dtd" >
<svg xmlns="http://www.w3.org/2000/svg" xmlns:xlink="http://www.w3.org/1999/xlink" version="1.1">
<metadata>
Created by FontForge 20150824 at Wed Jan 20 20:43:05 2016
 By Everything Fonts
Copyright (c) 2014 by Andriy Konstantynov. All rights reserved.
</metadata>
<defs>
<font id="SynergaPro-Regular" horiz-adv-x="480" >
  <font-face 
    font-family="SynergaPro-Regular"
    font-weight="400"
    font-stretch="normal"
    units-per-em="1000"
    panose-1="2 6 0 3 4 2 0 8 0 4"
    ascent="748"
    descent="-252"
    x-height="500"
    cap-height="700"
    bbox="-137 -259 1184 982"
    underline-thickness="50"
    underline-position="-100"
    unicode-range="U+0020-FB04"
  />
<missing-glyph horiz-adv-x="246" 
 />
    <glyph glyph-name="ff" unicode="ff" horiz-adv-x="662" 
d="M472 616v-116h147l-5 -52h-142v-401h80v-47h-218v47l59 11v390h-216v-401h79v-47h-218v47l59 11v390h-61l4 47l57 4v117q0 66 39.5 102.5t112.5 36.5q69 0 109 -31l-20 -42q-26 18 -72 18q-89 0 -89 -84v-116h216v116q0 66 36.5 102.5t103.5 36.5q63 0 101 -31l-18 -42
q-24 18 -65 18q-79 0 -79 -84z" />
    <glyph glyph-name="fi" unicode="fi" horiz-adv-x="570" 
d="M432 505q40 0 40 -39v-419h58v-47h-196v47l59 11v387l-59 3h-157v-401h79v-47h-218v47l59 11v390h-61l4 47l57 4v117q0 66 36 102.5t103 36.5q60 0 97 -29l-16 -44q-24 18 -64 18q-76 0 -76 -84v-116h160q52 5 95 5zM372 650q0 23 15 38t38 15t38 -15t15 -38t-15 -38
t-38 -15t-38 15.5t-15 37.5z" />
    <glyph glyph-name="fl" unicode="fl" horiz-adv-x="570" 
d="M334 0v47l59 11v623q-38 19 -103 19q-56 0 -84.5 -22t-28.5 -72v-106h144l-5 -52h-139v-401h79v-47h-218v47l59 11v390h-61l4 47l57 4v107q0 72 45 110.5t128 38.5q38 0 72 -9q54 9 85 9q45 0 45 -40v-668h58v-47h-196z" />
    <glyph glyph-name="ffi" unicode="ffi" horiz-adv-x="865" 
d="M630 0v47l59 11v387l-59 3h-158v-401h80v-47h-218v47l59 11v390h-216v-401h79v-47h-218v47l59 11v390h-61l4 47l57 4v117q0 66 39.5 102.5t112.5 36.5q69 0 109 -31l-20 -42q-26 18 -72 18q-89 0 -89 -84v-116h216v116q0 66 36 102.5t102 36.5q61 0 97 -29l-16 -44
q-22 18 -63 18q-77 0 -77 -84v-116h161q52 5 90 5q24 0 34.5 -9t10.5 -30v-419h58v-47h-196zM668 650q0 23 15 38t38 15t38 -15t15 -38q0 -22 -15 -37.5t-38 -15.5t-38 15t-15 38z" />
    <glyph glyph-name="ffl" unicode="ffl" horiz-adv-x="865" 
d="M630 0v47l59 11v623q-38 19 -103 19q-114 0 -114 -94v-106h145l-5 -52h-140v-401h80v-47h-218v47l59 11v390h-216v-401h79v-47h-218v47l59 11v390h-61l4 47l57 4v117q0 66 39.5 102.5t112.5 36.5q69 0 109 -31l-20 -42q-26 18 -72 18q-89 0 -89 -84v-116h216v106
q0 72 45 110.5t127 38.5q39 0 72 -9q56 9 86 9q45 0 45 -40v-668h58v-47h-196z" />
    <glyph glyph-name="f_f_j" unicode="ffj" horiz-adv-x="865" 
d="M768 -116q0 -65 -37.5 -102t-97.5 -37q-56 0 -96 32l16 40q24 -17 60 -17q35 0 55.5 22t20.5 62v561l-59 3h-158v-401h80v-47h-218v47l59 11v390h-216v-401h79v-47h-218v47l59 11v390h-61l4 47l57 4v117q0 66 39.5 102.5t112.5 36.5q69 0 109 -31l-20 -42q-26 18 -72 18
q-89 0 -89 -84v-116h216v116q0 66 36 102.5t102 36.5q61 0 97 -29l-16 -44q-22 18 -63 18q-77 0 -77 -84v-116h161q52 5 90 5q24 0 34.5 -9t10.5 -30v-582zM668 650q0 23 15 38t38 15t38 -15t15 -38q0 -22 -15 -37.5t-38 -15.5t-38 15t-15 38z" />
    <glyph glyph-name="f_j" unicode="fj" horiz-adv-x="570" 
d="M432 505q40 0 40 -39v-582q0 -65 -37 -102t-97 -37q-58 0 -96 32l15 40q24 -17 60 -17q35 0 55.5 22t20.5 62v560l-59 4h-157v-401h79v-47h-218v47l59 11v390h-61l4 47l57 4v117q0 66 36 102.5t103 36.5q60 0 97 -29l-16 -44q-24 18 -64 18q-76 0 -76 -84v-116h160
q52 5 95 5zM372 650q0 23 15 38t38 15t38 -15t15 -38t-15 -38t-38 -15t-38 15.5t-15 37.5z" />
    <glyph glyph-name="afii10104_afii10104" unicode="&#x457;&#x457;" horiz-adv-x="548" 
d="M38 0v47l59 11v387l-56 7l-3 43q55 10 98 10q41 0 41 -39v-419h57v-47h-196zM6 627q0 19 12.5 31.5t31.5 12.5t31.5 -12.5t12.5 -31.5t-12.5 -31.5t-31.5 -12.5t-31.5 12.5t-12.5 31.5zM221 627q0 19 13 31.5t32 12.5t31.5 -12.5t12.5 -31.5t-12.5 -31.5t-31.5 -12.5
t-32 12.5t-13 31.5zM312 0v47l59 11v387l-56 7l-3 43q55 10 98 10q41 0 41 -39v-419h57v-47h-196zM437 627q0 19 12.5 31.5t31.5 12.5t32 -12.5t13 -31.5t-13 -31.5t-32 -12.5t-31.5 12.5t-12.5 31.5z" />
    <glyph glyph-name=".notdef" horiz-adv-x="246" 
 />
    <glyph glyph-name=".null" horiz-adv-x="0" 
 />
    <glyph glyph-name="nonmarkingreturn" horiz-adv-x="333" 
 />
    <glyph glyph-name="space" unicode=" " horiz-adv-x="246" 
 />
    <glyph glyph-name="exclam" unicode="!" horiz-adv-x="214" 
d="M54 48q0 22 15 37.5t38 15.5t38 -15t15 -38t-15 -38t-38 -15t-38 15t-15 38zM132 190l-49 5l-14 240v267l76 -5v-262z" />
    <glyph glyph-name="quotedbl" unicode="&#x22;" horiz-adv-x="325" 
d="M125 496l-52 5l-9 201l69 -5zM252 496l-51 5l-9 201l69 -5z" />
    <glyph glyph-name="numbersign" unicode="#" horiz-adv-x="611" 
d="M66 462l5 47h103l27 188l51 5l-28 -193h208l27 188l51 5l-28 -193h89l-5 -47h-91l-32 -225h101l-5 -46h-102l-27 -188l-51 -5l27 193h-207l-27 -188l-51 -5l27 193h-88l5 46h90l32 225h-101zM217 462l-32 -225h208l32 225h-208z" />
    <glyph glyph-name="dollar" unicode="$" horiz-adv-x="523" 
d="M136 536q0 -49 34.5 -81.5t83 -52.5t97.5 -42t83.5 -66.5t34.5 -110.5q0 -80 -48.5 -130t-143.5 -57v-68l-46 -5v73q-103 3 -182 51v132l51 4l6 -100q55 -33 132 -33q72 0 109.5 35t37.5 92q0 43 -24.5 74t-61 47.5t-79 36.5t-79 40t-61 59.5t-24.5 93.5q0 76 44.5 122.5
t130.5 53.5v68l46 5v-73q93 -4 161 -45v-133l-51 -4l-8 104q-48 24 -115 24q-62 0 -95 -32t-33 -82z" />
    <glyph glyph-name="percent" unicode="%" horiz-adv-x="832" 
d="M236 -7l-41 20l400 693l42 -19zM44 535q0 79 46.5 124.5t125.5 45.5t125.5 -45.5t46.5 -124.5t-46.5 -125t-125.5 -46t-125.5 46t-46.5 125zM106 535q0 -58 29.5 -91.5t80.5 -33.5t80.5 33.5t29.5 91.5t-29.5 91t-80.5 33t-80.5 -33t-29.5 -91zM443 165q0 79 46.5 125
t125.5 46t125.5 -46t46.5 -125t-46 -124.5t-126 -45.5q-79 0 -125.5 45.5t-46.5 124.5zM505 165q0 -57 30 -90.5t80 -33.5q51 0 80.5 33t29.5 91t-29.5 91.5t-80.5 33.5q-50 0 -80 -33.5t-30 -91.5z" />
    <glyph glyph-name="ampersand" unicode="&#x26;" horiz-adv-x="666" 
d="M595 296q0 -114 -80 -202q62 -48 96 -48q15 0 34 8l7 -37q-35 -21 -71 -21q-47 0 -110 58q-80 -59 -191 -59q-105 0 -165.5 53.5t-60.5 148.5q0 76 36.5 122t100.5 78q-40 88 -40 158q0 72 41.5 111t122.5 39q80 0 121 -37.5t41 -101.5q0 -25 -5 -45.5t-19 -38
t-23.5 -28.5t-34.5 -25.5t-35.5 -20t-42.5 -20t-40 -18.5q74 -130 187 -233q57 55 57 150l-58 7l-4 42q53 11 94 11q24 0 33 -12t9 -39zM275 50q80 0 145 48q-116 97 -199 242q-90 -55 -90 -150q0 -63 36.5 -101.5t107.5 -38.5zM219 550q0 -57 31 -125q36 16 49 21.5t40 21
t37.5 27.5t20.5 31.5t10 42.5q0 37 -23 59.5t-69 22.5q-96 0 -96 -101z" />
    <glyph glyph-name="quotesingle" unicode="'" horiz-adv-x="197" 
d="M124 496l-51 5l-9 201l69 -5z" />
    <glyph glyph-name="parenleft" unicode="(" horiz-adv-x="332" 
d="M293 750l-5 -45q-10 0 -20 -4.5t-22.5 -17.5t-24 -33.5t-22.5 -56.5t-18.5 -82t-12.5 -113t-5 -148t5 -148t13 -113t19 -82t22.5 -56.5t24.5 -33.5t24 -17.5t22 -4.5l-5 -45q-24 0 -47.5 10t-51.5 42.5t-49 85t-35 146t-14 216.5t14 216.5t35 146t50 85t53 42.5t50 10z
" />
    <glyph glyph-name="parenright" unicode=")" horiz-adv-x="332" 
d="M39 -250l5 45q10 0 20 4.5t22.5 17.5t24 33.5t22.5 56.5t18.5 82t12.5 113t5 148t-5 148t-13 113t-19 82t-22.5 56.5t-24.5 33.5t-24 17.5t-22 4.5l5 45q24 0 47.5 -10t51.5 -42.5t49 -85t35 -146t14 -216.5t-14 -216.5t-35 -146t-50 -85t-53 -42.5t-50 -10z" />
    <glyph glyph-name="asterisk" unicode="*" horiz-adv-x="438" 
d="M109 684l43 19l67 -117l70 121l37 -27l-67 -116h139l-5 -47h-135l71 -120l-43 -19l-67 116l-70 -120l-37 27l67 116h-139l5 47h134z" />
    <glyph glyph-name="plus" unicode="+" horiz-adv-x="438" 
d="M40 301l5 46h151v152l46 4v-156h156l-5 -46h-151v-151l-46 -5v156h-156z" />
    <glyph glyph-name="comma" unicode="," horiz-adv-x="214" 
d="M76 68l70 19q12 -37 12 -74q0 -108 -85 -157l-31 39q47 40 47 113q0 30 -13 60z" />
    <glyph glyph-name="hyphen" unicode="-" horiz-adv-x="287" 
d="M40 259l5 46h202l-5 -46h-202z" />
    <glyph glyph-name="period" unicode="." horiz-adv-x="214" 
d="M54 48q0 22 15 37.5t38 15.5t38 -15t15 -38t-15 -38t-38 -15t-38 15t-15 38z" />
    <glyph glyph-name="slash" unicode="/" horiz-adv-x="378" 
d="M24 -255l-45 12l363 998l45 -12z" />
    <glyph glyph-name="zero" unicode="0" horiz-adv-x="579" 
d="M52 350q0 163 64.5 259t172.5 96q109 0 173 -96t64 -259t-64 -259t-173 -96q-108 0 -172.5 96t-64.5 259zM132 350q0 -139 42 -219.5t115 -80.5t115.5 80.5t42.5 219.5t-42.5 219.5t-115.5 80.5t-115 -80.5t-42 -219.5z" />
    <glyph glyph-name="one" unicode="1" horiz-adv-x="353" 
d="M52 0v47l89 11v587h-97l-3 42q57 18 128 18q26 0 38.5 -8.5t12.5 -30.5v-619h83v-47h-251z" />
    <glyph glyph-name="two" unicode="2" horiz-adv-x="533" 
d="M481 137v-137h-422v39q42 50 111 131q148 174 186 229.5t38 109.5q0 68 -40.5 104.5t-111.5 36.5q-58 0 -124 -33l-8 -102l-51 4v132q89 54 190 54q108 0 165.5 -52t57.5 -145q0 -68 -50.5 -140t-262.5 -315h267l5 79z" />
    <glyph glyph-name="three" unicode="3" horiz-adv-x="547" 
d="M255 705q97 0 155 -49t58 -133q0 -121 -113 -164q68 -17 107 -62.5t39 -110.5q0 -87 -69 -139t-175 -52q-116 0 -200 61l28 41q71 -47 163 -47q75 0 123 38.5t48 104.5q0 61 -42 98.5t-107 37.5h-78l5 52h48q66 0 105 36.5t39 99.5q0 61 -37 97t-103 36q-72 0 -125 -35
l-7 -96l-51 4v122q77 60 189 60z" />
    <glyph glyph-name="four" unicode="4" horiz-adv-x="550" 
d="M434 0h-74v169h-303v33l180 498l74 -1l-170 -478h219v279l74 -1v-278h73l-5 -52h-68v-169z" />
    <glyph glyph-name="five" unicode="5" horiz-adv-x="543" 
d="M448 700v-132l-51 -5l-5 84h-207l-20 -240h114q101 0 161.5 -58t60.5 -148q0 -97 -68.5 -151.5t-175.5 -54.5q-116 0 -200 61l28 41q71 -47 162 -47q76 0 124 41.5t48 111.5q0 66 -42.5 109.5t-106.5 43.5h-175l28 344h325z" />
    <glyph glyph-name="six" unicode="6" horiz-adv-x="551" 
d="M394 707l35 -36q-5 -1 -13.5 -2.5t-34 -10t-49 -20.5t-54.5 -35.5t-55.5 -52.5t-46.5 -74t-32 -98q74 49 160 49q91 0 146.5 -59t55.5 -158q0 -100 -56.5 -157.5t-162.5 -57.5q-105 0 -169 66t-64 219q0 80 19 146.5t48.5 109.5t66 76t73 50.5t66 28t48.5 13.5zM281 372
q-42 0 -81.5 -16t-63.5 -40q-1 -13 -1 -42q0 -116 41.5 -170t112.5 -54q68 0 103 42.5t35 116.5q0 78 -39.5 120.5t-106.5 42.5z" />
    <glyph glyph-name="seven" unicode="7" horiz-adv-x="548" 
d="M63 563v137h427v-33l-227 -667h-75l219 647h-288l-6 -79z" />
    <glyph glyph-name="eight" unicode="8" horiz-adv-x="561" 
d="M481 533q0 -110 -106 -173q62 -29 97 -69t35 -108q0 -86 -58.5 -137t-168.5 -51q-109 0 -167.5 50.5t-58.5 135.5q0 120 129 187q-106 56 -106 161q0 81 52.5 128.5t150.5 47.5q96 0 148.5 -46t52.5 -126zM426 176q0 33 -12.5 57.5t-38 42.5t-49 29.5t-60.5 26.5
q-4 1 -6 2t-5.5 2.5t-6.5 2.5q-55 -27 -87 -63.5t-32 -95.5t37.5 -94.5t111.5 -35.5t111 34.5t37 91.5zM155 539q0 -32 11.5 -56t37 -42t46.5 -28.5t59 -25.5q48 27 74 60t26 85q0 53 -33 85.5t-96 32.5q-62 0 -93.5 -31t-31.5 -80z" />
    <glyph glyph-name="nine" unicode="9" horiz-adv-x="551" 
d="M150 -7l-35 36q5 0 14.5 1.5t36.5 9.5t52.5 19.5t57.5 35t57.5 54.5t46.5 79.5t30 106.5q-74 -54 -163 -54q-92 0 -147.5 58t-55.5 156q0 97 57 153.5t161 56.5q234 0 234 -291q0 -82 -19 -150t-49.5 -110.5t-67.5 -74.5t-74 -47.5t-67.5 -25t-49.5 -11.5zM268 336
q88 0 147 61q0 3 0.5 10t0.5 11q0 119 -41.5 175.5t-113.5 56.5q-67 0 -102 -41t-35 -113q0 -77 39 -118.5t105 -41.5z" />
    <glyph glyph-name="colon" unicode=":" horiz-adv-x="214" 
d="M54 48q0 22 15 37.5t38 15.5t38 -15t15 -38t-15 -38t-38 -15t-38 15t-15 38zM54 452q0 23 15 38t38 15t38 -15t15 -38t-15 -38t-38 -15t-38 15.5t-15 37.5z" />
    <glyph glyph-name="semicolon" unicode=";" horiz-adv-x="214" 
d="M54 452q0 23 15 38t38 15t38 -15t15 -38t-15 -38t-38 -15t-38 15.5t-15 37.5zM76 68l70 19q12 -37 12 -74q0 -108 -85 -157l-31 39q47 40 47 113q0 30 -13 60z" />
    <glyph glyph-name="less" unicode="&#x3c;" horiz-adv-x="479" 
d="M422 165l-38 -29l-336 189l340 191l30 -35l-279 -156z" />
    <glyph glyph-name="equal" unicode="=" horiz-adv-x="472" 
d="M40 205l5 46h387l-5 -46h-387zM40 402l5 46h387l-5 -46h-387z" />
    <glyph glyph-name="greater" unicode="&#x3e;" horiz-adv-x="479" 
d="M58 485l37 29l337 -189l-341 -191l-30 35l279 156z" />
    <glyph glyph-name="question" unicode="?" horiz-adv-x="482" 
d="M46 659q74 46 179 46q99 0 151 -47.5t52 -124.5q0 -75 -47 -126.5t-117 -80.5l-7 -136l-49 5l-10 168q63 26 106.5 70.5t43.5 103.5q0 49 -33 81t-95 32t-116 -26l-7 -102l-51 4v133zM179 48q0 22 15.5 37.5t37.5 15.5q23 0 38 -15t15 -38t-15 -38t-38 -15t-38 15t-15 38
z" />
    <glyph glyph-name="at" unicode="@" horiz-adv-x="1036" 
d="M777 -5q-98 0 -132 64q-61 -64 -148 -64q-91 0 -147 69.5t-56 185.5q0 118 62 186.5t178 68.5q110 0 179 -53v-340q0 -28 21 -45t52 -17q50 0 87.5 49t37.5 158q0 180 -103 286.5t-286 106.5t-290 -107.5t-107 -293.5t107 -292.5t295 -106.5q193 0 301 99l36 -36
q-127 -118 -341 -118q-218 0 -344.5 122.5t-126.5 332.5q0 209 126.5 332t342.5 123q217 0 340 -121.5t123 -320.5q0 -75 -18.5 -129.5t-49.5 -83.5t-65.5 -42t-73.5 -13zM633 428q-41 24 -102 24q-77 0 -117 -52.5t-40 -148.5q0 -94 38.5 -147.5t105.5 -53.5q73 0 115 49
v329z" />
    <glyph glyph-name="A" unicode="A" horiz-adv-x="735" 
d="M412 665l237 -618h63v-47h-215v47l61 11l-55 151h-280l-57 -162h66v-47h-209v47l60 11l223 586l-61 7l-3 42q57 11 113 11q42 0 57 -39zM362 612l-123 -349h247z" />
    <glyph glyph-name="B" unicode="B" horiz-adv-x="596" 
d="M38 700h255q102 0 163.5 -48.5t61.5 -131.5q0 -57 -30 -98t-83 -61q67 -17 106 -63t39 -113q0 -85 -63 -135t-165 -50h-285v47l64 11v595h-63v47zM322 331h-138v-279h138q65 0 105 37.5t40 101.5t-40 102t-105 38zM295 648h-111v-266h111q65 0 103.5 36t38.5 97
q0 62 -38.5 97.5t-103.5 35.5z" />
    <glyph glyph-name="C" unicode="C" horiz-adv-x="609" 
d="M555 54q-83 -59 -199 -59q-141 0 -221.5 95.5t-80.5 259.5t80.5 259.5t219.5 95.5q114 0 194 -60v-125l-52 -4l-8 102q-50 32 -115 32q-114 0 -175 -79.5t-61 -220.5t61.5 -220.5t175.5 -79.5q64 0 118 30l9 100l54 4v-130z" />
    <glyph glyph-name="D" unicode="D" horiz-adv-x="670" 
d="M315 700q139 0 220 -93.5t81 -256.5t-81 -256.5t-220 -93.5h-285v47l71 11v595h-70v47h284zM315 648h-131v-596h131q101 0 159.5 79.5t58.5 218.5t-58.5 218.5t-159.5 79.5z" />
    <glyph glyph-name="E" unicode="E" horiz-adv-x="569" 
d="M37 0v47l64 11v595h-63v47h482v-132l-50 -5l-6 85h-280v-262h211l5 56l49 4v-170l-50 -4l-5 60h-210v-279h284l4 79l51 5v-137h-486z" />
    <glyph glyph-name="F" unicode="F" horiz-adv-x="555" 
d="M37 0v47l64 11v595h-63v47h471v-132l-50 -5l-7 85h-268v-262h204l5 56l49 4v-170l-49 -4l-5 60h-204v-285h84v-47h-231z" />
    <glyph glyph-name="G" unicode="G" horiz-adv-x="640" 
d="M554 306v-254q-80 -57 -197 -57q-142 0 -222.5 95.5t-80.5 259.5t80.5 259.5t220.5 95.5q115 0 195 -60v-125l-53 -4l-7 102q-52 32 -116 32q-115 0 -176 -79.5t-61 -220.5t60.5 -220.5t174.5 -79.5q61 0 109 31v236h-112v47h242v-47z" />
    <glyph glyph-name="H" unicode="H" horiz-adv-x="710" 
d="M673 700v-47l-64 -11v-595h63v-47h-210v47l64 11v274h-342v-285h62v-47h-209v47l64 11v595h-63v47h210v-47l-64 -11v-258h342v269h-63v47h210z" />
    <glyph glyph-name="I" unicode="I" horiz-adv-x="284" 
d="M248 700v-47l-64 -11v-595h62v-47h-209v47l64 11v595h-63v47h210z" />
    <glyph glyph-name="J" unicode="J" horiz-adv-x="532" 
d="M495 700v-47l-64 -11v-443q0 -95 -53 -149.5t-148 -54.5q-108 0 -181 56v125l55 5l8 -104q43 -27 104 -27q64 0 98 39t34 110v454h-63v47h210z" />
    <glyph glyph-name="K" unicode="K" horiz-adv-x="646" 
d="M249 700v-47l-69 -10v-309l272 319h-70v47h218v-47l-74 -11l-190 -226l209 -359l73 -8l3 -42q-50 -11 -96 -11q-32 0 -54 39l-189 330l-102 -111v-207h70v-47h-220v47l71 11v595h-70v47h218z" />
    <glyph glyph-name="L" unicode="L" horiz-adv-x="553" 
d="M248 700v-47l-64 -11v-589h267l5 79l51 5v-137h-470v47l64 11v595h-63v47h210z" />
    <glyph glyph-name="M" unicode="M" horiz-adv-x="859" 
d="M670 700h154v-47l-65 -11v-595h64v-47h-208v47l66 11v519l-226 -426h-48l-229 426v-530h65v-47h-208v47l66 11v587l-63 7l-3 43q55 10 110 10q40 0 58 -36l228 -414z" />
    <glyph glyph-name="N" unicode="N" horiz-adv-x="705" 
d="M188 671l344 -528v510h-63v47h199v-47l-64 -11v-642h-72l-359 556v-509h63v-47h-199v47l64 11v587l-63 7l-3 43q52 10 99 10q33 0 54 -34z" />
    <glyph glyph-name="O" unicode="O" horiz-adv-x="687" 
d="M54 350q0 163 78.5 259t211.5 96q132 0 210.5 -96t78.5 -259t-78.5 -259t-210.5 -96q-133 0 -211.5 96t-78.5 259zM137 350q0 -139 55.5 -219.5t151.5 -80.5q95 0 150.5 80.5t55.5 219.5t-55.5 219.5t-150.5 80.5q-96 0 -151.5 -80.5t-55.5 -219.5z" />
    <glyph glyph-name="P" unicode="P" horiz-adv-x="575" 
d="M37 0v47l64 11v595h-63v47h265q103 0 164.5 -52.5t61.5 -141.5t-62 -141.5t-164 -52.5h-119v-265h84v-47h-231zM303 648h-119v-284h119q65 0 104 38.5t39 103.5q0 66 -38.5 104t-104.5 38z" />
    <glyph glyph-name="Q" unicode="Q" horiz-adv-x="691" 
d="M54 350q0 163 79 259t212 96q134 0 212.5 -96t78.5 -259q0 -152 -69 -246t-187 -107q2 -51 33.5 -78.5t90.5 -27.5q65 0 111 28l23 -42q-61 -41 -149 -41q-87 0 -135 42.5t-50 119.5q-116 15 -183 108.5t-67 243.5zM137 350q0 -139 56 -219.5t152 -80.5q97 0 152.5 80
t55.5 220t-55.5 220t-152.5 80q-96 0 -152 -80.5t-56 -219.5z" />
    <glyph glyph-name="R" unicode="R" horiz-adv-x="608" 
d="M37 0v47l64 11v595h-63v47h265q103 0 164.5 -51.5t61.5 -140.5q0 -70 -39 -118t-108 -65l124 -268l74 -8l3 -42q-52 -11 -97 -11q-39 0 -53 39l-125 281h-124v-269h62v-47h-209zM303 648h-119v-281h119q66 0 104.5 37.5t38.5 103.5q0 65 -38.5 102.5t-104.5 37.5z" />
    <glyph glyph-name="S" unicode="S" horiz-adv-x="523" 
d="M136 536q0 -49 34.5 -81.5t83 -52.5t97.5 -42t83.5 -66.5t34.5 -110.5q0 -86 -55.5 -137t-163.5 -51q-113 0 -201 52v132l51 4l7 -100q54 -33 131 -33q72 0 109.5 35t37.5 92q0 43 -24.5 74t-61 47.5t-79 36.5t-79 40t-61 59.5t-24.5 93.5q0 82 51.5 129.5t148.5 47.5
q108 0 182 -46v-133l-51 -4l-8 103q-50 25 -115 25q-62 0 -95 -32t-33 -82z" />
    <glyph glyph-name="T" unicode="T" horiz-adv-x="627" 
d="M530 563l-5 85h-170v-601h63v-47h-210v47l64 11v590h-170l-6 -80l-50 -5v137h535v-132z" />
    <glyph glyph-name="U" unicode="U" horiz-adv-x="722" 
d="M184 642v-383q0 -97 47.5 -153t129.5 -56t129 56t47 153v394h-63v47h211v-47l-64 -11v-383q0 -122 -70 -193t-190 -71t-190 71t-70 193v394h-63v47h210v-47z" />
    <glyph glyph-name="V" unicode="V" horiz-adv-x="734" 
d="M711 700v-47l-60 -11l-244 -642h-71l-247 643l-64 8l-3 42q52 11 97 11q38 0 51 -39l202 -573l197 561h-66v47h208z" />
    <glyph glyph-name="W" unicode="W" horiz-adv-x="1119" 
d="M1097 700v-47l-61 -11l-223 -642h-71l-182 572l-175 -572h-70l-225 643l-65 8l-3 42q50 11 96 11q41 0 52 -39l181 -561l172 596h72l182 -598l177 551h-67v47h210z" />
    <glyph glyph-name="X" unicode="X" horiz-adv-x="693" 
d="M29 0v47l70 11l195 303l-188 282l-72 8l-3 42q44 11 93 11q22 0 33 -9t24 -30l169 -261l165 249h-71v47h219v-47l-69 -11l-193 -287l193 -298l72 -8l3 -42q-44 -11 -93 -11q-21 0 -33 9t-24 30l-175 276l-167 -264h72v-47h-220z" />
    <glyph glyph-name="Y" unicode="Y" horiz-adv-x="695" 
d="M602 642l-210 -347v-248h63v-47h-210v47l64 11v237l-212 348l-72 8l-3 42q44 11 93 11q22 0 34 -9t23 -30l179 -306l174 294h-73v47h220v-47z" />
    <glyph glyph-name="Z" unicode="Z" horiz-adv-x="588" 
d="M63 563v137h467v-33l-375 -614h321l5 79l51 5v-137h-478v32l375 615h-310l-5 -79z" />
    <glyph glyph-name="bracketleft" unicode="[" horiz-adv-x="342" 
d="M303 750l-5 -45h-125v-910h130l-5 -45h-197v1000h202z" />
    <glyph glyph-name="backslash" unicode="\" horiz-adv-x="378" 
d="M392 -239l-42 -20l-363 998l41 20z" />
    <glyph glyph-name="bracketright" unicode="]" horiz-adv-x="342" 
d="M39 -250l5 45h125v910h-130l5 45h197v-1000h-202z" />
    <glyph glyph-name="asciicircum" unicode="^" horiz-adv-x="424" 
d="M44 506l-22 32l189 186l191 -190l-28 -26l-164 142z" />
    <glyph glyph-name="underscore" unicode="_" horiz-adv-x="500" 
d="M0 -113v47h500v-47h-500z" />
    <glyph glyph-name="grave" unicode="`" horiz-adv-x="301" 
d="M46 690l39 42l166 -127l-25 -29z" />
    <glyph glyph-name="a" unicode="a" horiz-adv-x="502" 
d="M91 415l-22 41q65 49 159 49q85 0 131 -46t46 -126v-256q0 -31 25 -31q13 0 34 8l6 -37q-42 -21 -79 -21q-59 0 -65 53q-62 -54 -144 -54q-63 0 -101.5 35t-38.5 92q0 53 35 87.5t99 43.5l149 20v60q0 55 -30 86t-87 31q-64 0 -117 -35zM204 50q33 0 66.5 12.5t54.5 36.5
v130l-130 -20q-39 -6 -60 -28t-21 -55q0 -36 24 -56t66 -20z" />
    <glyph glyph-name="b" unicode="b" horiz-adv-x="535" 
d="M152 716v-264q58 53 136 53q91 0 147 -69.5t56 -186.5q0 -118 -61.5 -186t-179.5 -68q-113 0 -178 49v651l-56 7l-3 43q55 10 97 10t42 -39zM267 450q-73 0 -115 -49v-330q40 -23 102 -23q77 0 117 52.5t40 148.5q0 94 -38.5 147.5t-105.5 53.5z" />
    <glyph glyph-name="c" unicode="c" horiz-adv-x="470" 
d="M417 463v-100l-54 -4l-9 79q-36 12 -74 12q-77 0 -116.5 -51t-39.5 -143q0 -99 42 -152.5t122 -53.5q71 0 117 31l22 -40q-58 -46 -154 -46q-107 0 -168 68.5t-61 187.5q0 118 61 186t167 68q93 0 145 -42z" />
    <glyph glyph-name="d" unicode="d" horiz-adv-x="560" 
d="M522 54l6 -37q-42 -21 -79 -21q-59 0 -65 52q-58 -53 -137 -53q-91 0 -147 69.5t-56 185.5q0 117 57.5 186t156.5 69q68 0 125 -30v220l-56 7l-3 43q55 10 97 10t42 -39v-639q0 -31 25 -31q13 0 34 8zM268 50q72 0 115 49v321q-43 30 -106 30q-73 0 -113 -53.5
t-40 -147.5q0 -92 38.5 -145.5t105.5 -53.5z" />
    <glyph glyph-name="e" unicode="e" horiz-adv-x="503" 
d="M438 259h-315q-5 -99 39.5 -154t132.5 -55q75 0 122 30l24 -42q-65 -43 -157 -43q-110 0 -175 68t-65 190q0 116 58 184t162 68q84 0 132.5 -46t48.5 -128q0 -36 -7 -72zM264 450q-60 0 -96 -38.5t-43 -106.5h251q2 13 2 35q0 52 -31.5 81t-82.5 29z" />
    <glyph glyph-name="f" unicode="f" horiz-adv-x="360" 
d="M177 616v-116h146l-5 -52h-141v-401h79v-47h-218v47l59 11v390h-61l4 47l57 4v117q0 66 37 102.5t104 36.5q62 0 100 -31l-18 -42q-24 18 -65 18q-78 0 -78 -84z" />
    <glyph glyph-name="g" unicode="g" horiz-adv-x="523" 
d="M54 337q0 77 51.5 122.5t137.5 45.5q51 0 91 -17q60 82 149 82l-7 -78q-13 5 -31 5q-41 0 -76 -28q63 -46 63 -132q0 -78 -51.5 -123.5t-137.5 -45.5q-50 0 -89 15q-29 -29 -29 -68q0 -62 78 -62h130q74 0 116.5 -35.5t42.5 -99.5q0 -84 -72 -128.5t-189 -44.5
q-105 0 -157.5 35.5t-52.5 97.5q0 81 79 126q-44 25 -44 83q0 66 61 117q-63 46 -63 133zM187 -15q-23 0 -42 3q-52 -37 -52 -95q0 -93 141 -93q78 0 132 26.5t54 80.5q0 36 -25.5 57t-72.5 21h-135zM128 337q0 -55 31 -85.5t84 -30.5t84 31t31 85t-31 85t-84 31t-84 -31
t-31 -85z" />
    <glyph glyph-name="h" unicode="h" horiz-adv-x="597" 
d="M361 0v47l59 11v282q0 110 -104 110q-36 0 -74.5 -14t-64.5 -39v-350h57v-47h-196v47l59 11v637l-56 7l-3 43q55 10 97 10t42 -39v-269q73 58 168 58q75 0 115 -43t40 -118v-297h57v-47h-196z" />
    <glyph glyph-name="i" unicode="i" horiz-adv-x="274" 
d="M38 0v47l59 11v387l-56 7l-3 43q55 10 98 10q41 0 41 -39v-419h57v-47h-196zM76 650q0 23 15 38t38 15t38 -15t15 -38t-15 -38t-38 -15t-38 15.5t-15 37.5z" />
    <glyph glyph-name="j" unicode="j" horiz-adv-x="274" 
d="M76 650q0 23 15 38t38 15t38 -15t15 -38t-15 -38t-38 -15t-38 15.5t-15 37.5zM177 466v-582q0 -65 -37.5 -102t-97.5 -37q-56 0 -96 32l16 40q23 -17 59 -17q35 0 55.5 22t20.5 62v561l-56 7l-3 43q55 10 97 10t42 -39z" />
    <glyph glyph-name="k" unicode="k" horiz-adv-x="516" 
d="M366 35l-121 210l-68 -79v-119h57v-47h-196v47l59 11v637l-56 7l-3 43q55 10 98 10q41 0 41 -39v-468l172 205h-61v47h195v-47l-62 -11l-125 -145l142 -240l61 -8l3 -42q-50 -11 -85 -11q-29 0 -51 39z" />
    <glyph glyph-name="l" unicode="l" horiz-adv-x="274" 
d="M38 0v47l59 11v637l-56 7l-3 43q55 10 98 10q41 0 41 -39v-669h57v-47h-196z" />
    <glyph glyph-name="m" unicode="m" horiz-adv-x="860" 
d="M332 0v47l58 11v294q0 98 -86 98q-75 0 -127 -52v-351h56v-47h-195v47l59 11v387l-56 7l-3 43q55 10 97 10t42 -39v-19q71 58 156 58q90 0 122 -71q73 71 171 71q68 0 102.5 -40t34.5 -111v-307h57v-47h-195v47l58 11v294q0 98 -86 98q-76 0 -131 -55q4 -26 4 -41v-307
h56v-47h-194z" />
    <glyph glyph-name="n" unicode="n" horiz-adv-x="597" 
d="M361 0v47l59 11v282q0 110 -104 110q-36 0 -74.5 -14t-64.5 -39v-350h57v-47h-196v47l59 11v387l-56 7l-3 43q55 10 97 10t42 -39v-19q73 58 168 58q75 0 115 -43t40 -118v-297h57v-47h-196z" />
    <glyph glyph-name="o" unicode="o" horiz-adv-x="539" 
d="M44 250q0 117 61 186t164 69q104 0 165 -68.5t61 -186.5t-61 -186.5t-165 -68.5q-103 0 -164 69t-61 186zM124 250q0 -93 39 -146.5t106 -53.5q68 0 107 53.5t39 146.5t-39 146.5t-107 53.5q-67 0 -106 -53.5t-39 -146.5z" />
    <glyph glyph-name="p" unicode="p" horiz-adv-x="560" 
d="M38 -250v47l59 11v637l-56 7l-3 43q55 10 97 10t42 -39v-14q58 53 136 53q91 0 147 -69.5t56 -185.5q0 -117 -58 -186t-157 -69q-69 0 -124 29v-227h79v-47h-218zM292 450q-73 0 -115 -49v-321q43 -30 106 -30q72 0 112.5 53.5t40.5 147.5q0 92 -38.5 145.5t-105.5 53.5z
" />
    <glyph glyph-name="q" unicode="q" horiz-adv-x="545" 
d="M324 -250v47l59 11v239q-58 -52 -136 -52q-91 0 -147 69.5t-56 185.5q0 118 62 186.5t178 68.5q110 0 178 -53v-655h58v-47h-196zM268 50q72 0 115 49v329q-41 24 -102 24q-77 0 -117.5 -52.5t-40.5 -148.5q0 -94 38.5 -147.5t106.5 -53.5z" />
    <glyph glyph-name="r" unicode="r" horiz-adv-x="389" 
d="M346 508l-8 -78q-12 5 -30 5q-35 0 -71.5 -19.5t-59.5 -56.5v-312h79v-47h-218v47l59 11v387l-56 7l-3 43q55 10 97 10t42 -39v-47q64 89 169 89z" />
    <glyph glyph-name="s" unicode="s" horiz-adv-x="437" 
d="M127 383q0 -35 26.5 -57t64.5 -34.5t76 -27t64.5 -45.5t26.5 -80q0 -66 -45.5 -105t-130.5 -39q-87 0 -154 37v98l55 4l6 -70q43 -20 90 -20q51 0 78.5 22.5t27.5 59.5q0 35 -26.5 58t-63.5 36t-74.5 28.5t-64 46.5t-26.5 78q0 61 40.5 96.5t115.5 35.5q82 0 145 -36v-99
l-54 -4l-8 72q-39 18 -81 18q-43 0 -65.5 -20t-22.5 -53z" />
    <glyph glyph-name="t" unicode="t" horiz-adv-x="373" 
d="M25 448l4 47l70 4l10 111l68 9v-119h146l-5 -52h-141v-314q0 -84 77 -84q43 0 66 20l20 -40q-43 -35 -105 -35q-65 0 -101.5 36.5t-36.5 102.5v314h-72z" />
    <glyph glyph-name="u" unicode="u" horiz-adv-x="593" 
d="M555 54l7 -37q-42 -21 -79 -21q-61 0 -66 57q-73 -58 -168 -58q-74 0 -113 43t-39 118v289l-56 7l-3 43q55 10 97 10t42 -39v-306q0 -110 101 -110q36 0 74 14t65 39v342l-57 7l-3 43q57 10 97 10q42 0 42 -39v-389q0 -31 25 -31q15 0 34 8z" />
    <glyph glyph-name="v" unicode="v" horiz-adv-x="573" 
d="M557 500v-47l-55 -11l-176 -442h-71l-178 443l-59 8l-3 42q50 11 88 11q35 0 48 -39l140 -382l134 370h-62v47h194z" />
    <glyph glyph-name="w" unicode="w" horiz-adv-x="861" 
d="M845 500v-47l-56 -11l-165 -442h-70l-125 378l-116 -378h-71l-164 443l-60 8l-3 42q50 11 88 11q37 0 48 -39l126 -373l119 408h65l129 -410l122 363h-61v47h194z" />
    <glyph glyph-name="x" unicode="x" horiz-adv-x="544" 
d="M19 0v47l58 11l139 203l-130 182l-60 8l-3 42q44 11 79 11q21 0 32.5 -9t25.5 -30l113 -165l109 153h-60v47h194v-47l-57 -11l-136 -187l138 -198l59 -8l3 -42q-43 -11 -79 -11q-20 0 -31.5 8.5t-25.5 30.5l-121 180l-112 -168h60v-47h-195z" />
    <glyph glyph-name="y" unicode="y" horiz-adv-x="567" 
d="M551 500v-47l-56 -11l-210 -542q-33 -86 -65.5 -120.5t-82.5 -34.5q-60 0 -102 39l18 40q28 -24 66 -24q31 0 50.5 22.5t41.5 77.5l41 100l-175 443l-59 8l-3 42q50 11 87 11q36 0 49 -39l137 -380l130 368h-62v47h195z" />
    <glyph glyph-name="z" unicode="z" horiz-adv-x="464" 
d="M53 375v125h364v-33l-277 -414h223l4 68l51 4v-125h-374v32l276 415h-211l-5 -68z" />
    <glyph glyph-name="braceleft" unicode="{" horiz-adv-x="319" 
d="M123 -99v241q0 40 -22.5 62t-61.5 22l5 48q37 0 58 22t21 62v241q0 80 39 118t118 38l-5 -48q-37 0 -58 -22t-21 -62v-244q0 -89 -64 -129q64 -38 64 -129v-244q0 -40 22.5 -62t61.5 -22l-5 -48q-77 0 -114.5 37.5t-37.5 118.5z" />
    <glyph glyph-name="bar" unicode="|" horiz-adv-x="248" 
d="M147 -247l-46 -5v999l46 5v-999z" />
    <glyph glyph-name="braceright" unicode="}" horiz-adv-x="319" 
d="M196 599v-241q0 -40 22.5 -62t61.5 -22l-5 -48q-37 0 -58 -22t-21 -62v-241q0 -81 -38.5 -118.5t-118.5 -37.5l5 48q37 0 58 22t21 62v244q0 89 64 129q-64 38 -64 129v244q0 40 -22.5 62t-61.5 22l5 48q77 0 114.5 -38t37.5 -118z" />
    <glyph glyph-name="asciitilde" unicode="~" horiz-adv-x="437" 
d="M86 249l-45 8q9 49 36.5 72.5t64.5 23.5q35 0 79.5 -29t69.5 -29q49 0 60 56l44 -8q-8 -47 -35.5 -71.5t-65.5 -24.5q-33 0 -77.5 29t-70.5 29q-50 0 -60 -56z" />
    <glyph glyph-name="exclamdown" unicode="&#xa1;" horiz-adv-x="214" 
d="M160 452q0 -23 -15 -38t-38 -15t-38 15.5t-15 37.5q0 23 15 38t38 15t38 -15t15 -38zM83 310l49 -5l13 -240v-267l-76 5v262z" />
    <glyph glyph-name="cent" unicode="&#xa2;" horiz-adv-x="470" 
d="M293 -72l-46 -5v73q-96 8 -149.5 75.5t-53.5 178.5t54 178.5t149 75.5v68l46 5v-73q78 -5 124 -41v-100l-54 -4l-9 79q-36 12 -75 12q-76 0 -115.5 -51t-39.5 -143q0 -99 42 -152.5t122 -53.5q71 0 117 31l22 -40q-50 -40 -134 -45v-68z" />
    <glyph glyph-name="sterling" unicode="&#xa3;" horiz-adv-x="553" 
d="M107 366v130q0 95 59 152t159 57q99 0 170 -60v-125l-52 -4l-8 102q-44 32 -99 32q-71 0 -110 -42t-39 -112v-129h176l-5 -51h-171v-263h264l5 79l51 5v-137h-470v46l70 9v261h-67l4 46z" />
    <glyph glyph-name="currency" unicode="&#xa4;" horiz-adv-x="487" 
d="M71 325q0 64 32 107l-67 68l36 29l65 -66q42 33 106 33t106 -33l66 66l36 -29l-68 -68q32 -45 32 -107q0 -63 -32 -108l68 -67l-36 -29l-66 65q-43 -32 -106 -32t-106 32l-65 -65l-36 29l67 67q-32 43 -32 108zM128 325q0 -58 31 -91t84 -33t84 33t31 91t-31 91t-84 33
t-84 -33t-31 -91z" />
    <glyph glyph-name="yen" unicode="&#xa5;" horiz-adv-x="695" 
d="M172 237l5 43h132v15l-212 348l-72 8l-3 42q44 11 93 11q22 0 34 -9t23 -30l179 -306l174 294h-73v47h220v-47l-70 -11l-210 -347v-15h137l-5 -43h-132v-69h137l-5 -43h-132v-78h63v-47h-210v47l64 11v67h-137l5 43h132v69h-137z" />
    <glyph glyph-name="brokenbar" unicode="&#xa6;" horiz-adv-x="248" 
d="M147 -247l-46 -5v449l46 5v-449zM147 303l-46 -5v449l46 5v-449z" />
    <glyph glyph-name="section" unicode="&#xa7;" horiz-adv-x="514" 
d="M63 231l73 9q0 -50 34 -83t82 -52t96 -38.5t82 -58t34 -95.5q0 -76 -55.5 -122t-162.5 -46q-112 0 -200 52v132l50 4l7 -97q59 -36 132 -36q71 0 108.5 31.5t37.5 81.5q0 44 -33 73t-79.5 46t-93 37t-79.5 60.5t-33 101.5zM456 215l-77 -9q0 38 -18 67t-47 46.5t-63.5 32
t-69.5 30t-64 35t-47 51.5t-18 75q0 74 51.5 118t150.5 44q106 0 180 -46v-133l-50 -4l-8 101q-56 27 -115 27q-63 0 -96 -29.5t-33 -75.5q0 -37 24 -64t60 -41t78 -32.5t78 -38.5t60 -59.5t24 -94.5z" />
    <glyph glyph-name="dieresis" unicode="&#xa8;" horiz-adv-x="374" 
d="M51 627q0 19 12.5 31.5t31.5 12.5t31.5 -12.5t12.5 -31.5t-12.5 -31.5t-31.5 -12.5t-31.5 12.5t-12.5 31.5zM235 627q0 19 12.5 31.5t31.5 12.5t31.5 -12.5t12.5 -31.5t-12.5 -31.5t-31.5 -12.5t-31.5 12.5t-12.5 31.5z" />
    <glyph glyph-name="copyright" unicode="&#xa9;" horiz-adv-x="812" 
d="M54 350q0 163 95.5 259t256.5 96t256.5 -96t95.5 -259t-95.5 -259t-256.5 -96t-256.5 96t-95.5 259zM106 350q0 -143 80.5 -225t219.5 -82t219.5 82.5t80.5 224.5t-80.5 224.5t-219.5 82.5t-219.5 -82t-80.5 -225zM516 202q-42 -30 -101 -30q-71 0 -112 48t-41 130
t41 130t111 48q56 0 99 -30v-65l-32 -2l-4 51q-26 14 -52 14q-55 0 -83.5 -38.5t-28.5 -107.5t28.5 -107.5t83.5 -38.5q24 0 54 13l5 50l32 2v-67z" />
    <glyph glyph-name="ordfeminine" unicode="&#xaa;" horiz-adv-x="371" 
d="M74 639l-17 30q47 35 112 35q60 0 92.5 -32.5t32.5 -89.5v-177q0 -21 17 -21q9 0 24 5l5 -27q-32 -15 -57 -15q-41 0 -46 36q-43 -37 -101 -37q-44 0 -70.5 25t-26.5 64q0 38 25 62.5t69 30.5l103 14v40q0 39 -21 60.5t-60 21.5q-43 0 -81 -25zM153 386q55 0 83 34v89
l-89 -13q-56 -9 -56 -57q0 -25 16.5 -39t45.5 -14z" />
    <glyph glyph-name="guillemotleft" unicode="&#xab;" horiz-adv-x="448" 
d="M233 155l-32 -22l-153 167l157 168l26 -28l-114 -141zM385 155l-32 -22l-153 167l158 168l26 -28l-115 -141z" />
    <glyph glyph-name="logicalnot" unicode="&#xac;" horiz-adv-x="542" 
d="M40 326l5 46h437v-178l-46 -5v137h-396z" />
    <glyph glyph-name="uni00AD" unicode="&#xad;" horiz-adv-x="287" 
d="M40 259l5 46h202l-5 -46h-202z" />
    <glyph glyph-name="registered" unicode="&#xae;" horiz-adv-x="812" 
d="M54 350q0 163 95.5 259t256.5 96t256.5 -96t95.5 -259t-95.5 -259t-256.5 -96t-256.5 96t-95.5 259zM106 350q0 -143 80.5 -225t219.5 -82t219.5 82.5t80.5 224.5t-80.5 224.5t-219.5 82.5t-219.5 -82t-80.5 -225zM277 180v27l31 7v289h-30v27h134q54 0 85.5 -26
t31.5 -71q0 -72 -71 -91l60 -129l35 -4l2 -25q-36 -6 -52 -6q-21 0 -30 22l-59 136h-56v-129h30v-27h-111zM412 500h-54v-134h54q31 0 48.5 18t17.5 49t-17.5 49t-48.5 18z" />
    <glyph glyph-name="macron" unicode="&#xaf;" horiz-adv-x="301" 
d="M28 615l4 47h242l-4 -47h-242z" />
    <glyph glyph-name="degree" unicode="&#xb0;" horiz-adv-x="324" 
d="M51 593q0 52 30 82t81 30t81 -30t30 -82t-30 -82t-81 -30t-81 30t-30 82zM95 593q0 -33 18.5 -53t48.5 -20t48 19.5t18 53.5t-18 53t-48 19t-48.5 -19.5t-18.5 -52.5z" />
    <glyph glyph-name="plusminus" unicode="&#xb1;" horiz-adv-x="438" 
d="M40 301l5 46h151v152l46 4v-156h156l-5 -46h-151v-151l-46 -5v156h-156zM40 0l5 46h353l-5 -46h-353z" />
    <glyph glyph-name="twosuperior" unicode="&#xb2;" horiz-adv-x="287" 
d="M254 423v-73h-217v25q127 152 139 170q23 33 23 59q0 32 -19 48.5t-51 16.5q-26 0 -56 -15l-4 -52l-32 3v71q44 27 97 27q56 0 85 -26.5t29 -72.5q0 -34 -25 -70.5t-123 -150.5h119l3 38z" />
    <glyph glyph-name="threesuperior" unicode="&#xb3;" horiz-adv-x="291" 
d="M135 703q51 0 81 -25t30 -67q0 -60 -57 -81q34 -9 53 -31.5t19 -54.5q0 -44 -35.5 -70.5t-90.5 -26.5q-57 0 -101 31l18 26q34 -23 76 -23q35 0 57.5 18.5t22.5 49.5q0 28 -19 45.5t-49 17.5h-38l3 31h24q29 0 47 17.5t18 46.5q0 28 -16.5 45t-46.5 17t-56 -16l-4 -46
l-32 2v64q41 30 96 30z" />
    <glyph glyph-name="acute" unicode="&#xb4;" horiz-adv-x="301" 
d="M73 575l-19 34l167 127l31 -48z" />
    <glyph glyph-name="mu" unicode="&#xb5;" horiz-adv-x="593" 
d="M38 -200v47l59 11v587l-56 7l-3 43q55 10 97 10t42 -39v-316q5 -100 101 -100q36 0 74 14t65 39v342l-57 7l-3 43q57 10 97 10q42 0 42 -39v-389q0 -31 25 -31q15 0 34 8l7 -37q-42 -21 -79 -21q-61 0 -66 57q-73 -58 -168 -58q-41 0 -72 14v-162h57v-47h-196z" />
    <glyph glyph-name="paragraph" unicode="&#xb6;" horiz-adv-x="467" 
d="M366 -98l-69 -5v415h-39q-99 0 -159 52.5t-60 141.5t59.5 141.5t159.5 52.5h172v-47l-64 -11v-740z" />
    <glyph glyph-name="periodcentered" unicode="&#xb7;" horiz-adv-x="214" 
d="M54 280q0 22 15 37.5t38 15.5t38 -15t15 -38t-15 -38t-38 -15t-38 15.5t-15 37.5z" />
    <glyph glyph-name="cedilla" unicode="&#xb8;" horiz-adv-x="213" 
d="M79 0h43q1 -30 26.5 -61.5t25.5 -59.5q0 -75 -106 -87l-9 51q63 12 63 52q0 17 -21.5 43t-21.5 62z" />
    <glyph glyph-name="onesuperior" unicode="&#xb9;" horiz-adv-x="201" 
d="M34 350v29l43 6v281h-46l-2 27q30 10 70 10q29 0 29 -23v-301h39v-29h-133z" />
    <glyph glyph-name="ordmasculine" unicode="&#xba;" horiz-adv-x="396" 
d="M40 525q0 82 42.5 130.5t115.5 48.5q72 0 115 -48.5t43 -130.5t-43 -130.5t-115 -48.5q-73 0 -115.5 48.5t-42.5 130.5zM98 525q0 -64 27 -101.5t73 -37.5t73 37.5t27 101.5t-27 101.5t-73 37.5t-73 -37.5t-27 -101.5z" />
    <glyph glyph-name="guillemotright" unicode="&#xbb;" horiz-adv-x="448" 
d="M63 444l32 22l153 -167l-157 -167l-26 27l114 141zM216 444l32 22l153 -167l-157 -167l-26 27l114 141z" />
    <glyph glyph-name="onequarter" unicode="&#xbc;" horiz-adv-x="577" 
d="M98 -7l-42 20l400 693l42 -19zM506 0h-48v82h-150v20l87 248l47 -1l-81 -234h97v135l48 -1v-134h33l-2 -33h-31v-82zM34 350v29l43 6v281h-46l-2 27q30 10 70 10q29 0 29 -23v-301h39v-29h-133z" />
    <glyph glyph-name="onehalf" unicode="&#xbd;" horiz-adv-x="619" 
d="M34 350v29l43 6v281h-46l-2 27q30 10 70 10q29 0 29 -23v-301h39v-29h-133zM98 -7l-42 20l400 693l42 -19zM579 73v-73h-217v25q127 151 142 173q20 31 20 56q0 32 -18.5 48.5t-50.5 16.5q-27 0 -57 -15l-4 -52l-32 3v71q45 27 98 27q55 0 84.5 -26.5t29.5 -72.5
q0 -34 -25 -70t-124 -151h119l4 38z" />
    <glyph glyph-name="threequarters" unicode="&#xbe;" horiz-adv-x="606" 
d="M138 -7l-42 20l400 693l42 -19zM135 703q51 0 81 -25t30 -67q0 -60 -57 -81q34 -9 53 -31.5t19 -54.5q0 -44 -35.5 -70.5t-90.5 -26.5q-57 0 -101 31l18 26q34 -23 76 -23q35 0 57.5 18.5t22.5 49.5q0 28 -19 45.5t-49 17.5h-38l3 31h24q29 0 47 17.5t18 46.5
q0 28 -16.5 45t-46.5 17t-56 -16l-4 -46l-32 2v64q41 30 96 30zM538 0h-47v82h-151v20l87 248l47 -1l-80 -234h97v135l47 -1v-134h34l-3 -33h-31v-82z" />
    <glyph glyph-name="questiondown" unicode="&#xbf;" horiz-adv-x="482" 
d="M436 -27v-132q-74 -46 -179 -46q-98 0 -150.5 47.5t-52.5 124.5q0 75 47 126.5t117 80.5l7 136l49 -5l10 -168q-63 -26 -106 -70.5t-43 -103.5q0 -49 32.5 -81t94.5 -32q64 0 116 26l8 102zM303 452q0 -22 -15.5 -37.5t-37.5 -15.5q-23 0 -38 15t-15 38t15 38t38 15
t38 -15t15 -38z" />
    <glyph glyph-name="Agrave" unicode="&#xc0;" horiz-adv-x="735" 
d="M412 665l237 -618h63v-47h-215v47l61 11l-55 151h-280l-57 -162h66v-47h-209v47l60 11l223 586l-61 7l-3 42q57 11 113 11q42 0 57 -39zM362 612l-123 -349h247zM240 851l40 42l165 -128l-25 -28z" />
    <glyph glyph-name="Aacute" unicode="&#xc1;" horiz-adv-x="735" 
d="M412 665l237 -618h63v-47h-215v47l61 11l-55 151h-280l-57 -162h66v-47h-209v47l60 11l223 586l-61 7l-3 42q57 11 113 11q42 0 57 -39zM362 612l-123 -349h247zM302 735l-18 34l167 127l30 -48z" />
    <glyph glyph-name="Acircumflex" unicode="&#xc2;" horiz-adv-x="735" 
d="M412 665l237 -618h63v-47h-215v47l61 11l-55 151h-280l-57 -162h66v-47h-209v47l60 11l223 586l-61 7l-3 42q57 11 113 11q42 0 57 -39zM362 612l-123 -349h247zM238 734l-22 32l150 137l151 -141l-28 -26l-124 97z" />
    <glyph glyph-name="Atilde" unicode="&#xc3;" horiz-adv-x="735" 
d="M412 665l237 -618h63v-47h-215v47l61 11l-55 151h-280l-57 -162h66v-47h-209v47l60 11l223 586l-61 7l-3 42q57 11 113 11q42 0 57 -39zM362 612l-123 -349h247zM255 748l-45 7q8 44 31 65.5t55 21.5q29 0 67.5 -24t57.5 -24q41 0 49 46l45 -7q-7 -43 -30.5 -65
t-55.5 -22q-29 0 -67 24t-58 24q-41 0 -49 -46z" />
    <glyph glyph-name="Adieresis" unicode="&#xc4;" horiz-adv-x="735" 
d="M412 665l237 -618h63v-47h-215v47l61 11l-55 151h-280l-57 -162h66v-47h-209v47l60 11l223 586l-61 7l-3 42q57 11 113 11q42 0 57 -39zM362 612l-123 -349h247zM226 787q0 19 12.5 32t31.5 13t31.5 -13t12.5 -32t-12.5 -31.5t-31.5 -12.5t-31.5 12.5t-12.5 31.5z
M410 787q0 19 12.5 32t31.5 13t31.5 -13t12.5 -32t-12.5 -31.5t-31.5 -12.5t-31.5 12.5t-12.5 31.5z" />
    <glyph glyph-name="Aring" unicode="&#xc5;" horiz-adv-x="735" 
d="M412 665l237 -618h63v-47h-215v47l61 11l-55 151h-280l-57 -162h66v-47h-209v47l60 11l223 586l-61 7l-3 42q57 11 113 11q42 0 57 -39zM362 612l-123 -349h247zM283 811q0 36 21.5 57.5t57.5 21.5t57.5 -21t21.5 -58t-21.5 -58t-57.5 -21t-57.5 21.5t-21.5 57.5z
M320 811q0 -21 11 -33t31 -12q19 0 30 12t11 33q0 45 -41 45q-42 0 -42 -45z" />
    <glyph glyph-name="AE" unicode="&#xc6;" horiz-adv-x="820" 
d="M325 0v47l64 11v151h-158l-66 -162h66v-47h-208v47l60 11l249 586l-60 6l-4 42q51 8 113 8h391v-132l-51 -5l-6 85h-243v-262h174l5 56l49 4v-170l-49 -4l-5 60h-174v-279h247l5 79l51 5v-137h-450zM389 619l-144 -356h144v356z" />
    <glyph glyph-name="Ccedilla" unicode="&#xc7;" horiz-adv-x="609" 
d="M555 54q-78 -56 -190 -59q2 -27 27 -57t25 -59q0 -75 -106 -87l-9 51q63 12 63 52q0 17 -20.5 42.5t-21.5 59.5q-126 11 -197.5 105t-71.5 248q0 164 80.5 259.5t219.5 95.5q114 0 194 -60v-125l-52 -4l-8 102q-50 32 -115 32q-114 0 -175 -79.5t-61 -220.5t61.5 -220.5
t175.5 -79.5q64 0 118 30l9 100l54 4v-130z" />
    <glyph glyph-name="Egrave" unicode="&#xc8;" horiz-adv-x="569" 
d="M37 0v47l64 11v595h-63v47h482v-132l-50 -5l-6 85h-280v-262h211l5 56l49 4v-170l-50 -4l-5 60h-210v-279h284l4 79l51 5v-137h-486zM175 851l39 42l166 -128l-25 -28z" />
    <glyph glyph-name="Eacute" unicode="&#xc9;" horiz-adv-x="569" 
d="M37 0v47l64 11v595h-63v47h482v-132l-50 -5l-6 85h-280v-262h211l5 56l49 4v-170l-50 -4l-5 60h-210v-279h284l4 79l51 5v-137h-486zM237 736l-18 33l167 127l30 -47z" />
    <glyph glyph-name="Ecircumflex" unicode="&#xca;" horiz-adv-x="569" 
d="M37 0v47l64 11v595h-63v47h482v-132l-50 -5l-6 85h-280v-262h211l5 56l49 4v-170l-50 -4l-5 60h-210v-279h284l4 79l51 5v-137h-486zM175 734l-22 32l150 137l151 -141l-28 -26l-124 97z" />
    <glyph glyph-name="Edieresis" unicode="&#xcb;" horiz-adv-x="569" 
d="M37 0v47l64 11v595h-63v47h482v-132l-50 -5l-6 85h-280v-262h211l5 56l49 4v-170l-50 -4l-5 60h-210v-279h284l4 79l51 5v-137h-486zM159 787q0 19 12.5 32t32.5 13q19 0 31.5 -13t12.5 -32t-12.5 -31.5t-31.5 -12.5t-32 12.5t-13 31.5zM343 787q0 19 12.5 32t32.5 13
q19 0 31.5 -13t12.5 -32t-12.5 -31.5t-31.5 -12.5t-32 12.5t-13 31.5z" />
    <glyph glyph-name="Igrave" unicode="&#xcc;" horiz-adv-x="284" 
d="M248 700v-47l-64 -11v-595h62v-47h-209v47l64 11v595h-63v47h210zM20 851l39 42l166 -128l-25 -28z" />
    <glyph glyph-name="Iacute" unicode="&#xcd;" horiz-adv-x="284" 
d="M248 700v-47l-64 -11v-595h62v-47h-209v47l64 11v595h-63v47h210zM82 736l-18 33l167 127l30 -47z" />
    <glyph glyph-name="Icircumflex" unicode="&#xce;" horiz-adv-x="284" 
d="M248 700v-47l-64 -11v-595h62v-47h-209v47l64 11v595h-63v47h210zM14 734l-22 32l150 137l151 -141l-28 -26l-124 97z" />
    <glyph glyph-name="Idieresis" unicode="&#xcf;" horiz-adv-x="284" 
d="M248 700v-47l-64 -11v-595h62v-47h-209v47l64 11v595h-63v47h210zM6 787q0 19 12.5 32t31.5 13t31.5 -13t12.5 -32t-12.5 -31.5t-31.5 -12.5t-31.5 12.5t-12.5 31.5zM190 787q0 19 12.5 32t31.5 13t31.5 -13t12.5 -32t-12.5 -31.5t-31.5 -12.5t-31.5 12.5t-12.5 31.5z
" />
    <glyph glyph-name="Eth" unicode="&#xd0;" horiz-adv-x="670" 
d="M28 328l5 46h68v279h-70v47h284q139 0 220 -93.5t81 -256.5t-81 -256.5t-220 -93.5h-285v47l71 11v270h-73zM315 648h-131v-274h160l-5 -46h-155v-276h131q101 0 159.5 79.5t58.5 218.5t-58.5 218.5t-159.5 79.5z" />
    <glyph glyph-name="Ntilde" unicode="&#xd1;" horiz-adv-x="705" 
d="M188 671l344 -528v510h-63v47h199v-47l-64 -11v-642h-72l-359 556v-509h63v-47h-199v47l64 11v587l-63 7l-3 43q52 10 99 10q33 0 54 -34zM244 748l-44 7q7 44 30 65.5t56 21.5q29 0 67 -24t57 -24q41 0 49 46l45 -7q-7 -43 -30 -65t-55 -22q-29 0 -68 24t-58 24
q-39 0 -49 -46z" />
    <glyph glyph-name="Ograve" unicode="&#xd2;" horiz-adv-x="687" 
d="M54 350q0 163 78.5 259t211.5 96q132 0 210.5 -96t78.5 -259t-78.5 -259t-210.5 -96q-133 0 -211.5 96t-78.5 259zM137 350q0 -139 55.5 -219.5t151.5 -80.5q95 0 150.5 80.5t55.5 219.5t-55.5 219.5t-150.5 80.5q-96 0 -151.5 -80.5t-55.5 -219.5zM221 851l39 42
l166 -128l-25 -28z" />
    <glyph glyph-name="Oacute" unicode="&#xd3;" horiz-adv-x="687" 
d="M54 350q0 163 78.5 259t211.5 96q132 0 210.5 -96t78.5 -259t-78.5 -259t-210.5 -96q-133 0 -211.5 96t-78.5 259zM137 350q0 -139 55.5 -219.5t151.5 -80.5q95 0 150.5 80.5t55.5 219.5t-55.5 219.5t-150.5 80.5q-96 0 -151.5 -80.5t-55.5 -219.5zM283 736l-19 33
l167 127l31 -47z" />
    <glyph glyph-name="Ocircumflex" unicode="&#xd4;" horiz-adv-x="687" 
d="M54 350q0 163 78.5 259t211.5 96q132 0 210.5 -96t78.5 -259t-78.5 -259t-210.5 -96q-133 0 -211.5 96t-78.5 259zM137 350q0 -139 55.5 -219.5t151.5 -80.5q95 0 150.5 80.5t55.5 219.5t-55.5 219.5t-150.5 80.5q-96 0 -151.5 -80.5t-55.5 -219.5zM214 734l-21 32
l149 137l151 -141l-27 -26l-124 97z" />
    <glyph glyph-name="Otilde" unicode="&#xd5;" horiz-adv-x="687" 
d="M54 350q0 163 78.5 259t211.5 96q132 0 210.5 -96t78.5 -259t-78.5 -259t-210.5 -96q-133 0 -211.5 96t-78.5 259zM137 350q0 -139 55.5 -219.5t151.5 -80.5q95 0 150.5 80.5t55.5 219.5t-55.5 219.5t-150.5 80.5q-96 0 -151.5 -80.5t-55.5 -219.5zM236 748l-45 7
q16 87 86 87q29 0 67.5 -24t57.5 -24q39 0 49 46l44 -7q-6 -43 -29.5 -65t-55.5 -22q-28 0 -67 24t-58 24q-41 0 -49 -46z" />
    <glyph glyph-name="Odieresis" unicode="&#xd6;" horiz-adv-x="687" 
d="M54 350q0 163 78.5 259t211.5 96q132 0 210.5 -96t78.5 -259t-78.5 -259t-210.5 -96q-133 0 -211.5 96t-78.5 259zM137 350q0 -139 55.5 -219.5t151.5 -80.5q95 0 150.5 80.5t55.5 219.5t-55.5 219.5t-150.5 80.5q-96 0 -151.5 -80.5t-55.5 -219.5zM207 787q0 19 12.5 32
t32.5 13q19 0 31.5 -13t12.5 -32t-12.5 -31.5t-31.5 -12.5t-32 12.5t-13 31.5zM391 787q0 19 12.5 32t32.5 13q19 0 31.5 -13t12.5 -32t-12.5 -31.5t-31.5 -12.5t-32 12.5t-13 31.5z" />
    <glyph glyph-name="multiply" unicode="&#xd7;" horiz-adv-x="438" 
d="M55 431l36 29l128 -127l128 128l36 -29l-131 -132l131 -132l-36 -29l-128 128l-128 -127l-36 29l131 131z" />
    <glyph glyph-name="Oslash" unicode="&#xd8;" horiz-adv-x="687" 
d="M162 -10l-41 20l33 57q-100 97 -100 283q0 163 78.5 259t211.5 96q88 0 153 -44l28 49l42 -20l-34 -58q100 -97 100 -282q0 -163 -78.5 -259t-210.5 -96q-89 0 -154 44zM135 350q0 -141 55 -220l275 476q-51 45 -121 45q-97 0 -153 -81t-56 -220zM552 350q0 137 -55 219
l-275 -475q50 -45 122 -45q96 0 152 81t56 220z" />
    <glyph glyph-name="Ugrave" unicode="&#xd9;" horiz-adv-x="722" 
d="M184 642v-383q0 -97 47.5 -153t129.5 -56t129 56t47 153v394h-63v47h211v-47l-64 -11v-383q0 -122 -70 -193t-190 -71t-190 71t-70 193v394h-63v47h210v-47zM238 851l39 42l166 -128l-25 -28z" />
    <glyph glyph-name="Uacute" unicode="&#xda;" horiz-adv-x="722" 
d="M184 642v-383q0 -97 47.5 -153t129.5 -56t129 56t47 153v394h-63v47h211v-47l-64 -11v-383q0 -122 -70 -193t-190 -71t-190 71t-70 193v394h-63v47h210v-47zM300 736l-18 33l167 127l30 -47z" />
    <glyph glyph-name="Ucircumflex" unicode="&#xdb;" horiz-adv-x="722" 
d="M184 642v-383q0 -97 47.5 -153t129.5 -56t129 56t47 153v394h-63v47h211v-47l-64 -11v-383q0 -122 -70 -193t-190 -71t-190 71t-70 193v394h-63v47h210v-47zM231 734l-21 32l149 137l152 -141l-28 -26l-124 97z" />
    <glyph glyph-name="Udieresis" unicode="&#xdc;" horiz-adv-x="722" 
d="M184 642v-383q0 -97 47.5 -153t129.5 -56t129 56t47 153v394h-63v47h211v-47l-64 -11v-383q0 -122 -70 -193t-190 -71t-190 71t-70 193v394h-63v47h210v-47zM225 787q0 19 12.5 32t31.5 13t31.5 -13t12.5 -32t-12.5 -31.5t-31.5 -12.5t-31.5 12.5t-12.5 31.5zM409 787
q0 19 12.5 32t31.5 13t31.5 -13t12.5 -32t-12.5 -31.5t-31.5 -12.5t-31.5 12.5t-12.5 31.5z" />
    <glyph glyph-name="Yacute" unicode="&#xdd;" horiz-adv-x="695" 
d="M602 642l-210 -347v-248h63v-47h-210v47l64 11v237l-212 348l-72 8l-3 42q44 11 93 11q22 0 34 -9t23 -30l179 -306l174 294h-73v47h220v-47zM291 736l-18 33l167 127l31 -47z" />
    <glyph glyph-name="Thorn" unicode="&#xde;" horiz-adv-x="548" 
d="M248 700v-47l-64 -11v-94h93q103 0 164 -50.5t61 -137.5t-61 -138t-164 -51h-93v-124h62v-47h-209v47l64 11v595h-63v47h210zM277 497h-93v-274h93q65 0 103.5 37t38.5 100t-38.5 100t-103.5 37z" />
    <glyph glyph-name="germandbls" unicode="&#xdf;" horiz-adv-x="630" 
d="M328 391q0 -40 25.5 -64.5t61.5 -37t72 -26.5t61.5 -45t25.5 -81q0 -66 -41.5 -104t-125.5 -38q-86 0 -151 37v98l55 4l6 -73q42 -17 84 -17q50 0 75.5 22.5t25.5 60.5q0 27 -13.5 46t-35 30.5t-47.5 21.5t-52 22t-47.5 28t-35 44.5t-13.5 67.5q0 32 10.5 58t25 43.5
t29 34.5t25 39.5t10.5 49.5q0 40 -22.5 64t-68.5 24q-90 0 -90 -97v-603h-139v47l59 11v390h-61l4 47l57 4v104q0 73 43.5 112.5t123.5 39.5q87 0 128.5 -42t41.5 -104q0 -37 -16.5 -67t-36.5 -48t-36.5 -45t-16.5 -58z" />
    <glyph glyph-name="agrave" unicode="&#xe0;" horiz-adv-x="502" 
d="M91 415l-22 41q65 49 159 49q85 0 131 -46t46 -126v-256q0 -31 25 -31q13 0 34 8l6 -37q-42 -21 -79 -21q-59 0 -65 53q-62 -54 -144 -54q-63 0 -101.5 35t-38.5 92q0 53 35 87.5t99 43.5l149 20v60q0 55 -30 86t-87 31q-64 0 -117 -35zM204 50q33 0 66.5 12.5t54.5 36.5
v130l-130 -20q-39 -6 -60 -28t-21 -55q0 -36 24 -56t66 -20zM116 690l39 42l166 -127l-25 -29z" />
    <glyph glyph-name="aacute" unicode="&#xe1;" horiz-adv-x="502" 
d="M91 415l-22 41q65 49 159 49q85 0 131 -46t46 -126v-256q0 -31 25 -31q13 0 34 8l6 -37q-42 -21 -79 -21q-59 0 -65 53q-62 -54 -144 -54q-63 0 -101.5 35t-38.5 92q0 53 35 87.5t99 43.5l149 20v60q0 55 -30 86t-87 31q-64 0 -117 -35zM204 50q33 0 66.5 12.5t54.5 36.5
v130l-130 -20q-39 -6 -60 -28t-21 -55q0 -36 24 -56t66 -20zM170 575l-18 34l167 127l30 -48z" />
    <glyph glyph-name="acircumflex" unicode="&#xe2;" horiz-adv-x="502" 
d="M91 415l-22 41q65 49 159 49q85 0 131 -46t46 -126v-256q0 -31 25 -31q13 0 34 8l6 -37q-42 -21 -79 -21q-59 0 -65 53q-62 -54 -144 -54q-63 0 -101.5 35t-38.5 92q0 53 35 87.5t99 43.5l149 20v60q0 55 -30 86t-87 31q-64 0 -117 -35zM204 50q33 0 66.5 12.5t54.5 36.5
v130l-130 -20q-39 -6 -60 -28t-21 -55q0 -36 24 -56t66 -20zM109 573l-22 32l150 138l151 -142l-28 -26l-124 97z" />
    <glyph glyph-name="atilde" unicode="&#xe3;" horiz-adv-x="502" 
d="M91 415l-22 41q65 49 159 49q85 0 131 -46t46 -126v-256q0 -31 25 -31q13 0 34 8l6 -37q-42 -21 -79 -21q-59 0 -65 53q-62 -54 -144 -54q-63 0 -101.5 35t-38.5 92q0 53 35 87.5t99 43.5l149 20v60q0 55 -30 86t-87 31q-64 0 -117 -35zM204 50q33 0 66.5 12.5t54.5 36.5
v130l-130 -20q-39 -6 -60 -28t-21 -55q0 -36 24 -56t66 -20zM126 587l-44 8q7 43 30.5 64.5t55.5 21.5q29 0 67 -23.5t57 -23.5q41 0 49 46l45 -8q-7 -42 -30 -64t-55 -22q-29 0 -68 23.5t-58 23.5q-40 0 -49 -46z" />
    <glyph glyph-name="adieresis" unicode="&#xe4;" horiz-adv-x="502" 
d="M93 415l-23 41q66 49 159 49q85 0 131 -45.5t46 -126.5v-256q0 -31 25 -31q15 0 34 8l7 -37q-44 -21 -79 -21q-59 0 -65 53q-62 -54 -145 -54q-63 0 -101 35t-38 92q0 53 35 87.5t99 43.5l149 20v60q0 56 -30 86.5t-88 30.5q-65 0 -116 -35zM205 50q77 0 122 49v130
l-130 -20q-40 -6 -61 -28t-21 -55q0 -36 24 -56t66 -20zM97 627q0 19 12.5 31.5t31.5 12.5t32 -12.5t13 -31.5t-13 -31.5t-32 -12.5t-31.5 12.5t-12.5 31.5zM281 627q0 19 12.5 31.5t31.5 12.5t32 -12.5t13 -31.5t-13 -31.5t-32 -12.5t-31.5 12.5t-12.5 31.5z" />
    <glyph glyph-name="aring" unicode="&#xe5;" horiz-adv-x="502" 
d="M91 415l-22 41q65 49 159 49q85 0 131 -46t46 -126v-256q0 -31 25 -31q13 0 34 8l6 -37q-42 -21 -79 -21q-59 0 -65 53q-62 -54 -144 -54q-63 0 -101.5 35t-38.5 92q0 53 35 87.5t99 43.5l149 20v60q0 55 -30 86t-87 31q-64 0 -117 -35zM204 50q33 0 66.5 12.5t54.5 36.5
v130l-130 -20q-39 -6 -60 -28t-21 -55q0 -36 24 -56t66 -20zM161 651q0 36 21.5 57.5t56.5 21.5q36 0 58 -21.5t22 -57.5q0 -37 -22 -58.5t-58 -21.5q-35 0 -56.5 21.5t-21.5 58.5zM197 651q0 -21 11.5 -33.5t30.5 -12.5q20 0 31 12t11 34q0 21 -11 33t-31 12
q-19 0 -30.5 -12t-11.5 -33z" />
    <glyph glyph-name="ae" unicode="&#xe6;" horiz-adv-x="754" 
d="M91 415l-22 41q65 49 159 49q95 0 136 -64q53 64 150 64q85 0 133.5 -45.5t48.5 -128.5q0 -37 -8 -72h-285v-142q45 -67 143 -67q76 0 122 30l23 -42q-65 -43 -157 -43q-120 0 -184 78q-30 -37 -75 -57.5t-93 -20.5q-63 0 -101.5 35t-38.5 92q0 53 35 87.5t99 43.5
l149 21v59q0 55 -30 86t-87 31q-64 0 -117 -35zM204 50q33 0 66.5 12.5t54.5 36.5v130l-130 -20q-39 -6 -60 -28t-21 -55q0 -36 24 -56t66 -20zM514 450q-79 0 -115 -65q4 -32 4 -80h223q3 19 3 35q0 52 -31.5 81t-83.5 29z" />
    <glyph glyph-name="ccedilla" unicode="&#xe7;" horiz-adv-x="470" 
d="M417 463v-100l-54 -4l-9 79q-36 12 -74 12q-77 0 -116.5 -51t-39.5 -143q0 -99 42 -152.5t122 -53.5q71 0 117 31l22 -40q-53 -43 -141 -46q2 -27 27 -57t25 -59q0 -75 -106 -87l-9 51q64 12 64 52q0 17 -21 42.5t-22 59.5q-94 9 -147 76.5t-53 177.5q0 118 61 186
t167 68q93 0 145 -42z" />
    <glyph glyph-name="egrave" unicode="&#xe8;" horiz-adv-x="503" 
d="M438 259h-315q-5 -99 39.5 -154t132.5 -55q75 0 122 30l24 -42q-65 -43 -157 -43q-110 0 -175 68t-65 190q0 116 58 184t162 68q84 0 132.5 -46t48.5 -128q0 -36 -7 -72zM264 450q-60 0 -96 -38.5t-43 -106.5h251q2 13 2 35q0 52 -31.5 81t-82.5 29zM141 690l39 42
l166 -127l-25 -29z" />
    <glyph glyph-name="eacute" unicode="&#xe9;" horiz-adv-x="503" 
d="M438 259h-315q-5 -99 39.5 -154t132.5 -55q75 0 122 30l24 -42q-65 -43 -157 -43q-110 0 -175 68t-65 190q0 116 58 184t162 68q84 0 132.5 -46t48.5 -128q0 -36 -7 -72zM264 450q-60 0 -96 -38.5t-43 -106.5h251q2 13 2 35q0 52 -31.5 81t-82.5 29zM203 575l-19 34
l167 127l31 -48z" />
    <glyph glyph-name="ecircumflex" unicode="&#xea;" horiz-adv-x="503" 
d="M438 259h-315q-5 -99 39.5 -154t132.5 -55q75 0 122 30l24 -42q-65 -43 -157 -43q-110 0 -175 68t-65 190q0 116 58 184t162 68q84 0 132.5 -46t48.5 -128q0 -36 -7 -72zM264 450q-60 0 -96 -38.5t-43 -106.5h251q2 13 2 35q0 52 -31.5 81t-82.5 29zM134 573l-21 32
l149 138l151 -142l-27 -26l-125 97z" />
    <glyph glyph-name="edieresis" unicode="&#xeb;" horiz-adv-x="503" 
d="M438 259h-314q-5 -99 39.5 -154t132.5 -55q76 0 121 30l24 -42q-65 -43 -157 -43q-110 0 -175 68t-65 190q0 116 58.5 184t161.5 68q85 0 133.5 -45.5t48.5 -128.5q0 -30 -8 -72zM264 450q-60 0 -95.5 -38.5t-43.5 -106.5h251q3 19 3 35q0 52 -31.5 81t-83.5 29zM123 627
q0 19 13 31.5t32 12.5t31.5 -12.5t12.5 -31.5t-12.5 -31.5t-31.5 -12.5t-32 12.5t-13 31.5zM307 627q0 19 13 31.5t32 12.5t31.5 -12.5t12.5 -31.5t-12.5 -31.5t-31.5 -12.5t-32 12.5t-13 31.5z" />
    <glyph glyph-name="igrave" unicode="&#xec;" horiz-adv-x="274" 
d="M7 690l39 42l166 -127l-25 -29zM38 0v47l59 11v387l-56 7l-3 43q55 10 98 10q41 0 41 -39v-419h57v-47h-196z" />
    <glyph glyph-name="iacute" unicode="&#xed;" horiz-adv-x="274" 
d="M69 575l-19 34l168 127l30 -48zM38 0v47l59 11v387l-56 7l-3 43q55 10 98 10q41 0 41 -39v-419h57v-47h-196z" />
    <glyph glyph-name="icircumflex" unicode="&#xee;" horiz-adv-x="274" 
d="M38 0v47l59 11v387l-56 7l-3 43q55 10 98 10q41 0 41 -39v-419h57v-47h-196zM4 573l-22 32l150 138l151 -142l-28 -26l-124 97z" />
    <glyph glyph-name="idieresis" unicode="&#xef;" horiz-adv-x="274" 
d="M38 0v47l59 11v387l-56 7l-3 43q55 10 98 10q41 0 41 -39v-419h57v-47h-196zM6 627q0 19 12.5 31.5t31.5 12.5t31.5 -12.5t12.5 -31.5t-12.5 -31.5t-31.5 -12.5t-31.5 12.5t-12.5 31.5zM163 627q0 19 12.5 31.5t31.5 12.5t32 -12.5t13 -31.5t-13 -31.5t-32 -12.5
t-31.5 12.5t-12.5 31.5z" />
    <glyph glyph-name="eth" unicode="&#xf0;" horiz-adv-x="548" 
d="M200 588l65 65q-33 27 -70.5 45t-58.5 22l-21 4l33 33q77 -8 159 -62l61 62l36 -29l-60 -60q150 -127 150 -372q0 -301 -224 -301q-107 0 -166.5 68t-59.5 187q0 115 54.5 185t143.5 70q82 0 151 -55q-28 102 -94 172l-63 -63zM414 286q0 44 -7 97q-24 29 -62 48t-80 19
q-66 0 -103.5 -53t-37.5 -147t37.5 -147t107.5 -53q67 0 106 58t39 178z" />
    <glyph glyph-name="ntilde" unicode="&#xf1;" horiz-adv-x="597" 
d="M361 0v47l59 11v282q0 110 -104 110q-36 0 -74.5 -14t-64.5 -39v-350h57v-47h-196v47l59 11v387l-56 7l-3 43q55 10 97 10t42 -39v-19q73 58 168 58q75 0 115 -43t40 -118v-297h57v-47h-196zM186 587l-44 8q7 43 30 64.5t55 21.5q29 0 67.5 -23.5t57.5 -23.5q41 0 49 46
l45 -8q-7 -42 -30 -64t-55 -22q-29 0 -68 23.5t-58 23.5q-40 0 -49 -46z" />
    <glyph glyph-name="ograve" unicode="&#xf2;" horiz-adv-x="539" 
d="M44 250q0 117 61 186t164 69q104 0 165 -68.5t61 -186.5t-61 -186.5t-165 -68.5q-103 0 -164 69t-61 186zM124 250q0 -93 39 -146.5t106 -53.5q68 0 107 53.5t39 146.5t-39 146.5t-107 53.5q-67 0 -106 -53.5t-39 -146.5zM146 690l40 42l165 -127l-24 -29z" />
    <glyph glyph-name="oacute" unicode="&#xf3;" horiz-adv-x="539" 
d="M44 250q0 117 61 186t164 69q104 0 165 -68.5t61 -186.5t-61 -186.5t-165 -68.5q-103 0 -164 69t-61 186zM124 250q0 -93 39 -146.5t106 -53.5q68 0 107 53.5t39 146.5t-39 146.5t-107 53.5q-67 0 -106 -53.5t-39 -146.5zM209 575l-19 34l167 127l31 -48z" />
    <glyph glyph-name="ocircumflex" unicode="&#xf4;" horiz-adv-x="539" 
d="M44 250q0 117 61 186t164 69q104 0 165 -68.5t61 -186.5t-61 -186.5t-165 -68.5q-103 0 -164 69t-61 186zM124 250q0 -93 39 -146.5t106 -53.5q68 0 107 53.5t39 146.5t-39 146.5t-107 53.5q-67 0 -106 -53.5t-39 -146.5zM140 573l-21 32l149 138l151 -142l-27 -26
l-125 97z" />
    <glyph glyph-name="otilde" unicode="&#xf5;" horiz-adv-x="539" 
d="M44 250q0 117 61 186t164 69q104 0 165 -68.5t61 -186.5t-61 -186.5t-165 -68.5q-103 0 -164 69t-61 186zM124 250q0 -93 39 -146.5t106 -53.5q68 0 107 53.5t39 146.5t-39 146.5t-107 53.5q-67 0 -106 -53.5t-39 -146.5zM162 587l-45 8q7 43 30.5 64.5t55.5 21.5
q28 0 66.5 -23.5t58.5 -23.5q40 0 48 46l45 -8q-7 -42 -30 -64t-55 -22q-28 0 -67.5 23.5t-58.5 23.5q-40 0 -48 -46z" />
    <glyph glyph-name="odieresis" unicode="&#xf6;" horiz-adv-x="539" 
d="M44 250q0 117 61 186t164 69q104 0 165 -68.5t61 -186.5t-61 -186.5t-165 -68.5q-103 0 -164 69t-61 186zM124 250q0 -93 39 -146.5t106 -53.5q68 0 107 53.5t39 146.5t-39 146.5t-107 53.5q-67 0 -106 -53.5t-39 -146.5zM133 627q0 19 12.5 31.5t31.5 12.5t32 -12.5
t13 -31.5t-13 -31.5t-32 -12.5t-31.5 12.5t-12.5 31.5zM317 627q0 19 12.5 31.5t31.5 12.5t32 -12.5t13 -31.5t-13 -31.5t-32 -12.5t-31.5 12.5t-12.5 31.5z" />
    <glyph glyph-name="divide" unicode="&#xf7;" horiz-adv-x="522" 
d="M40 259l5 46h437l-5 -46h-437zM211 105q0 20 13 33t33 13q19 0 32.5 -13.5t13.5 -32.5t-13.5 -32.5t-32.5 -13.5q-20 0 -33 13t-13 33zM211 459q0 20 13 33t33 13t33 -13t13 -33q0 -19 -13.5 -32.5t-32.5 -13.5q-20 0 -33 13t-13 33z" />
    <glyph glyph-name="oslash" unicode="&#xf8;" horiz-adv-x="539" 
d="M145 -10l-39 19l20 34q-82 69 -82 207q0 117 61 186t164 69q60 0 108 -25l18 30l39 -19l-20 -35q81 -70 81 -206q0 -118 -61 -186.5t-165 -68.5q-61 0 -107 24zM120 250q0 -94 40 -148l188 326q-35 24 -79 24q-69 0 -109 -54t-40 -148zM419 250q0 92 -40 146l-188 -325
q34 -23 78 -23q69 0 109.5 54t40.5 148z" />
    <glyph glyph-name="ugrave" unicode="&#xf9;" horiz-adv-x="593" 
d="M555 54l7 -37q-42 -21 -79 -21q-61 0 -66 57q-73 -58 -168 -58q-74 0 -113 43t-39 118v289l-56 7l-3 43q55 10 97 10t42 -39v-306q0 -110 101 -110q36 0 74 14t65 39v342l-57 7l-3 43q57 10 97 10q42 0 42 -39v-389q0 -31 25 -31q15 0 34 8zM174 690l39 42l166 -127
l-25 -29z" />
    <glyph glyph-name="uacute" unicode="&#xfa;" horiz-adv-x="593" 
d="M555 54l7 -37q-42 -21 -79 -21q-61 0 -66 57q-73 -58 -168 -58q-74 0 -113 43t-39 118v289l-56 7l-3 43q55 10 97 10t42 -39v-306q0 -110 101 -110q36 0 74 14t65 39v342l-57 7l-3 43q57 10 97 10q42 0 42 -39v-389q0 -31 25 -31q15 0 34 8zM236 575l-18 34l167 127
l30 -48z" />
    <glyph glyph-name="ucircumflex" unicode="&#xfb;" horiz-adv-x="593" 
d="M555 54l7 -37q-42 -21 -79 -21q-61 0 -66 57q-73 -58 -168 -58q-74 0 -113 43t-39 118v289l-56 7l-3 43q55 10 97 10t42 -39v-306q0 -110 101 -110q36 0 74 14t65 39v342l-57 7l-3 43q57 10 97 10q42 0 42 -39v-389q0 -31 25 -31q15 0 34 8zM168 573l-22 32l149 138
l152 -142l-28 -26l-124 97z" />
    <glyph glyph-name="udieresis" unicode="&#xfc;" horiz-adv-x="593" 
d="M555 54l7 -37q-42 -21 -79 -21q-61 0 -66 57q-73 -58 -168 -58q-74 0 -113 43t-39 118v289l-56 7l-3 43q55 10 97 10t42 -39v-306q0 -110 101 -110q36 0 74 14t65 39v342l-57 7l-3 43q57 10 97 10q42 0 42 -39v-389q0 -31 25 -31q15 0 34 8zM344 627q0 19 13 31.5
t32 12.5t31.5 -12.5t12.5 -31.5t-12.5 -31.5t-31.5 -12.5t-32 12.5t-13 31.5zM160 627q0 19 13 31.5t32 12.5t31.5 -12.5t12.5 -31.5t-12.5 -31.5t-31.5 -12.5t-32 12.5t-13 31.5z" />
    <glyph glyph-name="yacute" unicode="&#xfd;" horiz-adv-x="567" 
d="M551 500v-47l-56 -11l-210 -542q-33 -86 -65.5 -120.5t-82.5 -34.5q-60 0 -102 39l18 40q28 -24 66 -24q31 0 50.5 22.5t41.5 77.5l41 100l-175 443l-59 8l-3 42q50 11 87 11q36 0 49 -39l137 -380l130 368h-62v47h195zM228 575l-18 34l167 127l30 -48z" />
    <glyph glyph-name="thorn" unicode="&#xfe;" horiz-adv-x="562" 
d="M38 -250v47l59 11v887l-56 7l-3 43q55 10 97 10t42 -39v-264q58 53 136 53q91 0 147 -69.5t56 -185.5q0 -117 -58 -186t-157 -69q-69 0 -124 29v-227h79v-47h-218zM292 450q-73 0 -115 -49v-321q43 -30 106 -30q72 0 112.5 53.5t40.5 147.5q0 92 -38.5 145.5t-105.5 53.5
z" />
    <glyph glyph-name="ydieresis" unicode="&#xff;" horiz-adv-x="567" 
d="M551 500v-47l-56 -11l-210 -542q-33 -86 -65.5 -120.5t-82.5 -34.5q-60 0 -102 39l18 40q28 -24 66 -24q31 0 50.5 22.5t41.5 77.5l41 100l-175 443l-59 8l-3 42q50 11 87 11q36 0 49 -39l137 -380l130 368h-62v47h195zM152 627q0 19 12.5 31.5t31.5 12.5t31.5 -12.5
t12.5 -31.5t-12.5 -31.5t-31.5 -12.5t-31.5 12.5t-12.5 31.5zM336 627q0 19 12.5 31.5t31.5 12.5t31.5 -12.5t12.5 -31.5t-12.5 -31.5t-31.5 -12.5t-31.5 12.5t-12.5 31.5z" />
    <glyph glyph-name="Amacron" unicode="&#x100;" horiz-adv-x="735" 
d="M412 665l237 -618h63v-47h-215v47l61 11l-55 151h-280l-57 -162h66v-47h-209v47l60 11l223 586l-61 7l-3 42q57 11 113 11q42 0 57 -39zM362 612l-123 -349h247zM239 776l5 46h242l-5 -46h-242z" />
    <glyph glyph-name="amacron" unicode="&#x101;" horiz-adv-x="502" 
d="M91 415l-22 41q65 49 159 49q85 0 131 -46t46 -126v-256q0 -31 25 -31q13 0 34 8l6 -37q-42 -21 -79 -21q-59 0 -65 53q-62 -54 -144 -54q-63 0 -101.5 35t-38.5 92q0 53 35 87.5t99 43.5l149 20v60q0 55 -30 86t-87 31q-64 0 -117 -35zM204 50q33 0 66.5 12.5t54.5 36.5
v130l-130 -20q-39 -6 -60 -28t-21 -55q0 -36 24 -56t66 -20zM110 615l5 47h242l-5 -47h-242z" />
    <glyph glyph-name="Abreve" unicode="&#x102;" horiz-adv-x="735" 
d="M412 665l237 -618h63v-47h-215v47l61 11l-55 151h-280l-57 -162h66v-47h-209v47l60 11l223 586l-61 7l-3 42q57 11 113 11q42 0 57 -39zM362 612l-123 -349h247zM442 850l61 -10q-19 -99 -141 -99t-141 99l61 10q14 -61 81 -61q66 0 79 61z" />
    <glyph glyph-name="abreve" unicode="&#x103;" horiz-adv-x="502" 
d="M93 415l-23 41q66 49 159 49q85 0 131 -45.5t46 -126.5v-256q0 -31 25 -31q15 0 34 8l7 -37q-44 -21 -79 -21q-59 0 -65 53q-62 -54 -145 -54q-63 0 -101 35t-38 92q0 53 35 87.5t99 43.5l149 20v60q0 56 -30 86.5t-88 30.5q-65 0 -116 -35zM205 50q77 0 122 49v130
l-130 -20q-40 -6 -61 -28t-21 -55q0 -36 24 -56t66 -20zM317 690l61 -10q-21 -100 -141 -100q-121 0 -141 100l61 10q14 -62 80 -62t80 62z" />
    <glyph glyph-name="Aogonek" unicode="&#x104;" horiz-adv-x="735" 
d="M642 0h-145v47l61 11l-55 151h-280l-57 -162h66v-47h-209v47l60 11l223 586l-61 7l-3 42q57 11 113 11q42 0 57 -39l237 -618h63v-47h-23q-36 -28 -36 -79q0 -31 16 -53t46 -29l-10 -55q-51 8 -77 39t-26 78q0 66 40 99zM362 612l-123 -349h247z" />
    <glyph glyph-name="aogonek" unicode="&#x105;" horiz-adv-x="502" 
d="M91 415l-22 41q65 49 159 49q85 0 131 -46t46 -126v-256q0 -31 25 -31q13 0 34 8l6 -37q-14 -7 -29 -12q-33 -27 -33 -77q0 -67 62 -82l-10 -56q-103 18 -103 118q0 54 29 88q-54 3 -60 53q-62 -54 -144 -54q-63 0 -101.5 35t-38.5 92q0 53 35 87.5t99 43.5l149 20v60
q0 55 -30 86t-87 31q-64 0 -117 -35zM204 50q33 0 66.5 12.5t54.5 36.5v130l-130 -20q-39 -6 -60 -28t-21 -55q0 -36 24 -56t66 -20z" />
    <glyph glyph-name="Cacute" unicode="&#x106;" horiz-adv-x="609" 
d="M555 54q-83 -59 -199 -59q-141 0 -221.5 95.5t-80.5 259.5t80.5 259.5t219.5 95.5q114 0 194 -60v-125l-52 -4l-8 102q-50 32 -115 32q-114 0 -175 -79.5t-61 -220.5t61.5 -220.5t175.5 -79.5q64 0 118 30l9 100l54 4v-130zM268 736l-19 33l168 127l30 -47z" />
    <glyph glyph-name="cacute" unicode="&#x107;" horiz-adv-x="470" 
d="M417 463v-100l-54 -4l-9 79q-36 12 -74 12q-77 0 -116.5 -51t-39.5 -143q0 -99 42 -152.5t122 -53.5q71 0 117 31l22 -40q-58 -46 -154 -46q-107 0 -168 68.5t-61 187.5q0 118 61 186t167 68q93 0 145 -42zM187 575l-18 34l167 127l30 -48z" />
    <glyph glyph-name="Ccircumflex" unicode="&#x108;" horiz-adv-x="609" 
d="M555 54q-83 -59 -199 -59q-141 0 -221.5 95.5t-80.5 259.5t80.5 259.5t219.5 95.5q114 0 194 -60v-125l-52 -4l-8 102q-50 32 -115 32q-114 0 -175 -79.5t-61 -220.5t61.5 -220.5t175.5 -79.5q64 0 118 30l9 100l54 4v-130zM220 734l-22 32l150 137l151 -141l-28 -26
l-124 97z" />
    <glyph glyph-name="ccircumflex" unicode="&#x109;" horiz-adv-x="470" 
d="M417 463v-100l-54 -4l-9 79q-36 12 -74 12q-77 0 -116.5 -51t-39.5 -143q0 -99 42 -152.5t122 -53.5q71 0 117 31l22 -40q-58 -46 -154 -46q-107 0 -168 68.5t-61 187.5q0 118 61 186t167 68q93 0 145 -42zM134 573l-22 32l150 138l151 -142l-27 -26l-125 97z" />
    <glyph glyph-name="Cdotaccent" unicode="&#x10a;" horiz-adv-x="609" 
d="M555 54q-83 -59 -199 -59q-141 0 -221.5 95.5t-80.5 259.5t80.5 259.5t219.5 95.5q114 0 194 -60v-125l-52 -4l-8 102q-50 32 -115 32q-114 0 -175 -79.5t-61 -220.5t61.5 -220.5t175.5 -79.5q64 0 118 30l9 100l54 4v-130zM285 814q0 22 14 36t35 14t35.5 -14t14.5 -36
q0 -21 -14.5 -35t-35.5 -14t-35 14t-14 35z" />
    <glyph glyph-name="cdotaccent" unicode="&#x10b;" horiz-adv-x="470" 
d="M417 463v-100l-54 -4l-9 79q-36 12 -74 12q-77 0 -116.5 -51t-39.5 -143q0 -99 42 -152.5t122 -53.5q71 0 117 31l22 -40q-58 -46 -154 -46q-107 0 -168 68.5t-61 187.5q0 118 61 186t167 68q93 0 145 -42zM206 654q0 21 14 35t35 14q22 0 36 -14t14 -35t-14 -35.5
t-36 -14.5q-21 0 -35 14.5t-14 35.5z" />
    <glyph glyph-name="Ccaron" unicode="&#x10c;" horiz-adv-x="609" 
d="M555 54q-83 -59 -199 -59q-141 0 -221.5 95.5t-80.5 259.5t80.5 259.5t219.5 95.5q114 0 194 -60v-125l-52 -4l-8 102q-50 32 -115 32q-114 0 -175 -79.5t-61 -220.5t61.5 -220.5t175.5 -79.5q64 0 118 30l9 100l54 4v-130zM470 901l22 -32l-141 -129h-18l-142 133l28 26
l124 -97z" />
    <glyph glyph-name="ccaron" unicode="&#x10d;" horiz-adv-x="470" 
d="M417 463v-100l-54 -4l-9 79q-36 12 -74 12q-77 0 -116.5 -51t-39.5 -143q0 -99 42 -152.5t122 -53.5q71 0 117 31l22 -40q-58 -46 -154 -46q-107 0 -168 68.5t-61 187.5q0 118 61 186t167 68q93 0 145 -42zM387 740l21 -32l-140 -129h-18l-142 133l27 27l125 -98z" />
    <glyph glyph-name="Dcaron" unicode="&#x10e;" horiz-adv-x="670" 
d="M315 700q139 0 220 -93.5t81 -256.5t-81 -256.5t-220 -93.5h-285v47l71 11v595h-70v47h284zM315 648h-131v-596h131q101 0 159.5 79.5t58.5 218.5t-58.5 218.5t-159.5 79.5zM452 901l21 -32l-141 -129h-18l-142 133l28 26l124 -97z" />
    <glyph glyph-name="dcaron" unicode="&#x10f;" horiz-adv-x="625" 
d="M522 54l6 -37q-42 -21 -79 -21q-59 0 -65 52q-58 -53 -137 -53q-91 0 -147 69.5t-56 185.5q0 117 57.5 186t156.5 69q68 0 125 -30v220l-56 7l-3 43q55 10 97 10t42 -39v-639q0 -31 25 -31q13 0 34 8zM268 50q72 0 115 49v321q-43 30 -106 30q-73 0 -113 -53.5
t-40 -147.5q0 -92 38.5 -145.5t105.5 -53.5zM581 741l49 14q10 -29 10 -58q0 -89 -69 -129l-22 29q41 33 41 97q0 24 -9 47z" />
    <glyph glyph-name="Dcroat" unicode="&#x110;" horiz-adv-x="670" 
d="M28 328l5 46h68v279h-70v47h284q139 0 220 -93.5t81 -256.5t-81 -256.5t-220 -93.5h-285v47l71 11v270h-73zM315 648h-131v-274h160l-5 -46h-155v-276h131q101 0 159.5 79.5t58.5 218.5t-58.5 218.5t-159.5 79.5z" />
    <glyph glyph-name="dcroat" unicode="&#x111;" horiz-adv-x="560" 
d="M243 585l4 47h136v70l-56 7l-3 36q55 10 97 10t42 -39v-84h64l-5 -47h-59v-508q0 -31 25 -31q13 0 34 8l6 -37q-42 -21 -79 -21q-59 0 -65 52q-58 -53 -137 -53q-91 0 -147 69.5t-56 185.5q0 117 57.5 186t156.5 69q68 0 125 -30v110h-140zM268 50q72 0 115 49v321
q-43 30 -106 30q-73 0 -113 -53.5t-40 -147.5q0 -92 38.5 -145.5t105.5 -53.5z" />
    <glyph glyph-name="Emacron" unicode="&#x112;" horiz-adv-x="569" 
d="M37 0v47l64 11v595h-63v47h482v-132l-50 -5l-6 85h-280v-262h211l5 56l49 4v-170l-50 -4l-5 60h-210v-279h284l4 79l51 5v-137h-486zM169 776l5 46h242l-5 -46h-242z" />
    <glyph glyph-name="emacron" unicode="&#x113;" horiz-adv-x="503" 
d="M438 259h-315q-5 -99 39.5 -154t132.5 -55q75 0 122 30l24 -42q-65 -43 -157 -43q-110 0 -175 68t-65 190q0 116 58 184t162 68q84 0 132.5 -46t48.5 -128q0 -36 -7 -72zM264 450q-60 0 -96 -38.5t-43 -106.5h251q2 13 2 35q0 52 -31.5 81t-82.5 29zM133 615l4 47h243
l-5 -47h-242z" />
    <glyph glyph-name="Ebreve" unicode="&#x114;" horiz-adv-x="569" 
d="M37 0v47l64 11v595h-63v47h482v-132l-50 -5l-6 85h-280v-262h211l5 56l49 4v-170l-50 -4l-5 60h-210v-279h284l4 79l51 5v-137h-486zM376 850l61 -10q-21 -99 -141 -99q-122 0 -141 99l61 10q14 -61 80 -61q67 0 80 61z" />
    <glyph glyph-name="ebreve" unicode="&#x115;" horiz-adv-x="503" 
d="M438 259h-315q-5 -99 39.5 -154t132.5 -55q75 0 122 30l24 -42q-65 -43 -157 -43q-110 0 -175 68t-65 190q0 116 58 184t162 68q84 0 132.5 -46t48.5 -128q0 -36 -7 -72zM264 450q-60 0 -96 -38.5t-43 -106.5h251q2 13 2 35q0 52 -31.5 81t-82.5 29zM342 690l61 -10
q-20 -100 -141 -100t-141 100l61 10q14 -62 81 -62q65 0 79 62z" />
    <glyph glyph-name="Edotaccent" unicode="&#x116;" horiz-adv-x="569" 
d="M37 0v47l64 11v595h-63v47h482v-132l-50 -5l-6 85h-280v-262h211l5 56l49 4v-170l-50 -4l-5 60h-210v-279h284l4 79l51 5v-137h-486zM246 814q0 22 14 36t36 14q21 0 35 -14t14 -36q0 -21 -14 -35t-35 -14q-22 0 -36 14t-14 35z" />
    <glyph glyph-name="edotaccent" unicode="&#x117;" horiz-adv-x="503" 
d="M438 259h-314q-5 -99 39.5 -154t132.5 -55q76 0 121 30l24 -42q-65 -43 -157 -43q-110 0 -175 68t-65 190q0 116 58.5 184t161.5 68q85 0 133.5 -45.5t48.5 -128.5q0 -30 -8 -72zM264 450q-60 0 -95.5 -38.5t-43.5 -106.5h251q3 19 3 35q0 52 -31.5 81t-83.5 29zM207 654
q0 21 14 35t35 14q22 0 36 -14t14 -35t-14 -35.5t-36 -14.5q-21 0 -35 14.5t-14 35.5z" />
    <glyph glyph-name="Eogonek" unicode="&#x118;" horiz-adv-x="569" 
d="M37 0v47l64 11v595h-63v47h482v-132l-50 -5l-6 85h-280v-262h211l5 56l49 4v-170l-50 -4l-5 60h-210v-279h284l4 79l51 5v-137h-22q-36 -28 -36 -79q0 -67 61 -82l-9 -55q-52 8 -78 39t-26 78q0 66 41 99h-417z" />
    <glyph glyph-name="eogonek" unicode="&#x119;" horiz-adv-x="503" 
d="M438 259h-315q-5 -99 39.5 -154t132.5 -55q75 0 122 30l24 -42q-15 -10 -33 -18q-29 -29 -29 -74q0 -67 61 -82l-9 -55q-104 16 -104 117q0 43 19 75q-30 -6 -62 -6q-110 0 -175 68t-65 190q0 116 58 184t162 68q84 0 132.5 -46t48.5 -128q0 -36 -7 -72zM264 450
q-60 0 -96 -38.5t-43 -106.5h251q2 13 2 35q0 52 -31.5 81t-82.5 29z" />
    <glyph glyph-name="Ecaron" unicode="&#x11a;" horiz-adv-x="569" 
d="M37 0v47l64 11v595h-63v47h482v-132l-50 -5l-6 85h-280v-262h211l5 56l49 4v-170l-50 -4l-5 60h-210v-279h284l4 79l51 5v-137h-486zM430 901l21 -32l-140 -129h-18l-142 133l27 26l124 -97z" />
    <glyph glyph-name="ecaron" unicode="&#x11b;" horiz-adv-x="503" 
d="M438 259h-315q-5 -99 39.5 -154t132.5 -55q75 0 122 30l24 -42q-65 -43 -157 -43q-110 0 -175 68t-65 190q0 116 58 184t162 68q84 0 132.5 -46t48.5 -128q0 -36 -7 -72zM264 450q-60 0 -96 -38.5t-43 -106.5h251q2 13 2 35q0 52 -31.5 81t-82.5 29zM392 740l21 -32
l-140 -129h-18l-142 133l27 27l124 -98z" />
    <glyph glyph-name="Gcircumflex" unicode="&#x11c;" horiz-adv-x="640" 
d="M554 306v-254q-80 -57 -197 -57q-142 0 -222.5 95.5t-80.5 259.5t80.5 259.5t220.5 95.5q115 0 195 -60v-125l-53 -4l-7 102q-52 32 -116 32q-115 0 -176 -79.5t-61 -220.5t60.5 -220.5t174.5 -79.5q61 0 109 31v236h-112v47h242v-47zM217 734l-21 32l149 137l151 -141
l-27 -26l-125 97z" />
    <glyph glyph-name="gcircumflex" unicode="&#x11d;" horiz-adv-x="523" 
d="M54 337q0 77 51.5 122.5t137.5 45.5q51 0 91 -17q60 82 149 82l-7 -78q-13 5 -31 5q-41 0 -76 -28q63 -46 63 -132q0 -78 -51.5 -123.5t-137.5 -45.5q-50 0 -89 15q-29 -29 -29 -68q0 -62 78 -62h130q74 0 116.5 -35.5t42.5 -99.5q0 -84 -72 -128.5t-189 -44.5
q-105 0 -157.5 35.5t-52.5 97.5q0 81 79 126q-44 25 -44 83q0 66 61 117q-63 46 -63 133zM187 -15q-23 0 -42 3q-52 -37 -52 -95q0 -93 141 -93q78 0 132 26.5t54 80.5q0 36 -25.5 57t-72.5 21h-135zM128 337q0 -55 31 -85.5t84 -30.5t84 31t31 85t-31 85t-84 31t-84 -31
t-31 -85zM114 573l-22 32l150 138l151 -142l-28 -26l-124 97z" />
    <glyph glyph-name="Gbreve" unicode="&#x11e;" horiz-adv-x="640" 
d="M554 306v-254q-80 -57 -197 -57q-142 0 -222.5 95.5t-80.5 259.5t80.5 259.5t220.5 95.5q115 0 195 -60v-125l-53 -4l-7 102q-52 32 -116 32q-115 0 -176 -79.5t-61 -220.5t60.5 -220.5t174.5 -79.5q61 0 109 31v236h-112v47h242v-47zM420 850l61 -10q-19 -99 -141 -99
q-121 0 -141 99l61 10q14 -61 81 -61q66 0 79 61z" />
    <glyph glyph-name="gbreve" unicode="&#x11f;" horiz-adv-x="523" 
d="M54 337q0 77 51.5 122.5t137.5 45.5q51 0 91 -17q60 82 149 82l-7 -78q-13 5 -31 5q-41 0 -76 -28q63 -46 63 -132q0 -78 -51.5 -123.5t-137.5 -45.5q-50 0 -89 15q-29 -29 -29 -68q0 -62 78 -62h130q74 0 116.5 -35.5t42.5 -99.5q0 -84 -72 -128.5t-189 -44.5
q-105 0 -157.5 35.5t-52.5 97.5q0 81 79 126q-44 25 -44 83q0 66 61 117q-63 46 -63 133zM187 -15q-23 0 -42 3q-52 -37 -52 -95q0 -93 141 -93q78 0 132 26.5t54 80.5q0 36 -25.5 57t-72.5 21h-135zM128 337q0 -55 31 -85.5t84 -30.5t84 31t31 85t-31 85t-84 31t-84 -31
t-31 -85zM321 690l61 -10q-20 -100 -141 -100t-141 100l61 10q14 -62 81 -62q65 0 79 62z" />
    <glyph glyph-name="Gdotaccent" unicode="&#x120;" horiz-adv-x="639" 
d="M554 306v-254q-80 -57 -197 -57q-142 0 -222.5 95.5t-80.5 259.5t80.5 259.5t220.5 95.5q115 0 195 -60v-125l-53 -4l-7 102q-52 32 -116 32q-115 0 -176 -79.5t-61 -220.5t60.5 -220.5t174.5 -79.5q61 0 109 31v236h-112v47h242v-47zM291 814q0 22 14 36t35 14
q22 0 36 -14t14 -36q0 -21 -14 -35t-36 -14q-21 0 -35 14t-14 35z" />
    <glyph glyph-name="gdotaccent" unicode="&#x121;" horiz-adv-x="523" 
d="M54 337q0 77 51.5 122.5t137.5 45.5q51 0 91 -17q60 82 149 82l-7 -78q-13 5 -31 5q-41 0 -76 -28q63 -46 63 -132q0 -78 -51.5 -123.5t-137.5 -45.5q-50 0 -89 15q-29 -29 -29 -68q0 -62 78 -62h130q74 0 116.5 -35.5t42.5 -99.5q0 -84 -72 -128.5t-189 -44.5
q-105 0 -157.5 35.5t-52.5 97.5q0 81 79 126q-44 25 -44 83q0 66 61 117q-63 46 -63 133zM187 -15q-23 0 -42 3q-52 -37 -52 -95q0 -93 141 -93q78 0 132 26.5t54 80.5q0 36 -25.5 57t-72.5 21h-135zM128 337q0 -55 31 -85.5t84 -30.5t84 31t31 85t-31 85t-84 31t-84 -31
t-31 -85zM193 654q0 21 14 35t35 14q22 0 36 -14t14 -35t-14 -35.5t-36 -14.5q-21 0 -35 14.5t-14 35.5z" />
    <glyph glyph-name="Gcommaaccent" unicode="&#x122;" horiz-adv-x="640" 
d="M554 306v-254q-80 -57 -197 -57q-142 0 -222.5 95.5t-80.5 259.5t80.5 259.5t220.5 95.5q115 0 195 -60v-125l-53 -4l-7 102q-52 32 -116 32q-115 0 -176 -79.5t-61 -220.5t60.5 -220.5t174.5 -79.5q61 0 109 31v236h-112v47h242v-47zM324 -74l53 13q9 -28 9 -54
q0 -89 -76 -132l-18 26q42 34 42 99q0 25 -10 48z" />
    <glyph glyph-name="gcommaaccent" unicode="&#x123;" horiz-adv-x="523" 
d="M54 337q0 77 51.5 122.5t137.5 45.5q51 0 91 -17q60 82 149 82l-7 -78q-13 5 -31 5q-41 0 -76 -28q63 -46 63 -132q0 -78 -51.5 -123.5t-137.5 -45.5q-50 0 -89 15q-29 -29 -29 -68q0 -62 78 -62h130q74 0 116.5 -35.5t42.5 -99.5q0 -84 -72 -128.5t-189 -44.5
q-105 0 -157.5 35.5t-52.5 97.5q0 81 79 126q-44 25 -44 83q0 66 61 117q-63 46 -63 133zM187 -15q-23 0 -42 3q-52 -37 -52 -95q0 -93 141 -93q78 0 132 26.5t54 80.5q0 36 -25.5 57t-72.5 21h-135zM128 337q0 -55 31 -85.5t84 -30.5t84 31t31 85t-31 85t-84 31t-84 -31
t-31 -85zM256 578l-53 -14q-9 28 -9 54q0 90 76 132l18 -25q-41 -34 -41 -99q0 -28 9 -48z" />
    <glyph glyph-name="Hcircumflex" unicode="&#x124;" horiz-adv-x="710" 
d="M673 700v-47l-64 -11v-595h63v-47h-210v47l64 11v274h-342v-285h62v-47h-209v47l64 11v595h-63v47h210v-47l-64 -11v-258h342v269h-63v47h210zM226 734l-22 32l150 137l151 -141l-28 -26l-124 97z" />
    <glyph glyph-name="hcircumflex" unicode="&#x125;" horiz-adv-x="597" 
d="M361 0v47l59 11v282q0 110 -104 110q-36 0 -74.5 -14t-64.5 -39v-350h57v-47h-196v47l59 11v637l-56 7l-3 43q55 10 97 10t42 -39v-269q73 58 168 58q75 0 115 -43t40 -118v-297h57v-47h-196zM169 773l-21 32l149 137l151 -141l-27 -27l-124 97z" />
    <glyph glyph-name="Hbar" unicode="&#x126;" horiz-adv-x="702" 
d="M35 486l5 46h61v121h-63v47h210v-47l-64 -11v-110h334v121h-63v47h210v-47l-64 -11v-110h63l-5 -46h-58v-439h63v-47h-210v47l64 11v274h-334v-285h62v-47h-209v47l64 11v428h-66zM184 384h334v102h-334v-102z" />
    <glyph glyph-name="hbar" unicode="&#x127;" horiz-adv-x="597" 
d="M36 590l5 46h56v66l-57 7l-2 36q55 10 97 10t42 -39v-80h185l-5 -46h-180v-143q73 58 168 58q75 0 115 -43t40 -118v-297h57v-47h-196v47l59 11v282q0 110 -104 110q-36 0 -74.5 -14t-64.5 -39v-350h57v-47h-196v47l59 11v532h-61z" />
    <glyph glyph-name="Itilde" unicode="&#x128;" horiz-adv-x="284" 
d="M248 700v-47l-64 -11v-595h62v-47h-209v47l64 11v595h-63v47h210zM35 748l-44 7q7 44 30 65.5t55 21.5q29 0 67.5 -24t57.5 -24q41 0 49 46l45 -7q-7 -43 -30.5 -65t-55.5 -22q-29 0 -67 24t-58 24q-41 0 -49 -46z" />
    <glyph glyph-name="itilde" unicode="&#x129;" horiz-adv-x="274" 
d="M23 587l-44 8q7 43 30.5 64.5t55.5 21.5q29 0 67 -23.5t57 -23.5q41 0 49 46l45 -8q-7 -42 -30 -64t-55 -22q-29 0 -68 23.5t-58 23.5q-40 0 -49 -46zM38 0v47l59 11v387l-56 7l-3 43q55 10 98 10q41 0 41 -39v-419h57v-47h-196z" />
    <glyph glyph-name="Imacron" unicode="&#x12a;" horiz-adv-x="284" 
d="M248 700v-47l-64 -11v-595h62v-47h-209v47l64 11v595h-63v47h210zM19 776l5 46h242l-5 -46h-242z" />
    <glyph glyph-name="imacron" unicode="&#x12b;" horiz-adv-x="274" 
d="M6 615l5 47h242l-5 -47h-242zM38 0v47l59 11v387l-56 7l-3 43q55 10 98 10q41 0 41 -39v-419h57v-47h-196z" />
    <glyph glyph-name="Ibreve" unicode="&#x12c;" horiz-adv-x="284" 
d="M248 700v-47l-64 -11v-595h62v-47h-209v47l64 11v595h-63v47h210zM222 850l61 -10q-19 -99 -141 -99t-141 99l61 10q14 -61 81 -61q66 0 79 61z" />
    <glyph glyph-name="ibreve" unicode="&#x12d;" horiz-adv-x="274" 
d="M208 690l61 -10q-21 -100 -141 -100q-121 0 -141 100l61 10q14 -62 80 -62t80 62zM38 0v47l59 11v387l-56 7l-3 43q55 10 98 10q41 0 41 -39v-419h57v-47h-196z" />
    <glyph glyph-name="Iogonek" unicode="&#x12e;" horiz-adv-x="284" 
d="M178 0h-141v47l64 11v595h-63v47h210v-47l-64 -11v-595h62v-47h-21q-36 -28 -36 -79q0 -67 62 -82l-10 -55q-52 8 -78 39t-26 78q0 66 41 99z" />
    <glyph glyph-name="iogonek" unicode="&#x12f;" horiz-adv-x="274" 
d="M38 0v47l59 11v387l-56 7l-3 43q55 10 98 10q41 0 41 -39v-419h57v-47h-22q-36 -28 -36 -79q0 -67 62 -82l-10 -55q-52 8 -78 39t-26 78q0 66 41 99h-127zM76 650q0 23 15 38t38 15t38 -15t15 -38t-15 -38t-38 -15t-38 15.5t-15 37.5z" />
    <glyph glyph-name="Idotaccent" unicode="&#x130;" horiz-adv-x="284" 
d="M248 700v-47l-64 -11v-595h62v-47h-209v47l64 11v595h-63v47h210zM93 814q0 22 14 36t35 14q22 0 36 -14t14 -36q0 -21 -14 -35t-36 -14q-21 0 -35 14t-14 35z" />
    <glyph glyph-name="dotlessi" unicode="&#x131;" horiz-adv-x="274" 
d="M38 0v47l59 11v387l-56 7l-3 43q55 10 98 10q41 0 41 -39v-419h57v-47h-196z" />
    <glyph glyph-name="IJ" unicode="&#x132;" horiz-adv-x="627" 
d="M590 700v-47l-64 -11v-436q0 -211 -215 -211v55q63 0 97.5 39.5t34.5 109.5v454h-62v47h209zM248 700v-47l-64 -11v-595h62v-47h-209v47l64 11v595h-63v47h210z" />
    <glyph glyph-name="ij" unicode="&#x133;" horiz-adv-x="548" 
d="M38 0v47l59 11v387l-56 7l-3 43q55 10 98 10q41 0 41 -39v-419h57v-47h-196zM76 650q0 23 15 38t38 15t38 -15t15 -38t-15 -38t-38 -15t-38 15.5t-15 37.5zM350 650q0 23 15 38t38 15t38 -15t15 -38t-15 -38t-38 -15t-38 15.5t-15 37.5zM451 466v-582q0 -65 -37.5 -102
t-97.5 -37q-56 0 -96 32l16 40q23 -17 59 -17q35 0 55.5 22t20.5 62v561l-56 7l-3 43q55 10 97 10t42 -39z" />
    <glyph glyph-name="Jcircumflex" unicode="&#x134;" horiz-adv-x="532" 
d="M495 700v-47l-64 -11v-443q0 -95 -53 -149.5t-148 -54.5q-108 0 -181 56v125l55 5l8 -104q43 -27 104 -27q64 0 98 39t34 110v454h-63v47h210zM263 734l-22 32l150 137l151 -141l-28 -26l-124 97z" />
    <glyph glyph-name="jcircumflex" unicode="&#x135;" horiz-adv-x="274" 
d="M177 466v-582q0 -65 -37.5 -102t-97.5 -37q-56 0 -96 32l16 40q23 -17 59 -17q35 0 55.5 22t20.5 62v561l-56 7l-3 43q55 10 97 10t42 -39zM4 573l-22 32l150 138l151 -142l-28 -26l-124 97z" />
    <glyph glyph-name="Kcommaaccent" unicode="&#x136;" horiz-adv-x="646" 
d="M249 700v-47l-69 -10v-309l272 319h-70v47h218v-47l-74 -11l-190 -226l209 -359l73 -8l3 -42q-50 -11 -96 -11q-32 0 -54 39l-189 330l-102 -111v-207h70v-47h-220v47l71 11v595h-70v47h218zM305 -74l52 13q9 -24 9 -54q0 -89 -76 -132l-18 26q42 34 42 99q0 23 -9 48z
" />
    <glyph glyph-name="kcommaaccent" unicode="&#x137;" horiz-adv-x="516" 
d="M366 35l-121 210l-68 -79v-119h57v-47h-196v47l59 11v637l-56 7l-3 43q55 10 98 10q41 0 41 -39v-468l172 205h-61v47h195v-47l-62 -11l-125 -145l142 -240l61 -8l3 -42q-50 -11 -85 -11q-29 0 -51 39zM252 -74l53 13q9 -28 9 -54q0 -89 -77 -132l-17 26q41 34 41 99
q0 23 -9 48z" />
    <glyph glyph-name="Lacute" unicode="&#x139;" horiz-adv-x="553" 
d="M248 700v-47l-64 -11v-589h267l5 79l51 5v-137h-470v47l64 11v595h-63v47h210zM84 736l-19 33l168 127l30 -47z" />
    <glyph glyph-name="lacute" unicode="&#x13a;" horiz-adv-x="274" 
d="M38 0v47l59 11v637l-56 7l-3 43q55 10 98 10q41 0 41 -39v-669h57v-47h-196zM69 789l-19 33l168 127l30 -47z" />
    <glyph glyph-name="Lcommaaccent" unicode="&#x13b;" horiz-adv-x="553" 
d="M248 700v-47l-64 -11v-589h267l5 79l51 5v-137h-470v47l64 11v595h-63v47h210zM266 -74l53 13q9 -28 9 -54q0 -89 -76 -132l-18 26q41 34 41 99q0 27 -9 48z" />
    <glyph glyph-name="lcommaaccent" unicode="&#x13c;" horiz-adv-x="274" 
d="M38 0v47l59 11v637l-56 7l-3 43q55 10 98 10q41 0 41 -39v-669h57v-47h-196zM113 -74l53 13q9 -29 9 -54q0 -89 -77 -132l-17 26q41 34 41 99q0 23 -9 48z" />
    <glyph glyph-name="Lcaron" unicode="&#x13d;" horiz-adv-x="553" 
d="M248 700v-47l-64 -11v-589h267l5 79l51 5v-137h-470v47l64 11v595h-63v47h210zM272 901l22 -32l-141 -129h-18l-142 133l28 26l124 -97z" />
    <glyph glyph-name="lcaron" unicode="&#x13e;" horiz-adv-x="376" 
d="M38 0v47l59 11v637l-56 7l-3 43q55 10 98 10q41 0 41 -39v-669h57v-47h-196zM296 736l70 19q12 -37 12 -74q0 -108 -85 -157l-31 39q47 41 47 113q0 30 -13 60z" />
    <glyph glyph-name="Ldot" unicode="&#x13f;" horiz-adv-x="553" 
d="M248 700v-47l-64 -11v-589h267l5 79l51 5v-137h-470v47l64 11v595h-63v47h210zM372 350q0 20 13 32.5t33 12.5t32.5 -12.5t12.5 -32.5t-12.5 -33t-32.5 -13t-33 13t-13 33z" />
    <glyph glyph-name="ldot" unicode="&#x140;" horiz-adv-x="412" 
d="M38 0v47l59 11v637l-56 7l-3 43q55 10 98 10q41 0 41 -39v-669h57v-47h-196zM297 350q0 20 13 33t33 13q19 0 32 -13t13 -33t-13 -33t-32 -13q-20 0 -33 13t-13 33z" />
    <glyph glyph-name="Lslash" unicode="&#x141;" horiz-adv-x="553" 
d="M39 243l-18 42l80 43v325h-63v47h210v-47l-64 -11v-270l82 44l19 -42l-101 -54v-267h267l5 79l51 5v-137h-470v47l64 11v218z" />
    <glyph glyph-name="lslash" unicode="&#x142;" horiz-adv-x="274" 
d="M34 243l-19 42l82 44v366l-56 7l-3 43q55 10 98 10q41 0 41 -39v-344l63 34l19 -42l-82 -44v-273h57v-47h-196v47l59 11v219z" />
    <glyph glyph-name="Nacute" unicode="&#x143;" horiz-adv-x="705" 
d="M188 671l344 -528v510h-63v47h199v-47l-64 -11v-642h-72l-359 556v-509h63v-47h-199v47l64 11v587l-63 7l-3 43q52 10 99 10q33 0 54 -34zM292 736l-19 33l167 127l31 -47z" />
    <glyph glyph-name="nacute" unicode="&#x144;" horiz-adv-x="597" 
d="M361 0v47l59 11v282q0 110 -104 110q-36 0 -74.5 -14t-64.5 -39v-350h57v-47h-196v47l59 11v387l-56 7l-3 43q55 10 97 10t42 -39v-19q73 58 168 58q75 0 115 -43t40 -118v-297h57v-47h-196zM238 575l-19 34l168 127l30 -48z" />
    <glyph glyph-name="Ncommaaccent" unicode="&#x145;" horiz-adv-x="705" 
d="M188 671l344 -528v510h-63v47h199v-47l-64 -11v-642h-72l-359 556v-509h63v-47h-199v47l64 11v587l-63 7l-3 43q52 10 99 10q33 0 54 -34zM332 -74l53 13q9 -28 9 -54q0 -89 -76 -132l-18 26q41 34 41 99q0 27 -9 48z" />
    <glyph glyph-name="ncommaaccent" unicode="&#x146;" horiz-adv-x="597" 
d="M361 0v47l59 11v282q0 110 -104 110q-36 0 -74.5 -14t-64.5 -39v-350h57v-47h-196v47l59 11v387l-56 7l-3 43q55 10 97 10t42 -39v-19q73 58 168 58q75 0 115 -43t40 -118v-297h57v-47h-196zM283 -74l53 13q9 -28 9 -54q0 -89 -76 -132l-18 26q41 34 41 99q0 27 -9 48z
" />
    <glyph glyph-name="Ncaron" unicode="&#x147;" horiz-adv-x="705" 
d="M188 671l344 -528v510h-63v47h199v-47l-64 -11v-642h-72l-359 556v-509h63v-47h-199v47l64 11v587l-63 7l-3 43q52 10 99 10q33 0 54 -34zM481 901l21 -32l-140 -129h-18l-142 133l27 26l125 -97z" />
    <glyph glyph-name="ncaron" unicode="&#x148;" horiz-adv-x="597" 
d="M361 0v47l59 11v282q0 110 -104 110q-36 0 -74.5 -14t-64.5 -39v-350h57v-47h-196v47l59 11v387l-56 7l-3 43q55 10 97 10t42 -39v-19q73 58 168 58q75 0 115 -43t40 -118v-297h57v-47h-196zM427 740l21 -32l-140 -129h-18l-142 133l27 27l125 -98z" />
    <glyph glyph-name="Eng" unicode="&#x14a;" horiz-adv-x="705" 
d="M532 653h-63v47h199v-47l-64 -11v-713q0 -86 -47.5 -135t-135.5 -49q-99 0 -172 56v125l54 5l8 -104q44 -27 96 -27q56 0 85 33.5t29 95.5v89l-348 538v-509h63v-47h-199v47l64 11v587l-63 7l-3 43q52 10 96 10q36 0 57 -34l344 -528v510z" />
    <glyph glyph-name="eng" unicode="&#x14b;" horiz-adv-x="597" 
d="M500 344v-460q0 -65 -37.5 -102t-97.5 -37q-58 0 -96 32l16 40q23 -17 59 -17q35 0 55.5 22t20.5 62v456q0 110 -104 110q-36 0 -74.5 -14t-64.5 -39v-350h57v-47h-196v47l59 11v387l-56 7l-3 43q55 10 97 10t42 -39v-19q73 58 168 58q75 0 115 -43t40 -118z" />
    <glyph glyph-name="Omacron" unicode="&#x14c;" horiz-adv-x="687" 
d="M54 350q0 163 78.5 259t211.5 96q132 0 210.5 -96t78.5 -259t-78.5 -259t-210.5 -96q-133 0 -211.5 96t-78.5 259zM137 350q0 -139 55.5 -219.5t151.5 -80.5q95 0 150.5 80.5t55.5 219.5t-55.5 219.5t-150.5 80.5q-96 0 -151.5 -80.5t-55.5 -219.5zM220 776l4 46h242
l-4 -46h-242z" />
    <glyph glyph-name="omacron" unicode="&#x14d;" horiz-adv-x="539" 
d="M44 250q0 117 61 186t164 69q104 0 165 -68.5t61 -186.5t-61 -186.5t-165 -68.5q-103 0 -164 69t-61 186zM124 250q0 -93 39 -146.5t106 -53.5q68 0 107 53.5t39 146.5t-39 146.5t-107 53.5q-67 0 -106 -53.5t-39 -146.5zM145 615l5 47h242l-4 -47h-243z" />
    <glyph glyph-name="Obreve" unicode="&#x14e;" horiz-adv-x="687" 
d="M54 350q0 163 78.5 259t211.5 96q132 0 210.5 -96t78.5 -259t-78.5 -259t-210.5 -96q-133 0 -211.5 96t-78.5 259zM137 350q0 -139 55.5 -219.5t151.5 -80.5q95 0 150.5 80.5t55.5 219.5t-55.5 219.5t-150.5 80.5q-96 0 -151.5 -80.5t-55.5 -219.5zM424 850l61 -10
q-21 -99 -141 -99q-122 0 -141 99l61 10q14 -61 80 -61q65 0 80 61z" />
    <glyph glyph-name="obreve" unicode="&#x14f;" horiz-adv-x="539" 
d="M44 250q0 117 61 186t164 69q104 0 165 -68.5t61 -186.5t-61 -186.5t-165 -68.5q-103 0 -164 69t-61 186zM124 250q0 -93 39 -146.5t106 -53.5q68 0 107 53.5t39 146.5t-39 146.5t-107 53.5q-67 0 -106 -53.5t-39 -146.5zM349 690l61 -10q-20 -100 -141 -100t-141 100
l61 10q15 -62 81 -62q65 0 79 62z" />
    <glyph glyph-name="Ohungarumlaut" unicode="&#x150;" horiz-adv-x="687" 
d="M54 350q0 163 78.5 259t211.5 96q132 0 210.5 -96t78.5 -259t-78.5 -259t-210.5 -96q-133 0 -211.5 96t-78.5 259zM137 350q0 -139 55.5 -219.5t151.5 -80.5q95 0 150.5 80.5t55.5 219.5t-55.5 219.5t-150.5 80.5q-96 0 -151.5 -80.5t-55.5 -219.5zM215 729l-23 29
l137 149l38 -42zM384 729l-24 29l137 149l38 -42z" />
    <glyph glyph-name="ohungarumlaut" unicode="&#x151;" horiz-adv-x="539" 
d="M44 250q0 117 61 186t164 69q104 0 165 -68.5t61 -186.5t-61 -186.5t-165 -68.5q-103 0 -164 69t-61 186zM124 250q0 -93 39 -146.5t106 -53.5q68 0 107 53.5t39 146.5t-39 146.5t-107 53.5q-67 0 -106 -53.5t-39 -146.5zM141 568l-24 30l137 149l39 -43zM310 568l-24 30
l137 149l38 -43z" />
    <glyph glyph-name="OE" unicode="&#x152;" horiz-adv-x="954" 
d="M909 0h-423v42q-64 -47 -151 -47q-129 0 -205 96t-76 259t76 259t205 96q87 0 151 -47v42h420v-132l-51 -5l-6 85h-280v-262h211l5 56l49 4v-170l-49 -4l-5 60h-211v-279h284l5 79l51 5v-137zM486 146v407q-50 97 -144 97q-95 0 -150 -80.5t-55 -219.5t55 -219.5
t150 -80.5q94 0 144 96z" />
    <glyph glyph-name="oe" unicode="&#x153;" horiz-adv-x="822" 
d="M757 259h-315q-5 -99 39.5 -154t132.5 -55q76 0 122 30l24 -42q-64 -43 -157 -43q-110 0 -173 65q-60 -65 -161 -65q-103 0 -164 69t-61 186t61 186t164 69q97 0 157 -62q59 62 157 62q84 0 132.5 -46t48.5 -128q0 -36 -7 -72zM269 50q81 0 118 75q-24 54 -24 128
q0 73 22 124q-39 73 -116 73q-67 0 -106 -53.5t-39 -146.5t39 -146.5t106 -53.5zM583 450q-60 0 -96 -38.5t-43 -106.5h251q2 13 2 35q0 52 -31.5 81t-82.5 29z" />
    <glyph glyph-name="Racute" unicode="&#x154;" horiz-adv-x="608" 
d="M37 0v47l64 11v595h-63v47h265q103 0 164.5 -51.5t61.5 -140.5q0 -70 -39 -118t-108 -65l124 -268l74 -8l3 -42q-52 -11 -97 -11q-39 0 -53 39l-125 281h-124v-269h62v-47h-209zM303 648h-119v-281h119q66 0 104.5 37.5t38.5 103.5q0 65 -38.5 102.5t-104.5 37.5z
M243 736l-18 33l167 127l30 -47z" />
    <glyph glyph-name="racute" unicode="&#x155;" horiz-adv-x="389" 
d="M346 508l-8 -78q-12 5 -30 5q-35 0 -71.5 -19.5t-59.5 -56.5v-312h79v-47h-218v47l59 11v387l-56 7l-3 43q55 10 97 10t42 -39v-47q64 89 169 89zM144 575l-19 34l167 127l31 -48z" />
    <glyph glyph-name="Rcommaaccent" unicode="&#x156;" horiz-adv-x="608" 
d="M37 0v47l64 11v595h-63v47h265q103 0 164.5 -51.5t61.5 -140.5q0 -70 -39 -118t-108 -65l124 -268l74 -8l3 -42q-52 -11 -97 -11q-39 0 -53 39l-125 281h-124v-269h62v-47h-209zM303 648h-119v-281h119q66 0 104.5 37.5t38.5 103.5q0 65 -38.5 102.5t-104.5 37.5z
M285 -74l53 13q9 -28 9 -54q0 -89 -76 -132l-18 26q42 34 42 99q0 25 -10 48z" />
    <glyph glyph-name="rcommaaccent" unicode="&#x157;" horiz-adv-x="389" 
d="M346 508l-8 -78q-12 5 -30 5q-35 0 -71.5 -19.5t-59.5 -56.5v-312h79v-47h-218v47l59 11v387l-56 7l-3 43q55 10 97 10t42 -39v-47q64 89 169 89zM116 -74l53 13q9 -29 9 -54q0 -89 -76 -132l-18 26q41 34 41 99q0 23 -9 48z" />
    <glyph glyph-name="Rcaron" unicode="&#x158;" horiz-adv-x="608" 
d="M37 0v47l64 11v595h-63v47h265q103 0 164.5 -51.5t61.5 -140.5q0 -70 -39 -118t-108 -65l124 -268l74 -8l3 -42q-52 -11 -97 -11q-39 0 -53 39l-125 281h-124v-269h62v-47h-209zM303 648h-119v-281h119q66 0 104.5 37.5t38.5 103.5q0 65 -38.5 102.5t-104.5 37.5z
M427 901l22 -32l-141 -129h-18l-142 133l28 26l124 -97z" />
    <glyph glyph-name="rcaron" unicode="&#x159;" horiz-adv-x="389" 
d="M346 508l-8 -78q-12 5 -30 5q-35 0 -71.5 -19.5t-59.5 -56.5v-312h79v-47h-218v47l59 11v387l-56 7l-3 43q55 10 97 10t42 -39v-47q64 89 169 89zM329 740l22 -32l-141 -129h-18l-142 133l28 27l124 -98z" />
    <glyph glyph-name="Sacute" unicode="&#x15a;" horiz-adv-x="523" 
d="M136 536q0 -49 34.5 -81.5t83 -52.5t97.5 -42t83.5 -66.5t34.5 -110.5q0 -86 -55.5 -137t-163.5 -51q-113 0 -201 52v132l51 4l7 -100q54 -33 131 -33q72 0 109.5 35t37.5 92q0 43 -24.5 74t-61 47.5t-79 36.5t-79 40t-61 59.5t-24.5 93.5q0 82 51.5 129.5t148.5 47.5
q108 0 182 -46v-133l-51 -4l-8 103q-50 25 -115 25q-62 0 -95 -32t-33 -82zM205 736l-19 33l167 127l31 -47z" />
    <glyph glyph-name="sacute" unicode="&#x15b;" horiz-adv-x="437" 
d="M127 383q0 -35 26.5 -57t64.5 -34.5t76 -27t64.5 -45.5t26.5 -80q0 -66 -45.5 -105t-130.5 -39q-87 0 -154 37v98l55 4l6 -70q43 -20 90 -20q51 0 78.5 22.5t27.5 59.5q0 35 -26.5 58t-63.5 36t-74.5 28.5t-64 46.5t-26.5 78q0 61 40.5 96.5t115.5 35.5q82 0 145 -36v-99
l-54 -4l-8 72q-39 18 -81 18q-43 0 -65.5 -20t-22.5 -53zM157 575l-18 34l167 127l30 -48z" />
    <glyph glyph-name="Scircumflex" unicode="&#x15c;" horiz-adv-x="523" 
d="M136 536q0 -49 34.5 -81.5t83 -52.5t97.5 -42t83.5 -66.5t34.5 -110.5q0 -86 -55.5 -137t-163.5 -51q-113 0 -201 52v132l51 4l7 -100q54 -33 131 -33q72 0 109.5 35t37.5 92q0 43 -24.5 74t-61 47.5t-79 36.5t-79 40t-61 59.5t-24.5 93.5q0 82 51.5 129.5t148.5 47.5
q108 0 182 -46v-133l-51 -4l-8 103q-50 25 -115 25q-62 0 -95 -32t-33 -82zM133 734l-22 32l150 137l151 -141l-28 -26l-124 97z" />
    <glyph glyph-name="scircumflex" unicode="&#x15d;" horiz-adv-x="437" 
d="M127 383q0 -35 26.5 -57t64.5 -34.5t76 -27t64.5 -45.5t26.5 -80q0 -66 -45.5 -105t-130.5 -39q-87 0 -154 37v98l55 4l6 -70q43 -20 90 -20q51 0 78.5 22.5t27.5 59.5q0 35 -26.5 58t-63.5 36t-74.5 28.5t-64 46.5t-26.5 78q0 61 40.5 96.5t115.5 35.5q82 0 145 -36v-99
l-54 -4l-8 72q-39 18 -81 18q-43 0 -65.5 -20t-22.5 -53zM92 573l-22 32l150 138l151 -142l-28 -26l-124 97z" />
    <glyph glyph-name="Scedilla" unicode="&#x15e;" horiz-adv-x="523" 
d="M136 536q0 -49 34.5 -81.5t83 -52.5t97.5 -42t83.5 -66.5t34.5 -110.5q0 -82 -50.5 -132.5t-149.5 -54.5q1 -28 26 -58.5t25 -58.5q0 -75 -105 -87l-10 51q33 6 48.5 18t15.5 34q0 17 -21 42.5t-22 58.5q-99 5 -177 51v132l51 4l7 -100q54 -33 131 -33q72 0 109.5 35
t37.5 92q0 43 -24.5 74t-61 47.5t-79 36.5t-79 40t-61 59.5t-24.5 93.5q0 82 51.5 129.5t148.5 47.5q108 0 182 -46v-133l-51 -4l-8 103q-50 25 -115 25q-62 0 -95 -32t-33 -82z" />
    <glyph glyph-name="scedilla" unicode="&#x15f;" horiz-adv-x="437" 
d="M127 383q0 -35 26.5 -57t64.5 -34.5t76 -27t64.5 -45.5t26.5 -80q0 -62 -41.5 -101t-118.5 -42q2 -27 27 -57.5t25 -59.5q0 -75 -106 -87l-9 51q64 12 64 52q0 17 -21 42.5t-22 58.5q-73 5 -128 36v98l55 4l6 -70q43 -20 90 -20q51 0 78.5 22.5t27.5 59.5q0 35 -26.5 58
t-63.5 36t-74.5 28.5t-64 46.5t-26.5 78q0 61 40.5 96.5t115.5 35.5q82 0 145 -36v-99l-54 -4l-8 72q-39 18 -81 18q-43 0 -65.5 -20t-22.5 -53z" />
    <glyph glyph-name="Scaron" unicode="&#x160;" horiz-adv-x="523" 
d="M136 536q0 -49 34.5 -81.5t83 -52.5t97.5 -42t83.5 -66.5t34.5 -110.5q0 -86 -55.5 -137t-163.5 -51q-113 0 -201 52v132l51 4l7 -100q54 -33 131 -33q72 0 109.5 35t37.5 92q0 43 -24.5 74t-61 47.5t-79 36.5t-79 40t-61 59.5t-24.5 93.5q0 82 51.5 129.5t148.5 47.5
q108 0 182 -46v-133l-51 -4l-8 103q-50 25 -115 25q-62 0 -95 -32t-33 -82zM386 901l21 -32l-140 -129h-18l-142 133l27 26l124 -97z" />
    <glyph glyph-name="scaron" unicode="&#x161;" horiz-adv-x="437" 
d="M127 383q0 -35 26.5 -57t64.5 -34.5t76 -27t64.5 -45.5t26.5 -80q0 -66 -45.5 -105t-130.5 -39q-87 0 -154 37v98l55 4l6 -70q43 -20 90 -20q51 0 78.5 22.5t27.5 59.5q0 35 -26.5 58t-63.5 36t-74.5 28.5t-64 46.5t-26.5 78q0 61 40.5 96.5t115.5 35.5q82 0 145 -36v-99
l-54 -4l-8 72q-39 18 -81 18q-43 0 -65.5 -20t-22.5 -53zM344 740l22 -32l-141 -129h-18l-142 133l28 27l124 -98z" />
    <glyph glyph-name="Tcommaaccent" unicode="&#x162;" horiz-adv-x="627" 
d="M530 563l-5 85h-170v-601h63v-47h-210v47l64 11v590h-170l-6 -80l-50 -5v137h535v-132zM293 -74l52 13q9 -24 9 -54q0 -89 -76 -132l-18 26q42 34 42 99q0 23 -9 48z" />
    <glyph glyph-name="tcommaaccent" unicode="&#x163;" horiz-adv-x="373" 
d="M25 448l4 47l70 4l10 111l68 9v-119h146l-5 -52h-141v-314q0 -84 77 -84q43 0 66 20l20 -40q-43 -35 -105 -35q-65 0 -101.5 36.5t-36.5 102.5v314h-72zM187 -74l53 13q8 -25 8 -54q0 -89 -76 -132l-18 26q42 34 42 99q0 23 -9 48z" />
    <glyph glyph-name="Tcaron" unicode="&#x164;" horiz-adv-x="627" 
d="M530 563l-5 85h-170v-601h63v-47h-210v47l64 11v590h-170l-6 -80l-50 -5v137h535v-132zM442 901l21 -32l-140 -129h-18l-142 133l27 26l125 -97z" />
    <glyph glyph-name="tcaron" unicode="&#x165;" horiz-adv-x="373" 
d="M25 448l4 47l70 4l10 111l68 9v-119h146l-5 -52h-141v-314q0 -84 77 -84q43 0 66 20l20 -40q-43 -35 -105 -35q-65 0 -101.5 36.5t-36.5 102.5v314h-72zM330 740l50 15q9 -30 9 -58q0 -89 -68 -129l-23 29q41 33 41 97q0 24 -9 46z" />
    <glyph glyph-name="Tbar" unicode="&#x166;" horiz-adv-x="627" 
d="M123 354l5 46h144v248h-170l-6 -80l-50 -5v137h535v-132l-51 -5l-5 85h-170v-248h149l-5 -46h-144v-307h63v-47h-210v47l64 11v296h-149z" />
    <glyph glyph-name="tbar" unicode="&#x167;" horiz-adv-x="373" 
d="M36 298l5 45l56 2v103h-72l4 47l70 4l10 111l68 9v-119h146l-5 -52h-141v-103h133l-5 -47h-128v-164q0 -84 77 -84q43 0 66 20l20 -40q-43 -35 -105 -35q-65 0 -101.5 36.5t-36.5 102.5v164h-61z" />
    <glyph glyph-name="Utilde" unicode="&#x168;" horiz-adv-x="722" 
d="M184 642v-383q0 -97 47.5 -153t129.5 -56t129 56t47 153v394h-63v47h211v-47l-64 -11v-383q0 -122 -70 -193t-190 -71t-190 71t-70 193v394h-63v47h210v-47zM253 748l-45 7q8 44 31 65.5t55 21.5q29 0 67.5 -24t57.5 -24q41 0 49 46l44 -7q-6 -43 -29.5 -65t-55.5 -22
q-29 0 -67 24t-58 24q-41 0 -49 -46z" />
    <glyph glyph-name="utilde" unicode="&#x169;" horiz-adv-x="593" 
d="M555 54l7 -37q-42 -21 -79 -21q-61 0 -66 57q-73 -58 -168 -58q-74 0 -113 43t-39 118v289l-56 7l-3 43q55 10 97 10t42 -39v-306q0 -110 101 -110q36 0 74 14t65 39v342l-57 7l-3 43q57 10 97 10q42 0 42 -39v-389q0 -31 25 -31q15 0 34 8zM189 587l-45 8
q7 43 30.5 64.5t55.5 21.5q28 0 67 -23.5t58 -23.5q40 0 49 46l44 -8q-6 -42 -29.5 -64t-55.5 -22q-29 0 -67 23.5t-58 23.5q-41 0 -49 -46z" />
    <glyph glyph-name="Umacron" unicode="&#x16a;" horiz-adv-x="722" 
d="M184 642v-383q0 -97 47.5 -153t129.5 -56t129 56t47 153v394h-63v47h211v-47l-64 -11v-383q0 -122 -70 -193t-190 -71t-190 71t-70 193v394h-63v47h210v-47zM237 776l5 46h242l-5 -46h-242z" />
    <glyph glyph-name="umacron" unicode="&#x16b;" horiz-adv-x="593" 
d="M555 54l7 -37q-42 -21 -79 -21q-61 0 -66 57q-73 -58 -168 -58q-74 0 -113 43t-39 118v289l-56 7l-3 43q55 10 97 10t42 -39v-306q0 -110 101 -110q36 0 74 14t65 39v342l-57 7l-3 43q57 10 97 10q42 0 42 -39v-389q0 -31 25 -31q15 0 34 8zM168 615l5 47h242l-5 -47
h-242z" />
    <glyph glyph-name="Ubreve" unicode="&#x16c;" horiz-adv-x="722" 
d="M184 642v-383q0 -97 47.5 -153t129.5 -56t129 56t47 153v394h-63v47h211v-47l-64 -11v-383q0 -122 -70 -193t-190 -71t-190 71t-70 193v394h-63v47h210v-47zM441 850l61 -10q-21 -99 -141 -99q-121 0 -141 99l61 10q14 -61 80 -61q67 0 80 61z" />
    <glyph glyph-name="ubreve" unicode="&#x16d;" horiz-adv-x="593" 
d="M555 54l7 -37q-42 -21 -79 -21q-61 0 -66 57q-73 -58 -168 -58q-74 0 -113 43t-39 118v289l-56 7l-3 43q55 10 97 10t42 -39v-306q0 -110 101 -110q36 0 74 14t65 39v342l-57 7l-3 43q57 10 97 10q42 0 42 -39v-389q0 -31 25 -31q15 0 34 8zM377 690l61 -10
q-21 -100 -141 -100q-123 0 -141 100l60 10q15 -62 81 -62q65 0 80 62z" />
    <glyph glyph-name="Uring" unicode="&#x16e;" horiz-adv-x="722" 
d="M184 642v-383q0 -97 47.5 -153t129.5 -56t129 56t47 153v394h-63v47h211v-47l-64 -11v-383q0 -122 -70 -193t-190 -71t-190 71t-70 193v394h-63v47h210v-47zM282 811q0 37 21 58t57 21t58 -21.5t22 -57.5t-22 -57.5t-58 -21.5t-57 21t-21 58zM318 811q0 -21 11.5 -33
t30.5 -12q20 0 31 12t11 33q0 45 -42 45q-19 0 -30.5 -12t-11.5 -33z" />
    <glyph glyph-name="uring" unicode="&#x16f;" horiz-adv-x="593" 
d="M555 54l7 -37q-42 -21 -79 -21q-61 0 -66 57q-73 -58 -168 -58q-74 0 -113 43t-39 118v289l-56 7l-3 43q55 10 97 10t42 -39v-306q0 -110 101 -110q36 0 74 14t65 39v342l-57 7l-3 43q57 10 97 10q42 0 42 -39v-389q0 -31 25 -31q15 0 34 8zM217 651q0 36 22 57.5
t57 21.5q36 0 58 -21.5t22 -57.5q0 -37 -22 -58.5t-58 -21.5t-57.5 21.5t-21.5 58.5zM254 651q0 -21 11.5 -33.5t30.5 -12.5q20 0 31 12t11 34q0 21 -11 33t-31 12q-19 0 -30.5 -12t-11.5 -33z" />
    <glyph glyph-name="Uhungarumlaut" unicode="&#x170;" horiz-adv-x="722" 
d="M184 642v-383q0 -97 47.5 -153t129.5 -56t129 56t47 153v394h-63v47h211v-47l-64 -11v-383q0 -122 -70 -193t-190 -71t-190 71t-70 193v394h-63v47h210v-47zM233 729l-24 29l137 149l38 -42zM401 729l-24 29l137 149l38 -42z" />
    <glyph glyph-name="uhungarumlaut" unicode="&#x171;" horiz-adv-x="593" 
d="M555 54l7 -37q-42 -21 -79 -21q-61 0 -66 57q-73 -58 -168 -58q-74 0 -113 43t-39 118v289l-56 7l-3 43q55 10 97 10t42 -39v-306q0 -110 101 -110q36 0 74 14t65 39v342l-57 7l-3 43q57 10 97 10q42 0 42 -39v-389q0 -31 25 -31q15 0 34 8zM337 568l-24 30l137 149
l39 -43zM169 568l-24 30l137 149l38 -43z" />
    <glyph glyph-name="Uogonek" unicode="&#x172;" horiz-adv-x="722" 
d="M184 642v-383q0 -97 47.5 -153t129.5 -56t129 56t47 153v394h-63v47h211v-47l-64 -11v-383q0 -108 -56 -177t-153 -83q-34 -30 -34 -78q0 -67 61 -82l-9 -55q-52 8 -78 39t-26 78q0 62 35 94q-120 0 -190 71t-70 193v394h-63v47h210v-47z" />
    <glyph glyph-name="uogonek" unicode="&#x173;" horiz-adv-x="593" 
d="M555 54l7 -37q-24 -11 -31 -13q-31 -27 -31 -75q0 -67 62 -82l-10 -56q-103 17 -103 118q0 54 28 87q-55 3 -60 57q-73 -58 -168 -58q-74 0 -113 43t-39 118v289l-56 7l-3 43q55 10 97 10t42 -39v-306q0 -110 101 -110q36 0 74 14t65 39v342l-57 7l-3 43q57 10 97 10
q42 0 42 -39v-389q0 -31 25 -31q15 0 34 8z" />
    <glyph glyph-name="Wcircumflex" unicode="&#x174;" horiz-adv-x="1119" 
d="M1097 700v-47l-61 -11l-223 -642h-71l-182 572l-175 -572h-70l-225 643l-65 8l-3 42q50 11 96 11q41 0 52 -39l181 -561l172 596h72l182 -598l177 551h-67v47h210zM431 734l-21 32l149 137l151 -141l-27 -26l-124 97z" />
    <glyph glyph-name="wcircumflex" unicode="&#x175;" horiz-adv-x="861" 
d="M845 500v-47l-56 -11l-165 -442h-70l-125 378l-116 -378h-71l-164 443l-60 8l-3 42q50 11 88 11q37 0 48 -39l126 -373l119 408h65l129 -410l122 363h-61v47h194zM301 573l-21 32l149 138l151 -142l-27 -26l-125 97z" />
    <glyph glyph-name="Ycircumflex" unicode="&#x176;" horiz-adv-x="695" 
d="M602 642l-210 -347v-248h63v-47h-210v47l64 11v237l-212 348l-72 8l-3 42q44 11 93 11q22 0 34 -9t23 -30l179 -306l174 294h-73v47h220v-47zM223 734l-22 32l150 137l151 -141l-27 -26l-125 97z" />
    <glyph glyph-name="ycircumflex" unicode="&#x177;" horiz-adv-x="567" 
d="M551 500v-47l-56 -11l-210 -542q-33 -86 -65.5 -120.5t-82.5 -34.5q-60 0 -102 39l18 40q28 -24 66 -24q31 0 50.5 22.5t41.5 77.5l41 100l-175 443l-59 8l-3 42q50 11 87 11q36 0 49 -39l137 -380l130 368h-62v47h195zM160 573l-22 32l150 138l151 -142l-28 -26l-124 97
z" />
    <glyph glyph-name="Ydieresis" unicode="&#x178;" horiz-adv-x="695" 
d="M602 642l-210 -347v-248h63v-47h-210v47l64 11v237l-212 348l-72 8l-3 42q44 11 93 11q22 0 34 -9t23 -30l179 -306l174 294h-73v47h220v-47zM215 787q0 19 12.5 32t31.5 13t32 -13t13 -32t-13 -31.5t-32 -12.5t-31.5 12.5t-12.5 31.5zM399 787q0 19 12.5 32t31.5 13
t32 -13t13 -32t-13 -31.5t-32 -12.5t-31.5 12.5t-12.5 31.5z" />
    <glyph glyph-name="Zacute" unicode="&#x179;" horiz-adv-x="588" 
d="M63 563v137h467v-33l-375 -614h321l5 79l51 5v-137h-478v32l375 615h-310l-5 -79zM230 736l-18 33l167 127l30 -47z" />
    <glyph glyph-name="zacute" unicode="&#x17a;" horiz-adv-x="464" 
d="M53 375v125h364v-33l-277 -414h223l4 68l51 4v-125h-374v32l276 415h-211l-5 -68zM169 575l-19 34l167 127l31 -48z" />
    <glyph glyph-name="Zdotaccent" unicode="&#x17b;" horiz-adv-x="588" 
d="M63 563v137h467v-33l-375 -614h321l5 79l51 5v-137h-478v32l375 615h-310l-5 -79zM244 814q0 22 14 36t35 14q22 0 36 -14t14 -36q0 -21 -14 -35t-36 -14q-21 0 -35 14t-14 35z" />
    <glyph glyph-name="zdotaccent" unicode="&#x17c;" horiz-adv-x="464" 
d="M53 375v125h364v-33l-277 -414h223l4 68l51 4v-125h-374v32l276 415h-211l-5 -68zM182 654q0 21 14 35t36 14q21 0 35 -14t14 -35t-14 -35.5t-35 -14.5q-22 0 -36 14.5t-14 35.5z" />
    <glyph glyph-name="Zcaron" unicode="&#x17d;" horiz-adv-x="588" 
d="M63 563v137h467v-33l-375 -614h321l5 79l51 5v-137h-478v32l375 615h-310l-5 -79zM423 901l21 -32l-140 -129h-18l-142 133l27 26l125 -97z" />
    <glyph glyph-name="zcaron" unicode="&#x17e;" horiz-adv-x="464" 
d="M53 375v125h364v-33l-277 -414h223l4 68l51 4v-125h-374v32l276 415h-211l-5 -68zM361 740l22 -32l-141 -129h-18l-142 133l27 27l125 -98z" />
    <glyph glyph-name="longs" unicode="&#x17f;" horiz-adv-x="371" 
d="M177 616v-569h79v-47h-218v47l59 11v390h-61l4 47l57 4v117q0 66 37 102.5t104 36.5q62 0 100 -31l-18 -42q-24 18 -65 18q-78 0 -78 -84z" />
    <glyph glyph-name="uni018F" unicode="&#x18f;" horiz-adv-x="639" 
d="M57 364h444q-2 135 -63.5 210.5t-170.5 75.5q-66 0 -116 -32l-8 -102l-53 4v125q82 60 195 60q139 0 219.5 -96t80.5 -264q0 -159 -72 -254.5t-196 -95.5q-127 0 -199 98.5t-61 270.5zM314 50q83 0 133 69.5t53 191.5h-367q-3 -121 47 -191t134 -70z" />
    <glyph glyph-name="florin" unicode="&#x192;" horiz-adv-x="371" 
d="M241 616l-20 -116h146l-14 -52h-142l-99 -564q-12 -65 -55.5 -102t-102.5 -37q-57 0 -91 32l23 40q20 -17 56 -17q35 0 59.5 22t31.5 62l99 564h-61l12 47l58 4l20 117q12 66 55 102.5t110 36.5q64 0 95 -31l-25 -42q-21 18 -62 18q-79 0 -93 -84z" />
    <glyph glyph-name="uni01DD" unicode="&#x1dd;" horiz-adv-x="503" 
d="M65 241h315q5 99 -39.5 154t-133.5 55q-74 0 -121 -30l-24 42q64 43 157 43q110 0 175 -68t65 -190q0 -116 -58 -184t-162 -68q-85 0 -133.5 45.5t-48.5 128.5q0 30 8 72zM239 50q60 0 96 38.5t44 106.5h-252q-3 -19 -3 -35q0 -52 31.5 -81t83.5 -29z" />
    <glyph glyph-name="Aringacute" unicode="&#x1fa;" horiz-adv-x="735" 
d="M412 665l237 -618h63v-47h-215v47l61 11l-55 151h-280l-57 -162h66v-47h-209v47l60 11l223 586l-61 7l-3 42q57 11 113 11q42 0 57 -39zM362 612l-123 -349h247zM283 798q0 28 12 47l-5 10l168 127l30 -48l-97 -62q50 -16 50 -74q0 -37 -21.5 -58t-57.5 -21t-57.5 21.5
t-21.5 57.5zM320 798q0 -21 11 -33t31 -12q19 0 30 12t11 33q0 45 -41 45q-42 0 -42 -45z" />
    <glyph glyph-name="aringacute" unicode="&#x1fb;" horiz-adv-x="502" 
d="M91 415l-22 41q65 49 159 49q85 0 131 -46t46 -126v-256q0 -31 25 -31q13 0 34 8l6 -37q-42 -21 -79 -21q-59 0 -65 53q-62 -54 -144 -54q-63 0 -101.5 35t-38.5 92q0 53 35 87.5t99 43.5l149 20v60q0 55 -30 86t-87 31q-64 0 -117 -35zM204 50q33 0 66.5 12.5t54.5 36.5
v130l-130 -20q-39 -6 -60 -28t-21 -55q0 -36 24 -56t66 -20zM174 665l-18 34l167 127l30 -48l-154 -98q14 7 35 7q36 0 57.5 -21t21.5 -58t-21.5 -58t-57.5 -21t-57.5 21.5t-21.5 57.5q0 39 24 60zM192 608q0 -21 11 -33t31 -12q19 0 30 12t11 33q0 45 -41 45q-42 0 -42 -45
z" />
    <glyph glyph-name="AEacute" unicode="&#x1fc;" horiz-adv-x="820" 
d="M325 0v47l64 11v151h-158l-66 -162h66v-47h-208v47l60 11l249 586l-60 6l-4 42q51 8 113 8h391v-132l-51 -5l-6 85h-243v-262h174l5 56l49 4v-170l-49 -4l-5 60h-174v-279h247l5 79l51 5v-137h-450zM389 619l-144 -356h144v356zM353 736l-18 33l167 127l30 -47z" />
    <glyph glyph-name="aeacute" unicode="&#x1fd;" horiz-adv-x="754" 
d="M91 415l-22 41q65 49 159 49q95 0 136 -64q53 64 150 64q85 0 133.5 -45.5t48.5 -128.5q0 -37 -8 -72h-285v-142q45 -67 143 -67q76 0 122 30l23 -42q-65 -43 -157 -43q-120 0 -184 78q-30 -37 -75 -57.5t-93 -20.5q-63 0 -101.5 35t-38.5 92q0 53 35 87.5t99 43.5
l149 21v59q0 55 -30 86t-87 31q-64 0 -117 -35zM204 50q33 0 66.5 12.5t54.5 36.5v130l-130 -20q-39 -6 -60 -28t-21 -55q0 -36 24 -56t66 -20zM514 450q-79 0 -115 -65q4 -32 4 -80h223q3 19 3 35q0 52 -31.5 81t-83.5 29zM317 575l-18 34l167 127l30 -48z" />
    <glyph glyph-name="Oslashacute" unicode="&#x1fe;" horiz-adv-x="687" 
d="M162 -10l-41 20l33 57q-100 97 -100 283q0 163 78.5 259t211.5 96q88 0 153 -44l28 49l42 -20l-34 -58q100 -97 100 -282q0 -163 -78.5 -259t-210.5 -96q-89 0 -154 44zM135 350q0 -141 55 -220l275 476q-51 45 -121 45q-97 0 -153 -81t-56 -220zM552 350q0 137 -55 219
l-275 -475q50 -45 122 -45q96 0 152 81t56 220zM283 736l-19 33l167 127l31 -47z" />
    <glyph glyph-name="oslashacute" unicode="&#x1ff;" horiz-adv-x="539" 
d="M145 -10l-39 19l20 34q-82 69 -82 207q0 117 61 186t164 69q60 0 108 -25l18 30l39 -19l-20 -35q81 -70 81 -206q0 -118 -61 -186.5t-165 -68.5q-61 0 -107 24zM120 250q0 -94 40 -148l188 326q-35 24 -79 24q-69 0 -109 -54t-40 -148zM419 250q0 92 -40 146l-188 -325
q34 -23 78 -23q69 0 109.5 54t40.5 148zM209 575l-19 34l167 127l31 -48z" />
    <glyph glyph-name="Scommaaccent" unicode="&#x218;" horiz-adv-x="523" 
d="M136 536q0 -49 34.5 -81.5t83 -52.5t97.5 -42t83.5 -66.5t34.5 -110.5q0 -86 -55.5 -137t-163.5 -51q-113 0 -201 52v132l51 4l7 -100q54 -33 131 -33q72 0 109.5 35t37.5 92q0 43 -24.5 74t-61 47.5t-79 36.5t-79 40t-61 59.5t-24.5 93.5q0 82 51.5 129.5t148.5 47.5
q108 0 182 -46v-133l-51 -4l-8 103q-50 25 -115 25q-62 0 -95 -32t-33 -82zM230 -74l53 13q9 -28 9 -54q0 -89 -76 -132l-18 26q42 34 42 99q0 25 -10 48z" />
    <glyph glyph-name="scommaaccent" unicode="&#x219;" horiz-adv-x="437" 
d="M127 383q0 -35 26.5 -57t64.5 -34.5t76 -27t64.5 -45.5t26.5 -80q0 -66 -45.5 -105t-130.5 -39q-87 0 -154 37v98l55 4l6 -70q43 -20 90 -20q51 0 78.5 22.5t27.5 59.5q0 35 -26.5 58t-63.5 36t-74.5 28.5t-64 46.5t-26.5 78q0 61 40.5 96.5t115.5 35.5q82 0 145 -36v-99
l-54 -4l-8 72q-39 18 -81 18q-43 0 -65.5 -20t-22.5 -53zM198 -74l53 13q9 -29 9 -54q0 -89 -76 -132l-18 26q41 34 41 99q0 23 -9 48z" />
    <glyph glyph-name="uni021A" unicode="&#x21a;" horiz-adv-x="627" 
d="M530 563l-5 85h-170v-601h63v-47h-210v47l64 11v590h-170l-6 -80l-50 -5v137h535v-132zM293 -74l52 13q9 -24 9 -54q0 -89 -76 -132l-18 26q42 34 42 99q0 23 -9 48z" />
    <glyph glyph-name="uni021B" unicode="&#x21b;" horiz-adv-x="373" 
d="M25 448l4 47l70 4l10 111l68 9v-119h146l-5 -52h-141v-314q0 -84 77 -84q43 0 66 20l20 -40q-43 -35 -105 -35q-65 0 -101.5 36.5t-36.5 102.5v314h-72zM187 -74l53 13q8 -25 8 -54q0 -89 -76 -132l-18 26q42 34 42 99q0 23 -9 48z" />
    <glyph glyph-name="dotlessj" unicode="&#x237;" horiz-adv-x="274" 
d="M177 466v-582q0 -65 -37.5 -102t-97.5 -37q-56 0 -96 32l16 40q23 -17 59 -17q35 0 55.5 22t20.5 62v561l-56 7l-3 43q55 10 97 10t42 -39z" />
    <glyph glyph-name="circumflex" unicode="&#x2c6;" horiz-adv-x="345" 
d="M44 573l-22 32l150 138l151 -142l-28 -26l-124 97z" />
    <glyph glyph-name="caron" unicode="&#x2c7;" horiz-adv-x="345" 
d="M301 740l22 -32l-141 -129h-18l-142 133l28 27l124 -98z" />
    <glyph glyph-name="breve" unicode="&#x2d8;" horiz-adv-x="420" 
d="M290 690l61 -10q-21 -100 -141 -100q-121 0 -141 100l61 10q14 -62 80 -62t80 62z" />
    <glyph glyph-name="dotaccent" unicode="&#x2d9;" horiz-adv-x="274" 
d="M80 654q0 21 14 35t35 14q22 0 36 -14t14 -35t-14 -35.5t-36 -14.5q-21 0 -35 14.5t-14 35.5z" />
    <glyph glyph-name="ring" unicode="&#x2da;" horiz-adv-x="273" 
d="M58 651q0 36 21.5 57.5t56.5 21.5q36 0 58 -21.5t22 -57.5q0 -37 -22 -58.5t-58 -21.5q-35 0 -56.5 21.5t-21.5 58.5zM95 651q0 -22 11 -34t30 -12q20 0 31 12t11 34q0 21 -11 33t-31 12q-19 0 -30 -12t-11 -33z" />
    <glyph glyph-name="ogonek" unicode="&#x2db;" horiz-adv-x="213" 
d="M97 0h46q-36 -30 -36 -79q0 -31 16 -53t46 -29l-9 -55q-52 8 -78 39t-26 78q0 66 41 99z" />
    <glyph glyph-name="tilde" unicode="&#x2dc;" horiz-adv-x="411" 
d="M98 587l-44 8q7 43 30 64.5t55 21.5q29 0 67.5 -23.5t57.5 -23.5q41 0 49 46l45 -8q-7 -42 -30 -64t-55 -22q-29 0 -68 23.5t-58 23.5q-40 0 -49 -46z" />
    <glyph glyph-name="hungarumlaut" unicode="&#x2dd;" horiz-adv-x="327" 
d="M16 568l-24 30l137 149l38 -43zM184 568l-24 30l137 149l38 -43z" />
    <glyph glyph-name="uni0400" unicode="&#x400;" horiz-adv-x="569" 
d="M37 0v47l64 11v595h-63v47h482v-132l-50 -5l-6 85h-280v-262h211l5 56l49 4v-170l-50 -4l-5 60h-210v-279h284l4 79l51 5v-137h-486zM174 851l40 42l165 -128l-25 -28z" />
    <glyph glyph-name="afii10023" unicode="&#x401;" horiz-adv-x="569" 
d="M37 0v47l64 11v595h-63v47h482v-132l-50 -5l-6 85h-280v-262h211l5 56l49 4v-170l-50 -4l-5 60h-210v-279h284l4 79l51 5v-137h-486zM159 787q0 19 12.5 32t32.5 13q19 0 31.5 -13t12.5 -32t-12.5 -31.5t-31.5 -12.5t-32 12.5t-13 31.5zM343 787q0 19 12.5 32t32.5 13
q19 0 31.5 -13t12.5 -32t-12.5 -31.5t-31.5 -12.5t-32 12.5t-13 31.5z" />
    <glyph glyph-name="afii10051" unicode="&#x402;" horiz-adv-x="782" 
d="M681 269v-385q0 -65 -37.5 -102t-98.5 -37q-58 0 -98 32l16 40q23 -17 60 -17q34 0 54.5 22t20.5 62v381q0 110 -103 110q-37 0 -75.5 -14t-64.5 -39v-275h63v-47h-210v47l64 11v590h-170l-6 -80l-50 -5v137h535v-132l-51 -5l-5 85h-170v-277q74 59 170 59q76 0 116 -43
t40 -118z" />
    <glyph glyph-name="afii10052" unicode="&#x403;" horiz-adv-x="535" 
d="M221 736l-19 33l168 127l30 -47zM37 0v47l64 11v595h-63v47h451v-132l-51 -5l-6 85h-248v-601h84v-47h-231z" />
    <glyph glyph-name="afii10053" unicode="&#x404;" horiz-adv-x="609" 
d="M555 54q-83 -59 -199 -59q-141 0 -221.5 95.5t-80.5 259.5t80.5 259.5t219.5 95.5q114 0 194 -60v-125l-52 -4l-8 102q-50 32 -115 32q-106 0 -167.5 -70t-67.5 -194h316l-5 -54h-311q2 -133 63.5 -207.5t172.5 -74.5q64 0 118 30l9 100l54 4v-130z" />
    <glyph glyph-name="afii10054" unicode="&#x405;" horiz-adv-x="523" 
d="M136 536q0 -49 34.5 -81.5t83 -52.5t97.5 -42t83.5 -66.5t34.5 -110.5q0 -86 -55.5 -137t-163.5 -51q-113 0 -201 52v132l51 4l7 -100q54 -33 131 -33q72 0 109.5 35t37.5 92q0 43 -24.5 74t-61 47.5t-79 36.5t-79 40t-61 59.5t-24.5 93.5q0 82 51.5 129.5t148.5 47.5
q108 0 182 -46v-133l-51 -4l-8 103q-50 25 -115 25q-62 0 -95 -32t-33 -82z" />
    <glyph glyph-name="afii10055" unicode="&#x406;" horiz-adv-x="284" 
d="M248 700v-47l-64 -11v-595h62v-47h-209v47l64 11v595h-63v47h210z" />
    <glyph glyph-name="afii10056" unicode="&#x407;" horiz-adv-x="284" 
d="M248 700v-47l-64 -11v-595h62v-47h-209v47l64 11v595h-63v47h210zM6 787q0 19 12.5 32t31.5 13t31.5 -13t12.5 -32t-12.5 -31.5t-31.5 -12.5t-31.5 12.5t-12.5 31.5zM190 787q0 19 12.5 32t31.5 13t31.5 -13t12.5 -32t-12.5 -31.5t-31.5 -12.5t-31.5 12.5t-12.5 31.5z
" />
    <glyph glyph-name="afii10057" unicode="&#x408;" horiz-adv-x="532" 
d="M495 700v-47l-64 -11v-443q0 -95 -53 -149.5t-148 -54.5q-108 0 -181 56v125l55 5l8 -104q43 -27 104 -27q64 0 98 39t34 110v454h-63v47h210z" />
    <glyph glyph-name="afii10058" unicode="&#x409;" horiz-adv-x="989" 
d="M19 23l10 38q22 -14 47 -14q34 0 53 40.5t34 139.5l66 421l-65 6l-3 41q57 5 109 5h387v-47l-64 -11v-255h132q102 0 163.5 -52t61.5 -141t-61.5 -141.5t-163.5 -52.5h-278v47l63 11v590h-203l-69 -434q-18 -114 -46.5 -166t-84.5 -52q-43 0 -88 27zM725 336h-132v-284
h132q65 0 103.5 38t38.5 104q0 65 -38.5 103.5t-103.5 38.5z" />
    <glyph glyph-name="afii10059" unicode="&#x40a;" horiz-adv-x="989" 
d="M657 700v-47l-64 -11v-258h131q103 0 164 -51.5t61 -140.5t-61 -140.5t-164 -51.5h-278v47l64 11v274h-326v-285h62v-47h-209v47l64 11v595h-63v47h210v-47l-64 -11v-258h326v269h-63v47h210zM724 332h-131v-280h131q65 0 103.5 37.5t38.5 102.5t-38.5 102.5t-103.5 37.5
z" />
    <glyph glyph-name="afii10060" unicode="&#x40b;" horiz-adv-x="782" 
d="M535 0v47l63 11v207q0 110 -103 110q-37 0 -75.5 -14t-64.5 -39v-275h63v-47h-210v47l64 11v590h-170l-6 -80l-50 -5v137h535v-132l-51 -5l-5 85h-170v-277q74 59 170 59q76 0 116 -43t40 -118v-222h63v-47h-209z" />
    <glyph glyph-name="afii10061" unicode="&#x40c;" horiz-adv-x="646" 
d="M249 700v-47l-69 -10v-309l272 319h-70v47h218v-47l-74 -11l-190 -226l209 -359l73 -8l3 -42q-50 -11 -96 -11q-32 0 -54 39l-189 330l-102 -111v-207h70v-47h-220v47l71 11v595h-70v47h218zM258 736l-18 33l167 127l31 -47z" />
    <glyph glyph-name="uni040D" unicode="&#x40d;" horiz-adv-x="698" 
d="M228 851l39 42l166 -128l-25 -28zM662 700v-47l-64 -11v-595h62v-47h-209v47l64 11v469l-331 -456v-24h62v-47h-209v47l64 11v595h-63v47h210v-47l-64 -11v-469l331 456v24h-63v47h210z" />
    <glyph glyph-name="afii10062" unicode="&#x40e;" horiz-adv-x="677" 
d="M423 850l61 -10q-21 -99 -141 -99q-121 0 -141 99l61 10q14 -61 80 -61q67 0 80 61zM306 198l-215 445l-66 7l-3 43q60 11 90 11q23 0 34 -10t20 -30l177 -392l169 381h-67v47h209v-47l-64 -11l-216 -466q-46 -99 -86.5 -140t-93.5 -41q-62 0 -106 40l21 42
q31 -24 68 -24q38 0 67.5 36t61.5 109z" />
    <glyph glyph-name="afii10145" unicode="&#x40f;" horiz-adv-x="693" 
d="M37 0v47l64 11v595h-63v47h210v-47l-64 -11v-590h326v601h-63v47h210v-47l-64 -11v-595h62v-47h-273l-9 -142l-54 -4v146h-282z" />
    <glyph glyph-name="afii10017" unicode="&#x410;" horiz-adv-x="735" 
d="M412 665l237 -618h63v-47h-215v47l61 11l-55 151h-280l-57 -162h66v-47h-209v47l60 11l223 586l-61 7l-3 42q57 11 113 11q42 0 57 -39zM362 612l-123 -349h247z" />
    <glyph glyph-name="afii10018" unicode="&#x411;" horiz-adv-x="580" 
d="M37 0v47l64 11v595h-63v47h455v-132l-51 -5l-5 85h-253v-261h136q102 0 161 -52t59 -141q0 -90 -59 -142t-161 -52h-283zM315 336h-131v-284h131q65 0 103.5 38t38.5 104q0 65 -38.5 103.5t-103.5 38.5z" />
    <glyph glyph-name="afii10019" unicode="&#x412;" horiz-adv-x="596" 
d="M38 700h255q102 0 163.5 -48.5t61.5 -131.5q0 -57 -30 -98t-83 -61q67 -17 106 -63t39 -113q0 -85 -63 -135t-165 -50h-285v47l64 11v595h-63v47zM322 331h-138v-279h138q65 0 105 37.5t40 101.5t-40 102t-105 38zM295 648h-111v-266h111q65 0 103.5 36t38.5 97
q0 62 -38.5 97.5t-103.5 35.5z" />
    <glyph glyph-name="afii10020" unicode="&#x413;" horiz-adv-x="535" 
d="M37 0v47l64 11v595h-63v47h451v-132l-51 -5l-6 85h-248v-601h84v-47h-231z" />
    <glyph glyph-name="afii10021" unicode="&#x414;" horiz-adv-x="705" 
d="M52 52h27q31 0 47.5 38t31.5 137l66 421l-65 6l-3 41q57 5 109 5h387v-47l-64 -11v-590h45q41 0 41 -54q0 -66 -11 -145l-50 -3l-9 150h-510l-9 -147l-56 -4v198zM233 214q-21 -127 -46 -162h318v596h-203z" />
    <glyph glyph-name="afii10022" unicode="&#x415;" horiz-adv-x="569" 
d="M37 0v47l64 11v595h-63v47h482v-132l-50 -5l-6 85h-280v-262h211l5 56l49 4v-170l-50 -4l-5 60h-210v-279h284l4 79l51 5v-137h-486z" />
    <glyph glyph-name="afii10024" unicode="&#x416;" horiz-adv-x="988" 
d="M456 332v321h-70v47h214v-47l-68 -10v-311l267 321h-71v47h218v-47l-73 -11l-184 -221l198 -364l73 -8l3 -42q-52 -11 -96 -11q-34 0 -53 39l-178 335l-104 -116v-207h69v-47h-216v47l71 11v196l-105 116l-177 -335q-20 -39 -54 -39q-45 0 -95 11l3 42l73 8l197 364
l-183 221l-74 11v47h218v-47h-70z" />
    <glyph glyph-name="afii10025" unicode="&#x417;" horiz-adv-x="564" 
d="M265 705q101 0 161 -49.5t60 -133.5q0 -119 -113 -161q67 -17 106 -63.5t39 -111.5q0 -88 -69.5 -139.5t-182.5 -51.5q-122 0 -205 59v130l54 -4l8 -96q60 -34 141 -34q77 0 124 38.5t47 104.5q0 62 -41 100t-106 38h-92l5 51h62q65 0 103.5 36t38.5 98t-38.5 98
t-106.5 36q-77 0 -133 -35l-7 -99l-53 4v125q82 60 198 60z" />
    <glyph glyph-name="afii10026" unicode="&#x418;" horiz-adv-x="698" 
d="M662 700v-47l-64 -11v-595h62v-47h-209v47l64 11v469l-331 -456v-24h62v-47h-209v47l64 11v595h-63v47h210v-47l-64 -11v-469l331 456v24h-63v47h210z" />
    <glyph glyph-name="afii10027" unicode="&#x419;" horiz-adv-x="698" 
d="M429 850l61 -10q-21 -99 -141 -99q-121 0 -141 99l61 10q14 -61 80 -61q67 0 80 61zM662 700v-47l-64 -11v-595h62v-47h-209v47l64 11v469l-331 -456v-24h62v-47h-209v47l64 11v595h-63v47h210v-47l-64 -11v-469l331 456v24h-63v47h210z" />
    <glyph glyph-name="afii10028" unicode="&#x41a;" horiz-adv-x="646" 
d="M249 700v-47l-69 -10v-309l272 319h-70v47h218v-47l-74 -11l-190 -226l209 -359l73 -8l3 -42q-50 -11 -96 -11q-32 0 -54 39l-189 330l-102 -111v-207h70v-47h-220v47l71 11v595h-70v47h218z" />
    <glyph glyph-name="afii10029" unicode="&#x41b;" horiz-adv-x="694" 
d="M19 23l10 38q22 -14 47 -14q34 0 53 40.5t34 139.5l66 421l-65 6l-3 41q57 5 109 5h387v-47l-64 -11v-595h63v-47h-209v47l63 11v590h-203l-69 -434q-18 -114 -46.5 -166t-84.5 -52q-43 0 -88 27z" />
    <glyph glyph-name="afii10030" unicode="&#x41c;" horiz-adv-x="859" 
d="M670 700h154v-47l-65 -11v-595h64v-47h-208v47l66 11v519l-226 -426h-48l-229 426v-530h65v-47h-208v47l66 11v587l-63 7l-3 43q55 10 110 10q40 0 58 -36l228 -414z" />
    <glyph glyph-name="afii10031" unicode="&#x41d;" horiz-adv-x="710" 
d="M673 700v-47l-64 -11v-595h63v-47h-210v47l64 11v274h-342v-285h62v-47h-209v47l64 11v595h-63v47h210v-47l-64 -11v-258h342v269h-63v47h210z" />
    <glyph glyph-name="afii10032" unicode="&#x41e;" horiz-adv-x="687" 
d="M54 350q0 163 78.5 259t211.5 96q132 0 210.5 -96t78.5 -259t-78.5 -259t-210.5 -96q-133 0 -211.5 96t-78.5 259zM137 350q0 -139 55.5 -219.5t151.5 -80.5q95 0 150.5 80.5t55.5 219.5t-55.5 219.5t-150.5 80.5q-96 0 -151.5 -80.5t-55.5 -219.5z" />
    <glyph glyph-name="afii10033" unicode="&#x41f;" horiz-adv-x="693" 
d="M657 700v-47l-64 -11v-595h62v-47h-209v47l64 11v590h-326v-601h62v-47h-209v47l64 11v595h-63v47h619z" />
    <glyph glyph-name="afii10034" unicode="&#x420;" horiz-adv-x="575" 
d="M37 0v47l64 11v595h-63v47h265q103 0 164.5 -52.5t61.5 -141.5t-62 -141.5t-164 -52.5h-119v-265h84v-47h-231zM303 648h-119v-284h119q65 0 104 38.5t39 103.5q0 66 -38.5 104t-104.5 38z" />
    <glyph glyph-name="afii10035" unicode="&#x421;" horiz-adv-x="609" 
d="M555 54q-83 -59 -199 -59q-141 0 -221.5 95.5t-80.5 259.5t80.5 259.5t219.5 95.5q114 0 194 -60v-125l-52 -4l-8 102q-50 32 -115 32q-114 0 -175 -79.5t-61 -220.5t61.5 -220.5t175.5 -79.5q64 0 118 30l9 100l54 4v-130z" />
    <glyph glyph-name="afii10036" unicode="&#x422;" horiz-adv-x="627" 
d="M530 563l-5 85h-170v-601h63v-47h-210v47l64 11v590h-170l-6 -80l-50 -5v137h535v-132z" />
    <glyph glyph-name="afii10037" unicode="&#x423;" horiz-adv-x="677" 
d="M306 198l-215 445l-66 7l-3 43q60 11 90 11q23 0 34 -10t20 -30l177 -392l169 381h-67v47h209v-47l-64 -11l-216 -466q-46 -99 -86.5 -140t-93.5 -41q-62 0 -106 40l21 42q31 -24 68 -24q38 0 67.5 36t61.5 109z" />
    <glyph glyph-name="afii10038" unicode="&#x424;" horiz-adv-x="809" 
d="M363 596v59h-63v45h210v-45l-64 -12v-47h28q130 0 205 -66t75 -180t-75 -180t-205 -66h-28v-59h63v-45h-210v45l64 11v48h-28q-130 0 -205.5 66t-75.5 180t75.5 180t205.5 66h28zM363 545h-28q-93 0 -145.5 -52.5t-52.5 -142.5t52.5 -142.5t145.5 -52.5h28v390zM446 545
v-390h28q92 0 144.5 52.5t52.5 142.5t-52.5 142.5t-144.5 52.5h-28z" />
    <glyph glyph-name="afii10039" unicode="&#x425;" horiz-adv-x="693" 
d="M29 0v47l70 11l195 303l-188 282l-72 8l-3 42q44 11 93 11q22 0 33 -9t24 -30l169 -261l165 249h-71v47h219v-47l-69 -11l-193 -287l193 -298l72 -8l3 -42q-44 -11 -93 -11q-21 0 -33 9t-24 30l-175 276l-167 -264h72v-47h-220z" />
    <glyph glyph-name="afii10040" unicode="&#x426;" horiz-adv-x="700" 
d="M37 0v47l64 11v595h-63v47h210v-47l-64 -11v-590h317v601h-62v47h209v-47l-64 -11v-590h45q41 0 41 -54q0 -66 -11 -145l-50 -3l-9 150h-563z" />
    <glyph glyph-name="afii10041" unicode="&#x427;" horiz-adv-x="654" 
d="M175 642v-149q0 -80 35 -115.5t112 -35.5q89 0 148 41v270h-62v47h209v-47l-64 -11v-595h63v-47h-209v47l63 11v278q-77 -49 -178 -49q-200 0 -200 203v163h-62v47h209v-47z" />
    <glyph glyph-name="afii10042" unicode="&#x428;" horiz-adv-x="1026" 
d="M37 0v47l64 11v595h-63v47h210v-47l-64 -11v-590h288v601h-63v47h210v-47l-64 -11v-590h288v601h-63v47h210v-47l-64 -11v-595h56v-47h-945z" />
    <glyph glyph-name="afii10043" unicode="&#x429;" horiz-adv-x="1042" 
d="M37 0v47l64 11v595h-63v47h210v-47l-64 -11v-590h288v601h-63v47h210v-47l-64 -11v-590h288v601h-63v47h210v-47l-64 -11v-590h44q41 0 41 -54q0 -66 -11 -145l-49 -3l-10 150h-904z" />
    <glyph glyph-name="afii10044" unicode="&#x42a;" horiz-adv-x="738" 
d="M406 700v-47l-64 -11v-255h131q102 0 163.5 -52t61.5 -141q0 -90 -61 -142t-164 -52h-278v47l64 11v590h-157l-6 -80l-50 -5v137h360zM473 336h-131v-284h131q65 0 103.5 38t38.5 104q0 65 -38.5 103.5t-103.5 38.5z" />
    <glyph glyph-name="afii10045" unicode="&#x42b;" horiz-adv-x="840" 
d="M248 700v-47l-64 -11v-255h131q102 0 163.5 -52t61.5 -141q0 -90 -61 -142t-164 -52h-278v47l64 11v595h-63v47h210zM315 336h-131v-284h131q65 0 103.5 38t38.5 104q0 65 -38.5 103.5t-103.5 38.5zM803 700v-47l-63 -11v-595h62v-47h-209v47l64 11v595h-63v47h209z" />
    <glyph glyph-name="afii10046" unicode="&#x42c;" horiz-adv-x="580" 
d="M248 700v-47l-64 -11v-255h131q102 0 163.5 -52t61.5 -141q0 -90 -61 -142t-164 -52h-278v47l64 11v595h-63v47h210zM315 336h-131v-284h131q65 0 103.5 38t38.5 104q0 65 -38.5 103.5t-103.5 38.5z" />
    <glyph glyph-name="afii10047" unicode="&#x42d;" horiz-adv-x="609" 
d="M55 53v131l53 -4l9 -97q53 -33 123 -33q110 0 169.5 75t61.5 207h-266l5 54h261q-5 124 -65 194t-166 70q-66 0 -119 -33l-7 -101l-53 4v126q79 59 193 59q140 0 220.5 -95.5t80.5 -259.5t-81 -259.5t-222 -95.5q-117 0 -197 58z" />
    <glyph glyph-name="afii10048" unicode="&#x42e;" horiz-adv-x="948" 
d="M329 332h-145v-285h62v-47h-209v47l64 11v595h-63v47h210v-47l-64 -11v-258h146q8 149 83.5 235t197.5 86q130 0 206.5 -96t76.5 -259t-76.5 -259t-206.5 -96q-126 0 -201.5 91t-80.5 246zM411 350q0 -139 54 -219.5t146 -80.5q93 0 146.5 80t53.5 220t-53.5 220
t-146.5 80q-92 0 -146 -80.5t-54 -219.5z" />
    <glyph glyph-name="afii10049" unicode="&#x42f;" horiz-adv-x="608" 
d="M362 0v47l64 11v257h-122l-130 -280q-17 -39 -54 -39q-45 0 -95 11l3 42l73 8l129 264q-75 16 -117 64.5t-42 121.5q0 89 61.5 141t163.5 52h276v-47l-63 -11v-595h62v-47h-209zM296 366h130v282h-130q-65 0 -103.5 -37.5t-38.5 -103.5q0 -65 38.5 -103t103.5 -38z" />
    <glyph glyph-name="afii10065" unicode="&#x430;" horiz-adv-x="502" 
d="M93 415l-23 41q66 49 159 49q85 0 131 -45.5t46 -126.5v-256q0 -31 25 -31q15 0 34 8l7 -37q-44 -21 -79 -21q-59 0 -65 53q-62 -54 -145 -54q-63 0 -101 35t-38 92q0 53 35 87.5t99 43.5l149 20v60q0 56 -30 86.5t-88 30.5q-65 0 -116 -35zM205 50q77 0 122 49v130
l-130 -20q-40 -6 -61 -28t-21 -55q0 -36 24 -56t66 -20z" />
    <glyph glyph-name="afii10066" unicode="&#x431;" horiz-adv-x="548" 
d="M434 777v-78q-20 -23 -51.5 -35t-61.5 -14.5t-63 -13.5t-58.5 -29.5t-45 -63.5t-25.5 -115q77 77 178 77q89 0 143 -69.5t54 -189.5q0 -118 -56 -184.5t-169 -66.5q-109 0 -167 76.5t-58 270.5q0 98 16.5 166.5t41 102.5t60.5 55t68 26.5t71 14.5t61 21l8 45zM283 450
q-44 0 -83 -21t-64 -52q-1 -13 -1 -47q0 -154 38.5 -217t110.5 -63q141 0 141 194q0 100 -38 153t-104 53z" />
    <glyph glyph-name="afii10067" unicode="&#x432;" horiz-adv-x="515" 
d="M38 453v47h243q77 0 120.5 -34.5t43.5 -94.5q0 -77 -72 -109q45 -14 70.5 -46.5t25.5 -77.5q0 -64 -48.5 -101t-133.5 -37h-249v47l59 11v395h-59zM177 50h100q53 0 83 24.5t30 68.5q0 43 -30 68t-83 25h-100v-186zM177 284h94q49 0 74.5 22t25.5 61q0 40 -25.5 61.5
t-74.5 21.5h-94v-166z" />
    <glyph glyph-name="afii10068" unicode="&#x433;" horiz-adv-x="443" 
d="M355 375l-6 73h-172v-401h79v-47h-218v47l59 11v395h-58v47h367v-121z" />
    <glyph glyph-name="afii10069" unicode="&#x434;" horiz-adv-x="591" 
d="M29 -134v181l23 5h21q21 0 34.5 17.5t19.5 60.5l47 318l-58 6l-3 41q57 5 104 5h325v-47l-59 -11v-390h34q41 0 41 -51q0 -65 -11 -131l-49 -3l-10 133h-396l-9 -130zM249 448l-49 -327q-6 -44 -26 -69h232v396h-157z" />
    <glyph glyph-name="afii10070" unicode="&#x435;" horiz-adv-x="503" 
d="M438 259h-314q-5 -99 39.5 -154t132.5 -55q76 0 121 30l24 -42q-65 -43 -157 -43q-110 0 -175 68t-65 190q0 116 58.5 184t161.5 68q85 0 133.5 -45.5t48.5 -128.5q0 -30 -8 -72zM264 450q-60 0 -95.5 -38.5t-43.5 -106.5h251q3 19 3 35q0 52 -31.5 81t-83.5 29z" />
    <glyph glyph-name="afii10072" unicode="&#x436;" horiz-adv-x="785" 
d="M489 502v-47l-59 -10v-203l193 211h-57v47h189v-47l-62 -11l-133 -144l144 -241l62 -8l3 -42q-52 -11 -86 -11q-31 0 -51 39l-122 219l-80 -80v-127h60v-47h-197v47l61 11v116l-80 80l-122 -219q-18 -39 -51 -39t-85 11l3 42l61 8l143 241l-145 155h-49v47h190v-47
l-53 -5l188 -206v213h-59v47h194z" />
    <glyph glyph-name="afii10073" unicode="&#x437;" horiz-adv-x="461" 
d="M152 234l5 48h55q50 0 77.5 21.5t27.5 59.5q0 41 -31 64t-81 23q-48 0 -91 -20l-6 -66l-53 -4v99q62 46 160 46q79 0 127 -36t48 -97q0 -77 -74 -112q45 -15 72 -47.5t27 -77.5q0 -64 -55.5 -102t-148.5 -38q-98 0 -169 48l26 40q56 -34 132 -34q62 0 99 25t37 69
q0 41 -32.5 66t-85.5 25h-66z" />
    <glyph glyph-name="afii10074" unicode="&#x438;" horiz-adv-x="602" 
d="M236 500v-47l-59 -11v-297l248 287v21h-57v47h196v-47l-59 -11v-395h58v-47h-196v47l58 11v297l-248 -287v-21h57v-47h-196v47l59 11v395h-58v47h197z" />
    <glyph glyph-name="afii10075" unicode="&#x439;" horiz-adv-x="602" 
d="M381 673l61 -10q-21 -99 -141 -99q-121 0 -141 99l61 10q14 -61 80 -61q67 0 80 61zM236 500v-47l-59 -11v-297l248 287v21h-57v47h196v-47l-59 -11v-395h58v-47h-196v47l58 11v297l-248 -287v-21h57v-47h-196v47l59 11v395h-58v47h197z" />
    <glyph glyph-name="afii10076" unicode="&#x43a;" horiz-adv-x="545" 
d="M233 500v-47l-56 -10v-211l201 221h-58v47h193v-47l-62 -11l-137 -146l153 -239l61 -8l3 -42q-50 -11 -85 -11q-28 0 -51 39l-134 216l-84 -89v-115h57v-47h-196v47l59 11v395h-58v47h194z" />
    <glyph glyph-name="afii10077" unicode="&#x43b;" horiz-adv-x="579" 
d="M18 21l9 39q21 -13 44 -13q32 0 48.5 36.5t30.5 129.5l34 235l-60 6l-3 41q57 5 104 5h315v-47l-58 -11v-395h57v-47h-196v47l59 11v390h-143l-38 -248q-17 -109 -41 -156.5t-79 -47.5q-45 0 -83 25z" />
    <glyph glyph-name="afii10078" unicode="&#x43c;" horiz-adv-x="690" 
d="M506 500h146v-47l-59 -11v-395h58v-47h-187v47l58 11v337l-150 -287h-52l-152 287v-348h58v-47h-188v47l59 11v387l-56 7l-3 43q55 10 99 10q43 0 59 -36l150 -277z" />
    <glyph glyph-name="afii10079" unicode="&#x43d;" horiz-adv-x="601" 
d="M236 500v-47l-59 -11v-156h248v167h-58v47h196v-47l-59 -11v-395h58v-47h-196v47l59 11v176h-248v-187h57v-47h-196v47l59 11v395h-58v47h197z" />
    <glyph glyph-name="afii10080" unicode="&#x43e;" horiz-adv-x="539" 
d="M44 250q0 117 61 186t164 69q104 0 165 -68.5t61 -186.5t-61 -186.5t-165 -68.5q-103 0 -164 69t-61 186zM124 250q0 -93 39 -146.5t106 -53.5q68 0 107 53.5t39 146.5t-39 146.5t-107 53.5q-67 0 -106 -53.5t-39 -146.5z" />
    <glyph glyph-name="afii10081" unicode="&#x43f;" horiz-adv-x="587" 
d="M38 0v47l59 11v395h-58v47h510v-47l-59 -11v-395h58v-47h-195v47l57 11v390h-233v-401h56v-47h-195z" />
    <glyph glyph-name="afii10082" unicode="&#x440;" horiz-adv-x="560" 
d="M38 -250v47l59 11v637l-56 7l-3 43q55 10 97 10t42 -39v-14q58 53 136 53q91 0 147 -69.5t56 -185.5q0 -117 -58 -186t-157 -69q-69 0 -124 29v-227h79v-47h-218zM292 450q-73 0 -115 -49v-321q43 -30 106 -30q72 0 112.5 53.5t40.5 147.5q0 92 -38.5 145.5t-105.5 53.5z
" />
    <glyph glyph-name="afii10083" unicode="&#x441;" horiz-adv-x="470" 
d="M417 463v-100l-54 -4l-9 79q-36 12 -74 12q-77 0 -116.5 -51t-39.5 -143q0 -99 42 -152.5t122 -53.5q71 0 117 31l22 -40q-58 -46 -154 -46q-107 0 -168 68.5t-61 187.5q0 118 61 186t167 68q93 0 145 -42z" />
    <glyph glyph-name="afii10084" unicode="&#x442;" horiz-adv-x="514" 
d="M425 375l-5 73h-123v-401h57v-47h-196v47l59 11v390h-124l-5 -69l-50 -4v125h438v-121z" />
    <glyph glyph-name="afii10085" unicode="&#x443;" horiz-adv-x="567" 
d="M551 500v-47l-56 -11l-210 -542q-33 -86 -65.5 -120.5t-82.5 -34.5q-60 0 -102 39l18 40q28 -24 66 -24q31 0 50.5 22.5t41.5 77.5l41 100l-175 443l-59 8l-3 42q50 11 87 11q36 0 49 -39l137 -380l130 368h-62v47h195z" />
    <glyph glyph-name="afii10086" unicode="&#x444;" horiz-adv-x="717" 
d="M260 -250v47l59 11v191q-32 -4 -49 -4q-106 0 -166 68.5t-60 186.5t60 186.5t164 68.5q19 0 51 -4v194l-57 7l-3 43q57 10 98 10t41 -39v-215q34 4 54 4q104 0 162.5 -68t58.5 -187t-58.5 -187t-163.5 -68q-30 0 -53 4v-202h58v-47h-196zM437 450q-13 0 -39 -4v-394
q13 -2 38 -2q77 0 117 52.5t40 147.5t-40 147.5t-116 52.5zM284 50q23 0 35 2v395q-18 3 -35 3q-77 0 -118.5 -53t-41.5 -147t41.5 -147t118.5 -53z" />
    <glyph glyph-name="afii10087" unicode="&#x445;" horiz-adv-x="544" 
d="M19 0v47l58 11l139 203l-130 182l-60 8l-3 42q44 11 79 11q21 0 32.5 -9t25.5 -30l113 -165l109 153h-60v47h194v-47l-57 -11l-136 -187l138 -198l59 -8l3 -42q-43 -11 -79 -11q-20 0 -31.5 8.5t-25.5 30.5l-121 180l-112 -168h60v-47h-195z" />
    <glyph glyph-name="afii10088" unicode="&#x446;" horiz-adv-x="607" 
d="M236 500v-47l-59 -11v-390h241v401h-57v47h196v-47l-59 -11v-390h34q41 0 41 -51q0 -65 -11 -131l-49 -3l-10 133h-465v47l59 11v395h-58v47h197z" />
    <glyph glyph-name="afii10089" unicode="&#x447;" horiz-adv-x="554" 
d="M160 442v-105q0 -90 89 -90q79 0 128 43v163h-57v47h196v-47l-59 -11v-395h58v-47h-196v47l58 11v186q-71 -52 -160 -52q-68 0 -102 37.5t-34 103.5v120h-58v47h196v-47z" />
    <glyph glyph-name="afii10090" unicode="&#x448;" horiz-adv-x="857" 
d="M235 500v-47l-58 -11v-390h212v401h-57v47h195v-47l-59 -11v-390h213v401h-57v47h195v-47l-59 -11v-395h58v-47h-780v47l59 11v395h-58v47h196z" />
    <glyph glyph-name="afii10091" unicode="&#x449;" horiz-adv-x="869" 
d="M235 500v-47l-58 -11v-390h212v401h-57v47h195v-47l-59 -11v-390h213v401h-57v47h195v-47l-59 -11v-390h34q41 0 41 -51q0 -65 -11 -131l-49 -3l-10 133h-727v47l59 11v395h-58v47h196z" />
    <glyph glyph-name="afii10092" unicode="&#x44a;" horiz-adv-x="599" 
d="M341 500v-47l-59 -11v-156h89q85 0 134.5 -38.5t49.5 -104.5t-49.5 -104.5t-134.5 -38.5h-227v47l58 11v390h-109l-5 -69l-50 -4v125h303zM363 236h-81v-186h82q53 0 82.5 24.5t29.5 68.5q0 43 -29.5 68t-83.5 25z" />
    <glyph glyph-name="afii10093" unicode="&#x44b;" horiz-adv-x="718" 
d="M236 500v-47l-59 -11v-156h88q86 0 135 -38.5t49 -104.5t-49 -104.5t-135 -38.5h-227v47l59 11v395h-58v47h197zM258 236h-81v-186h81q53 0 83 24.5t30 68.5q0 43 -30 68t-83 25zM680 500v-47l-59 -11v-395h58v-47h-196v47l58 11v395h-57v47h196z" />
    <glyph glyph-name="afii10094" unicode="&#x44c;" horiz-adv-x="494" 
d="M236 500v-47l-59 -11v-156h88q86 0 135 -38.5t49 -104.5t-49 -104.5t-135 -38.5h-227v47l59 11v395h-58v47h197zM258 236h-81v-186h81q53 0 83 24.5t30 68.5q0 43 -30 68t-83 25z" />
    <glyph glyph-name="afii10095" unicode="&#x44d;" horiz-adv-x="474" 
d="M54 367v104q61 34 146 34q109 0 170 -68t61 -187t-61.5 -187t-173.5 -68q-82 0 -154 46l25 40q50 -31 117 -31q79 0 121.5 46.5t45.5 133.5h-191l5 52h186q-4 78 -44 123t-114 45q-45 0 -82 -15l-6 -64z" />
    <glyph glyph-name="afii10096" unicode="&#x44e;" horiz-adv-x="755" 
d="M236 500v-47l-59 -11v-156h110q9 102 65 160.5t146 58.5q98 0 155.5 -68.5t57.5 -186.5t-57.5 -186.5t-155.5 -68.5q-94 0 -151 64.5t-61 174.5h-109v-187h57v-47h-196v47l59 11v395h-58v47h197zM364 250q0 -93 35.5 -146.5t97.5 -53.5t98 53.5t36 146.5t-36 146.5
t-98 53.5t-97.5 -53.5t-35.5 -146.5z" />
    <glyph glyph-name="afii10097" unicode="&#x44f;" horiz-adv-x="526" 
d="M291 0v47l58 10v159h-103l-80 -181q-13 -39 -54 -39q-38 0 -80 11l3 42l62 8l83 166q-112 26 -112 135q0 66 46 104t131 38h242v-47l-59 -11v-395h58v-47h-195zM259 265h90v185h-90q-53 0 -83 -24.5t-30 -67.5q0 -44 30 -68.5t83 -24.5z" />
    <glyph glyph-name="uni0450" unicode="&#x450;" horiz-adv-x="503" 
d="M438 259h-314q-5 -99 39.5 -154t132.5 -55q76 0 121 30l24 -42q-65 -43 -157 -43q-110 0 -175 68t-65 190q0 116 58.5 184t161.5 68q85 0 133.5 -45.5t48.5 -128.5q0 -30 -8 -72zM264 450q-60 0 -95.5 -38.5t-43.5 -106.5h251q3 19 3 35q0 52 -31.5 81t-83.5 29zM140 690
l40 42l165 -127l-25 -29z" />
    <glyph glyph-name="afii10071" unicode="&#x451;" horiz-adv-x="503" 
d="M438 259h-314q-5 -99 39.5 -154t132.5 -55q76 0 121 30l24 -42q-65 -43 -157 -43q-110 0 -175 68t-65 190q0 116 58.5 184t161.5 68q85 0 133.5 -45.5t48.5 -128.5q0 -30 -8 -72zM264 450q-60 0 -95.5 -38.5t-43.5 -106.5h251q3 19 3 35q0 52 -31.5 81t-83.5 29zM123 609
q0 19 13 31.5t32 12.5t31.5 -12.5t12.5 -31.5t-12.5 -32t-31.5 -13q-20 0 -32.5 13t-12.5 32zM307 609q0 19 13 31.5t32 12.5t31.5 -12.5t12.5 -31.5t-12.5 -32t-31.5 -13q-20 0 -32.5 13t-12.5 32z" />
    <glyph glyph-name="afii10099" unicode="&#x452;" horiz-adv-x="597" 
d="M500 344v-460q0 -65 -37.5 -102t-97.5 -37q-58 0 -96 32l16 40q23 -17 59 -17q35 0 55.5 22t20.5 62v456q0 110 -104 110q-36 0 -74.5 -14t-64.5 -39v-350h57v-47h-196v47l59 11v532h-61l5 46h56v66l-57 7l-2 36q55 10 97 10t42 -39v-80h185l-5 -46h-180v-143
q73 58 168 58q75 0 115 -43t40 -118z" />
    <glyph glyph-name="afii10100" unicode="&#x453;" horiz-adv-x="443" 
d="M177 575l-18 34l167 127l30 -48zM355 375l-6 73h-172v-401h79v-47h-218v47l59 11v395h-58v47h367v-121z" />
    <glyph glyph-name="afii10101" unicode="&#x454;" horiz-adv-x="476" 
d="M424 463v-100l-55 -4l-8 79q-38 12 -78 12q-74 0 -114.5 -45t-44.5 -126h228l-5 -52h-222q5 -84 48 -130.5t119 -46.5q72 0 119 31l23 -40q-59 -46 -157 -46q-108 0 -170.5 68.5t-62.5 186.5t61.5 186.5t169.5 68.5q94 0 149 -42z" />
    <glyph glyph-name="afii10102" unicode="&#x455;" horiz-adv-x="437" 
d="M127 383q0 -35 26.5 -57t64.5 -34.5t76 -27t64.5 -45.5t26.5 -80q0 -66 -45.5 -105t-130.5 -39q-87 0 -154 37v98l55 4l6 -70q43 -20 90 -20q51 0 78.5 22.5t27.5 59.5q0 35 -26.5 58t-63.5 36t-74.5 28.5t-64 46.5t-26.5 78q0 61 40.5 96.5t115.5 35.5q82 0 145 -36v-99
l-54 -4l-8 72q-39 18 -81 18q-43 0 -65.5 -20t-22.5 -53z" />
    <glyph glyph-name="afii10103" unicode="&#x456;" horiz-adv-x="274" 
d="M38 0v47l59 11v387l-56 7l-3 43q55 10 98 10q41 0 41 -39v-419h57v-47h-196zM76 650q0 23 15 38t38 15t38 -15t15 -38t-15 -38t-38 -15t-38 15.5t-15 37.5z" />
    <glyph glyph-name="afii10104" unicode="&#x457;" horiz-adv-x="274" 
d="M38 0v47l59 11v387l-56 7l-3 43q55 10 98 10q41 0 41 -39v-419h57v-47h-196zM6 627q0 19 12.5 31.5t31.5 12.5t31.5 -12.5t12.5 -31.5t-12.5 -31.5t-31.5 -12.5t-31.5 12.5t-12.5 31.5zM163 627q0 19 12.5 31.5t31.5 12.5t32 -12.5t13 -31.5t-13 -31.5t-32 -12.5
t-31.5 12.5t-12.5 31.5z" />
    <glyph glyph-name="afii10105" unicode="&#x458;" horiz-adv-x="274" 
d="M76 650q0 23 15 38t38 15t38 -15t15 -38t-15 -38t-38 -15t-38 15.5t-15 37.5zM177 466v-582q0 -65 -37.5 -102t-97.5 -37q-56 0 -96 32l16 40q23 -17 59 -17q35 0 55.5 22t20.5 62v561l-56 7l-3 43q55 10 97 10t42 -39z" />
    <glyph glyph-name="afii10106" unicode="&#x459;" horiz-adv-x="799" 
d="M18 21l9 39q22 -13 44 -13q32 0 49 36.5t30 129.5l35 235l-61 6l-3 41q58 5 104 5h316v-47l-59 -11v-156h89q85 0 134.5 -38.5t49.5 -104.5t-49.5 -104.5t-134.5 -38.5h-227v47l58 11v390h-143l-37 -248q-17 -108 -41.5 -156t-79.5 -48q-44 0 -83 25zM563 236h-81v-186
h82q53 0 82.5 24.5t29.5 68.5q0 43 -29.5 68t-83.5 25z" />
    <glyph glyph-name="afii10107" unicode="&#x45a;" horiz-adv-x="807" 
d="M549 500v-47l-59 -11v-156h89q85 0 134.5 -38.5t49.5 -104.5t-49.5 -104.5t-134.5 -38.5h-227v47l58 11v176h-233v-187h57v-47h-196v47l59 11v395h-58v47h197v-47l-59 -11v-156h233v167h-57v47h196zM571 236h-81v-186h82q53 0 82.5 24.5t29.5 68.5q0 43 -29.5 68
t-83.5 25z" />
    <glyph glyph-name="afii10108" unicode="&#x45b;" horiz-adv-x="597" 
d="M36 590l5 46h56v66l-57 7l-2 36q55 10 97 10t42 -39v-80h185l-5 -46h-180v-143q73 58 168 58q75 0 115 -43t40 -118v-297h57v-47h-196v47l59 11v282q0 110 -104 110q-36 0 -74.5 -14t-64.5 -39v-350h57v-47h-196v47l59 11v532h-61z" />
    <glyph glyph-name="afii10109" unicode="&#x45c;" horiz-adv-x="545" 
d="M212 575l-18 34l167 127l30 -48zM233 500v-47l-56 -10v-211l201 221h-58v47h193v-47l-62 -11l-137 -146l153 -239l61 -8l3 -42q-50 -11 -85 -11q-28 0 -51 39l-134 216l-84 -89v-115h57v-47h-196v47l59 11v395h-58v47h194z" />
    <glyph glyph-name="uni045D" unicode="&#x45d;" horiz-adv-x="602" 
d="M179 690l40 42l165 -127l-25 -29zM236 500v-47l-59 -11v-297l248 287v21h-57v47h196v-47l-59 -11v-395h58v-47h-196v47l58 11v297l-248 -287v-21h57v-47h-196v47l59 11v395h-58v47h197z" />
    <glyph glyph-name="afii10110" unicode="&#x45e;" horiz-adv-x="567" 
d="M551 500v-47l-56 -11l-210 -542q-33 -86 -65.5 -120.5t-82.5 -34.5q-60 0 -102 39l18 40q28 -24 66 -24q31 0 50.5 22.5t41.5 77.5l41 100l-175 443l-59 8l-3 42q50 11 87 11q36 0 49 -39l137 -380l130 368h-62v47h195zM364 673l60 -10q-20 -99 -141 -99t-141 99l61 10
q15 -61 81 -61q65 0 80 61z" />
    <glyph glyph-name="afii10193" unicode="&#x45f;" horiz-adv-x="595" 
d="M236 500v-47l-59 -11v-390h241v401h-57v47h196v-47l-59 -11v-395h59v-47h-224l-8 -130l-55 -4v134h-232v47l59 11v395h-58v47h197z" />
    <glyph glyph-name="afii10050" unicode="&#x490;" horiz-adv-x="508" 
d="M447 797v-149h-263v-601h84v-47h-231v47l64 11v595h-63v47h351l7 96z" />
    <glyph glyph-name="afii10098" unicode="&#x491;" horiz-adv-x="405" 
d="M367 585v-137h-190v-401h79v-47h-218v47l59 11v395h-58v47h271l6 84z" />
    <glyph glyph-name="uni04D8" unicode="&#x4d8;" horiz-adv-x="639" 
d="M57 364h444q-2 135 -63.5 210.5t-170.5 75.5q-66 0 -116 -32l-8 -102l-53 4v125q82 60 195 60q139 0 219.5 -96t80.5 -264q0 -159 -72 -254.5t-196 -95.5q-127 0 -199 98.5t-61 270.5zM314 50q83 0 133 69.5t53 191.5h-367q-3 -121 47 -191t134 -70z" />
    <glyph glyph-name="afii10846" unicode="&#x4d9;" horiz-adv-x="503" 
d="M65 241h315q5 99 -39.5 154t-133.5 55q-74 0 -121 -30l-24 42q64 43 157 43q110 0 175 -68t65 -190q0 -116 -58 -184t-162 -68q-85 0 -133.5 45.5t-48.5 128.5q0 30 8 72zM239 50q60 0 96 38.5t44 106.5h-252q-3 -19 -3 -35q0 -52 31.5 -81t83.5 -29z" />
    <glyph glyph-name="Wgrave" unicode="&#x1e80;" horiz-adv-x="1119" 
d="M1097 700v-47l-61 -11l-223 -642h-71l-182 572l-175 -572h-70l-225 643l-65 8l-3 42q50 11 96 11q41 0 52 -39l181 -561l172 596h72l182 -598l177 551h-67v47h210zM438 851l39 42l166 -128l-25 -28z" />
    <glyph glyph-name="wgrave" unicode="&#x1e81;" horiz-adv-x="861" 
d="M845 500v-47l-56 -11l-165 -442h-70l-125 378l-116 -378h-71l-164 443l-60 8l-3 42q50 11 88 11q37 0 48 -39l126 -373l119 408h65l129 -410l122 363h-61v47h194zM307 690l40 42l165 -127l-24 -29z" />
    <glyph glyph-name="Wacute" unicode="&#x1e82;" horiz-adv-x="1119" 
d="M1097 700v-47l-61 -11l-223 -642h-71l-182 572l-175 -572h-70l-225 643l-65 8l-3 42q50 11 96 11q41 0 52 -39l181 -561l172 596h72l182 -598l177 551h-67v47h210zM500 736l-19 33l168 127l30 -47z" />
    <glyph glyph-name="wacute" unicode="&#x1e83;" horiz-adv-x="861" 
d="M845 500v-47l-56 -11l-165 -442h-70l-125 378l-116 -378h-71l-164 443l-60 8l-3 42q50 11 88 11q37 0 48 -39l126 -373l119 408h65l129 -410l122 363h-61v47h194zM370 575l-19 34l167 127l31 -48z" />
    <glyph glyph-name="Wdieresis" unicode="&#x1e84;" horiz-adv-x="1119" 
d="M1097 700v-47l-61 -11l-223 -642h-71l-182 572l-175 -572h-70l-225 643l-65 8l-3 42q50 11 96 11q41 0 52 -39l181 -561l172 596h72l182 -598l177 551h-67v47h210zM423 787q0 19 12.5 32t31.5 13t32 -13t13 -32t-13 -31.5t-32 -12.5t-31.5 12.5t-12.5 31.5zM607 787
q0 19 12.5 32t31.5 13t32 -13t13 -32t-13 -31.5t-32 -12.5t-31.5 12.5t-12.5 31.5z" />
    <glyph glyph-name="wdieresis" unicode="&#x1e85;" horiz-adv-x="861" 
d="M845 500v-47l-56 -11l-165 -442h-70l-125 378l-116 -378h-71l-164 443l-60 8l-3 42q50 11 88 11q37 0 48 -39l126 -373l119 408h65l129 -410l122 363h-61v47h194zM293 627q0 19 12.5 31.5t31.5 12.5t32 -12.5t13 -31.5t-13 -31.5t-32 -12.5t-31.5 12.5t-12.5 31.5z
M477 627q0 19 12.5 31.5t31.5 12.5t32 -12.5t13 -31.5t-13 -31.5t-32 -12.5t-31.5 12.5t-12.5 31.5z" />
    <glyph glyph-name="Ygrave" unicode="&#x1ef2;" horiz-adv-x="695" 
d="M602 642l-210 -347v-248h63v-47h-210v47l64 11v237l-212 348l-72 8l-3 42q44 11 93 11q22 0 34 -9t23 -30l179 -306l174 294h-73v47h220v-47zM229 851l40 42l165 -128l-25 -28z" />
    <glyph glyph-name="ygrave" unicode="&#x1ef3;" horiz-adv-x="567" 
d="M551 500v-47l-56 -11l-210 -542q-33 -86 -65.5 -120.5t-82.5 -34.5q-60 0 -102 39l18 40q28 -24 66 -24q31 0 50.5 22.5t41.5 77.5l41 100l-175 443l-59 8l-3 42q50 11 87 11q36 0 49 -39l137 -380l130 368h-62v47h195zM166 690l40 42l165 -127l-25 -29z" />
    <glyph glyph-name="figuredash" unicode="&#x2012;" horiz-adv-x="522" 
d="M40 326l5 46h437l-5 -46h-437z" />
    <glyph glyph-name="endash" unicode="&#x2013;" horiz-adv-x="522" 
d="M40 259l5 46h437l-5 -46h-437z" />
    <glyph glyph-name="emdash" unicode="&#x2014;" horiz-adv-x="697" 
d="M40 259l5 46h612l-5 -46h-612z" />
    <glyph glyph-name="quoteleft" unicode="&#x2018;" horiz-adv-x="214" 
d="M139 536l-71 -19q-12 37 -12 74q0 108 85 158l32 -40q-47 -40 -47 -113q0 -34 13 -60z" />
    <glyph glyph-name="quoteright" unicode="&#x2019;" horiz-adv-x="214" 
d="M76 730l70 19q12 -37 12 -74q0 -109 -85 -158l-31 40q47 40 47 113q0 30 -13 60z" />
    <glyph glyph-name="quotesinglbase" unicode="&#x201a;" horiz-adv-x="214" 
d="M76 68l70 19q12 -37 12 -74q0 -108 -85 -157l-31 39q47 40 47 113q0 30 -13 60z" />
    <glyph glyph-name="quotedblleft" unicode="&#x201c;" horiz-adv-x="362" 
d="M139 536l-71 -19q-12 37 -12 74q0 108 85 158l32 -40q-47 -40 -47 -113q0 -34 13 -60zM289 749l32 -40q-47 -40 -47 -113q0 -34 13 -60l-71 -19q-12 37 -12 74q0 108 85 158z" />
    <glyph glyph-name="quotedblright" unicode="&#x201d;" horiz-adv-x="362" 
d="M76 730l70 19q12 -37 12 -74q0 -109 -85 -158l-31 40q47 40 47 113q0 30 -13 60zM224 730l70 19q12 -37 12 -74q0 -109 -85 -158l-31 40q47 40 47 113q0 30 -13 60z" />
    <glyph glyph-name="quotedblbase" unicode="&#x201e;" horiz-adv-x="362" 
d="M76 68l70 19q12 -37 12 -74q0 -108 -85 -157l-31 39q47 40 47 113q0 30 -13 60zM224 68l70 19q12 -38 12 -74q0 -108 -85 -157l-31 39q47 40 47 113q0 30 -13 60z" />
    <glyph glyph-name="dagger" unicode="&#x2020;" horiz-adv-x="438" 
d="M40 476l5 47h151v175l46 5v-180h156l-5 -47h-151v-574l-46 -5v579h-156z" />
    <glyph glyph-name="daggerdbl" unicode="&#x2021;" horiz-adv-x="438" 
d="M40 177l5 46h151v253h-156l5 47h151v175l46 5v-180h156l-5 -47h-151v-253h156l-5 -46h-151v-275l-46 -5v280h-156z" />
    <glyph glyph-name="bullet" unicode="&#x2022;" horiz-adv-x="324" 
d="M51 325q0 52 30 82t81 30t81 -30t30 -82t-30 -82t-81 -30t-81 30t-30 82z" />
    <glyph glyph-name="ellipsis" unicode="&#x2026;" horiz-adv-x="643" 
d="M54 48q0 22 15 37.5t38 15.5t38 -15t15 -38t-15 -38t-38 -15t-38 15t-15 38zM269 48q0 23 15 38t38 15q22 0 37.5 -15.5t15.5 -37.5q0 -23 -15 -38t-38 -15t-38 15t-15 38zM483 48q0 22 15.5 37.5t37.5 15.5q23 0 38 -15t15 -38t-15 -38t-38 -15t-38 15t-15 38z" />
    <glyph glyph-name="perthousand" unicode="&#x2030;" horiz-adv-x="1228" 
d="M236 -7l-41 20l400 693l42 -19zM44 535q0 79 46.5 124.5t125.5 45.5t125.5 -45.5t46.5 -124.5t-46.5 -125t-125.5 -46t-125.5 46t-46.5 125zM106 535q0 -58 29.5 -91.5t80.5 -33.5t80.5 33.5t29.5 91.5t-29.5 91t-80.5 33t-80.5 -33t-29.5 -91zM443 165q0 79 46.5 125
t125.5 46t125.5 -46t46.5 -125t-46 -124.5t-126 -45.5q-79 0 -125.5 45.5t-46.5 124.5zM505 165q0 -57 30 -90.5t80 -33.5q51 0 80.5 33t29.5 91t-29.5 91.5t-80.5 33.5q-50 0 -80 -33.5t-30 -91.5zM840 165q0 79 46.5 125t125.5 46t125.5 -46t46.5 -125t-46.5 -124.5
t-125.5 -45.5q-80 0 -126 45.5t-46 124.5zM902 165q0 -58 29.5 -91t80.5 -33q50 0 80 33.5t30 90.5q0 58 -30 91.5t-80 33.5q-51 0 -80.5 -33.5t-29.5 -91.5z" />
    <glyph glyph-name="guilsinglleft" unicode="&#x2039;" horiz-adv-x="296" 
d="M233 155l-32 -22l-153 167l157 168l26 -28l-114 -141z" />
    <glyph glyph-name="guilsinglright" unicode="&#x203a;" horiz-adv-x="296" 
d="M63 444l32 22l153 -167l-157 -167l-26 27l114 141z" />
    <glyph glyph-name="fraction" unicode="&#x2044;" 
d="M61 -7l-42 20l400 693l42 -19z" />
    <glyph glyph-name="Euro" unicode="&#x20ac;" horiz-adv-x="649" 
d="M37 396l5 43h59q20 125 97.5 195.5t195.5 70.5q112 0 194 -60v-125l-53 -4l-8 102q-50 32 -115 32q-94 0 -152.5 -55t-75.5 -156h257l-4 -43h-258q-2 -30 -2 -46t2 -46h262l-4 -43h-253q18 -101 76 -156t153 -55q65 0 119 30l8 100l54 4v-130q-82 -59 -198 -59
q-120 0 -197.5 70.5t-97.5 195.5h-64l5 43h54q-2 30 -2 46t2 46h-59z" />
    <glyph glyph-name="uni20B4" unicode="&#x20b4;" horiz-adv-x="515" 
d="M42 307h425l-5 -44h-288q-41 -49 -41 -103q0 -50 37 -80t111 -30q98 0 169 48l23 -42q-89 -61 -209 -61q-106 0 -159 44t-53 117q0 57 36 107h-51zM462 393h-425l5 44h282q61 51 61 114q0 45 -32.5 72t-95.5 27q-90 0 -157 -42l-23 41q77 56 194 56q93 0 142 -41.5
t49 -107.5q0 -69 -52 -119h57z" />
    <glyph glyph-name="afii61352" unicode="&#x2116;" horiz-adv-x="1064" 
d="M188 671l344 -528v510h-63v47h199v-47l-64 -11v-642h-72l-359 556v-509h63v-47h-199v47l64 11v587l-63 7l-3 43q52 10 99 10q33 0 54 -34zM708 525q0 82 43 130.5t116 48.5q72 0 115 -48.5t43 -130.5t-43 -130.5t-115 -48.5q-73 0 -116 48.5t-43 130.5zM767 525
q0 -65 27 -102t73 -37t72.5 37.5t26.5 101.5t-26.5 101.5t-72.5 37.5t-73 -37t-27 -102z" />
    <glyph glyph-name="trademark" unicode="&#x2122;" horiz-adv-x="771" 
d="M274 628l-3 42h-79v-293h30v-27h-110v27l31 7v286h-79l-3 -39l-30 -3v72h273v-69zM660 700h86v-27l-32 -7v-289h30v-27h-109v27l32 7v244l-106 -203h-28l-107 203v-251h31v-27h-109v27l31 7v284l-30 4l-1 25q27 6 60 6q24 0 33 -20l106 -195z" />
    <glyph glyph-name="arrowleft" unicode="&#x2190;" horiz-adv-x="1012" 
d="M411 -4l-354 354l354 354l38 -39l-287 -287h767v-55h-767l288 -288z" />
    <glyph glyph-name="arrowup" unicode="&#x2191;" horiz-adv-x="821" 
d="M383 -168v767l-287 -288l-39 39l354 354l353 -354l-39 -38l-287 287v-767h-55z" />
    <glyph glyph-name="arrowright" unicode="&#x2192;" horiz-adv-x="1012" 
d="M83 323v55h767l-287 287l38 39l354 -354l-354 -354l-39 39l288 288h-767z" />
    <glyph glyph-name="arrowdown" unicode="&#x2193;" horiz-adv-x="821" 
d="M411 -172l-354 354l39 39l287 -288v767h55v-767l287 287l39 -38z" />
    <glyph glyph-name="uni2196" unicode="&#x2196;" horiz-adv-x="776" 
d="M83 132v500h500v-55h-406l543 -543l-39 -39l-543 543v-406h-55z" />
    <glyph glyph-name="uni2197" unicode="&#x2197;" horiz-adv-x="776" 
d="M193 577v55h500v-500h-55v406l-542 -543l-39 39l543 543h-407z" />
    <glyph glyph-name="uni2198" unicode="&#x2198;" horiz-adv-x="776" 
d="M193 0v55h407l-543 543l39 38l542 -543v407h55v-500h-500z" />
    <glyph glyph-name="uni2199" unicode="&#x2199;" horiz-adv-x="776" 
d="M83 0v500h55v-407l543 543l39 -38l-543 -543h406v-55h-500z" />
    <glyph glyph-name="minus" unicode="&#x2212;" horiz-adv-x="438" 
d="M40 301l5 46h353l-5 -46h-353z" />
    <glyph glyph-name="commaaccent" unicode="&#xf6c3;" horiz-adv-x="214" 
d="M84 -74l53 13q9 -29 9 -54q0 -89 -76 -132l-18 26q41 33 41 99q0 27 -9 48z" />
    <glyph glyph-name="f_b" horiz-adv-x="856" 
d="M472 715v-264q54 54 136 54q91 0 147 -69.5t56 -186.5q0 -118 -61.5 -186t-178.5 -68q-113 0 -178 49v637q-38 19 -103 19q-56 0 -84.5 -22t-28.5 -72v-106h144l-5 -52h-139v-401h79v-47h-218v47l59 11v390h-61l4 47l57 4v107q0 72 45 110.5t128 38.5q38 0 72 -9
q54 9 85 9q45 0 45 -40zM588 450q-73 0 -116 -49v-330q42 -23 103 -23q77 0 117 52.5t40 148.5q0 94 -38.5 147.5t-105.5 53.5z" />
    <glyph glyph-name="f_f_b" horiz-adv-x="1151" 
d="M768 715v-264q54 54 136 54q91 0 147 -69.5t56 -186.5q0 -118 -61.5 -186t-179.5 -68q-112 0 -177 49v637q-38 19 -103 19q-114 0 -114 -94v-106h145l-5 -52h-140v-401h80v-47h-218v47l59 11v390h-216v-401h79v-47h-218v47l59 11v390h-61l4 47l57 4v117q0 66 39.5 102.5
t112.5 36.5q69 0 109 -31l-20 -42q-26 18 -72 18q-89 0 -89 -84v-116h216v106q0 72 45 110.5t127 38.5q39 0 72 -9q56 9 86 9q45 0 45 -40zM768 401v-330q40 -23 103 -23q77 0 117 52.5t40 148.5q0 94 -38.5 147.5t-106.5 53.5q-72 0 -115 -49z" />
    <glyph glyph-name="f_h" horiz-adv-x="893" 
d="M657 0v47l59 11v282q0 110 -104 110q-82 0 -140 -53v-350h58v-47h-196v47l59 11v623q-38 19 -103 19q-56 0 -84.5 -22t-28.5 -72v-106h144l-5 -52h-139v-401h79v-47h-218v47l59 11v390h-61l4 47l57 4v107q0 72 45 110.5t128 38.5q38 0 72 -9q54 9 85 9q45 0 45 -40v-269
q75 59 169 59q74 0 114 -43t40 -118v-297h58v-47h-196z" />
    <glyph glyph-name="f_f_h" horiz-adv-x="969" 
d="M953 0v47l59 11v282q0 52 -26 81t-78 29q-36 0 -75 -14t-65 -39v-350h58v-47h-196v47l59 11v623q-38 19 -103 19q-114 0 -114 -94v-106h145l-5 -52h-140v-401h80v-47h-218v47l59 11v390h-216v-401h79v-47h-218v47l59 11v390h-61l4 47l57 4v117q0 66 39.5 102.5
t112.5 36.5q69 0 109 -31l-20 -42q-26 18 -72 18q-89 0 -89 -84v-116h216v106q0 72 45 110.5t127 38.5q39 0 72 -9q56 9 86 9q45 0 45 -40v-269q73 59 169 59q74 0 114 -43t40 -118v-297h58v-47h-196z" />
    <glyph glyph-name="f_k" horiz-adv-x="812" 
d="M661 35l-120 210l-69 -79v-119h58v-47h-196v47l59 11v623q-38 19 -103 19q-56 0 -84.5 -22t-28.5 -72v-106h144l-5 -52h-139v-401h79v-47h-218v47l59 11v390h-61l4 47l57 4v107q0 72 45 110.5t128 38.5q38 0 72 -9q54 9 85 9q45 0 45 -40v-467l172 205h-60v47h195v-47
l-62 -11l-125 -145l142 -240l61 -8l3 -42q-52 -11 -85 -11q-28 0 -52 39z" />
    <glyph glyph-name="f_f_k" horiz-adv-x="1108" 
d="M957 35l-120 210l-69 -79v-119h58v-47h-196v47l59 11v623q-38 19 -103 19q-114 0 -114 -94v-106h145l-5 -52h-140v-401h80v-47h-218v47l59 11v390h-216v-401h79v-47h-218v47l59 11v390h-61l4 47l57 4v117q0 66 39.5 102.5t112.5 36.5q69 0 109 -31l-20 -42q-26 18 -72 18
q-89 0 -89 -84v-116h216v106q0 72 45 110.5t127 38.5q39 0 72 -9q56 9 86 9q45 0 45 -40v-467l172 205h-61v47h195v-47l-61 -11l-125 -145l141 -240l62 -8l3 -42q-52 -11 -85 -11q-30 0 -52 39z" />
    <glyph glyph-name="f_t" horiz-adv-x="669" 
d="M177 448v-401h79v-47h-218v47l59 11v390h-61l4 47l57 4v117q0 66 37 102.5t104 36.5q62 0 100 -31l-18 -42q-24 18 -65 18q-78 0 -78 -84v-116h218l10 110l67 9v-119h147l-5 -52h-142v-314q0 -84 78 -84q42 0 66 20l20 -40q-44 -35 -105 -35q-65 0 -101.5 36.5
t-36.5 102.5v314h-216z" />
    <glyph glyph-name="f_f_t" horiz-adv-x="965" 
d="M393 500v116q0 66 36.5 102.5t103.5 36.5q63 0 101 -31l-18 -42q-24 18 -65 18q-79 0 -79 -84v-116h218l11 110l67 9v-119h147l-5 -52h-142v-314q0 -84 77 -84q43 0 67 20l19 -40q-43 -35 -105 -35q-64 0 -100.5 36.5t-36.5 102.5v314h-217v-401h80v-47h-218v47l59 11
v390h-216v-401h79v-47h-218v47l59 11v390h-61l4 47l57 4v117q0 66 39.5 102.5t112.5 36.5q69 0 109 -31l-20 -42q-26 18 -72 18q-89 0 -89 -84v-116h216z" />
    <glyph glyph-name="f_t_t" horiz-adv-x="965" 
d="M36 448l4 47l57 4v117q0 66 37 102.5t104 36.5q62 0 100 -31l-18 -42q-24 18 -65 18q-78 0 -78 -84v-116h218l10 110l67 9v-119h218l11 110l67 9v-119h147l-5 -52h-142v-314q0 -84 77 -84q43 0 67 20l19 -40q-43 -35 -105 -35q-64 0 -100.5 36.5t-36.5 102.5v314h-217
v-327q0 -33 18 -52t50 -19q37 0 58 18l19 -40q-37 -33 -96 -33t-93.5 34t-34.5 92v327h-216v-401h79v-47h-218v47l59 11v390h-61z" />
    <glyph glyph-name="t_t" horiz-adv-x="669" 
d="M25 448l4 47l70 4l10 111l68 9v-119h218l10 110l67 9v-119h147l-5 -52h-142v-314q0 -84 78 -84q42 0 66 20l20 -40q-44 -35 -106 -35q-64 0 -100.5 36.5t-36.5 102.5v314h-216v-327q0 -33 17.5 -52t49.5 -19q37 0 58 18l20 -40q-39 -33 -97 -33q-59 0 -93.5 34t-34.5 92
v327h-72z" />
    <glyph glyph-name="zero.fitted" horiz-adv-x="575" 
d="M51 350q0 163 64.5 259t172.5 96t172 -96t64 -259t-64 -259t-172 -96t-172.5 96t-64.5 259zM131 350q0 -139 42 -219.5t115 -80.5q72 0 114 80.5t42 219.5t-42 219.5t-114 80.5q-73 0 -115 -80.5t-42 -219.5z" />
    <glyph glyph-name="one.fitted" horiz-adv-x="575" 
d="M125 0v47l129 11v587h-141l-3 42q70 18 159 18q64 0 64 -39v-619h121v-47h-329z" />
    <glyph glyph-name="two.fitted" horiz-adv-x="575" 
d="M512 137v-137h-440v39q45 50 118 133q155 173 194.5 228t39.5 109q0 68 -43 104.5t-118 36.5q-64 0 -132 -33l-9 -102l-50 4v132q91 54 198 54q112 0 172 -52t60 -145q0 -68 -53.5 -140.5t-277.5 -314.5h285l5 79z" />
    <glyph glyph-name="three.fitted" horiz-adv-x="575" 
d="M270 705q99 0 158.5 -49t59.5 -133q0 -121 -117 -164q70 -17 110.5 -62.5t40.5 -110.5q0 -87 -70.5 -139t-180.5 -52q-119 0 -206 61l28 41q73 -47 169 -47q78 0 128 38.5t50 104.5q0 62 -43.5 99t-111.5 37h-80l4 52h51q67 0 108 36.5t41 99.5q0 61 -39 97t-107 36
q-75 0 -131 -35l-7 -96l-51 4v122q80 60 196 60z" />
    <glyph glyph-name="four.fitted" horiz-adv-x="575" 
d="M449 0h-74v169h-310v33l185 498l74 -1l-175 -478h226v279l74 -1v-278h76l-5 -52h-71v-169z" />
    <glyph glyph-name="five.fitted" horiz-adv-x="575" 
d="M469 700v-132l-50 -5l-6 84h-217l-21 -240h120q105 0 167 -58t62 -148q0 -97 -70.5 -151.5t-180.5 -54.5q-120 0 -207 61l28 41q73 -47 169 -47q79 0 129 41.5t50 111.5q0 66 -44 109.5t-111 43.5h-182l29 344h335z" />
    <glyph glyph-name="six.fitted" horiz-adv-x="575" 
d="M409 707l35 -36q-10 -1 -26.5 -5t-60.5 -23.5t-80.5 -48.5t-73 -86t-51.5 -130q75 49 164 49q94 0 151 -59t57 -158q0 -100 -58 -157.5t-166 -57.5t-173.5 66t-65.5 219q0 80 19 146.5t50 109.5t68 76t74 50.5t68 28t50 13.5zM293 372q-44 0 -84.5 -16t-65.5 -40
q-1 -13 -1 -42q0 -116 43 -170t116 -54q71 0 107.5 42.5t36.5 116.5q0 78 -41 120.5t-111 42.5z" />
    <glyph glyph-name="seven.fitted" horiz-adv-x="575" 
d="M71 563v137h439v-33l-234 -667h-76l226 647h-299l-5 -79z" />
    <glyph glyph-name="eight.fitted" horiz-adv-x="575" 
d="M491 533q0 -110 -108 -173q63 -29 98.5 -69t35.5 -108q0 -86 -59.5 -137t-170.5 -51q-110 0 -169.5 50.5t-59.5 135.5q0 121 132 187q-108 55 -108 161q0 81 53 128.5t153 47.5q97 0 150 -46t53 -126zM436 176q0 33 -13 58t-37.5 42t-51.5 30t-61 26q-13 5 -19 7
q-56 -27 -88.5 -63.5t-32.5 -95.5q0 -60 38.5 -95t114.5 -35q75 0 112.5 35t37.5 91zM160 539q0 -25 9 -46.5t22 -35.5t36.5 -28t41 -22t48.5 -20q49 27 75.5 60t26.5 85q0 53 -34 85.5t-98 32.5t-95.5 -31t-31.5 -80z" />
    <glyph glyph-name="nine.fitted" horiz-adv-x="575" 
d="M159 -7l-36 36q5 0 14.5 1.5t37.5 9.5t54.5 19.5t59.5 35.5t59 54.5t48 79t31 107.5q-76 -55 -168 -55q-94 0 -151 58t-57 156q0 97 58 153.5t165 56.5q109 0 174 -68t65 -223q0 -82 -19.5 -150t-50.5 -110.5t-69 -74.5t-76 -47.5t-69 -25t-51 -11.5zM280 336
q90 0 152 60q0 3 0.5 10.5t0.5 11.5q0 119 -42.5 175.5t-116.5 56.5q-70 0 -107 -41t-37 -113q0 -77 40.5 -118.5t109.5 -41.5z" />
    <glyph glyph-name="zero.sup" horiz-adv-x="307" 
d="M33 525q0 82 32.5 130t88.5 48q55 0 87.5 -48t32.5 -130t-32.5 -130t-87.5 -48q-56 0 -88.5 48t-32.5 130zM84 525q0 -67 19 -105.5t51 -38.5t50.5 38.5t18.5 105.5t-18.5 105.5t-50.5 38.5t-51 -38.5t-19 -105.5z" />
    <glyph glyph-name="one.sup" horiz-adv-x="201" 
d="M34 350v29l43 6v281h-46l-2 27q30 10 70 10q29 0 29 -23v-301h39v-29h-133z" />
    <glyph glyph-name="two.sup" horiz-adv-x="287" 
d="M254 423v-73h-217v25q127 152 139 170q23 33 23 59q0 32 -19 48.5t-51 16.5q-26 0 -56 -15l-4 -52l-32 3v71q44 27 97 27q56 0 85 -26.5t29 -72.5q0 -34 -25 -70.5t-123 -150.5h119l3 38z" />
    <glyph glyph-name="three.sup" horiz-adv-x="291" 
d="M135 703q51 0 81 -25t30 -67q0 -60 -57 -81q34 -9 53 -31.5t19 -54.5q0 -44 -35.5 -70.5t-90.5 -26.5q-57 0 -101 31l18 26q34 -23 76 -23q35 0 57.5 18.5t22.5 49.5q0 28 -19 45.5t-49 17.5h-38l3 31h24q29 0 47 17.5t18 46.5q0 28 -16.5 45t-46.5 17t-56 -16l-4 -46
l-32 2v64q41 30 96 30z" />
    <glyph glyph-name="four.sup" horiz-adv-x="296" 
d="M234 350h-48v82h-150v20l87 248l47 -1l-81 -234h97v135l48 -1v-134h33l-2 -33h-31v-82z" />
    <glyph glyph-name="five.sup" horiz-adv-x="290" 
d="M234 700v-71l-31 -2l-3 39h-93l-9 -110h48q52 0 83.5 -28.5t31.5 -75.5q0 -50 -35.5 -77.5t-90.5 -27.5q-57 0 -101 31l18 26q34 -23 76 -23q35 0 57.5 20t22.5 53q0 31 -19.5 50.5t-48.5 19.5h-87l13 176h168z" />
    <glyph glyph-name="six.sup" horiz-adv-x="296" 
d="M207 704l22 -23q-4 -1 -12 -2.5t-28 -11t-37.5 -23t-34.5 -40t-25 -60.5q36 22 74 22q45 0 73.5 -30.5t28.5 -79.5q0 -51 -29.5 -80t-84.5 -29q-120 0 -120 143q0 55 18 97t43 63t50.5 34.5t43.5 16.5zM151 531q-38 0 -65 -25v-18q0 -107 69 -107q29 0 45 20t16 54
q0 36 -17.5 56t-47.5 20z" />
    <glyph glyph-name="seven.sup" horiz-adv-x="293" 
d="M38 627v73h220v-19l-112 -331h-48l106 316h-131l-3 -37z" />
    <glyph glyph-name="eight.sup" horiz-adv-x="302" 
d="M255 614q0 -54 -48 -84q62 -29 62 -86q0 -44 -30.5 -70.5t-88.5 -26.5q-56 0 -86.5 25.5t-30.5 68.5q0 57 59 90q-48 28 -48 80q0 42 27.5 67t78.5 25q50 0 77.5 -23.5t27.5 -65.5zM215 439q0 13 -5.5 23.5t-10.5 16.5t-21 14.5t-20.5 10t-25.5 10.5q-50 -26 -50 -73
q0 -27 17 -43.5t51 -16.5q33 0 49 16.5t16 41.5zM94 618q0 -27 18.5 -42t53.5 -29q43 27 43 67q0 24 -15 39.5t-44 15.5q-28 0 -42 -14.5t-14 -36.5z" />
    <glyph glyph-name="nine.sup" horiz-adv-x="296" 
d="M85 346l-23 22q5 0 13 1.5t30 10.5t40 22.5t36 42t25 65.5q-37 -23 -76 -23q-45 0 -73 29.5t-28 78.5q0 50 30 79t83 29q121 0 121 -147q0 -56 -18.5 -98.5t-44.5 -62.5t-52 -32.5t-44 -14.5zM145 522q40 0 64 26q0 1 0.5 4.5t0.5 5.5q0 111 -69 111q-29 0 -45 -19.5
t-16 -53.5q0 -36 17.5 -55t47.5 -19z" />
    <glyph glyph-name="comma.sup" horiz-adv-x="133" 
d="M45 391l45 12q8 -22 8 -44q0 -58 -48 -86l-21 25q24 21 24 58q0 21 -8 35z" />
    <glyph glyph-name="period.sup" horiz-adv-x="132" 
d="M34 379q0 14 9 23t23 9t23 -9.5t9 -22.5t-9 -22.5t-23 -9.5t-23 9t-9 23z" />
    <glyph glyph-name="parenleft.sup" horiz-adv-x="190" 
d="M162 725l-3 -27q-7 0 -14 -4.5t-16 -19t-15.5 -38t-11 -65.5t-4.5 -96q0 -55 4.5 -96.5t11.5 -65t16 -38t16.5 -19t15.5 -4.5l-3 -27q-17 0 -33 9.5t-34 34t-29 77.5t-11 129t11 129t29 77.5t35 34t35 9.5z" />
    <glyph glyph-name="parenright.sup" horiz-adv-x="190" 
d="M28 225l3 27q7 0 14 4.5t15.5 19t15 38t11 65.5t4.5 96q0 55 -4.5 96.5t-11 65t-15.5 38t-16.5 19t-15.5 4.5l3 27q17 0 33 -9.5t34 -34t29 -77.5t11 -129t-11 -129t-29.5 -77.5t-35 -34t-34.5 -9.5z" />
    <glyph glyph-name="hyphen.sup" horiz-adv-x="165" 
d="M28 475l3 29h106l-3 -29h-106z" />
    <glyph glyph-name="zero.sub" horiz-adv-x="307" 
d="M33 125q0 82 32.5 130t88.5 48q55 0 87.5 -48t32.5 -130t-32.5 -130t-87.5 -48q-56 0 -88.5 48t-32.5 130zM84 125q0 -67 19 -105.5t51 -38.5t50.5 38.5t18.5 105.5t-18.5 105.5t-50.5 38.5t-51 -38.5t-19 -105.5z" />
    <glyph glyph-name="one.sub" horiz-adv-x="201" 
d="M34 -50v29l43 7v280h-46l-2 27q30 10 70 10q29 0 29 -23v-301h39v-29h-133z" />
    <glyph glyph-name="two.sub" horiz-adv-x="287" 
d="M254 23v-73h-217v25q127 152 139 170q23 33 23 59q0 32 -19 48.5t-51 16.5q-26 0 -56 -15l-4 -52l-32 3v71q44 27 97 27q56 0 85 -26.5t29 -72.5q0 -34 -25 -70.5t-123 -149.5h119l3 37z" />
    <glyph glyph-name="three.sub" horiz-adv-x="291" 
d="M135 303q51 0 81 -25t30 -67q0 -60 -57 -81q34 -9 53 -31.5t19 -54.5q0 -44 -35.5 -70.5t-90.5 -26.5q-57 0 -101 31l18 26q34 -23 76 -23q35 0 57.5 18.5t22.5 49.5q0 28 -19 45.5t-49 17.5h-38l3 31h24q29 0 47 17.5t18 46.5q0 28 -16.5 45t-46.5 17t-56 -16l-4 -46
l-32 2v64q41 30 96 30z" />
    <glyph glyph-name="four.sub" horiz-adv-x="296" 
d="M234 -50h-48v82h-150v20l87 248l47 -1l-81 -234h97v135l48 -1v-134h33l-2 -33h-31v-82z" />
    <glyph glyph-name="five.sub" horiz-adv-x="290" 
d="M234 300v-71l-31 -2l-3 39h-93l-9 -110h48q52 0 83.5 -28.5t31.5 -75.5q0 -50 -35.5 -77.5t-90.5 -27.5q-57 0 -101 31l18 26q34 -23 76 -23q35 0 57.5 20t22.5 53q0 31 -19.5 50.5t-48.5 19.5h-87l13 176h168z" />
    <glyph glyph-name="six.sub" horiz-adv-x="296" 
d="M207 304l22 -23q-4 -1 -12 -2.5t-28 -11t-37.5 -23t-34.5 -40t-25 -60.5q36 22 74 22q45 0 73.5 -30.5t28.5 -79.5q0 -51 -29.5 -80t-84.5 -29q-120 0 -120 143q0 55 18 97t43 63t50.5 34.5t43.5 16.5zM151 131q-38 0 -65 -25v-18q0 -107 69 -107q29 0 45 20t16 54
q0 36 -17.5 56t-47.5 20z" />
    <glyph glyph-name="seven.sub" horiz-adv-x="293" 
d="M38 227v73h220v-19l-112 -331h-48l106 316h-131l-3 -37z" />
    <glyph glyph-name="eight.sub" horiz-adv-x="302" 
d="M255 214q0 -54 -48 -84q62 -29 62 -86q0 -44 -30.5 -70.5t-88.5 -26.5q-56 0 -86.5 25.5t-30.5 68.5q0 57 59 90q-48 28 -48 80q0 42 27.5 67t78.5 25q50 0 77.5 -23.5t27.5 -65.5zM215 39q0 13 -5.5 23.5t-10.5 16.5t-21 14.5t-20.5 10t-25.5 10.5q-50 -26 -50 -73
q0 -27 17 -43.5t51 -16.5q33 0 49 16.5t16 41.5zM94 218q0 -27 18.5 -42t53.5 -29q43 27 43 67q0 24 -15 39.5t-44 15.5q-28 0 -42 -14.5t-14 -36.5z" />
    <glyph glyph-name="nine.sub" horiz-adv-x="296" 
d="M85 -54l-23 23q5 0 13 1.5t30 10.5t40 22.5t36 41.5t25 65q-37 -23 -76 -23q-45 0 -73 29.5t-28 78.5q0 50 30 79t83 29q121 0 121 -147q0 -56 -18.5 -98.5t-44.5 -62.5t-52 -32.5t-44 -14.5zM145 122q40 0 64 26q0 1 0.5 4.5t0.5 5.5q0 111 -69 111q-29 0 -45 -19.5
t-16 -53.5q0 -36 17.5 -55t47.5 -19z" />
    <glyph glyph-name="comma.sub" horiz-adv-x="133" 
d="M45 -9l45 12q8 -22 8 -44q0 -58 -48 -86l-21 25q24 21 24 58q0 21 -8 35z" />
    <glyph glyph-name="period.sub" horiz-adv-x="132" 
d="M34 -21q0 14 9 22.5t23 8.5t23 -9t9 -22t-9 -22.5t-23 -9.5t-23 9t-9 23z" />
    <glyph glyph-name="parenleft.sub" horiz-adv-x="190" 
d="M162 325l-3 -27q-7 0 -14 -4.5t-16 -19t-15.5 -38t-11 -65.5t-4.5 -96q0 -55 4.5 -96.5t11.5 -65t16 -38t16.5 -19t15.5 -4.5l-3 -27q-17 0 -33 9.5t-34 34t-29 77.5t-11 129t11 129t29 77.5t35 34t35 9.5z" />
    <glyph glyph-name="parenright.sub" horiz-adv-x="190" 
d="M28 -175l3 27q7 0 14 4.5t15.5 19t15 38t11 65.5t4.5 96q0 55 -4.5 96.5t-11 65t-15.5 38t-16.5 19t-15.5 4.5l3 27q17 0 33 -9.5t34 -34t29 -77.5t11 -129t-11 -129t-29.5 -77.5t-35 -34t-34.5 -9.5z" />
    <glyph glyph-name="hyphen.sub" horiz-adv-x="165" 
d="M28 75l3 29h106l-3 -29h-106z" />
    <glyph glyph-name="asciitilde.case" horiz-adv-x="437" 
d="M86 299l-45 8q9 49 36.5 72.5t64.5 23.5q35 0 79.5 -29t69.5 -29q49 0 60 56l44 -8q-8 -47 -35.5 -71.5t-65.5 -24.5q-33 0 -77.5 29t-70.5 29q-50 0 -60 -56z" />
    <glyph glyph-name="at.case" horiz-adv-x="831" 
d="M617 151q-73 0 -101 48q-49 -51 -117 -51q-70 0 -115.5 56t-45.5 146q0 92 50 147t140 55q86 0 142 -43v-266q0 -22 15 -34.5t40 -12.5q39 0 66.5 37t27.5 123q0 141 -79 222.5t-221 81.5q-144 0 -225.5 -82.5t-81.5 -228.5q0 -145 82 -227t228 -82q147 0 235 77l29 -30
q-101 -92 -267 -92q-170 0 -268.5 95.5t-98.5 259.5t98.5 259.5t267.5 95.5t265 -95t96 -249q0 -112 -47.5 -161t-114.5 -49zM506 489q-35 19 -81 19q-59 0 -90.5 -41t-31.5 -116q0 -73 30 -115t83 -42q57 0 90 39v256z" />
    <glyph glyph-name="backslash.case" horiz-adv-x="348" 
d="M319 -39l-42 -20l-290 798l41 20z" />
    <glyph glyph-name="bar.case" horiz-adv-x="248" 
d="M147 -47l-46 -5v799l46 5v-799z" />
    <glyph glyph-name="braceleft.case" horiz-adv-x="319" 
d="M123 101v141q0 40 -22.5 62t-61.5 22l5 48q37 0 58 22t21 62v141q0 80 39 118t118 38l-5 -48q-37 0 -58 -22t-21 -62v-144q0 -89 -64 -129q64 -38 64 -129v-144q0 -40 22.5 -62t61.5 -22l-5 -48q-77 0 -114.5 38t-37.5 118z" />
    <glyph glyph-name="braceright.case" horiz-adv-x="319" 
d="M196 599v-141q0 -40 22.5 -62t61.5 -22l-5 -48q-37 0 -58 -22t-21 -62v-141q0 -80 -39 -118t-118 -38l5 48q37 0 58 22t21 62v144q0 89 64 129q-64 38 -64 129v144q0 40 -22.5 62t-61.5 22l5 48q77 0 114.5 -38t37.5 -118z" />
    <glyph glyph-name="bracketleft.case" horiz-adv-x="342" 
d="M303 750l-5 -45h-125v-710h130l-5 -45h-197v800h202z" />
    <glyph glyph-name="bracketright.case" horiz-adv-x="342" 
d="M39 -50l5 45h125v710h-130l5 45h197v-800h-202z" />
    <glyph glyph-name="brokenbar.case" horiz-adv-x="248" 
d="M147 -47l-46 -5v349l46 5v-349zM147 403l-46 -5v349l46 5v-349z" />
    <glyph glyph-name="dagger.case" horiz-adv-x="438" 
d="M40 476l5 47h151v175l46 5v-180h156l-5 -47h-151v-474l-46 -5v479h-156z" />
    <glyph glyph-name="daggerdbl.case" horiz-adv-x="438" 
d="M40 177l5 46h151v253h-156l5 47h151v175l46 5v-180h156l-5 -47h-151v-253h156l-5 -46h-151v-175l-46 -5v180h-156z" />
    <glyph glyph-name="emdash.case" horiz-adv-x="697" 
d="M40 326l5 46h612l-5 -46h-612z" />
    <glyph glyph-name="endash.case" horiz-adv-x="522" 
d="M40 326l5 46h437l-5 -46h-437z" />
    <glyph glyph-name="exclamdown.case" horiz-adv-x="214" 
d="M160 652q0 -23 -15 -38t-38 -15t-38 15.5t-15 37.5q0 23 15 38t38 15t38 -15t15 -38zM83 510l49 -5l13 -240v-267l-76 5v262z" />
    <glyph glyph-name="germandbls.case" horiz-adv-x="630" 
d="M328 367q0 -37 25.5 -59.5t61.5 -34t72 -24.5t61.5 -42t25.5 -75q0 -63 -42 -100t-125 -37q-86 0 -151 37v98l55 4l6 -73q42 -17 84 -17q50 0 75.5 22t25.5 57q0 33 -25 54t-61 33t-72 26.5t-61 46t-25 79.5q0 36 15.5 65t34.5 45t34.5 41.5t15.5 55.5q0 37 -22.5 59
t-68.5 22q-90 0 -90 -90v-560h-139v47l59 11v390h-61l4 47l57 4v84q0 59 43.5 90.5t123.5 31.5q87 0 128.5 -39t41.5 -96q0 -28 -11 -51t-26.5 -39.5t-31 -32t-26.5 -36t-11 -44.5z" />
    <glyph glyph-name="guillemotleft.case" horiz-adv-x="448" 
d="M233 205l-32 -22l-153 167l157 168l26 -28l-114 -141zM385 205l-32 -22l-153 167l158 168l26 -28l-115 -141z" />
    <glyph glyph-name="guillemotright.case" horiz-adv-x="448" 
d="M63 494l32 22l153 -167l-157 -167l-26 27l114 141zM216 494l32 22l153 -167l-157 -167l-26 27l114 141z" />
    <glyph glyph-name="guilsinglleft.case" horiz-adv-x="296" 
d="M233 205l-32 -22l-153 167l157 168l26 -28l-114 -141z" />
    <glyph glyph-name="guilsinglright.case" horiz-adv-x="296" 
d="M63 494l32 22l153 -167l-157 -167l-26 27l114 141z" />
    <glyph glyph-name="hyphen.case" horiz-adv-x="287" 
d="M40 326l5 46h202l-5 -46h-202z" />
    <glyph glyph-name="minus.sub" horiz-adv-x="236" 
d="M28 98l3 28h177l-3 -28h-177z" />
    <glyph glyph-name="minus.sup" horiz-adv-x="236" 
d="M28 498l3 28h177l-3 -28h-177z" />
    <glyph glyph-name="paragraph.case" horiz-adv-x="467" 
d="M366 2l-69 -5v315h-39q-99 0 -159 52.5t-60 141.5t59.5 141.5t159.5 52.5h172v-47l-64 -11v-640z" />
    <glyph glyph-name="parenleft.case" horiz-adv-x="332" 
d="M293 750l-5 -45q-14 0 -29 -7t-33 -30.5t-31 -60.5t-22.5 -103.5t-9.5 -153.5t9.5 -153.5t23 -103.5t32 -60.5t34 -30.5t31.5 -7l-5 -45q-24 0 -47.5 8t-51.5 34t-49 68t-35 117t-14 173t14 173t35 117t50 68t53 34t50 8z" />
    <glyph glyph-name="parenright.case" horiz-adv-x="332" 
d="M39 -50l5 45q14 0 29 7t33 30.5t31 60.5t22.5 103.5t9.5 153.5t-9.5 153.5t-23 103.5t-32 60.5t-34 30.5t-31.5 7l5 45q24 0 47.5 -8t51.5 -34t49 -68t35 -117t14 -173t-14 -173t-35 -117t-50 -68t-53 -34t-50 -8z" />
    <glyph glyph-name="plus.case" horiz-adv-x="438" 
d="M40 326l5 46h151v152l46 4v-156h156l-5 -46h-151v-151l-46 -5v156h-156z" />
    <glyph glyph-name="plus.sub" horiz-adv-x="236" 
d="M28 98l3 28h73v73l28 3v-76h76l-3 -28h-73v-73l-28 -3v76h-76z" />
    <glyph glyph-name="plus.sup" horiz-adv-x="236" 
d="M28 498l3 28h73v73l28 3v-76h76l-3 -28h-73v-73l-28 -3v76h-76z" />
    <glyph glyph-name="plusminus.case" horiz-adv-x="438" 
d="M40 401l5 46h151v152l46 4v-156h156l-5 -46h-151v-151l-46 -5v156h-156zM40 100l5 46h353l-5 -46h-353z" />
    <glyph glyph-name="plusminus.sub" horiz-adv-x="236" 
d="M28 98l3 28h73v73l28 3v-76h76l-3 -28h-73v-73l-28 -3v76h-76zM28 -50l3 28h177l-3 -28h-177z" />
    <glyph glyph-name="plusminus.sup" horiz-adv-x="236" 
d="M28 498l3 28h73v73l28 3v-76h76l-3 -28h-73v-73l-28 -3v76h-76zM28 350l3 28h177l-3 -28h-177z" />
    <glyph glyph-name="questiondown.case" horiz-adv-x="482" 
d="M436 173v-132q-74 -46 -179 -46q-98 0 -150.5 47.5t-52.5 124.5q0 75 47 126.5t117 80.5l7 136l49 -5l10 -168q-63 -26 -106 -70.5t-43 -103.5q0 -49 32.5 -81t94.5 -32q64 0 116 26l8 102zM303 652q0 -22 -15.5 -37.5t-37.5 -15.5q-23 0 -38 15t-15 38t15 38t38 15
t38 -15t15 -38z" />
    <glyph glyph-name="section.case" horiz-adv-x="514" 
d="M63 346l73 9q0 -41 34 -68.5t82 -43t96 -32t82 -48t34 -79.5q0 -63 -56 -101t-162 -38q-112 0 -200 52v132l50 4l7 -97q59 -36 132 -36q71 0 108.5 25.5t37.5 65.5q0 36 -33 59t-79.5 37t-93 29.5t-79.5 48t-33 81.5zM456 300l-77 -10q0 43 -33.5 72t-81.5 45t-96.5 33.5
t-82 49.5t-33.5 80q0 62 51.5 98.5t150.5 36.5q106 0 180 -46v-133l-50 -4l-8 101q-56 27 -115 27q-63 0 -96 -24t-33 -60q0 -35 33.5 -58.5t81 -38t95 -31.5t81 -51.5t33.5 -86.5z" />
    <glyph glyph-name="slash.case" horiz-adv-x="352" 
d="M70 -55l-44 12l290 798l44 -12z" />
    <glyph glyph-name="period.dnom" horiz-adv-x="132" 
d="M34 29q0 14 9 23t23 9t23 -9.5t9 -22.5t-9 -22.5t-23 -9.5t-23 9t-9 23z" />
    <glyph glyph-name="comma.dnom" horiz-adv-x="133" 
d="M45 41l45 12q8 -22 8 -44q0 -58 -48 -86l-21 25q24 21 24 58q0 21 -8 35z" />
    <glyph glyph-name="hyphen.dnom" horiz-adv-x="165" 
d="M28 125l3 29h106l-3 -29h-106z" />
    <glyph glyph-name="minus.dnom" horiz-adv-x="236" 
d="M28 148l3 28h177l-3 -28h-177z" />
    <glyph glyph-name="plus.dnom" horiz-adv-x="236" 
d="M28 148l3 28h73v73l28 3v-76h76l-3 -28h-73v-73l-28 -3v76h-76z" />
    <glyph glyph-name="plusminus.dnom" horiz-adv-x="236" 
d="M28 148l3 28h73v73l28 3v-76h76l-3 -28h-73v-73l-28 -3v76h-76zM28 0l3 28h177l-3 -28h-177z" />
    <glyph glyph-name="zero.dnom" horiz-adv-x="307" 
d="M33 175q0 82 32.5 130t88.5 48q55 0 87.5 -48t32.5 -130t-32.5 -130t-87.5 -48q-56 0 -88.5 48t-32.5 130zM84 175q0 -67 19 -105.5t51 -38.5t50.5 38.5t18.5 105.5t-18.5 105.5t-50.5 38.5t-51 -38.5t-19 -105.5z" />
    <glyph glyph-name="parenright.dnom" horiz-adv-x="190" 
d="M28 -125l3 27q7 0 14 4.5t15.5 19t15 38t11 65.5t4.5 96q0 55 -4.5 96.5t-11 65t-15.5 38t-16.5 19t-15.5 4.5l3 27q17 0 33 -9.5t34 -34t29 -77.5t11 -129t-11 -129t-29.5 -77.5t-35 -34t-34.5 -9.5z" />
    <glyph glyph-name="parenleft.dnom" horiz-adv-x="190" 
d="M162 375l-3 -27q-7 0 -14 -4.5t-16 -19t-15.5 -38t-11 -65.5t-4.5 -96q0 -55 4.5 -96.5t11.5 -65t16 -38t16.5 -19t15.5 -4.5l-3 -27q-17 0 -33 9.5t-34 34t-29 77.5t-11 129t11 129t29 77.5t35 34t35 9.5z" />
    <glyph glyph-name="one.dnom" horiz-adv-x="201" 
d="M34 0v29l43 6v281h-46l-2 27q30 10 70 10q29 0 29 -23v-301h39v-29h-133z" />
    <glyph glyph-name="three.dnom" horiz-adv-x="291" 
d="M135 353q51 0 81 -25t30 -67q0 -60 -57 -81q34 -9 53 -31.5t19 -54.5q0 -44 -35.5 -70.5t-90.5 -26.5q-57 0 -101 31l18 26q34 -23 76 -23q35 0 57.5 18.5t22.5 49.5q0 28 -19 45.5t-49 17.5h-38l3 31h24q29 0 47 17.5t18 46.5q0 28 -16.5 45t-46.5 17t-56 -16l-4 -46
l-32 2v64q41 30 96 30z" />
    <glyph glyph-name="seven.dnom" horiz-adv-x="293" 
d="M38 277v73h220v-19l-112 -331h-48l106 316h-131l-3 -37z" />
    <glyph glyph-name="four.dnom" horiz-adv-x="296" 
d="M234 0h-48v82h-150v20l87 248l47 -1l-81 -234h97v135l48 -1v-134h33l-2 -33h-31v-82z" />
    <glyph glyph-name="eight.dnom" horiz-adv-x="302" 
d="M255 264q0 -54 -48 -84q62 -29 62 -86q0 -44 -30.5 -70.5t-88.5 -26.5q-56 0 -86.5 25.5t-30.5 68.5q0 57 59 90q-48 28 -48 80q0 42 27.5 67t78.5 25q50 0 77.5 -23.5t27.5 -65.5zM215 89q0 13 -5.5 23.5t-10.5 16.5t-21 14.5t-20.5 10t-25.5 10.5q-50 -26 -50 -73
q0 -27 17 -43.5t51 -16.5q33 0 49 16.5t16 41.5zM94 268q0 -27 18.5 -42t53.5 -29q43 27 43 67q0 24 -15 39.5t-44 15.5q-28 0 -42 -14.5t-14 -36.5z" />
    <glyph glyph-name="two.dnom" horiz-adv-x="287" 
d="M254 73v-73h-217v25q127 152 139 170q23 33 23 59q0 32 -19 48.5t-51 16.5q-26 0 -56 -15l-4 -52l-32 3v71q44 27 97 27q56 0 85 -26.5t29 -72.5q0 -34 -25 -70.5t-123 -150.5h119l3 38z" />
    <glyph glyph-name="five.dnom" horiz-adv-x="290" 
d="M234 350v-71l-31 -2l-3 39h-93l-9 -110h48q52 0 83.5 -28.5t31.5 -75.5q0 -50 -35.5 -77.5t-90.5 -27.5q-57 0 -101 31l18 26q34 -23 76 -23q35 0 57.5 20t22.5 53q0 31 -19.5 50.5t-48.5 19.5h-87l13 176h168z" />
    <glyph glyph-name="six.dnom" horiz-adv-x="296" 
d="M207 354l22 -23q-4 -1 -12 -2.5t-28 -11t-37.5 -23t-34.5 -40t-25 -60.5q36 22 74 22q45 0 73.5 -30.5t28.5 -79.5q0 -51 -29.5 -80t-84.5 -29q-120 0 -120 143q0 55 18 97t43 63t50.5 34.5t43.5 16.5zM151 181q-38 0 -65 -25v-18q0 -107 69 -107q29 0 45 20t16 54
q0 36 -17.5 56t-47.5 20z" />
    <glyph glyph-name="nine.dnom" horiz-adv-x="296" 
d="M85 -4l-23 22q5 0 13 1.5t30 10.5t40 22.5t36 42t25 65.5q-37 -23 -76 -23q-45 0 -73 29.5t-28 78.5q0 50 30 79t83 29q121 0 121 -147q0 -56 -18.5 -98.5t-44.5 -62.5t-52 -32.5t-44 -14.5zM145 172q40 0 64 26q0 1 0.5 4.5t0.5 5.5q0 111 -69 111q-29 0 -45 -19.5
t-16 -53.5q0 -36 17.5 -55t47.5 -19z" />
    <glyph glyph-name="a.ord" horiz-adv-x="371" 
d="M74 639l-17 30q47 35 112 35q60 0 92.5 -32.5t32.5 -89.5v-177q0 -21 17 -21q9 0 24 5l5 -27q-32 -15 -57 -15q-41 0 -46 36q-43 -37 -101 -37q-44 0 -70.5 25t-26.5 64q0 38 25 62.5t69 30.5l103 14v40q0 39 -21 60.5t-60 21.5q-43 0 -81 -25zM153 386q55 0 83 34v89
l-89 -13q-56 -9 -56 -57q0 -25 16.5 -39t45.5 -14z" />
    <glyph glyph-name="b.ord" horiz-adv-x="394" 
d="M118 851v-184q40 37 94 37q64 0 103 -49t39 -131q0 -83 -43 -130.5t-126 -47.5q-77 0 -125 35v454l-39 5l-2 31q38 8 69 8q30 0 30 -28zM197 664q-50 0 -79 -35v-228q29 -16 70 -16q53 0 80 36t27 103q0 66 -26 103t-72 37z" />
    <glyph glyph-name="c.ord" horiz-adv-x="347" 
d="M302 674v-70l-40 -4l-6 56q-27 8 -50 8q-53 0 -80.5 -35.5t-27.5 -99.5q0 -68 29 -105.5t85 -37.5q49 0 80 22l16 -30q-41 -32 -108 -32q-75 0 -117.5 48t-42.5 132q0 82 42.5 130t117.5 48q65 0 102 -30z" />
    <glyph glyph-name="d.ord" horiz-adv-x="411" 
d="M375 389l5 -27q-30 -15 -57 -15q-41 0 -46 36q-42 -37 -95 -37q-64 0 -103 48.5t-39 130.5t40 130.5t109 48.5q45 0 87 -21v152l-39 5l-2 31q38 8 69 8q30 0 30 -28v-446q0 -21 17 -21q11 0 24 5zM197 386q51 0 79 34v223q-31 21 -73 21q-50 0 -77.5 -37t-27.5 -102
q0 -64 26.5 -101.5t72.5 -37.5z" />
    <glyph glyph-name="e.ord" horiz-adv-x="372" 
d="M317 530h-218q-4 -68 26.5 -106t91.5 -38q50 0 84 21l18 -30q-47 -31 -110 -31q-78 0 -123.5 48t-45.5 134q0 81 40.5 128.5t113.5 47.5q60 0 94 -32.5t34 -90.5q0 -21 -5 -51zM194 664q-41 0 -65.5 -26.5t-29.5 -73.5h172q2 18 2 24q0 36 -22 56t-57 20z" />
    <glyph glyph-name="egrave.ord" horiz-adv-x="372" 
d="M317 530h-218q-4 -68 26.5 -106t91.5 -38q50 0 84 21l18 -30q-47 -31 -110 -31q-78 0 -123.5 48t-45.5 134q0 81 40.5 128.5t113.5 47.5q60 0 94 -32.5t34 -90.5q0 -21 -5 -51zM194 664q-41 0 -65.5 -26.5t-29.5 -73.5h172q2 18 2 24q0 36 -22 56t-57 20zM107 833l29 31
l116 -91l-18 -20z" />
    <glyph glyph-name="f.ord" horiz-adv-x="272" 
d="M136 781v-81h101l-4 -37h-97v-279h55v-34h-154v34l40 8v271h-42l2 33l40 3v82q0 47 26 72.5t74 25.5q43 0 71 -22l-13 -31q-17 13 -45 13q-54 0 -54 -58z" />
    <glyph glyph-name="g.ord" horiz-adv-x="385" 
d="M46 586q0 54 36 86t97 32q32 0 65 -12q41 57 104 57l-5 -56q-15 3 -22 3q-28 0 -52 -18q44 -31 44 -92q0 -54 -36.5 -86t-97.5 -32q-36 0 -60 10q-21 -20 -21 -47q0 -42 54 -42h91q52 0 82 -25.5t30 -70.5q0 -59 -50.5 -90.5t-133.5 -31.5q-73 0 -110 25t-37 69
q0 55 54 87q-30 18 -30 58q0 47 43 83q-45 31 -45 93zM140 338q-11 0 -29 2q-34 -26 -34 -64q0 -65 96 -65q53 0 91 18t38 56q0 53 -68 53h-94zM101 586q0 -37 21 -58.5t57 -21.5q37 0 58 21.5t21 58.5t-21 58t-58 21q-36 0 -57 -21t-21 -58z" />
    <glyph glyph-name="h.ord" horiz-adv-x="438" 
d="M261 350v34l41 8v196q0 36 -18 56t-53 20q-57 0 -96 -37v-243h40v-34h-139v34l41 8v443l-39 5l-2 31q38 8 69 8q30 0 30 -28v-188q50 41 117 41q53 0 81 -30.5t28 -83.5v-206h39v-34h-139z" />
    <glyph glyph-name="i.ord" horiz-adv-x="212" 
d="M36 350v34l41 8v268l-39 5l-2 31q38 8 70 8q29 0 29 -28v-292h40v-34h-139zM62 805q0 17 11 28t28 11q16 0 27 -11t11 -28t-10.5 -27.5t-27.5 -10.5t-28 10.5t-11 27.5z" />
    <glyph glyph-name="j.ord" horiz-adv-x="212" 
d="M62 805q0 17 11 28t28 11q16 0 27 -11t11 -28t-10.5 -27.5t-27.5 -10.5t-28 10.5t-11 27.5zM135 676v-407q0 -46 -26.5 -72t-68.5 -26q-40 0 -69 23l12 29q16 -12 41 -12q24 0 38 15t14 43v391l-39 5l-1 31q38 8 69 8q30 0 30 -28z" />
    <glyph glyph-name="k.ord" horiz-adv-x="382" 
d="M265 376l-83 143l-47 -53v-82h40v-34h-139v34l41 8v443l-39 5l-2 31q38 8 69 8q30 0 30 -28v-325l118 140h-42v34h138v-34l-43 -8l-87 -100l99 -167l42 -5l2 -31q-37 -8 -60 -8q-21 0 -37 29z" />
    <glyph glyph-name="l.ord" horiz-adv-x="212" 
d="M36 350v34l41 8v443l-39 5l-2 31q38 8 70 8q29 0 29 -28v-467h40v-34h-139z" />
    <glyph glyph-name="m.ord" horiz-adv-x="622" 
d="M241 350v34l41 8v204q0 68 -60 68q-49 0 -87 -36v-244h39v-34h-138v34l41 8v268l-39 5l-2 31q38 8 69 8q30 0 30 -28v-13q49 41 109 41q63 0 85 -51q53 51 119 51q48 0 72.5 -28.5t24.5 -78.5v-213h40v-34h-139v34l40 8v204q0 68 -59 68q-52 0 -90 -38q3 -14 3 -29v-213
h39v-34h-138z" />
    <glyph glyph-name="n.ord" horiz-adv-x="438" 
d="M261 350v34l41 8v196q0 36 -18 56t-53 20q-57 0 -96 -37v-243h40v-34h-139v34l41 8v268l-39 5l-2 31q38 8 69 8q30 0 30 -28v-13q50 41 117 41q53 0 81 -30.5t28 -83.5v-206h39v-34h-139z" />
    <glyph glyph-name="o.ord" horiz-adv-x="396" 
d="M40 525q0 82 42.5 130.5t115.5 48.5q72 0 115 -48.5t43 -130.5t-43 -130.5t-115 -48.5q-73 0 -115.5 48.5t-42.5 130.5zM98 525q0 -64 27 -101.5t73 -37.5t73 37.5t27 101.5t-27 101.5t-73 37.5t-73 -37.5t-27 -101.5z" />
    <glyph glyph-name="p.ord" horiz-adv-x="411" 
d="M36 175v34l41 8v443l-39 5l-2 31q38 8 69 8q30 0 30 -28v-9q40 37 94 37q64 0 103 -48.5t39 -130.5t-40.5 -130.5t-109.5 -48.5q-48 0 -86 20v-157h55v-34h-154zM214 664q-50 0 -79 -35v-222q29 -21 73 -21q50 0 77 37t27 102t-26 102t-72 37z" />
    <glyph glyph-name="q.ord" horiz-adv-x="401" 
d="M235 175v34l41 8v165q-40 -36 -94 -36q-63 0 -102.5 49t-39.5 130q0 83 43.5 131t124.5 48q78 0 126 -38v-457h40v-34h-139zM197 386q51 0 79 34v228q-27 17 -70 17q-53 0 -80.5 -36t-27.5 -103q0 -66 26.5 -103t72.5 -37z" />
    <glyph glyph-name="r.ord" horiz-adv-x="293" 
d="M253 705l-6 -57q-7 4 -21 4q-24 0 -49.5 -13t-41.5 -38v-217h55v-34h-154v34l41 8v268l-39 5l-2 31q38 8 69 8q30 0 30 -28v-33q43 62 118 62z" />
    <glyph glyph-name="s.ord" horiz-adv-x="325" 
d="M100 618q0 -24 18.5 -39.5t45 -24t53 -18.5t45 -32t18.5 -57q0 -46 -32 -73.5t-92 -27.5t-109 26v69l41 4l4 -49q31 -14 62 -14q34 0 53 15.5t19 40.5t-18 40.5t-44 25t-52.5 20t-44.5 32t-18 54.5q0 44 28.5 69t81.5 25q56 0 102 -25v-70l-40 -4l-6 51q-27 12 -54 12
q-30 0 -45.5 -14t-15.5 -36z" />
    <glyph glyph-name="t.ord" horiz-adv-x="281" 
d="M27 663l2 33l49 3l8 78l50 7v-84h101l-3 -37h-98v-219q0 -58 53 -58q27 0 46 14l14 -29q-31 -25 -74 -25q-46 0 -72 26t-26 72v219h-50z" />
    <glyph glyph-name="u.ord" horiz-adv-x="435" 
d="M399 389l4 -27q-30 -15 -56 -15q-43 0 -48 40q-52 -41 -116 -41q-52 0 -79 30.5t-27 83.5v200l-39 5l-2 31q38 8 69 8q30 0 30 -28v-214q0 -76 69 -76q54 0 95 36v238l-39 5l-2 31q40 8 70 8t30 -28v-271q0 -21 17 -21q9 0 24 5z" />
    <glyph glyph-name="uacute.ord" horiz-adv-x="435" 
d="M399 389l4 -27q-30 -15 -56 -15q-43 0 -48 40q-52 -41 -116 -41q-52 0 -79 30.5t-27 83.5v200l-39 5l-2 31q38 8 69 8q30 0 30 -28v-214q0 -76 69 -76q54 0 95 36v238l-39 5l-2 31q40 8 70 8t30 -28v-271q0 -21 17 -21q9 0 24 5zM174 752l-13 24l118 90l22 -35z" />
    <glyph glyph-name="v.ord" horiz-adv-x="421" 
d="M400 700v-34l-38 -8l-123 -308h-52l-124 309l-41 5l-2 31q37 8 63 8q15 0 22 -7t12 -22l96 -264l92 256h-42v34h137z" />
    <glyph glyph-name="w.ord" horiz-adv-x="622" 
d="M601 700v-34l-38 -8l-116 -308h-51l-86 260l-80 -260h-51l-115 309l-42 5l-2 31q37 8 63 8t34 -29l87 -257l82 283h47l89 -283l84 249h-42v34h137z" />
    <glyph glyph-name="x.ord" horiz-adv-x="401" 
d="M23 350v34l40 8l97 140l-91 127l-40 5l-3 31q31 8 57 8q23 0 41 -28l77 -114l75 105h-42v34h138v-34l-40 -8l-94 -130l95 -137l42 -5l2 -31q-31 -8 -57 -8q-24 0 -41 29l-83 123l-76 -115h41v-34h-138z" />
    <glyph glyph-name="y.ord" horiz-adv-x="417" 
d="M396 700v-34l-39 -8l-147 -378q-24 -60 -46.5 -84.5t-57.5 -24.5q-41 0 -72 28l13 29q20 -17 45 -17q21 0 35 16t30 54l28 69l-122 309l-41 5l-2 31q37 8 62 8q15 0 22.5 -7t12.5 -22l94 -262l89 254h-42v34h138z" />
    <glyph glyph-name="z.ord" horiz-adv-x="344" 
d="M46 612v88h256v-24l-192 -287h152l3 46l37 3v-88h-262v24l191 287h-144l-3 -46z" />
    <glyph glyph-name="A.smcp" horiz-adv-x="614" 
d="M347 496l187 -456h49v-40h-177v40l47 10l-41 103h-217l-43 -113h51v-40h-172v40l47 10l175 427l-48 5l-2 37q47 9 95 9q36 0 49 -32zM303 447l-94 -247h188z" />
    <glyph glyph-name="Aacute.smcp" horiz-adv-x="614" 
d="M347 496l187 -456h49v-40h-177v40l47 10l-41 103h-217l-43 -113h51v-40h-172v40l47 10l175 427l-48 5l-2 37q47 9 95 9q36 0 49 -32zM303 447l-94 -247h188zM254 550l-16 28l136 99l27 -41z" />
    <glyph glyph-name="Abreve.smcp" horiz-adv-x="614" 
d="M347 496l187 -456h49v-40h-177v40l47 10l-41 103h-217l-43 -113h51v-40h-172v40l47 10l175 427l-48 5l-2 37q47 9 95 9q36 0 49 -32zM303 447l-94 -247h188zM365 641l53 -9q-15 -78 -115 -78t-115 78l53 9q11 -45 62 -45q52 0 62 45z" />
    <glyph glyph-name="Acircumflex.smcp" horiz-adv-x="614" 
d="M347 496l187 -456h49v-40h-177v40l47 10l-41 103h-217l-43 -113h51v-40h-172v40l47 10l175 427l-48 5l-2 37q47 9 95 9q36 0 49 -32zM303 447l-94 -247h188zM202 548l-18 28l121 107l123 -112l-23 -21l-100 72z" />
    <glyph glyph-name="Agrave.smcp" horiz-adv-x="614" 
d="M347 496l187 -456h49v-40h-177v40l47 10l-41 103h-217l-43 -113h51v-40h-172v40l47 10l175 427l-48 5l-2 37q47 9 95 9q36 0 49 -32zM303 447l-94 -247h188zM203 638l34 37l135 -100l-22 -24z" />
    <glyph glyph-name="Adieresis.smcp" horiz-adv-x="614" 
d="M347 496l187 -456h49v-40h-177v40l47 10l-41 103h-217l-43 -113h51v-40h-172v40l47 10l175 427l-48 5l-2 37q47 9 95 9q36 0 49 -32zM303 447l-94 -247h188zM191 592q0 16 10.5 26.5t26.5 10.5t27 -10.5t11 -26.5q0 -15 -11 -25.5t-27 -10.5t-26.5 10.5t-10.5 25.5z
M339 592q0 16 11 26.5t27 10.5t27 -10.5t11 -26.5q0 -15 -11 -25.5t-27 -10.5t-27 10.5t-11 25.5z" />
    <glyph glyph-name="Amacron.smcp" horiz-adv-x="614" 
d="M347 496l187 -456h49v-40h-177v40l47 10l-41 103h-217l-43 -113h51v-40h-172v40l47 10l175 427l-48 5l-2 37q47 9 95 9q36 0 49 -32zM303 447l-94 -247h188zM203 579l4 40h197l-5 -40h-196z" />
    <glyph glyph-name="Aogonek.smcp" horiz-adv-x="613" 
d="M525 0h-119v40l47 10l-41 103h-217l-43 -113h51v-40h-172v40l47 10l175 427l-48 5l-2 37q47 9 95 9q36 0 49 -32l187 -456h49v-40h-18q-29 -21 -29 -58q0 -49 49 -59l-8 -48q-85 12 -85 89q0 51 33 76zM303 447l-94 -247h188z" />
    <glyph glyph-name="Aring.smcp" horiz-adv-x="614" 
d="M347 496l187 -456h49v-40h-177v40l47 10l-41 103h-217l-43 -113h51v-40h-172v40l47 10l175 427l-48 5l-2 37q47 9 95 9q36 0 49 -32zM303 447l-94 -247h188zM239 608q0 27 17.5 43.5t45.5 16.5q29 0 47 -16t18 -44t-17.5 -44.5t-47.5 -16.5q-28 0 -45.5 16.5t-17.5 44.5z
M270 608q0 -33 32 -33q33 0 33 33q0 32 -33 32q-14 0 -23 -8.5t-9 -23.5z" />
    <glyph glyph-name="Atilde.smcp" horiz-adv-x="614" 
d="M347 496l187 -456h49v-40h-177v40l47 10l-41 103h-217l-43 -113h51v-40h-172v40l47 10l175 427l-48 5l-2 37q47 9 95 9q36 0 49 -32zM303 447l-94 -247h188zM218 561l-39 6q11 69 71 69q23 0 53.5 -17.5t46.5 -17.5q32 0 38 34l40 -6q-6 -34 -25 -52t-46 -18
q-23 0 -54 18t-47 18q-31 0 -38 -34z" />
    <glyph glyph-name="AE.smcp" horiz-adv-x="684" 
d="M274 0v40l50 10v103h-123l-50 -113h51v-40h-171v40l47 10l196 427l-48 5l-3 37q49 6 96 6h315v-104l-45 -3l-5 62h-186v-188h132l4 41l44 3v-130l-45 -4l-4 44h-131v-200h189l4 58l45 3v-107h-362zM324 453l-111 -253h111v253z" />
    <glyph glyph-name="AEacute.smcp" horiz-adv-x="684" 
d="M274 0v40l50 10v103h-123l-50 -113h51v-40h-171v40l47 10l196 427l-48 5l-3 37q49 6 96 6h315v-104l-45 -3l-5 62h-186v-188h132l4 41l44 3v-130l-45 -4l-4 44h-131v-200h189l4 58l45 3v-107h-362zM324 453l-111 -253h111v253zM296 550l-16 28l136 100l27 -41z" />
    <glyph glyph-name="B.smcp" horiz-adv-x="505" 
d="M43 525h205q84 0 134 -36.5t50 -98.5q0 -86 -91 -119q53 -13 84.5 -47.5t31.5 -83.5q0 -65 -51 -102.5t-135 -37.5h-229v40l49 10v434h-48v41zM271 246h-106v-201h106q50 0 81 27t31 73t-31 73.5t-81 27.5zM250 480h-85v-190h85q50 0 79.5 25.5t29.5 69.5t-29.5 69.5
t-79.5 25.5z" />
    <glyph glyph-name="C.smcp" horiz-adv-x="514" 
d="M458 41q-66 -45 -160 -45q-113 0 -178 71.5t-65 195.5q0 123 64.5 194.5t176.5 71.5q94 0 157 -45v-97l-47 -3l-6 77q-42 21 -87 21q-89 0 -136.5 -58t-47.5 -161t47.5 -161.5t136.5 -58.5q48 0 90 21l7 74l48 3v-100z" />
    <glyph glyph-name="Cacute.smcp" horiz-adv-x="514" 
d="M458 41q-66 -45 -160 -45q-113 0 -178 71.5t-65 195.5q0 123 64.5 194.5t176.5 71.5q94 0 157 -45v-97l-47 -3l-6 77q-42 21 -87 21q-89 0 -136.5 -58t-47.5 -161t47.5 -161.5t136.5 -58.5q48 0 90 21l7 74l48 3v-100zM226 550l-15 28l135 100l27 -41z" />
    <glyph glyph-name="Ccaron.smcp" horiz-adv-x="514" 
d="M458 41q-66 -45 -160 -45q-113 0 -178 71.5t-65 195.5q0 123 64.5 194.5t176.5 71.5q94 0 157 -45v-97l-47 -3l-6 77q-42 21 -87 21q-89 0 -136.5 -58t-47.5 -161t47.5 -161.5t136.5 -58.5q48 0 90 21l7 74l48 3v-100zM390 681l19 -27l-115 -100h-15l-115 104l23 23
l101 -73z" />
    <glyph glyph-name="Ccedilla.smcp" horiz-adv-x="514" 
d="M458 41q-60 -42 -151 -45q1 -19 21 -42t20 -45q0 -58 -87 -66l-9 43q51 9 51 38q0 13 -16 31.5t-17 41.5q-101 9 -158 79.5t-57 186.5q0 123 64.5 194.5t176.5 71.5q94 0 157 -45v-97l-47 -3l-6 77q-42 21 -87 21q-89 0 -136.5 -58t-47.5 -161t47.5 -161.5t136.5 -58.5
q48 0 90 21l7 74l48 3v-100z" />
    <glyph glyph-name="Ccircumflex.smcp" horiz-adv-x="514" 
d="M458 41q-66 -45 -160 -45q-113 0 -178 71.5t-65 195.5q0 123 64.5 194.5t176.5 71.5q94 0 157 -45v-97l-47 -3l-6 77q-42 21 -87 21q-89 0 -136.5 -58t-47.5 -161t47.5 -161.5t136.5 -58.5q48 0 90 21l7 74l48 3v-100zM188 548l-18 28l121 107l124 -112l-24 -21l-101 72z
" />
    <glyph glyph-name="Cdotaccent.smcp" horiz-adv-x="514" 
d="M458 41q-66 -45 -160 -45q-113 0 -178 71.5t-65 195.5q0 123 64.5 194.5t176.5 71.5q94 0 157 -45v-97l-47 -3l-6 77q-42 21 -87 21q-89 0 -136.5 -58t-47.5 -161t47.5 -161.5t136.5 -58.5q48 0 90 21l7 74l48 3v-100zM238 614q0 18 12 30t30 12t30.5 -12t12.5 -30
t-12.5 -30t-30.5 -12t-30 12t-12 30z" />
    <glyph glyph-name="D.smcp" horiz-adv-x="563" 
d="M267 525q111 0 176 -70t65 -192q0 -123 -65 -193t-176 -70h-230v40l55 10v434h-54v41h229zM267 480h-101v-435h101q77 0 122 58t45 160q0 101 -45 159t-122 58z" />
    <glyph glyph-name="Dcaron.smcp" horiz-adv-x="563" 
d="M267 525q111 0 176 -70t65 -192q0 -123 -65 -193t-176 -70h-230v40l55 10v434h-54v41h229zM267 480h-101v-435h101q77 0 122 58t45 160q0 101 -45 159t-122 58zM375 681l19 -27l-114 -100h-16l-115 104l23 23l101 -73z" />
    <glyph glyph-name="Dcroat.smcp" horiz-adv-x="562" 
d="M35 243l5 40h52v201h-54v41h228q112 0 177 -70t65 -192q0 -123 -65 -193t-177 -70h-229v40l55 10v193h-57zM266 480h-101v-197h125l-4 -40h-121v-198h101q78 0 123 58t45 160q0 101 -45 159t-123 58z" />
    <glyph glyph-name="Eth.smcp" horiz-adv-x="562" 
d="M35 243l5 40h52v201h-54v41h228q112 0 177 -70t65 -192q0 -123 -65 -193t-177 -70h-229v40l55 10v193h-57zM266 480h-101v-197h125l-4 -40h-121v-198h101q78 0 123 58t45 160q0 101 -45 159t-123 58z" />
    <glyph glyph-name="Thorn.smcp" horiz-adv-x="467" 
d="M215 525v-41l-50 -9v-64h71q83 0 133 -38t50 -104t-50 -104t-133 -38h-71v-87h49v-40h-172v40l49 10v434h-48v41h172zM236 367h-71v-196h71q50 0 79.5 26.5t29.5 71.5t-29.5 71.5t-79.5 26.5z" />
    <glyph glyph-name="E.smcp" 
d="M42 0v40l49 10v434h-48v41h387v-104l-44 -3l-5 62h-216v-188h161l4 41l43 3v-130l-43 -4l-4 44h-161v-200h219l4 58l45 3v-107h-391z" />
    <glyph glyph-name="Eacute.smcp" 
d="M42 0v40l49 10v434h-48v41h387v-104l-44 -3l-5 62h-216v-188h161l4 41l43 3v-130l-43 -4l-4 44h-161v-200h219l4 58l45 3v-107h-391zM202 550l-16 28l136 100l27 -41z" />
    <glyph glyph-name="Ebreve.smcp" 
d="M42 0v40l49 10v434h-48v41h387v-104l-44 -3l-5 62h-216v-188h161l4 41l43 3v-130l-43 -4l-4 44h-161v-200h219l4 58l45 3v-107h-391zM310 641l54 -9q-17 -78 -115 -78q-101 0 -116 78l54 9q11 -45 62 -45t61 45z" />
    <glyph glyph-name="Ecaron.smcp" 
d="M42 0v40l49 10v434h-48v41h387v-104l-44 -3l-5 62h-216v-188h161l4 41l43 3v-130l-43 -4l-4 44h-161v-200h219l4 58l45 3v-107h-391zM357 681l19 -27l-115 -100h-15l-115 104l23 23l100 -73z" />
    <glyph glyph-name="Ecircumflex.smcp" 
d="M42 0v40l49 10v434h-48v41h387v-104l-44 -3l-5 62h-216v-188h161l4 41l43 3v-130l-43 -4l-4 44h-161v-200h219l4 58l45 3v-107h-391zM152 548l-19 28l122 107l122 -112l-23 -21l-100 72z" />
    <glyph glyph-name="Edieresis.smcp" 
d="M42 0v40l49 10v434h-48v41h387v-104l-44 -3l-5 62h-216v-188h161l4 41l43 3v-130l-43 -4l-4 44h-161v-200h219l4 58l45 3v-107h-391zM137 592q0 16 10.5 26.5t26.5 10.5t27 -10.5t11 -26.5q0 -15 -11 -25.5t-27 -10.5t-26.5 10.5t-10.5 25.5zM285 592q0 16 11 26.5
t27 10.5t27 -10.5t11 -26.5q0 -15 -11 -25.5t-27 -10.5t-27 10.5t-11 25.5z" />
    <glyph glyph-name="Edotaccent.smcp" 
d="M42 0v40l49 10v434h-48v41h387v-104l-44 -3l-5 62h-216v-188h161l4 41l43 3v-130l-43 -4l-4 44h-161v-200h219l4 58l45 3v-107h-391zM206 614q0 18 12.5 30t30.5 12t30 -12t12 -30t-12 -30t-30 -12t-30.5 12t-12.5 30z" />
    <glyph glyph-name="Egrave.smcp" 
d="M42 0v40l49 10v434h-48v41h387v-104l-44 -3l-5 62h-216v-188h161l4 41l43 3v-130l-43 -4l-4 44h-161v-200h219l4 58l45 3v-107h-391zM150 638l35 37l134 -100l-21 -24z" />
    <glyph glyph-name="Emacron.smcp" 
d="M42 0v40l49 10v434h-48v41h387v-104l-44 -3l-5 62h-216v-188h161l4 41l43 3v-130l-43 -4l-4 44h-161v-200h219l4 58l45 3v-107h-391zM146 579l4 40h196l-4 -40h-196z" />
    <glyph glyph-name="Eogonek.smcp" 
d="M42 0v40l49 10v434h-48v41h387v-104l-44 -3l-5 62h-216v-188h161l4 41l43 3v-130l-43 -4l-4 44h-161v-200h219l4 58l45 3v-107h-18q-28 -21 -28 -58q0 -48 48 -59l-8 -48q-85 12 -85 89q0 51 33 76h-333z" />
    <glyph glyph-name="F.smcp" horiz-adv-x="471" 
d="M42 0v40l49 10v434h-48v41h379v-104l-44 -3l-5 62h-208v-188h157l4 41l43 3v-130l-43 -4l-4 44h-157v-206h67v-40h-190z" />
    <glyph glyph-name="G.smcp" horiz-adv-x="538" 
d="M457 226v-187q-63 -43 -158 -43q-114 0 -179 71.5t-65 195.5q0 123 64.5 194.5t176.5 71.5q95 0 158 -45v-97l-46 -3l-7 77q-42 21 -87 21q-90 0 -137.5 -58t-47.5 -161q0 -104 46.5 -162t135.5 -58q45 0 82 21v171h-87v41h197v-41z" />
    <glyph glyph-name="Gbreve.smcp" horiz-adv-x="538" 
d="M457 226v-187q-63 -43 -158 -43q-114 0 -179 71.5t-65 195.5q0 123 64.5 194.5t176.5 71.5q95 0 158 -45v-97l-46 -3l-7 77q-42 21 -87 21q-90 0 -137.5 -58t-47.5 -161q0 -104 46.5 -162t135.5 -58q45 0 82 21v171h-87v41h197v-41zM347 641l53 -9q-17 -78 -115 -78
q-100 0 -115 78l53 9q11 -45 62 -45q50 0 62 45z" />
    <glyph glyph-name="Gcircumflex.smcp" horiz-adv-x="538" 
d="M457 226v-187q-63 -43 -158 -43q-114 0 -179 71.5t-65 195.5q0 123 64.5 194.5t176.5 71.5q95 0 158 -45v-97l-46 -3l-7 77q-42 21 -87 21q-90 0 -137.5 -58t-47.5 -161q0 -104 46.5 -162t135.5 -58q45 0 82 21v171h-87v41h197v-41zM186 548l-18 28l121 107l123 -112
l-23 -21l-101 72z" />
    <glyph glyph-name="Gcommaaccent.smcp" horiz-adv-x="538" 
d="M457 226v-187q-63 -43 -158 -43q-114 0 -179 71.5t-65 195.5q0 123 64.5 194.5t176.5 71.5q95 0 158 -45v-97l-46 -3l-7 77q-42 21 -87 21q-90 0 -137.5 -58t-47.5 -161q0 -104 46.5 -162t135.5 -58q45 0 82 21v171h-87v41h197v-41zM270 -54l46 12q7 -21 7 -43
q0 -69 -62 -102l-16 21q32 26 32 74q0 20 -7 38z" />
    <glyph glyph-name="Gdotaccent.smcp" horiz-adv-x="536" 
d="M457 226v-187q-63 -43 -158 -43q-114 0 -179 71.5t-65 195.5q0 123 64.5 194.5t176.5 71.5q95 0 158 -45v-97l-46 -3l-7 77q-42 21 -87 21q-90 0 -137.5 -58t-47.5 -161q0 -104 46.5 -162t135.5 -58q45 0 82 21v171h-87v41h197v-41zM242 614q0 18 12 30t31 12
q18 0 30.5 -12t12.5 -30t-12.5 -30t-30.5 -12q-19 0 -31 12t-12 30z" />
    <glyph glyph-name="H.smcp" horiz-adv-x="594" 
d="M552 525v-41l-49 -9v-435h49v-40h-173v40l50 10v196h-264v-206h49v-40h-172v40l49 10v434h-48v41h172v-41l-50 -9v-184h264v193h-49v41h172z" />
    <glyph glyph-name="Hbar.smcp" horiz-adv-x="588" 
d="M41 362l4 39h47v83h-49v41h173v-41l-51 -9v-74h258v83h-49v41h172v-41l-49 -9v-74h49l-4 -39h-45v-322h49v-40h-173v40l50 10v196h-258v-206h50v-40h-173v40l50 10v312h-51zM165 291h258v71h-258v-71z" />
    <glyph glyph-name="Hcircumflex.smcp" horiz-adv-x="594" 
d="M552 525v-41l-49 -9v-435h49v-40h-173v40l50 10v196h-264v-206h49v-40h-172v40l49 10v434h-48v41h172v-41l-50 -9v-184h264v193h-49v41h172zM193 548l-19 28l122 107l123 -112l-24 -21l-99 72z" />
    <glyph glyph-name="I.smcp" horiz-adv-x="257" 
d="M215 525v-41l-50 -9v-435h49v-40h-172v40l49 10v434h-48v41h172z" />
    <glyph glyph-name="Iacute.smcp" horiz-adv-x="257" 
d="M215 525v-41l-50 -9v-435h49v-40h-172v40l49 10v434h-48v41h172zM79 550l-16 28l136 100l27 -41z" />
    <glyph glyph-name="Ibreve.smcp" horiz-adv-x="256" 
d="M215 525v-41l-50 -9v-435h49v-40h-172v40l49 10v434h-49v41h173zM190 641l54 -9q-17 -78 -116 -78q-100 0 -115 78l54 9q9 -45 61 -45t62 45z" />
    <glyph glyph-name="Icircumflex.smcp" horiz-adv-x="256" 
d="M215 525v-41l-50 -9v-435h49v-40h-172v40l49 10v434h-49v41h173zM25 548l-19 28l122 107l123 -112l-24 -21l-100 72z" />
    <glyph glyph-name="Idieresis.smcp" horiz-adv-x="257" 
d="M215 525v-41l-49 -9v-435h48v-40h-172v40l50 10v434h-49v41h172zM16 592q0 16 11 26.5t27 10.5t27 -10.5t11 -26.5q0 -15 -11 -25.5t-27 -10.5t-27 10.5t-11 25.5zM165 592q0 16 11 26.5t27 10.5t27 -10.5t11 -26.5q0 -15 -11 -25.5t-27 -10.5t-27 10.5t-11 25.5z" />
    <glyph glyph-name="Idotaccent.smcp" horiz-adv-x="257" 
d="M215 525v-41l-50 -9v-435h49v-40h-172v40l49 10v434h-48v41h172zM86 614q0 18 12 30t30 12q19 0 31 -12t12 -30t-12 -30t-31 -12q-18 0 -30 12t-12 30z" />
    <glyph glyph-name="Igrave.smcp" horiz-adv-x="257" 
d="M216 525v-41l-51 -9v-435h49v-40h-172v40l49 10v434h-48v41h173zM28 638l35 37l134 -100l-21 -24z" />
    <glyph glyph-name="Imacron.smcp" horiz-adv-x="256" 
d="M215 525v-41l-49 -9v-435h48v-40h-172v40l49 10v434h-48v41h172zM29 579l4 40h196l-5 -40h-195z" />
    <glyph glyph-name="Iogonek.smcp" horiz-adv-x="257" 
d="M157 0h-115v40l49 10v434h-48v41h172v-41l-50 -9v-435h49v-40h-17q-28 -21 -28 -58q0 -48 48 -59l-8 -48q-85 12 -85 89q0 51 33 76z" />
    <glyph glyph-name="Itilde.smcp" horiz-adv-x="257" 
d="M215 525v-41l-50 -9v-435h49v-40h-172v40l49 10v434h-49v41h173zM43 561l-39 6q13 69 70 69q24 0 55 -17.5t46 -17.5q32 0 39 34l39 -6q-6 -34 -25 -52t-46 -18q-23 0 -54 18t-46 18q-32 0 -39 -34z" />
    <glyph glyph-name="IJ.smcp" horiz-adv-x="533" 
d="M492 525v-41l-50 -9v-318q0 -161 -177 -161v47q49 0 76 28.5t27 79.5v333h-48v41h172zM215 525v-41l-50 -9v-435h49v-40h-172v40l49 10v434h-48v41h172z" />
    <glyph glyph-name="J.smcp" horiz-adv-x="453" 
d="M411 525v-41l-49 -9v-324q0 -72 -43 -113.5t-121 -41.5q-86 0 -147 42v97l48 4l7 -78q33 -18 79 -18q50 0 76.5 28.5t26.5 79.5v333h-49v41h172z" />
    <glyph glyph-name="Jcircumflex.smcp" horiz-adv-x="453" 
d="M411 525v-41l-49 -9v-324q0 -72 -43 -113.5t-121 -41.5q-86 0 -147 42v97l48 4l7 -78q33 -18 79 -18q50 0 76.5 28.5t26.5 79.5v333h-49v41h172zM223 548l-18 28l121 107l123 -112l-23 -21l-101 72z" />
    <glyph glyph-name="K.smcp" horiz-adv-x="545" 
d="M215 525v-41l-53 -7v-217l209 224h-54v41h179v-41l-59 -9l-149 -164l164 -262l58 -6l2 -37q-40 -9 -80 -9q-28 0 -46 32l-147 237l-77 -77v-149h54v-40h-180v40l55 10v434h-54v41h178z" />
    <glyph glyph-name="Kcommaaccent.smcp" horiz-adv-x="545" 
d="M215 525v-41l-53 -7v-217l209 224h-54v41h179v-41l-59 -9l-149 -164l164 -262l58 -6l2 -37q-40 -9 -80 -9q-28 0 -46 32l-147 237l-77 -77v-149h54v-40h-180v40l55 10v434h-54v41h178zM254 -54l47 12q7 -21 7 -43q0 -69 -63 -102l-15 21q33 27 33 74q0 20 -9 38z" />
    <glyph glyph-name="L.smcp" horiz-adv-x="469" 
d="M215 525v-41l-50 -9v-429h206l4 58l45 3v-107h-378v40l49 10v434h-48v41h172z" />
    <glyph glyph-name="Lacute.smcp" horiz-adv-x="469" 
d="M215 525v-41l-50 -9v-429h206l4 58l45 3v-107h-378v40l49 10v434h-48v41h172zM81 550l-16 28l135 100l28 -41z" />
    <glyph glyph-name="Lcaron.smcp" horiz-adv-x="469" 
d="M215 525v-41l-49 -9v-429h205l4 58l45 3v-107h-378v40l49 10v434h-48v41h172zM233 681l19 -27l-114 -100h-15l-116 104l24 23l99 -73z" />
    <glyph glyph-name="Lcommaaccent.smcp" horiz-adv-x="469" 
d="M215 525v-41l-50 -9v-429h206l4 58l45 3v-107h-378v40l49 10v434h-48v41h172zM223 -54l46 12q8 -20 8 -43q0 -68 -63 -102l-15 21q32 28 32 74q0 22 -8 38z" />
    <glyph glyph-name="Ldot.smcp" horiz-adv-x="469" 
d="M215 525v-41l-50 -9v-429h206l4 58l45 3v-107h-378v40l49 10v434h-48v41h172zM309 262q0 17 11 27.5t28 10.5t28 -11t11 -27t-11 -27t-28 -11t-28 10.5t-11 27.5z" />
    <glyph glyph-name="Lslash.smcp" horiz-adv-x="468" 
d="M45 179l-16 36l63 31v238h-49v41h173v-41l-51 -9v-192l64 32l16 -36l-80 -40v-193h207l3 58l45 3v-107h-378v40l50 10v152z" />
    <glyph glyph-name="M.smcp" horiz-adv-x="714" 
d="M543 525h131v-41l-52 -9v-435h51v-40h-171v40l52 10v369l-175 -307h-42l-176 307v-379h50v-40h-171v40l51 10v428l-48 6l-3 37q45 8 93 8q33 0 50 -30l175 -294z" />
    <glyph glyph-name="N.smcp" horiz-adv-x="590" 
d="M169 501l266 -375v358h-49v41h162v-41l-50 -9v-475h-64l-277 399v-359h48v-40h-163v40l50 10v428l-49 6l-3 37q43 8 83 8q28 0 46 -28z" />
    <glyph glyph-name="Nacute.smcp" horiz-adv-x="590" 
d="M169 501l266 -375v358h-49v41h162v-41l-50 -9v-475h-64l-277 399v-359h48v-40h-163v40l50 10v428l-49 6l-3 37q43 8 83 8q28 0 46 -28zM246 550l-16 28l135 100l28 -41z" />
    <glyph glyph-name="Ncaron.smcp" horiz-adv-x="590" 
d="M169 501l266 -375v358h-49v41h162v-41l-50 -9v-475h-64l-277 399v-359h48v-40h-163v40l50 10v428l-49 6l-3 37q43 8 83 8q28 0 46 -28zM399 681l18 -27l-113 -100h-16l-115 104l24 23l99 -73z" />
    <glyph glyph-name="Ncommaaccent.smcp" horiz-adv-x="590" 
d="M169 501l266 -375v358h-49v41h162v-41l-50 -9v-475h-64l-277 399v-359h48v-40h-163v40l50 10v428l-49 6l-3 37q43 8 83 8q28 0 46 -28zM276 -54l47 12q7 -21 7 -43q0 -69 -63 -102l-15 21q32 26 32 74q0 22 -8 38z" />
    <glyph glyph-name="Ntilde.smcp" horiz-adv-x="590" 
d="M169 501l266 -375v358h-49v41h162v-41l-50 -9v-475h-64l-277 399v-359h48v-40h-163v40l50 10v428l-49 6l-3 37q43 8 83 8q28 0 46 -28zM209 561l-38 6q6 35 24.5 52t45.5 17q23 0 54 -17.5t46 -17.5q31 0 40 34l38 -6q-5 -34 -24 -52t-46 -18q-23 0 -54 18t-46 18
q-32 0 -40 -34z" />
    <glyph glyph-name="Eng.smcp" horiz-adv-x="590" 
d="M435 484h-49v41h162v-41l-50 -9v-527q0 -65 -38.5 -102.5t-110.5 -37.5q-80 0 -140 43v97l48 4l7 -78q32 -18 73 -18q43 0 65.5 24t22.5 68v68l-268 383v-359h48v-40h-163v40l50 10v428l-49 6l-3 37q43 8 81 8q30 0 48 -28l266 -375v358z" />
    <glyph glyph-name="O.smcp" horiz-adv-x="576" 
d="M55 263q0 123 63 194.5t170 71.5t170 -71.5t63 -194.5q0 -124 -63 -195.5t-170 -71.5t-170 72t-63 195zM129 263q0 -102 42.5 -161t116.5 -59t117 59t43 161q0 101 -43 160t-117 59t-116.5 -59t-42.5 -160z" />
    <glyph glyph-name="Oacute.smcp" horiz-adv-x="576" 
d="M55 263q0 123 63 194.5t170 71.5t170 -71.5t63 -194.5q0 -124 -63 -195.5t-170 -71.5t-170 72t-63 195zM129 263q0 -102 42.5 -161t116.5 -59t117 59t43 161q0 101 -43 160t-117 59t-116.5 -59t-42.5 -160zM239 550l-16 28l135 100l27 -41z" />
    <glyph glyph-name="Obreve.smcp" horiz-adv-x="576" 
d="M55 263q0 123 63 194.5t170 71.5t170 -71.5t63 -194.5q0 -124 -63 -195.5t-170 -71.5t-170 72t-63 195zM129 263q0 -102 42.5 -161t116.5 -59t117 59t43 161q0 101 -43 160t-117 59t-116.5 -59t-42.5 -160zM350 641l53 -9q-17 -78 -115 -78q-100 0 -115 78l53 9
q12 -45 63 -45q49 0 61 45z" />
    <glyph glyph-name="Ocircumflex.smcp" horiz-adv-x="576" 
d="M55 263q0 123 63 194.5t170 71.5t170 -71.5t63 -194.5q0 -124 -63 -195.5t-170 -71.5t-170 72t-63 195zM129 263q0 -102 42.5 -161t116.5 -59t117 59t43 161q0 101 -43 160t-117 59t-116.5 -59t-42.5 -160zM184 548l-18 28l121 107l123 -112l-23 -21l-101 72z" />
    <glyph glyph-name="Odieresis.smcp" horiz-adv-x="576" 
d="M55 263q0 123 63 194.5t170 71.5t170 -71.5t63 -194.5q0 -124 -63 -195.5t-170 -71.5t-170 72t-63 195zM129 263q0 -102 42.5 -161t116.5 -59t117 59t43 161q0 101 -43 160t-117 59t-116.5 -59t-42.5 -160zM176 592q0 16 10.5 26.5t26.5 10.5q17 0 28 -10.5t11 -26.5
q0 -15 -11.5 -25.5t-27.5 -10.5t-26.5 10.5t-10.5 25.5zM325 592q0 16 10.5 26.5t26.5 10.5q17 0 28 -10.5t11 -26.5q0 -15 -11.5 -25.5t-27.5 -10.5t-26.5 10.5t-10.5 25.5z" />
    <glyph glyph-name="Ograve.smcp" horiz-adv-x="576" 
d="M55 263q0 123 63 194.5t170 71.5t170 -71.5t63 -194.5q0 -124 -63 -195.5t-170 -71.5t-170 72t-63 195zM129 263q0 -102 42.5 -161t116.5 -59t117 59t43 161q0 101 -43 160t-117 59t-116.5 -59t-42.5 -160zM187 638l35 37l134 -100l-21 -24z" />
    <glyph glyph-name="Ohungarumlaut.smcp" horiz-adv-x="576" 
d="M55 263q0 123 63 194.5t170 71.5t170 -71.5t63 -194.5q0 -124 -63 -195.5t-170 -71.5t-170 72t-63 195zM129 263q0 -102 42.5 -161t116.5 -59t117 59t43 161q0 101 -43 160t-117 59t-116.5 -59t-42.5 -160zM184 545l-20 26l110 115l34 -37zM320 545l-20 26l110 115
l34 -37z" />
    <glyph glyph-name="Omacron.smcp" horiz-adv-x="576" 
d="M55 263q0 123 63 194.5t170 71.5t170 -71.5t63 -194.5q0 -124 -63 -195.5t-170 -71.5t-170 72t-63 195zM129 263q0 -102 42.5 -161t116.5 -59t117 59t43 161q0 101 -43 160t-117 59t-116.5 -59t-42.5 -160zM188 579l3 40h197l-4 -40h-196z" />
    <glyph glyph-name="Oslash.smcp" horiz-adv-x="576" 
d="M144 -9l-35 18l26 42q-80 72 -80 212q0 123 63 194.5t170 71.5q70 0 122 -32l22 36l36 -16l-27 -43q80 -72 80 -211q0 -124 -63 -195.5t-170 -71.5q-69 0 -122 31zM127 263q0 -101 41 -159l213 347q-38 32 -93 32q-75 0 -118 -59t-43 -161zM449 263q0 97 -41 157
l-213 -346q38 -32 93 -32q75 0 118 59t43 162z" />
    <glyph glyph-name="Oslashacute.smcp" horiz-adv-x="576" 
d="M144 -9l-35 18l26 42q-80 72 -80 212q0 123 63 194.5t170 71.5q70 0 122 -32l22 36l36 -16l-27 -43q80 -72 80 -211q0 -124 -63 -195.5t-170 -71.5q-69 0 -122 31zM127 263q0 -101 41 -159l213 347q-38 32 -93 32q-75 0 -118 -59t-43 -161zM449 263q0 97 -41 157
l-213 -346q38 -32 93 -32q75 0 118 59t43 162zM239 550l-16 28l135 100l27 -41z" />
    <glyph glyph-name="Otilde.smcp" horiz-adv-x="576" 
d="M55 263q0 123 63 194.5t170 71.5t170 -71.5t63 -194.5q0 -124 -63 -195.5t-170 -71.5t-170 72t-63 195zM129 263q0 -102 42.5 -161t116.5 -59t117 59t43 161q0 101 -43 160t-117 59t-116.5 -59t-42.5 -160zM203 561l-39 6q12 69 70 69q23 0 54 -17.5t47 -17.5q31 0 38 34
l39 -6q-6 -34 -25 -52t-45 -18q-23 0 -54 18t-47 18q-33 0 -38 -34z" />
    <glyph glyph-name="OE.smcp" horiz-adv-x="789" 
d="M741 0h-342v29q-49 -33 -119 -33q-103 0 -164 72t-61 195t61 194.5t164 71.5q67 0 119 -33v29h339v-104l-44 -3l-5 62h-215v-188h161l4 41l43 3v-130l-43 -4l-5 44h-160v-200h218l4 58l45 3v-107zM399 121v281q-38 80 -112 80q-73 0 -115.5 -59t-42.5 -160
q0 -102 42.5 -161t115.5 -59q75 0 112 78z" />
    <glyph glyph-name="P.smcp" horiz-adv-x="488" 
d="M42 0v40l49 10v434h-48v41h213q84 0 134 -39.5t50 -107.5t-50 -107.5t-134 -39.5h-91v-191h67v-40h-190zM256 480h-91v-204h91q50 0 80 27.5t30 74.5t-30 74.5t-80 27.5z" />
    <glyph glyph-name="Q.smcp" horiz-adv-x="580" 
d="M55 263q0 123 63.5 194.5t171.5 71.5t171.5 -71.5t63.5 -194.5q0 -114 -55 -184.5t-149 -80.5q8 -76 98 -76q51 0 86 22l20 -37q-47 -32 -120 -32q-70 0 -108.5 32t-42.5 91q-93 11 -146 81.5t-53 183.5zM129 263q0 -102 43 -161t118 -59q74 0 117.5 59t43.5 161
q0 101 -43.5 160t-117.5 59q-75 0 -118 -59t-43 -160z" />
    <glyph glyph-name="R.smcp" horiz-adv-x="514" 
d="M42 0v40l49 10v434h-48v41h213q84 0 134 -38.5t50 -106.5q0 -53 -30.5 -88.5t-84.5 -49.5l97 -193l58 -6l2 -37q-40 -9 -80 -9q-31 0 -46 32l-97 205h-94v-194h49v-40h-172zM256 480h-91v-201h91q51 0 80.5 26.5t29.5 74.5q0 47 -29.5 73.5t-80.5 26.5z" />
    <glyph glyph-name="Racute.smcp" horiz-adv-x="514" 
d="M42 0v40l49 10v434h-48v41h213q84 0 134 -38.5t50 -106.5q0 -53 -30.5 -88.5t-84.5 -49.5l97 -193l58 -6l2 -37q-40 -9 -80 -9q-31 0 -46 32l-97 205h-94v-194h49v-40h-172zM256 480h-91v-201h91q51 0 80.5 26.5t29.5 74.5q0 47 -29.5 73.5t-80.5 26.5zM208 550l-16 28
l136 100l26 -41z" />
    <glyph glyph-name="Rcaron.smcp" horiz-adv-x="514" 
d="M42 0v40l49 10v434h-48v41h213q84 0 134 -38.5t50 -106.5q0 -53 -30.5 -88.5t-84.5 -49.5l97 -193l58 -6l2 -37q-40 -9 -80 -9q-31 0 -46 32l-97 205h-94v-194h49v-40h-172zM256 480h-91v-201h91q51 0 80.5 26.5t29.5 74.5q0 47 -29.5 73.5t-80.5 26.5zM357 681l18 -27
l-114 -100h-15l-115 104l23 23l100 -73z" />
    <glyph glyph-name="Rcommaaccent.smcp" horiz-adv-x="514" 
d="M42 0v40l49 10v434h-48v41h213q84 0 134 -38.5t50 -106.5q0 -53 -30.5 -88.5t-84.5 -49.5l97 -193l58 -6l2 -37q-40 -9 -80 -9q-31 0 -46 32l-97 205h-94v-194h49v-40h-172zM256 480h-91v-201h91q51 0 80.5 26.5t29.5 74.5q0 47 -29.5 73.5t-80.5 26.5zM240 -54l46 12
q8 -20 8 -43q0 -69 -64 -102l-15 21q33 27 33 74q0 22 -8 38z" />
    <glyph glyph-name="S.smcp" horiz-adv-x="446" 
d="M128 401q0 -36 27 -59.5t66 -38t78 -31.5t66 -50t27 -83q0 -65 -45 -104t-133 -39q-92 0 -163 39v104l44 3l6 -74q46 -25 102 -25q55 0 84 25.5t29 64.5q0 31 -19 53t-48 34t-62.5 26.5t-62.5 30t-48 45.5t-19 71q0 63 41.5 99.5t121.5 36.5q85 0 146 -35v-104l-44 -3
l-7 76q-38 19 -89 19q-48 0 -73 -23t-25 -58z" />
    <glyph glyph-name="Sacute.smcp" horiz-adv-x="446" 
d="M128 401q0 -36 27 -59.5t66 -38t78 -31.5t66 -50t27 -83q0 -65 -45 -104t-133 -39q-92 0 -163 39v104l44 3l6 -74q46 -25 102 -25q55 0 84 25.5t29 64.5q0 31 -19 53t-48 34t-62.5 26.5t-62.5 30t-48 45.5t-19 71q0 63 41.5 99.5t121.5 36.5q85 0 146 -35v-104l-44 -3
l-7 76q-38 19 -89 19q-48 0 -73 -23t-25 -58zM177 550l-16 28l136 100l26 -41z" />
    <glyph glyph-name="Scaron.smcp" horiz-adv-x="446" 
d="M128 401q0 -36 27 -59.5t66 -38t78 -31.5t66 -50t27 -83q0 -65 -45 -104t-133 -39q-92 0 -163 39v104l44 3l6 -74q46 -25 102 -25q55 0 84 25.5t29 64.5q0 31 -19 53t-48 34t-62.5 26.5t-62.5 30t-48 45.5t-19 71q0 63 41.5 99.5t121.5 36.5q85 0 146 -35v-104l-44 -3
l-7 76q-38 19 -89 19q-48 0 -73 -23t-25 -58zM323 681l19 -27l-114 -100h-15l-116 104l23 23l100 -73z" />
    <glyph glyph-name="Scedilla.smcp" horiz-adv-x="446" 
d="M128 401q0 -36 27 -59.5t66 -38t78 -31.5t66 -50t27 -83q0 -62 -41 -100.5t-121 -41.5q1 -20 21 -43t20 -45q0 -58 -87 -66l-8 43q50 9 50 38q0 12 -16 31t-17 42q-80 3 -142 38v104l44 3l6 -74q46 -25 102 -25q55 0 84 25.5t29 64.5q0 31 -19 53t-48 34t-62.5 26.5
t-62.5 30t-48 45.5t-19 71q0 63 41.5 99.5t121.5 36.5q85 0 146 -35v-104l-44 -3l-7 76q-38 19 -89 19q-48 0 -73 -23t-25 -58z" />
    <glyph glyph-name="Scircumflex.smcp" horiz-adv-x="446" 
d="M128 401q0 -36 27 -59.5t66 -38t78 -31.5t66 -50t27 -83q0 -65 -45 -104t-133 -39q-92 0 -163 39v104l44 3l6 -74q46 -25 102 -25q55 0 84 25.5t29 64.5q0 31 -19 53t-48 34t-62.5 26.5t-62.5 30t-48 45.5t-19 71q0 63 41.5 99.5t121.5 36.5q85 0 146 -35v-104l-44 -3
l-7 76q-38 19 -89 19q-48 0 -73 -23t-25 -58zM119 548l-18 28l121 107l123 -112l-23 -21l-100 72z" />
    <glyph glyph-name="Scommaaccent.smcp" horiz-adv-x="446" 
d="M128 401q0 -36 27 -59.5t66 -38t78 -31.5t66 -50t27 -83q0 -65 -45 -104t-133 -39q-92 0 -163 39v104l44 3l6 -74q46 -25 102 -25q55 0 84 25.5t29 64.5q0 31 -19 53t-48 34t-62.5 26.5t-62.5 30t-48 45.5t-19 71q0 63 41.5 99.5t121.5 36.5q85 0 146 -35v-104l-44 -3
l-7 76q-38 19 -89 19q-48 0 -73 -23t-25 -58zM195 -54l47 12q7 -21 7 -43q0 -69 -64 -102l-14 21q32 28 32 74q0 22 -8 38z" />
    <glyph glyph-name="T.smcp" horiz-adv-x="529" 
d="M436 418l-5 62h-130v-440h49v-40h-172v40l49 10v430h-130l-4 -59l-45 -3v107h432v-104z" />
    <glyph glyph-name="Tbar.smcp" horiz-adv-x="529" 
d="M111 261l4 39h112v180h-130l-4 -59l-45 -3v107h432v-104l-44 -3l-5 62h-130v-180h117l-4 -39h-113v-221h49v-40h-172v40l49 10v211h-116z" />
    <glyph glyph-name="Tcaron.smcp" horiz-adv-x="529" 
d="M436 418l-5 62h-130v-440h49v-40h-172v40l49 10v430h-130l-4 -59l-45 -3v107h432v-104zM368 681l18 -27l-114 -100h-15l-115 104l23 23l100 -73z" />
    <glyph glyph-name="Tcommaaccent.smcp" horiz-adv-x="529" 
d="M436 418l-5 62h-130v-440h49v-40h-172v40l49 10v430h-130l-4 -59l-45 -3v107h432v-104zM245 -54l47 12q7 -21 7 -43q0 -69 -63 -102l-15 21q32 26 32 74q0 22 -8 38z" />
    <glyph glyph-name="uni021A.smcp" horiz-adv-x="529" 
d="M436 418l-5 62h-130v-440h49v-40h-172v40l49 10v430h-130l-4 -59l-45 -3v107h432v-104zM245 -54l47 12q7 -21 7 -43q0 -69 -63 -102l-15 21q32 26 32 74q0 22 -8 38z" />
    <glyph glyph-name="U.smcp" horiz-adv-x="602" 
d="M165 475v-282q0 -69 37 -109.5t99 -40.5q64 0 100 40t36 110v291h-49v41h173v-41l-50 -9v-282q0 -91 -56.5 -144t-153.5 -53q-96 0 -153 53t-57 144v291h-48v41h173v-41z" />
    </font>
</defs>
</svg>
