<svg xmlns="http://www.w3.org/2000/svg" version="1.1" x="0" y="0" viewBox="0 0 256 256" xml:space="preserve"><path d="M143.5 98.3c4.1 5.9 6.1 13.2 6.1 21.7 0 8.3-2.1 15.8-6.2 22.7 -4.1 6.8-9.9 12.3-17.3 16.3 -7.4 4-15.7 6-24.9 6H19.1V16.3h79.3c9.1 0 17.1 1.7 24.1 5.2 6.9 3.4 12.3 8.2 16.1 14.2 3.8 6 5.7 12.7 5.7 20.2 0 6.7-1.6 12.6-4.8 17.8 -3.2 5.2-7.5 9.2-12.9 12C133.8 88.1 139.4 92.4 143.5 98.3zM108.2 71.4c3.6-3.1 5.4-7.1 5.4-11.9 0-4.8-1.8-8.8-5.4-11.9 -3.6-3.2-8.5-4.7-14.7-4.7H50.2v33.3h43.2C99.6 76.1 104.5 74.5 108.2 71.4zM111.7 133.4c4-3.6 6-8 6-13.4 0-5.4-2-9.8-6-13.4 -4-3.6-9.4-5.3-16.2-5.3H50.2v37.5h45.3C102.3 138.8 107.7 137 111.7 133.4zM187 117.5c-9.1 0-17.4 2.2-24.9 6.6 -7.5 4.4-13.4 10.3-17.8 17.8 -4.3 7.5-6.5 15.6-6.5 24.3s2.2 16.9 6.5 24.3c4.3 7.5 10.2 13.4 17.8 17.8 7.5 4.4 15.8 6.6 24.9 6.6 16.2 0 31.2-6 45-17.9V231c-11.5 8.5-26.5 12.8-45 12.8 -14.9 0-28.6-3.5-40.9-10.4 -12.3-6.9-22-16.4-29.2-28.3 -7.2-11.9-10.8-24.9-10.8-39 0-14.1 3.6-27.1 10.8-39 7.2-11.9 16.9-21.3 29.2-28.3 12.3-6.9 25.9-10.4 40.9-10.4 18.4 0 33.7 4.4 45.7 13.3l-0.5 33.8C218.4 123.5 203.3 117.5 187 117.5z"></path></svg>